<?xml version="1.0" encoding="utf-8" standalone="no"?>
<!DOCTYPE svg PUBLIC "-//W3C//DTD SVG 1.1//EN"
  "http://www.w3.org/Graphics/SVG/1.1/DTD/svg11.dtd">
<svg xmlns:xlink="http://www.w3.org/1999/xlink" width="288pt" height="216pt" viewBox="0 0 288 216" xmlns="http://www.w3.org/2000/svg" version="1.1">
 <metadata>
  <rdf:RDF xmlns:dc="http://purl.org/dc/elements/1.1/" xmlns:cc="http://creativecommons.org/ns#" xmlns:rdf="http://www.w3.org/1999/02/22-rdf-syntax-ns#">
   <cc:Work>
    <dc:type rdf:resource="http://purl.org/dc/dcmitype/StillImage"/>
    <dc:date>2023-04-12T13:09:09.181134</dc:date>
    <dc:format>image/svg+xml</dc:format>
    <dc:creator>
     <cc:Agent>
      <dc:title>Matplotlib v3.5.3, https://matplotlib.org/</dc:title>
     </cc:Agent>
    </dc:creator>
   </cc:Work>
  </rdf:RDF>
 </metadata>
 <defs>
  <style type="text/css">*{stroke-linejoin: round; stroke-linecap: butt}</style>
 </defs>
 <g id="figure_1">
  <g id="patch_1">
   <path d="M 0 216 
L 288 216 
L 288 0 
L 0 0 
z
" style="fill: #ffffff"/>
  </g>
  <g id="axes_1">
   <g id="patch_2">
    <path d="M 59.42 174.04 
L 277.2 174.04 
L 277.2 25.44 
L 59.42 25.44 
z
" style="fill: #ffffff"/>
   </g>
   <g id="patch_3">
    <path d="M 178.232502 174.04 
L 178.232502 25.44 
L 231.28457 25.44 
L 231.28457 174.04 
z
" clip-path="url(#p2f091467bb)" style="opacity: 0.2; stroke: #000000; stroke-linejoin: miter"/>
   </g>
   <g id="matplotlib.axis_1">
    <g id="xtick_1">
     <g id="line2d_1">
      <defs>
       <path id="mf57c8c5462" d="M 0 0 
L 0 3.5 
" style="stroke: #000000; stroke-width: 0.8"/>
      </defs>
      <g>
       <use xlink:href="#mf57c8c5462" x="81.204483" y="174.04" style="stroke: #000000; stroke-width: 0.8"/>
      </g>
     </g>
     <g id="text_1">
      <!-- 4 -->
      <g transform="translate(78.023233 188.638438)scale(0.1 -0.1)">
       <defs>
        <path id="DejaVuSans-34" d="M 2419 4116 
L 825 1625 
L 2419 1625 
L 2419 4116 
z
M 2253 4666 
L 3047 4666 
L 3047 1625 
L 3713 1625 
L 3713 1100 
L 3047 1100 
L 3047 0 
L 2419 0 
L 2419 1100 
L 313 1100 
L 313 1709 
L 2253 4666 
z
" transform="scale(0.015625)"/>
       </defs>
       <use xlink:href="#DejaVuSans-34"/>
      </g>
     </g>
    </g>
    <g id="xtick_2">
     <g id="line2d_2">
      <g>
       <use xlink:href="#mf57c8c5462" x="117.220822" y="174.04" style="stroke: #000000; stroke-width: 0.8"/>
      </g>
     </g>
     <g id="text_2">
      <!-- 5 -->
      <g transform="translate(114.039572 188.638438)scale(0.1 -0.1)">
       <defs>
        <path id="DejaVuSans-35" d="M 691 4666 
L 3169 4666 
L 3169 4134 
L 1269 4134 
L 1269 2991 
Q 1406 3038 1543 3061 
Q 1681 3084 1819 3084 
Q 2600 3084 3056 2656 
Q 3513 2228 3513 1497 
Q 3513 744 3044 326 
Q 2575 -91 1722 -91 
Q 1428 -91 1123 -41 
Q 819 9 494 109 
L 494 744 
Q 775 591 1075 516 
Q 1375 441 1709 441 
Q 2250 441 2565 725 
Q 2881 1009 2881 1497 
Q 2881 1984 2565 2268 
Q 2250 2553 1709 2553 
Q 1456 2553 1204 2497 
Q 953 2441 691 2322 
L 691 4666 
z
" transform="scale(0.015625)"/>
       </defs>
       <use xlink:href="#DejaVuSans-35"/>
      </g>
     </g>
    </g>
    <g id="xtick_3">
     <g id="line2d_3">
      <g>
       <use xlink:href="#mf57c8c5462" x="153.237162" y="174.04" style="stroke: #000000; stroke-width: 0.8"/>
      </g>
     </g>
     <g id="text_3">
      <!-- 6 -->
      <g transform="translate(150.055912 188.638438)scale(0.1 -0.1)">
       <defs>
        <path id="DejaVuSans-36" d="M 2113 2584 
Q 1688 2584 1439 2293 
Q 1191 2003 1191 1497 
Q 1191 994 1439 701 
Q 1688 409 2113 409 
Q 2538 409 2786 701 
Q 3034 994 3034 1497 
Q 3034 2003 2786 2293 
Q 2538 2584 2113 2584 
z
M 3366 4563 
L 3366 3988 
Q 3128 4100 2886 4159 
Q 2644 4219 2406 4219 
Q 1781 4219 1451 3797 
Q 1122 3375 1075 2522 
Q 1259 2794 1537 2939 
Q 1816 3084 2150 3084 
Q 2853 3084 3261 2657 
Q 3669 2231 3669 1497 
Q 3669 778 3244 343 
Q 2819 -91 2113 -91 
Q 1303 -91 875 529 
Q 447 1150 447 2328 
Q 447 3434 972 4092 
Q 1497 4750 2381 4750 
Q 2619 4750 2861 4703 
Q 3103 4656 3366 4563 
z
" transform="scale(0.015625)"/>
       </defs>
       <use xlink:href="#DejaVuSans-36"/>
      </g>
     </g>
    </g>
    <g id="xtick_4">
     <g id="line2d_4">
      <g>
       <use xlink:href="#mf57c8c5462" x="189.253501" y="174.04" style="stroke: #000000; stroke-width: 0.8"/>
      </g>
     </g>
     <g id="text_4">
      <!-- 7 -->
      <g transform="translate(186.072251 188.638438)scale(0.1 -0.1)">
       <defs>
        <path id="DejaVuSans-37" d="M 525 4666 
L 3525 4666 
L 3525 4397 
L 1831 0 
L 1172 0 
L 2766 4134 
L 525 4134 
L 525 4666 
z
" transform="scale(0.015625)"/>
       </defs>
       <use xlink:href="#DejaVuSans-37"/>
      </g>
     </g>
    </g>
    <g id="xtick_5">
     <g id="line2d_5">
      <g>
       <use xlink:href="#mf57c8c5462" x="225.269841" y="174.04" style="stroke: #000000; stroke-width: 0.8"/>
      </g>
     </g>
     <g id="text_5">
      <!-- 8 -->
      <g transform="translate(222.088591 188.638438)scale(0.1 -0.1)">
       <defs>
        <path id="DejaVuSans-38" d="M 2034 2216 
Q 1584 2216 1326 1975 
Q 1069 1734 1069 1313 
Q 1069 891 1326 650 
Q 1584 409 2034 409 
Q 2484 409 2743 651 
Q 3003 894 3003 1313 
Q 3003 1734 2745 1975 
Q 2488 2216 2034 2216 
z
M 1403 2484 
Q 997 2584 770 2862 
Q 544 3141 544 3541 
Q 544 4100 942 4425 
Q 1341 4750 2034 4750 
Q 2731 4750 3128 4425 
Q 3525 4100 3525 3541 
Q 3525 3141 3298 2862 
Q 3072 2584 2669 2484 
Q 3125 2378 3379 2068 
Q 3634 1759 3634 1313 
Q 3634 634 3220 271 
Q 2806 -91 2034 -91 
Q 1263 -91 848 271 
Q 434 634 434 1313 
Q 434 1759 690 2068 
Q 947 2378 1403 2484 
z
M 1172 3481 
Q 1172 3119 1398 2916 
Q 1625 2713 2034 2713 
Q 2441 2713 2670 2916 
Q 2900 3119 2900 3481 
Q 2900 3844 2670 4047 
Q 2441 4250 2034 4250 
Q 1625 4250 1398 4047 
Q 1172 3844 1172 3481 
z
" transform="scale(0.015625)"/>
       </defs>
       <use xlink:href="#DejaVuSans-38"/>
      </g>
     </g>
    </g>
    <g id="xtick_6">
     <g id="line2d_6">
      <g>
       <use xlink:href="#mf57c8c5462" x="261.28618" y="174.04" style="stroke: #000000; stroke-width: 0.8"/>
      </g>
     </g>
     <g id="text_6">
      <!-- 9 -->
      <g transform="translate(258.10493 188.638438)scale(0.1 -0.1)">
       <defs>
        <path id="DejaVuSans-39" d="M 703 97 
L 703 672 
Q 941 559 1184 500 
Q 1428 441 1663 441 
Q 2288 441 2617 861 
Q 2947 1281 2994 2138 
Q 2813 1869 2534 1725 
Q 2256 1581 1919 1581 
Q 1219 1581 811 2004 
Q 403 2428 403 3163 
Q 403 3881 828 4315 
Q 1253 4750 1959 4750 
Q 2769 4750 3195 4129 
Q 3622 3509 3622 2328 
Q 3622 1225 3098 567 
Q 2575 -91 1691 -91 
Q 1453 -91 1209 -44 
Q 966 3 703 97 
z
M 1959 2075 
Q 2384 2075 2632 2365 
Q 2881 2656 2881 3163 
Q 2881 3666 2632 3958 
Q 2384 4250 1959 4250 
Q 1534 4250 1286 3958 
Q 1038 3666 1038 3163 
Q 1038 2656 1286 2365 
Q 1534 2075 1959 2075 
z
" transform="scale(0.015625)"/>
       </defs>
       <use xlink:href="#DejaVuSans-39"/>
      </g>
     </g>
    </g>
    <g id="text_7">
     <!-- Time (s) -->
     <g transform="translate(147.981094 202.316563)scale(0.1 -0.1)">
      <defs>
       <path id="DejaVuSans-54" d="M -19 4666 
L 3928 4666 
L 3928 4134 
L 2272 4134 
L 2272 0 
L 1638 0 
L 1638 4134 
L -19 4134 
L -19 4666 
z
" transform="scale(0.015625)"/>
       <path id="DejaVuSans-69" d="M 603 3500 
L 1178 3500 
L 1178 0 
L 603 0 
L 603 3500 
z
M 603 4863 
L 1178 4863 
L 1178 4134 
L 603 4134 
L 603 4863 
z
" transform="scale(0.015625)"/>
       <path id="DejaVuSans-6d" d="M 3328 2828 
Q 3544 3216 3844 3400 
Q 4144 3584 4550 3584 
Q 5097 3584 5394 3201 
Q 5691 2819 5691 2113 
L 5691 0 
L 5113 0 
L 5113 2094 
Q 5113 2597 4934 2840 
Q 4756 3084 4391 3084 
Q 3944 3084 3684 2787 
Q 3425 2491 3425 1978 
L 3425 0 
L 2847 0 
L 2847 2094 
Q 2847 2600 2669 2842 
Q 2491 3084 2119 3084 
Q 1678 3084 1418 2786 
Q 1159 2488 1159 1978 
L 1159 0 
L 581 0 
L 581 3500 
L 1159 3500 
L 1159 2956 
Q 1356 3278 1631 3431 
Q 1906 3584 2284 3584 
Q 2666 3584 2933 3390 
Q 3200 3197 3328 2828 
z
" transform="scale(0.015625)"/>
       <path id="DejaVuSans-65" d="M 3597 1894 
L 3597 1613 
L 953 1613 
Q 991 1019 1311 708 
Q 1631 397 2203 397 
Q 2534 397 2845 478 
Q 3156 559 3463 722 
L 3463 178 
Q 3153 47 2828 -22 
Q 2503 -91 2169 -91 
Q 1331 -91 842 396 
Q 353 884 353 1716 
Q 353 2575 817 3079 
Q 1281 3584 2069 3584 
Q 2775 3584 3186 3129 
Q 3597 2675 3597 1894 
z
M 3022 2063 
Q 3016 2534 2758 2815 
Q 2500 3097 2075 3097 
Q 1594 3097 1305 2825 
Q 1016 2553 972 2059 
L 3022 2063 
z
" transform="scale(0.015625)"/>
       <path id="DejaVuSans-20" transform="scale(0.015625)"/>
       <path id="DejaVuSans-28" d="M 1984 4856 
Q 1566 4138 1362 3434 
Q 1159 2731 1159 2009 
Q 1159 1288 1364 580 
Q 1569 -128 1984 -844 
L 1484 -844 
Q 1016 -109 783 600 
Q 550 1309 550 2009 
Q 550 2706 781 3412 
Q 1013 4119 1484 4856 
L 1984 4856 
z
" transform="scale(0.015625)"/>
       <path id="DejaVuSans-73" d="M 2834 3397 
L 2834 2853 
Q 2591 2978 2328 3040 
Q 2066 3103 1784 3103 
Q 1356 3103 1142 2972 
Q 928 2841 928 2578 
Q 928 2378 1081 2264 
Q 1234 2150 1697 2047 
L 1894 2003 
Q 2506 1872 2764 1633 
Q 3022 1394 3022 966 
Q 3022 478 2636 193 
Q 2250 -91 1575 -91 
Q 1294 -91 989 -36 
Q 684 19 347 128 
L 347 722 
Q 666 556 975 473 
Q 1284 391 1588 391 
Q 1994 391 2212 530 
Q 2431 669 2431 922 
Q 2431 1156 2273 1281 
Q 2116 1406 1581 1522 
L 1381 1569 
Q 847 1681 609 1914 
Q 372 2147 372 2553 
Q 372 3047 722 3315 
Q 1072 3584 1716 3584 
Q 2034 3584 2315 3537 
Q 2597 3491 2834 3397 
z
" transform="scale(0.015625)"/>
       <path id="DejaVuSans-29" d="M 513 4856 
L 1013 4856 
Q 1481 4119 1714 3412 
Q 1947 2706 1947 2009 
Q 1947 1309 1714 600 
Q 1481 -109 1013 -844 
L 513 -844 
Q 928 -128 1133 580 
Q 1338 1288 1338 2009 
Q 1338 2731 1133 3434 
Q 928 4138 513 4856 
z
" transform="scale(0.015625)"/>
      </defs>
      <use xlink:href="#DejaVuSans-54"/>
      <use xlink:href="#DejaVuSans-69" x="57.958984"/>
      <use xlink:href="#DejaVuSans-6d" x="85.742188"/>
      <use xlink:href="#DejaVuSans-65" x="183.154297"/>
      <use xlink:href="#DejaVuSans-20" x="244.677734"/>
      <use xlink:href="#DejaVuSans-28" x="276.464844"/>
      <use xlink:href="#DejaVuSans-73" x="315.478516"/>
      <use xlink:href="#DejaVuSans-29" x="367.578125"/>
     </g>
    </g>
   </g>
   <g id="matplotlib.axis_2">
    <g id="ytick_1">
     <g id="line2d_7">
      <defs>
       <path id="mf21cb4de8f" d="M 0 0 
L -3.5 0 
" style="stroke: #000000; stroke-width: 0.8"/>
      </defs>
      <g>
       <use xlink:href="#mf21cb4de8f" x="59.42" y="139.456116" style="stroke: #000000; stroke-width: 0.8"/>
      </g>
     </g>
     <g id="text_8">
      <!-- −500 -->
      <g transform="translate(24.952813 143.255335)scale(0.1 -0.1)">
       <defs>
        <path id="DejaVuSans-2212" d="M 678 2272 
L 4684 2272 
L 4684 1741 
L 678 1741 
L 678 2272 
z
" transform="scale(0.015625)"/>
        <path id="DejaVuSans-30" d="M 2034 4250 
Q 1547 4250 1301 3770 
Q 1056 3291 1056 2328 
Q 1056 1369 1301 889 
Q 1547 409 2034 409 
Q 2525 409 2770 889 
Q 3016 1369 3016 2328 
Q 3016 3291 2770 3770 
Q 2525 4250 2034 4250 
z
M 2034 4750 
Q 2819 4750 3233 4129 
Q 3647 3509 3647 2328 
Q 3647 1150 3233 529 
Q 2819 -91 2034 -91 
Q 1250 -91 836 529 
Q 422 1150 422 2328 
Q 422 3509 836 4129 
Q 1250 4750 2034 4750 
z
" transform="scale(0.015625)"/>
       </defs>
       <use xlink:href="#DejaVuSans-2212"/>
       <use xlink:href="#DejaVuSans-35" x="83.789062"/>
       <use xlink:href="#DejaVuSans-30" x="147.412109"/>
       <use xlink:href="#DejaVuSans-30" x="211.035156"/>
      </g>
     </g>
    </g>
    <g id="ytick_2">
     <g id="line2d_8">
      <g>
       <use xlink:href="#mf21cb4de8f" x="59.42" y="102.722629" style="stroke: #000000; stroke-width: 0.8"/>
      </g>
     </g>
     <g id="text_9">
      <!-- 0 -->
      <g transform="translate(46.0575 106.521847)scale(0.1 -0.1)">
       <use xlink:href="#DejaVuSans-30"/>
      </g>
     </g>
    </g>
    <g id="ytick_3">
     <g id="line2d_9">
      <g>
       <use xlink:href="#mf21cb4de8f" x="59.42" y="65.989141" style="stroke: #000000; stroke-width: 0.8"/>
      </g>
     </g>
     <g id="text_10">
      <!-- 500 -->
      <g transform="translate(33.3325 69.788359)scale(0.1 -0.1)">
       <use xlink:href="#DejaVuSans-35"/>
       <use xlink:href="#DejaVuSans-30" x="63.623047"/>
       <use xlink:href="#DejaVuSans-30" x="127.246094"/>
      </g>
     </g>
    </g>
    <g id="ytick_4">
     <g id="line2d_10">
      <g>
       <use xlink:href="#mf21cb4de8f" x="59.42" y="29.255653" style="stroke: #000000; stroke-width: 0.8"/>
      </g>
     </g>
     <g id="text_11">
      <!-- 1000 -->
      <g transform="translate(26.97 33.054872)scale(0.1 -0.1)">
       <defs>
        <path id="DejaVuSans-31" d="M 794 531 
L 1825 531 
L 1825 4091 
L 703 3866 
L 703 4441 
L 1819 4666 
L 2450 4666 
L 2450 531 
L 3481 531 
L 3481 0 
L 794 0 
L 794 531 
z
" transform="scale(0.015625)"/>
       </defs>
       <use xlink:href="#DejaVuSans-31"/>
       <use xlink:href="#DejaVuSans-30" x="63.623047"/>
       <use xlink:href="#DejaVuSans-30" x="127.246094"/>
       <use xlink:href="#DejaVuSans-30" x="190.869141"/>
      </g>
     </g>
    </g>
    <g id="text_12">
     <!-- Gaze Position (a.u.) -->
     <g transform="translate(18.873125 148.33375)rotate(-90)scale(0.1 -0.1)">
      <defs>
       <path id="DejaVuSans-47" d="M 3809 666 
L 3809 1919 
L 2778 1919 
L 2778 2438 
L 4434 2438 
L 4434 434 
Q 4069 175 3628 42 
Q 3188 -91 2688 -91 
Q 1594 -91 976 548 
Q 359 1188 359 2328 
Q 359 3472 976 4111 
Q 1594 4750 2688 4750 
Q 3144 4750 3555 4637 
Q 3966 4525 4313 4306 
L 4313 3634 
Q 3963 3931 3569 4081 
Q 3175 4231 2741 4231 
Q 1884 4231 1454 3753 
Q 1025 3275 1025 2328 
Q 1025 1384 1454 906 
Q 1884 428 2741 428 
Q 3075 428 3337 486 
Q 3600 544 3809 666 
z
" transform="scale(0.015625)"/>
       <path id="DejaVuSans-61" d="M 2194 1759 
Q 1497 1759 1228 1600 
Q 959 1441 959 1056 
Q 959 750 1161 570 
Q 1363 391 1709 391 
Q 2188 391 2477 730 
Q 2766 1069 2766 1631 
L 2766 1759 
L 2194 1759 
z
M 3341 1997 
L 3341 0 
L 2766 0 
L 2766 531 
Q 2569 213 2275 61 
Q 1981 -91 1556 -91 
Q 1019 -91 701 211 
Q 384 513 384 1019 
Q 384 1609 779 1909 
Q 1175 2209 1959 2209 
L 2766 2209 
L 2766 2266 
Q 2766 2663 2505 2880 
Q 2244 3097 1772 3097 
Q 1472 3097 1187 3025 
Q 903 2953 641 2809 
L 641 3341 
Q 956 3463 1253 3523 
Q 1550 3584 1831 3584 
Q 2591 3584 2966 3190 
Q 3341 2797 3341 1997 
z
" transform="scale(0.015625)"/>
       <path id="DejaVuSans-7a" d="M 353 3500 
L 3084 3500 
L 3084 2975 
L 922 459 
L 3084 459 
L 3084 0 
L 275 0 
L 275 525 
L 2438 3041 
L 353 3041 
L 353 3500 
z
" transform="scale(0.015625)"/>
       <path id="DejaVuSans-50" d="M 1259 4147 
L 1259 2394 
L 2053 2394 
Q 2494 2394 2734 2622 
Q 2975 2850 2975 3272 
Q 2975 3691 2734 3919 
Q 2494 4147 2053 4147 
L 1259 4147 
z
M 628 4666 
L 2053 4666 
Q 2838 4666 3239 4311 
Q 3641 3956 3641 3272 
Q 3641 2581 3239 2228 
Q 2838 1875 2053 1875 
L 1259 1875 
L 1259 0 
L 628 0 
L 628 4666 
z
" transform="scale(0.015625)"/>
       <path id="DejaVuSans-6f" d="M 1959 3097 
Q 1497 3097 1228 2736 
Q 959 2375 959 1747 
Q 959 1119 1226 758 
Q 1494 397 1959 397 
Q 2419 397 2687 759 
Q 2956 1122 2956 1747 
Q 2956 2369 2687 2733 
Q 2419 3097 1959 3097 
z
M 1959 3584 
Q 2709 3584 3137 3096 
Q 3566 2609 3566 1747 
Q 3566 888 3137 398 
Q 2709 -91 1959 -91 
Q 1206 -91 779 398 
Q 353 888 353 1747 
Q 353 2609 779 3096 
Q 1206 3584 1959 3584 
z
" transform="scale(0.015625)"/>
       <path id="DejaVuSans-74" d="M 1172 4494 
L 1172 3500 
L 2356 3500 
L 2356 3053 
L 1172 3053 
L 1172 1153 
Q 1172 725 1289 603 
Q 1406 481 1766 481 
L 2356 481 
L 2356 0 
L 1766 0 
Q 1100 0 847 248 
Q 594 497 594 1153 
L 594 3053 
L 172 3053 
L 172 3500 
L 594 3500 
L 594 4494 
L 1172 4494 
z
" transform="scale(0.015625)"/>
       <path id="DejaVuSans-6e" d="M 3513 2113 
L 3513 0 
L 2938 0 
L 2938 2094 
Q 2938 2591 2744 2837 
Q 2550 3084 2163 3084 
Q 1697 3084 1428 2787 
Q 1159 2491 1159 1978 
L 1159 0 
L 581 0 
L 581 3500 
L 1159 3500 
L 1159 2956 
Q 1366 3272 1645 3428 
Q 1925 3584 2291 3584 
Q 2894 3584 3203 3211 
Q 3513 2838 3513 2113 
z
" transform="scale(0.015625)"/>
       <path id="DejaVuSans-2e" d="M 684 794 
L 1344 794 
L 1344 0 
L 684 0 
L 684 794 
z
" transform="scale(0.015625)"/>
       <path id="DejaVuSans-75" d="M 544 1381 
L 544 3500 
L 1119 3500 
L 1119 1403 
Q 1119 906 1312 657 
Q 1506 409 1894 409 
Q 2359 409 2629 706 
Q 2900 1003 2900 1516 
L 2900 3500 
L 3475 3500 
L 3475 0 
L 2900 0 
L 2900 538 
Q 2691 219 2414 64 
Q 2138 -91 1772 -91 
Q 1169 -91 856 284 
Q 544 659 544 1381 
z
M 1991 3584 
L 1991 3584 
z
" transform="scale(0.015625)"/>
      </defs>
      <use xlink:href="#DejaVuSans-47"/>
      <use xlink:href="#DejaVuSans-61" x="77.490234"/>
      <use xlink:href="#DejaVuSans-7a" x="138.769531"/>
      <use xlink:href="#DejaVuSans-65" x="191.259766"/>
      <use xlink:href="#DejaVuSans-20" x="252.783203"/>
      <use xlink:href="#DejaVuSans-50" x="284.570312"/>
      <use xlink:href="#DejaVuSans-6f" x="341.248047"/>
      <use xlink:href="#DejaVuSans-73" x="402.429688"/>
      <use xlink:href="#DejaVuSans-69" x="454.529297"/>
      <use xlink:href="#DejaVuSans-74" x="482.3125"/>
      <use xlink:href="#DejaVuSans-69" x="521.521484"/>
      <use xlink:href="#DejaVuSans-6f" x="549.304688"/>
      <use xlink:href="#DejaVuSans-6e" x="610.486328"/>
      <use xlink:href="#DejaVuSans-20" x="673.865234"/>
      <use xlink:href="#DejaVuSans-28" x="705.652344"/>
      <use xlink:href="#DejaVuSans-61" x="744.666016"/>
      <use xlink:href="#DejaVuSans-2e" x="805.945312"/>
      <use xlink:href="#DejaVuSans-75" x="837.732422"/>
      <use xlink:href="#DejaVuSans-2e" x="901.111328"/>
      <use xlink:href="#DejaVuSans-29" x="932.898438"/>
     </g>
    </g>
   </g>
   <g id="line2d_11">
    <path d="M 69.319091 103.840803 
L 69.42714 103.805191 
L 69.679254 103.495541 
L 69.787303 103.805191 
L 70.039418 103.602365 
L 70.147467 103.672036 
L 70.291532 103.449098 
L 70.399581 103.576046 
L 70.50763 103.39182 
L 70.651695 103.602365 
L 71.011859 103.470772 
L 71.119908 103.500186 
L 71.372022 103.269528 
L 71.480071 103.433617 
L 71.58812 103.376339 
L 71.732186 103.461483 
L 72.092349 102.90579 
L 72.308447 103.079138 
L 72.812676 102.816026 
L 72.920725 103.130217 
L 73.06479 103.102355 
L 73.172839 102.907338 
L 73.280888 103.074495 
L 73.424954 103.014131 
L 73.641052 103.093068 
L 73.785117 103.106999 
L 73.893166 103.249404 
L 74.001215 103.074495 
L 74.14528 103.249404 
L 74.253329 103.599269 
L 74.361378 103.473868 
L 74.505444 103.545082 
L 74.721542 103.368599 
L 74.973656 103.562112 
L 75.081705 103.616299 
L 75.225771 103.538889 
L 75.441869 103.955388 
L 75.693983 103.647263 
L 76.306261 103.535793 
L 76.41431 103.670487 
L 76.666424 103.427425 
L 76.774473 103.577594 
L 76.918539 103.176653 
L 77.026588 103.308227 
L 77.134637 102.879479 
L 77.386751 102.987819 
L 77.4948 102.825312 
L 77.638865 102.809835 
L 77.746914 102.679839 
L 78.107078 102.846979 
L 78.215127 102.775788 
L 78.359192 103.02187 
L 78.467241 102.751027 
L 78.57529 102.956864 
L 78.719356 102.961508 
L 78.827405 103.141052 
L 78.935454 103.051278 
L 79.187568 103.159626 
L 79.439682 103.518763 
L 79.547731 103.148791 
L 79.691797 103.524956 
L 79.799846 103.331447 
L 79.907895 103.625588 
L 80.05196 103.555919 
L 80.268058 103.746354 
L 80.412123 103.75874 
L 80.520172 103.572949 
L 80.628222 103.874868 
L 80.772287 103.836158 
L 80.880336 103.983261 
L 80.988385 103.764933 
L 81.13245 103.89345 
L 81.240499 103.764933 
L 81.348548 103.891901 
L 81.492614 103.7959 
L 81.600663 103.859384 
L 81.708712 103.771127 
L 81.960826 103.401108 
L 82.068875 103.642619 
L 82.21294 103.271076 
L 82.320989 103.545082 
L 82.573104 103.337639 
L 82.681153 103.475416 
L 82.933267 103.127121 
L 83.041316 103.237021 
L 83.185382 103.111642 
L 83.40148 103.151887 
L 83.545545 103.034252 
L 83.653594 103.1782 
L 83.761643 103.119382 
L 84.013757 103.216898 
L 84.121806 102.874836 
L 84.265872 103.15653 
L 84.373921 103.031156 
L 84.48197 103.083782 
L 84.734084 103.0358 
L 85.202297 103.119382 
L 85.346362 103.274172 
L 85.454411 103.179748 
L 85.95864 103.831513 
L 86.174738 103.798997 
L 86.318803 104.788664 
L 86.678967 112.52271 
L 87.399293 133.853813 
L 87.615391 137.683965 
L 87.867506 138.777312 
L 88.11962 138.106886 
L 88.227669 138.059509 
L 88.335718 138.224535 
L 88.479784 137.971306 
L 88.587833 138.090548 
L 88.731898 138.002338 
L 88.839947 137.778634 
L 88.947996 138.219633 
L 89.308159 137.830874 
L 89.452225 137.953341 
L 89.560274 138.204925 
L 89.668323 137.860263 
L 89.920437 138.025205 
L 90.028486 137.806386 
L 90.2806 138.172242 
L 90.38865 137.909248 
L 90.532715 137.976205 
L 90.640764 138.240879 
L 90.748813 138.075845 
L 90.892878 138.090548 
L 91.000927 138.302988 
L 91.108976 138.24905 
L 91.361091 138.394537 
L 91.46914 138.29645 
L 91.613205 138.623502 
L 91.721254 138.494284 
L 91.865319 138.819866 
L 92.225483 138.435414 
L 92.333532 138.767493 
L 92.441581 138.361838 
L 92.585646 138.664403 
L 92.693695 138.554798 
L 92.801744 138.685674 
L 92.94581 138.456671 
L 93.053859 138.518816 
L 93.161908 138.240879 
L 93.414022 138.239244 
L 93.522071 137.925578 
L 93.882234 137.945175 
L 94.0263 137.930477 
L 94.134349 137.754148 
L 94.242398 137.886388 
L 94.386463 137.724768 
L 94.746627 137.889653 
L 94.854676 137.679069 
L 94.962725 137.845568 
L 95.10679 137.772104 
L 95.358904 137.96314 
L 95.575002 138.049708 
L 96.079231 138.268663 
L 96.18728 138.002338 
L 96.295329 138.487742 
L 96.655493 138.45013 
L 96.799558 138.703672 
L 96.907607 138.536807 
L 97.015656 138.886981 
L 97.26777 138.995042 
L 97.519885 141.909645 
L 97.988097 153.606255 
L 98.492326 165.394051 
L 98.708424 166.511808 
L 98.960538 166.092752 
L 99.068587 165.717256 
L 99.428751 166.311149 
L 99.572816 166.630127 
L 99.680865 166.261009 
L 99.788914 166.484925 
L 100.041028 166.348761 
L 100.149078 166.667785 
L 100.293143 166.59606 
L 100.401192 166.784381 
L 100.509241 166.538694 
L 100.761355 166.899236 
L 100.869404 166.836419 
L 101.01347 166.924367 
L 101.229568 166.816679 
L 101.481682 167.118321 
L 101.733796 166.719798 
L 101.841845 167.285455 
L 101.985911 166.883082 
L 102.09396 167.085985 
L 102.202009 166.484925 
L 102.454123 166.845392 
L 102.562172 166.62654 
L 102.922336 166.601438 
L 103.066401 166.307567 
L 103.17445 166.508223 
L 103.282499 166.162548 
L 103.786728 166.540486 
L 104.002826 166.167917 
L 104.362989 166.357717 
L 104.507055 166.148229 
L 104.615104 166.298613 
L 104.759169 166.261009 
L 104.867218 166.379212 
L 104.975267 166.101699 
L 105.227381 166.388169 
L 105.33543 166.409667 
L 105.587545 166.137491 
L 105.695594 166.391752 
L 105.839659 166.158968 
L 105.947708 166.58351 
L 106.055757 166.549449 
L 106.199823 166.386378 
L 106.307872 166.63192 
L 106.415921 166.492093 
L 106.668035 167.033897 
L 107.028198 166.359508 
L 107.388362 166.732355 
L 107.496411 166.718005 
L 107.748525 166.465212 
L 107.892591 166.709036 
L 108.00064 166.424 
L 108.108689 166.522562 
L 108.468852 166.31294 
L 108.720966 166.495678 
L 108.829015 166.003299 
L 108.973081 166.393544 
L 109.08113 166.364882 
L 109.189179 166.603231 
L 109.333244 166.477756 
L 109.549342 166.201928 
L 109.693407 166.277124 
L 109.801456 166.205508 
L 109.909506 166.332641 
L 110.16162 166.21983 
L 110.521783 166.262799 
L 110.629832 166.359508 
L 110.773898 166.257428 
L 110.881947 166.415042 
L 110.989996 166.257428 
L 111.134061 166.364882 
L 111.386175 166.289659 
L 111.746339 166.587095 
L 112.214551 166.640886 
L 112.3226 166.560204 
L 112.574715 166.662405 
L 112.682764 166.411459 
L 112.826829 166.572753 
L 113.042927 166.359508 
L 113.186992 166.597852 
L 113.295041 166.493886 
L 113.40309 166.558412 
L 113.655205 166.490301 
L 113.763254 166.26459 
L 114.015368 166.547656 
L 114.267483 166.59606 
L 114.375532 166.746706 
L 114.627646 166.250266 
L 114.735695 166.449085 
L 114.87976 166.307567 
L 114.987809 166.44371 
L 115.239924 166.244894 
L 116.176349 165.987201 
L 116.320414 166.189397 
L 116.428463 166.085595 
L 116.536512 166.243104 
L 116.788626 166.246685 
L 116.896675 166.479549 
L 117.040741 165.885268 
L 117.256839 166.252056 
L 117.508953 166.481341 
L 117.653019 166.261009 
L 117.761068 166.524354 
L 118.013182 166.332641 
L 118.121231 166.517185 
L 118.22928 166.234152 
L 118.481394 166.535109 
L 118.589443 166.235942 
L 118.949607 166.590681 
L 119.30977 165.949642 
L 119.453835 164.43928 
L 119.922048 148.77665 
L 120.39026 132.177095 
L 120.894489 122.744807 
L 121.002538 122.10003 
L 121.146603 122.118984 
L 121.254652 122.564579 
L 121.506767 122.25326 
L 121.614816 122.193227 
L 121.86693 121.869469 
L 121.974979 121.883679 
L 122.083028 122.193227 
L 122.227094 122.145837 
L 122.335143 122.468163 
L 122.443192 122.185329 
L 123.055469 122.664172 
L 123.523682 122.711603 
L 123.667747 122.580386 
L 123.919862 122.918763 
L 124.027911 122.618325 
L 124.13596 122.763781 
L 124.640188 122.649943 
L 124.748237 122.580386 
L 124.856286 122.662591 
L 125.468564 122.262739 
L 125.576613 122.155315 
L 125.828728 122.144258 
L 126.080842 122.218503 
L 126.441005 122.306979 
L 126.549054 122.207445 
L 126.801169 122.220083 
L 126.909218 122.122143 
L 127.017267 122.209025 
L 127.161332 122.171111 
L 127.269381 122.324359 
L 127.413447 122.324359 
L 127.629545 122.160054 
L 127.77361 122.2501 
L 127.881659 122.112666 
L 127.989708 122.24694 
L 128.133773 122.051068 
L 128.493937 122.221663 
L 128.710035 122.161633 
L 128.8541 122.216924 
L 129.070198 122.00211 
L 129.430362 122.155315 
L 129.574427 122.062124 
L 129.682476 122.188488 
L 129.93459 122.126882 
L 130.042639 122.141098 
L 130.150688 121.926311 
L 130.294754 122.156894 
L 130.654917 121.970526 
L 130.762966 122.131621 
L 130.907031 121.948418 
L 131.01508 121.375474 
L 131.267195 117.297371 
L 131.735407 107.589021 
L 131.987522 106.141673 
L 132.095571 106.240908 
L 132.20362 106.498331 
L 132.455734 106.357208 
L 132.707848 106.143223 
L 132.815897 106.078103 
L 132.923946 106.19129 
L 133.28411 105.840904 
L 133.536224 106.304484 
L 133.68029 105.963375 
L 133.896388 106.202144 
L 134.040453 105.980429 
L 134.508665 106.146324 
L 134.616714 106.149425 
L 134.76078 106.003684 
L 134.868829 106.166481 
L 134.976878 106.090507 
L 135.228992 106.088956 
L 135.337041 105.898263 
L 135.481107 105.991281 
L 135.697205 105.861057 
L 135.84127 106.040893 
L 136.309482 105.862607 
L 136.417531 105.943221 
L 136.561597 105.665742 
L 136.813711 106.050196 
L 137.029809 105.859507 
L 137.173875 105.88121 
L 137.281924 105.673492 
L 137.389973 106.009885 
L 137.750136 105.943221 
L 138.110299 105.847105 
L 138.362414 106.095158 
L 138.614528 106.0657 
L 138.722577 105.851756 
L 138.974691 106.154077 
L 139.19079 106.056397 
L 139.442904 106.273471 
L 139.695018 106.154077 
L 139.803067 106.371165 
L 139.947133 106.194391 
L 140.163231 106.395977 
L 140.523394 106.27037 
L 140.667459 106.433196 
L 140.775508 106.180436 
L 141.027623 106.251763 
L 141.135672 106.306035 
L 141.243721 106.216099 
L 141.387786 106.267269 
L 141.603884 106.090507 
L 141.855999 106.102911 
L 142.108113 106.071902 
L 142.324211 106.037792 
L 142.576325 105.989731 
L 142.684374 105.834704 
L 142.82844 105.918416 
L 143.188603 105.763396 
L 143.296652 105.79905 
L 143.440718 105.991281 
L 143.656816 105.901363 
L 143.800881 105.861057 
L 144.016979 106.050196 
L 144.377142 106.0657 
L 144.521208 106.081204 
L 144.629257 105.927718 
L 144.737306 106.09981 
L 145.241535 105.896713 
L 145.457633 106.034692 
L 145.601698 105.98508 
L 145.709747 106.288978 
L 145.817796 106.177335 
L 146.06991 106.306035 
L 146.177959 106.143223 
L 146.430074 106.321542 
L 146.574139 106.399079 
L 146.682188 106.242459 
L 147.150401 106.403731 
L 147.402515 106.380469 
L 147.510564 106.225402 
L 147.654629 106.400629 
L 147.762678 106.234706 
L 147.870727 106.378919 
L 148.122842 105.958724 
L 148.374956 105.081488 
L 148.483005 104.785566 
L 149.203332 104.718951 
L 149.311381 104.489694 
L 149.455446 104.450971 
L 149.563495 104.759229 
L 149.81561 104.458715 
L 149.923659 104.639947 
L 150.067724 104.449422 
L 150.427887 104.664732 
L 150.643985 104.591926 
L 151.004149 104.66783 
L 151.148214 104.523771 
L 151.256263 104.584181 
L 151.364312 104.492791 
L 151.508378 104.543907 
L 151.724476 104.435482 
L 151.97659 104.314672 
L 152.084639 104.503634 
L 152.228704 104.371978 
L 152.336753 104.446324 
L 152.444802 104.333258 
L 152.588868 104.438579 
L 152.840982 104.277502 
L 153.05708 104.365783 
L 153.921472 104.077723 
L 154.029521 104.193871 
L 154.13757 103.978616 
L 154.497734 104.063786 
L 154.641799 103.763385 
L 154.857897 103.98481 
L 155.001963 103.641071 
L 155.218061 103.839255 
L 155.362126 103.69526 
L 155.578224 103.898095 
L 155.722289 103.627136 
L 155.830338 103.778869 
L 155.974404 103.724677 
L 156.190502 104.066883 
L 156.442616 104.028169 
L 156.550665 104.148959 
L 156.910829 103.967776 
L 157.162943 104.073077 
L 157.415057 103.952291 
L 157.631155 104.260465 
L 157.775221 104.138119 
L 157.991319 104.285245 
L 158.135384 104.255819 
L 158.243433 104.076174 
L 158.351482 104.155154 
L 158.495547 104.114889 
L 158.603597 104.325514 
L 158.711646 104.040557 
L 158.855711 104.011135 
L 158.96376 103.800546 
L 159.107825 103.966228 
L 159.215874 103.916676 
L 159.467989 103.641071 
L 159.576038 103.690615 
L 159.684087 103.599269 
L 160.04425 103.681325 
L 160.296364 103.569853 
L 160.404413 103.625588 
L 160.548479 103.478512 
L 160.656528 103.733967 
L 160.764577 103.486253 
L 161.12474 103.746354 
L 161.376855 103.720032 
L 161.989132 103.312871 
L 162.097181 103.593076 
L 162.20523 103.503282 
L 162.349296 103.541986 
L 162.60141 103.425877 
L 162.817508 103.552823 
L 163.177672 103.720032 
L 163.321737 103.672036 
L 163.429786 103.791255 
L 163.537835 103.616299 
L 163.6819 103.67668 
L 163.789949 103.859384 
L 163.897998 103.794352 
L 164.150113 103.916676 
L 164.258162 103.794352 
L 164.402227 103.865578 
L 164.510276 103.789707 
L 164.618325 103.870223 
L 165.590766 103.585335 
L 165.734832 103.664294 
L 165.95093 103.458387 
L 166.094995 103.165817 
L 166.203044 103.566756 
L 166.311093 103.09926 
L 166.455159 103.105451 
L 166.563208 103.258692 
L 166.815322 102.969246 
L 167.03142 102.77424 
L 167.175485 102.826859 
L 167.391583 102.715433 
L 167.643698 103.024965 
L 167.751747 103.190584 
L 168.255975 103.017226 
L 168.364025 103.125573 
L 168.472074 102.958412 
L 168.616139 103.052825 
L 168.724188 102.927458 
L 168.868253 103.173557 
L 169.084351 103.054373 
L 169.336466 103.144147 
L 169.444515 103.028061 
L 170.056792 103.430521 
L 170.164841 103.512571 
L 170.308907 103.772675 
L 170.525005 103.710742 
L 170.66907 103.760288 
L 170.777119 103.588431 
L 170.885168 103.679777 
L 171.245332 103.48006 
L 171.389397 103.588431 
L 171.605495 103.367051 
L 171.74956 103.47232 
L 171.857609 103.332995 
L 172.001675 103.370147 
L 172.109724 103.192132 
L 172.217773 103.250952 
L 172.361838 103.145695 
L 172.577936 103.26798 
L 173.298263 102.760312 
L 173.442328 102.933649 
L 173.658426 102.732456 
L 173.802492 102.814478 
L 173.910541 102.686029 
L 174.270704 102.579252 
L 174.378753 102.840788 
L 174.882982 102.843883 
L 174.991031 103.089973 
L 175.135096 102.809835 
L 175.351194 103.165817 
L 175.855423 103.557467 
L 176.071521 103.535793 
L 176.431685 103.675132 
L 176.683799 103.67668 
L 176.791848 103.83461 
L 177.296077 103.428973 
L 177.404126 103.591528 
L 178.016403 103.229281 
L 178.124453 103.285007 
L 178.376567 102.98008 
L 178.484616 103.068303 
L 178.73673 102.781978 
L 178.844779 102.961508 
L 178.988845 102.837693 
L 179.096894 103.179748 
L 179.349008 102.998653 
L 179.709171 103.346927 
L 179.81722 103.043539 
L 180.069335 103.292747 
L 180.177384 103.305131 
L 180.285433 103.470772 
L 181.00576 103.346927 
L 181.149825 103.483157 
L 181.365923 103.168913 
L 181.762103 103.216898 
L 182.122266 102.902695 
L 182.230315 103.006392 
L 182.338364 102.820669 
L 182.48243 102.854717 
L 182.698528 102.816026 
L 182.842593 102.881027 
L 183.058691 102.673649 
L 183.202756 102.634961 
L 183.418854 102.690672 
L 183.670969 102.613296 
L 183.779018 102.754122 
L 183.923083 102.4601 
L 184.139181 102.829955 
L 184.283247 102.684482 
L 184.391296 102.802097 
L 184.499345 102.636509 
L 185.003573 103.062112 
L 185.111622 102.884122 
L 185.471786 103.102355 
L 185.615851 103.055921 
L 185.7239 103.212254 
L 185.976015 103.120929 
L 186.084064 103.054373 
L 186.192113 102.834597 
L 186.552276 103.055921 
L 186.696341 102.947578 
L 186.912439 103.117834 
L 187.056505 103.209158 
L 187.416668 102.981628 
L 187.524717 103.201419 
L 187.776831 102.911981 
L 187.884881 103.051278 
L 188.028946 102.658174 
L 188.136995 102.881027 
L 188.389109 102.822216 
L 188.497158 103.106999 
L 188.605207 102.876384 
L 188.857322 103.565208 
L 188.965371 104.53926 
L 189.109436 104.595024 
L 189.325534 104.903309 
L 189.469599 104.825845 
L 189.685697 104.934295 
L 189.829763 104.791762 
L 190.045861 104.914154 
L 190.297975 105.02106 
L 190.406024 104.830493 
L 190.658139 104.841338 
L 190.766188 104.976128 
L 190.910253 104.701911 
L 191.162367 104.867675 
L 191.378465 104.619809 
L 191.738629 104.83669 
L 191.882694 104.712755 
L 191.990743 104.906407 
L 192.350907 104.732894 
L 193.071233 104.581083 
L 193.323348 104.867675 
L 193.431397 104.847535 
L 193.539446 104.979226 
L 193.683511 104.827394 
L 193.79156 105.039653 
L 193.899609 104.904858 
L 194.151724 105.059796 
L 194.403838 104.938943 
L 194.511887 104.725148 
L 194.764001 105.061345 
L 195.016116 104.717402 
L 195.736443 104.441677 
L 195.952541 104.649241 
L 196.096606 104.446324 
L 196.204655 104.553201 
L 196.456769 104.093209 
L 196.564818 104.25427 
L 196.816933 104.165994 
L 197.033031 104.21865 
L 197.177096 104.01578 
L 197.393194 104.232588 
L 197.789374 104.18303 
L 198.005472 104.358039 
L 198.61775 104.303831 
L 199.69824 104.779369 
L 199.806289 104.429286 
L 200.166452 104.675576 
L 200.310518 104.762328 
L 200.526616 104.478851 
L 200.670681 104.588828 
L 200.922795 104.373527 
L 201.030844 104.489694 
L 201.282959 104.144313 
L 201.391008 104.477302 
L 201.499057 104.234137 
L 201.643122 104.243429 
L 201.751171 104.009586 
L 201.85922 104.087014 
L 202.363449 103.961582 
L 202.471498 103.687518 
L 202.93971 103.955388 
L 203.083776 103.978616 
L 203.551988 104.410699 
L 203.660037 104.20626 
L 203.912152 104.579534 
L 204.056217 104.362685 
L 204.524429 104.571789 
L 204.632478 104.367332 
L 204.992642 104.664732 
L 205.136707 104.495889 
L 205.352805 104.754582 
L 205.712969 104.912605 
L 205.965083 104.714304 
L 206.325246 104.647692 
L 206.433295 104.771623 
L 206.793459 104.444775 
L 207.045573 104.495889 
L 207.189638 104.20626 
L 207.297687 104.35649 
L 207.405737 104.252722 
L 207.657851 104.341002 
L 207.7659 104.334806 
L 207.909965 104.093209 
L 208.018014 104.283697 
L 208.126063 104.243429 
L 208.486227 104.562495 
L 208.738341 104.50983 
L 208.84639 104.392113 
L 209.566717 104.859929 
L 209.710782 104.770074 
L 209.92688 104.835141 
L 210.287044 104.711206 
L 210.539158 104.863027 
L 210.683223 104.748385 
L 210.899321 104.73909 
L 211.151436 104.591926 
L 211.259485 104.621358 
L 211.40355 104.794861 
L 211.619648 104.452519 
L 211.871763 104.79641 
L 212.123877 104.523771 
L 212.231926 104.426188 
L 212.339975 104.604319 
L 212.592089 104.457166 
L 212.844204 104.392113 
L 212.952253 104.548554 
L 213.204367 104.300733 
L 213.312416 104.514477 
L 213.420465 104.334806 
L 213.67258 104.481949 
L 213.816645 104.638398 
L 214.032743 104.49434 
L 214.536972 104.725148 
L 214.75307 104.632202 
L 214.897135 104.81655 
L 215.617462 104.560946 
L 215.725511 104.684871 
L 215.83356 104.511379 
L 215.977625 104.762328 
L 216.193723 104.548554 
L 216.337789 104.418444 
L 216.445838 104.551652 
L 216.553887 104.35649 
L 216.697952 104.547005 
L 216.950066 104.158251 
L 217.166165 104.375076 
L 217.31023 104.385918 
L 217.526328 104.226393 
L 217.670393 104.167543 
L 217.886491 104.285245 
L 218.246655 104.376625 
L 218.39072 104.153605 
L 218.606818 104.610515 
L 218.750883 104.438579 
L 219.219096 104.604319 
L 219.327145 104.481949 
L 219.579259 104.571789 
L 219.687308 104.389015 
L 219.939423 104.608966 
L 220.191537 104.519124 
L 220.299586 104.672478 
L 220.443651 104.419993 
L 220.5517 104.681772 
L 220.911864 104.65234 
L 221.272027 104.639947 
L 221.380076 104.424639 
L 221.524142 104.571789 
L 221.632191 104.511379 
L 221.884305 104.742189 
L 221.992354 104.581083 
L 222.244468 104.811902 
L 222.352517 104.471106 
L 222.712681 104.560946 
L 222.82073 104.537711 
L 222.964795 104.742189 
L 223.072844 104.471106 
L 223.324959 104.715853 
L 223.433008 104.579534 
L 223.577073 104.615162 
L 223.793171 104.385918 
L 223.937236 104.384369 
L 224.153334 104.687969 
L 224.2974 104.328611 
L 224.405449 104.455617 
L 224.657563 104.398309 
L 224.765612 104.649241 
L 224.873661 104.381271 
L 225.017727 104.595024 
L 225.125776 104.435482 
L 225.37789 104.491243 
L 225.485939 104.478851 
L 225.593988 104.262014 
L 225.738053 104.475753 
L 225.954151 104.336355 
L 226.098217 104.336355 
L 226.350331 104.664732 
L 226.45838 104.517575 
L 226.566429 104.804156 
L 226.818544 104.683321 
L 226.926593 104.807254 
L 227.286756 104.718951 
L 227.430821 104.85683 
L 227.53887 104.550103 
L 227.646919 104.850633 
L 227.790985 104.567142 
L 228.007083 104.805705 
L 228.151148 104.60277 
L 228.259197 104.835141 
L 228.367246 104.656987 
L 228.727409 104.827394 
L 228.871475 104.639947 
L 229.087573 104.706558 
L 229.591802 104.656987 
L 229.699851 104.42309 
L 229.843916 104.588828 
L 230.060014 104.438579 
L 230.204079 104.435482 
L 230.312128 104.232588 
L 230.564243 104.282148 
L 230.780341 104.088563 
L 230.924406 104.05914 
L 231.032455 103.915128 
L 231.140504 104.000295 
L 231.28457 103.789707 
L 231.500668 104.1598 
L 231.644733 103.960034 
L 231.860831 104.269758 
L 232.004896 104.12573 
L 232.112945 104.179932 
L 232.220994 104.065334 
L 232.36506 104.311575 
L 232.473109 104.184579 
L 232.581158 104.516026 
L 232.833272 104.288343 
L 232.977338 104.483498 
L 233.085387 104.313123 
L 233.193436 104.474204 
L 234.994253 104.454068 
L 235.138318 104.362685 
L 235.246367 104.545456 
L 235.498481 104.477302 
L 235.60653 104.164446 
L 235.714579 104.373527 
L 235.966694 104.128827 
L 236.110759 104.310026 
L 236.470922 104.238783 
L 236.687021 104.359587 
L 237.551413 104.176835 
L 237.767511 104.311575 
L 238.848001 104.547005 
L 238.992066 104.805705 
L 239.100115 104.551652 
L 239.244181 104.717402 
L 239.35223 104.630653 
L 239.712393 104.901759 
L 239.820442 104.689518 
L 239.964507 104.810353 
L 240.072556 104.7205 
L 240.180605 104.779369 
L 240.43272 104.598123 
L 240.540769 104.810353 
L 240.684834 104.508281 
L 240.900932 104.615162 
L 241.153047 104.426188 
L 241.261096 104.52532 
L 241.405161 104.243429 
L 241.765324 104.375076 
L 242.125488 103.936806 
L 242.377602 101.313757 
L 242.737766 92.372925 
L 243.67419 63.74654 
L 244.394517 49.581623 
L 244.754681 46.911969 
L 245.619073 44.97977 
L 245.871187 43.590864 
L 246.591514 35.298936 
L 246.807612 32.797274 
L 247.059726 32.497814 
L 247.167775 32.516975 
L 247.41989 32.292185 
L 247.527939 32.194545 
L 247.780053 32.401989 
L 247.888102 32.487362 
L 248.032167 32.424642 
L 248.248266 32.581417 
L 248.392331 32.72418 
L 248.50038 32.661512 
L 248.752494 33.200692 
L 249.004609 33.679869 
L 249.112658 33.568828 
L 249.220707 33.938219 
L 249.472821 33.81861 
L 249.724935 34.031792 
L 249.832984 33.912222 
L 249.941033 34.083763 
L 250.193148 34.061243 
L 250.66136 33.887955 
L 251.273638 33.054693 
L 252.13803 32.927753 
L 252.246079 32.750287 
L 252.714292 32.959058 
L 252.858357 32.912098 
L 252.966406 33.103368 
L 253.074455 33.061647 
L 253.21852 32.738104 
L 253.434618 32.926013 
L 253.686733 32.805975 
L 253.794782 32.769431 
L 253.938847 33.012966 
L 254.154945 32.849473 
L 254.299011 32.967754 
L 254.40706 32.767691 
L 254.515109 32.90688 
L 254.659174 32.692848 
L 255.019337 32.988622 
L 255.127386 33.011227 
L 255.271452 32.922535 
L 255.379501 33.197216 
L 255.48755 32.842514 
L 255.631615 33.202429 
L 255.847713 33.092938 
L 256.459991 33.357034 
L 256.56804 33.032092 
L 256.928203 33.874087 
L 257.432432 38.317492 
L 257.64853 39.877456 
L 257.900644 39.834986 
L 258.008694 39.726236 
L 258.260808 39.831588 
L 258.873086 39.860469 
L 259.1252 39.750028 
L 259.233249 39.965775 
L 259.341298 39.814598 
L 259.593412 39.925016 
L 259.845527 39.799306 
L 260.061625 39.697342 
L 260.313739 39.795908 
L 260.421788 39.517123 
L 260.673903 39.583443 
L 260.926017 39.750028 
L 261.142115 39.658247 
L 261.502278 39.568139 
L 261.646344 39.767021 
L 261.754393 39.404858 
L 262.006507 39.666747 
L 262.114556 39.440583 
L 262.366671 39.639548 
L 262.47472 39.464398 
L 262.726834 39.576641 
L 262.978948 39.197229 
L 263.339112 39.505218 
L 263.447161 39.212551 
L 263.807324 39.411663 
L 263.915373 39.205741 
L 264.059439 39.731334 
L 264.275537 39.48651 
L 264.419602 39.663347 
L 264.527651 39.501817 
L 264.887814 39.794209 
L 265.03188 39.780615 
L 265.608141 40.323889 
L 265.752206 40.308622 
L 266.11237 40.540932 
L 266.220419 40.515505 
L 266.328468 40.710392 
L 267.300909 39.217658 
L 267.300909 39.217658 
" clip-path="url(#p2f091467bb)" style="fill: none; stroke: #1f77b4; stroke-width: 1.5; stroke-linecap: square"/>
   </g>
   <g id="line2d_12">
    <path d="M 69.319091 102.057954 
L 69.679254 101.927238 
L 69.787303 102.004228 
L 69.931369 101.878908 
L 70.147467 101.997065 
L 70.399581 101.988112 
L 72.560561 101.859221 
L 72.704627 101.730395 
L 72.920725 101.923658 
L 73.172839 101.73755 
L 73.280888 101.8628 
L 73.641052 101.735761 
L 73.785117 101.918288 
L 74.253329 101.809114 
L 75.225771 101.673159 
L 75.441869 101.857431 
L 75.585934 101.692832 
L 75.693983 101.798378 
L 75.946097 101.746494 
L 76.054146 101.852062 
L 76.198212 101.678524 
L 76.41431 101.810903 
L 76.918539 101.666006 
L 77.026588 101.852062 
L 77.134637 101.735761 
L 77.386751 101.812693 
L 77.854963 101.598057 
L 78.107078 101.674948 
L 79.331633 101.746494 
L 79.439682 101.877118 
L 79.547731 101.674948 
L 79.907895 101.732183 
L 80.05196 101.537276 
L 80.160009 101.662429 
L 80.268058 101.615936 
L 80.412123 101.721451 
L 80.628222 101.68389 
L 80.772287 101.746494 
L 80.988385 101.615936 
L 81.348548 101.687467 
L 81.960826 101.522977 
L 82.068875 101.687467 
L 82.21294 101.531914 
L 82.465055 101.662429 
L 82.825218 101.680313 
L 82.933267 101.469361 
L 83.041316 101.671371 
L 83.185382 101.49438 
L 83.40148 101.610572 
L 84.373921 101.464 
L 84.48197 101.388959 
L 84.626035 101.533701 
L 84.842133 101.460426 
L 84.986199 101.531914 
L 85.094248 101.426477 
L 85.202297 101.524764 
L 85.598476 101.472935 
L 86.066689 101.605209 
L 86.174738 101.390745 
L 86.426852 101.696409 
L 86.678967 101.321083 
L 87.255228 96.248068 
L 87.615391 92.770753 
L 87.759457 92.430036 
L 87.867506 92.561432 
L 87.975555 92.493998 
L 88.227669 92.852101 
L 88.479784 92.744796 
L 88.587833 92.746526 
L 88.731898 92.611586 
L 88.839947 92.988887 
L 88.947996 92.699809 
L 89.092061 92.729223 
L 89.20011 92.935204 
L 89.308159 92.703269 
L 89.452225 92.838253 
L 89.560274 92.637531 
L 89.668323 92.91962 
L 89.812388 92.64791 
L 89.920437 92.857294 
L 90.028486 92.609857 
L 90.172551 92.791521 
L 90.38865 92.64791 
L 90.532715 92.715381 
L 90.748813 92.615045 
L 91.000927 92.44905 
L 91.108976 92.623694 
L 91.253042 92.621964 
L 91.613205 92.274513 
L 92.081417 92.392012 
L 92.333532 92.138068 
L 92.441581 92.43695 
L 92.693695 92.132888 
L 92.801744 92.319434 
L 93.053859 92.233055 
L 93.161908 92.473252 
L 93.414022 92.428308 
L 93.522071 92.64618 
L 93.666136 92.513016 
L 93.774185 92.576996 
L 93.882234 92.497456 
L 94.0263 92.532036 
L 94.242398 92.682508 
L 94.386463 92.621964 
L 94.494512 92.715381 
L 94.602561 92.495727 
L 94.962725 92.727493 
L 95.214839 92.502642 
L 95.358904 92.514745 
L 95.575002 92.388555 
L 96.18728 92.322889 
L 96.295329 92.120801 
L 96.799558 91.980977 
L 96.907607 92.163971 
L 97.26777 91.880898 
L 97.519885 90.150495 
L 97.988097 80.649203 
L 98.492326 68.055462 
L 98.600375 67.305402 
L 98.852489 67.630382 
L 99.068587 68.384212 
L 99.428751 67.110848 
L 99.572816 67.077091 
L 99.788914 67.389038 
L 99.932979 67.369736 
L 100.293143 66.871387 
L 100.653306 67.038515 
L 100.869404 66.630445 
L 101.121519 66.807124 
L 101.481682 66.518049 
L 101.733796 66.852107 
L 101.841845 66.291733 
L 102.202009 66.837648 
L 102.346074 66.762145 
L 102.814287 67.073876 
L 102.922336 66.898702 
L 103.066401 67.252334 
L 103.17445 66.987084 
L 103.282499 67.48556 
L 103.534613 67.102811 
L 103.642662 66.81355 
L 103.786728 67.221782 
L 103.894777 67.077091 
L 104.002826 67.722126 
L 104.146891 67.270023 
L 104.25494 67.54992 
L 104.362989 67.292537 
L 104.615104 67.44534 
L 104.867218 67.181586 
L 104.975267 67.384213 
L 105.227381 67.077091 
L 105.587545 67.337568 
L 106.055757 66.837648 
L 106.199823 67.080306 
L 106.415921 66.906736 
L 106.668035 66.654534 
L 106.920149 66.710745 
L 107.028198 67.141393 
L 107.136247 66.855321 
L 107.280313 66.879421 
L 107.388362 66.550159 
L 107.748525 66.938874 
L 107.892591 66.832828 
L 108.00064 67.13657 
L 108.108689 66.863354 
L 108.252754 67.00637 
L 108.360803 66.921198 
L 108.468852 67.196056 
L 108.612917 66.742869 
L 108.829015 67.308619 
L 109.08113 66.789453 
L 109.189179 66.924411 
L 109.441293 67.290929 
L 109.549342 67.290929 
L 109.909506 66.921198 
L 110.053571 67.249118 
L 110.16162 67.188017 
L 110.269669 67.318269 
L 110.521783 67.1639 
L 110.629832 67.33596 
L 110.989996 67.099596 
L 111.134061 67.207311 
L 111.24211 67.064232 
L 111.386175 67.224998 
L 111.602273 66.593512 
L 111.746339 66.81355 
L 111.962437 66.603147 
L 112.106502 66.86014 
L 112.214551 66.444203 
L 112.3226 67.00637 
L 112.466666 66.617599 
L 112.574715 66.771783 
L 112.682764 66.612781 
L 112.826829 66.81355 
L 113.042927 67.271631 
L 113.186992 66.501995 
L 113.40309 67.040122 
L 113.655205 66.697896 
L 113.763254 66.938874 
L 114.015368 66.619205 
L 114.123417 66.855321 
L 114.267483 66.397655 
L 114.519597 66.877814 
L 114.627646 67.078699 
L 114.735695 67.033693 
L 114.87976 67.141393 
L 114.987809 66.906736 
L 115.239924 67.271631 
L 115.456022 67.377779 
L 115.600087 67.094773 
L 115.708136 67.451775 
L 115.816185 67.097988 
L 115.960251 67.097988 
L 116.0683 67.438905 
L 116.176349 67.390647 
L 116.320414 67.086736 
L 116.428463 67.432471 
L 116.536512 66.990298 
L 116.680577 67.413167 
L 116.788626 66.98387 
L 117.040741 67.215351 
L 117.256839 66.916377 
L 117.508953 67.278063 
L 117.653019 67.197664 
L 117.869117 66.571032 
L 118.121231 67.069054 
L 118.481394 66.871387 
L 118.841558 67.237862 
L 118.949607 66.966192 
L 119.093672 67.027264 
L 119.30977 67.736614 
L 119.453835 68.693847 
L 120.534326 96.730356 
L 120.78644 98.871544 
L 120.894489 99.631689 
L 121.002538 99.539434 
L 121.254652 99.587332 
L 121.362701 99.482678 
L 121.506767 99.61572 
L 121.614816 99.947732 
L 121.722865 99.754155 
L 122.335143 99.679604 
L 122.443192 99.542982 
L 122.695306 99.597977 
L 123.163518 99.507507 
L 123.415633 99.443665 
L 123.775796 99.34084 
L 123.919862 99.440118 
L 124.13596 99.199078 
L 124.280025 99.191992 
L 124.496123 99.344385 
L 124.748237 99.349702 
L 124.856286 99.495092 
L 125.000352 99.277038 
L 125.108401 99.480904 
L 125.21645 99.349702 
L 125.720679 99.541208 
L 126.188891 99.438345 
L 126.549054 99.544756 
L 126.657103 99.484451 
L 126.801169 99.555399 
L 127.017267 99.422387 
L 127.161332 99.370974 
L 127.269381 99.502186 
L 127.521496 99.38161 
L 127.881659 99.328433 
L 128.133773 99.392247 
L 128.241822 99.38161 
L 128.349871 99.550077 
L 128.601986 99.392247 
L 129.070198 99.349702 
L 129.214263 99.511054 
L 129.322313 99.367429 
L 129.430362 99.46849 
L 129.682476 99.360338 
L 130.150688 99.374519 
L 130.546868 99.324888 
L 130.907031 99.392247 
L 131.123129 99.944178 
L 131.483293 101.014078 
L 131.627358 101.212161 
L 132.20362 101.053325 
L 132.347685 101.030133 
L 132.455734 101.212161 
L 132.563783 101.081873 
L 133.068012 101.142547 
L 133.176061 100.999807 
L 133.536224 101.196095 
L 133.68029 101.085442 
L 133.788339 101.215732 
L 133.896388 101.008726 
L 134.256551 101.188955 
L 134.508665 101.060462 
L 134.76078 101.15861 
L 134.868829 101.285366 
L 134.976878 101.180029 
L 135.337041 101.146117 
L 135.481107 101.001591 
L 135.589156 101.230014 
L 135.697205 101.08901 
L 136.669646 101.07652 
L 136.813711 101.012294 
L 136.92176 101.176459 
L 137.029809 101.015861 
L 137.173875 101.240727 
L 137.389973 101.08901 
L 138.00225 101.074736 
L 138.254365 101.047973 
L 138.470463 101.110424 
L 138.722577 100.962351 
L 138.830626 101.1247 
L 138.974691 100.969485 
L 139.19079 101.039053 
L 139.334855 101.030133 
L 139.550953 100.880323 
L 139.803067 101.014078 
L 140.055182 100.926683 
L 140.883557 100.87854 
L 141.027623 101.026565 
L 141.387786 100.87854 
L 141.495835 100.837536 
L 141.603884 100.965918 
L 142.468276 100.869625 
L 142.576325 100.899936 
L 142.684374 100.77515 
L 143.548767 100.887454 
L 143.656816 100.860711 
L 143.90893 100.955217 
L 144.016979 100.874974 
L 144.161044 100.965918 
L 144.269093 100.880323 
L 144.377142 101.022997 
L 144.629257 100.95165 
L 144.737306 100.965918 
L 144.881371 100.816145 
L 145.097469 101.017645 
L 145.349584 100.860711 
L 145.601698 100.98197 
L 146.177959 100.80545 
L 146.430074 100.948083 
L 146.682188 100.842884 
L 146.790237 100.944516 
L 146.934303 100.867842 
L 147.150401 101.014078 
L 147.402515 100.860711 
L 147.654629 100.9249 
L 147.762678 100.787626 
L 147.870727 100.908851 
L 148.122842 100.965918 
L 148.951218 100.99624 
L 149.095283 100.908851 
L 149.203332 101.156825 
L 149.81561 100.842884 
L 149.923659 101.067599 
L 150.067724 101.042621 
L 150.175773 100.899936 
L 150.427887 101.115777 
L 150.643985 100.964134 
L 150.8961 101.044405 
L 151.148214 100.923117 
L 151.364312 101.051541 
L 151.616427 100.987321 
L 151.868541 101.058678 
L 152.444802 101.056894 
L 152.588868 100.907068 
L 152.696917 101.081873 
L 153.777407 101.081873 
L 153.921472 100.817927 
L 154.13757 101.005158 
L 154.281636 100.842884 
L 154.497734 101.049757 
L 154.641799 100.841101 
L 154.857897 101.014078 
L 155.110012 100.848232 
L 155.218061 100.905285 
L 155.470175 100.81258 
L 155.722289 100.942733 
L 155.830338 100.81258 
L 155.974404 100.848232 
L 156.082453 101.037269 
L 156.442616 100.817927 
L 156.550665 100.905285 
L 156.80278 100.830405 
L 156.910829 100.923117 
L 157.054894 100.874974 
L 157.270992 100.698526 
L 157.415057 100.650425 
L 157.523106 100.910634 
L 157.631155 100.789409 
L 157.775221 100.887454 
L 157.88327 100.623706 
L 158.135384 100.94095 
L 158.351482 100.787626 
L 158.495547 100.723471 
L 158.711646 100.837536 
L 159.323923 100.723471 
L 159.467989 100.887454 
L 159.576038 100.737727 
L 159.684087 100.810797 
L 159.828152 100.762675 
L 159.936201 100.885672 
L 160.296364 100.70209 
L 160.404413 100.810797 
L 160.548479 100.678928 
L 160.656528 100.785844 
L 160.764577 100.684273 
L 161.12474 100.825057 
L 161.376855 100.915984 
L 161.484904 100.743072 
L 161.737018 100.809015 
L 161.845067 100.707435 
L 162.349296 100.789409 
L 162.60141 100.696745 
L 162.817508 100.739509 
L 163.321737 100.748419 
L 163.537835 100.787626 
L 163.6819 100.68071 
L 163.897998 100.718126 
L 164.402227 100.728817 
L 164.618325 100.778715 
L 164.87044 100.687836 
L 164.978489 100.883889 
L 165.482717 100.548907 
L 165.590766 100.76624 
L 165.734832 100.591647 
L 165.842881 100.841101 
L 165.95093 100.727035 
L 166.203044 100.791191 
L 166.311093 100.646862 
L 166.563208 100.719908 
L 166.815322 100.62905 
L 167.03142 100.719908 
L 167.391583 100.570276 
L 167.535649 100.81971 
L 167.643698 100.700308 
L 167.751747 100.810797 
L 167.895812 100.591647 
L 168.255975 100.668239 
L 168.364025 100.445648 
L 168.616139 100.641518 
L 168.724188 100.572057 
L 169.084351 100.727035 
L 169.228417 100.566714 
L 169.336466 100.716344 
L 169.58858 100.620144 
L 169.804678 100.630831 
L 169.948743 100.458108 
L 170.056792 100.609457 
L 170.308907 100.47591 
L 171.137283 100.611238 
L 171.389397 100.367342 
L 171.605495 100.545346 
L 171.74956 100.386916 
L 171.857609 100.545346 
L 172.109724 100.47591 
L 172.217773 100.433189 
L 172.577936 100.6148 
L 172.722002 100.470569 
L 172.830051 100.586304 
L 172.9381 100.468789 
L 173.442328 100.572057 
L 173.658426 100.52932 
L 173.802492 100.607676 
L 173.910541 100.468789 
L 174.270704 100.413611 
L 174.378753 100.572057 
L 174.738917 100.470569 
L 174.991031 100.550688 
L 175.351194 100.21969 
L 175.603309 100.47769 
L 175.855423 100.474129 
L 176.071521 100.265933 
L 176.215587 100.48125 
L 176.431685 100.251704 
L 176.57575 100.360224 
L 176.683799 100.289058 
L 176.791848 100.447428 
L 177.043962 100.367342 
L 177.404126 100.433189 
L 177.512175 100.280164 
L 177.764289 100.378018 
L 177.872338 100.331755 
L 178.124453 100.401153 
L 178.844779 100.394034 
L 178.988845 100.308627 
L 179.096894 100.511516 
L 179.204943 100.283722 
L 179.709171 100.486591 
L 179.81722 100.239254 
L 180.177384 100.379798 
L 180.285433 100.287279 
L 180.537547 100.280164 
L 180.645596 100.249925 
L 180.789662 100.442088 
L 180.897711 100.294395 
L 181.00576 100.458108 
L 181.509988 100.205463 
L 181.870152 100.532881 
L 181.978201 100.296174 
L 182.338364 100.376239 
L 182.590479 100.442088 
L 182.842593 100.367342 
L 183.058691 100.429629 
L 183.670969 100.2855 
L 183.779018 100.397594 
L 183.923083 100.296174 
L 184.031132 100.374459 
L 184.283247 100.132562 
L 184.499345 100.356665 
L 184.751459 100.42073 
L 184.895524 100.434969 
L 185.111622 100.287279 
L 185.615851 100.450988 
L 185.831949 100.333535 
L 185.976015 100.379798 
L 186.084064 100.182346 
L 186.336178 100.395814 
L 186.552276 100.273049 
L 186.80439 100.19835 
L 186.912439 100.463449 
L 187.164554 100.319301 
L 187.272603 100.182346 
L 187.632766 100.369121 
L 188.136995 100.299732 
L 188.245044 100.196572 
L 188.497158 100.376239 
L 188.857322 100.210798 
L 189.109436 100.37268 
L 189.217485 100.273049 
L 189.325534 100.376239 
L 190.297975 100.351327 
L 190.910253 100.410051 
L 191.018302 100.161009 
L 191.270416 100.378018 
L 191.378465 100.212577 
L 191.522531 100.367342 
L 191.738629 100.161009 
L 191.990743 100.337093 
L 192.098792 100.283722 
L 192.242858 100.349548 
L 192.458956 100.283722 
L 192.71107 100.363783 
L 193.071233 100.239254 
L 194.655952 100.169899 
L 194.764001 100.326418 
L 195.016116 100.169899 
L 195.232214 100.249925 
L 195.484328 100.155675 
L 195.844492 100.283722 
L 195.952541 100.196572 
L 196.096606 100.228583 
L 196.456769 100.002812 
L 196.816933 100.12545 
L 196.924982 100.017028 
L 197.285145 100.223247 
L 197.537259 100.068567 
L 197.645309 99.935296 
L 197.897423 100.098785 
L 198.005472 100.0739 
L 198.257586 99.910426 
L 198.365635 100.06679 
L 198.509701 99.967275 
L 198.61775 100.098785 
L 198.869864 99.924637 
L 199.085962 100.047239 
L 199.230027 99.906873 
L 199.338076 100.0739 
L 199.69824 99.869573 
L 200.166452 100.127228 
L 200.418567 100.120117 
L 200.526616 99.90865 
L 200.77873 99.956615 
L 201.138893 100.0739 
L 201.282959 99.835831 
L 201.391008 100.082787 
L 201.499057 99.983266 
L 201.643122 100.116562 
L 201.85922 100.036576 
L 202.003286 100.180568 
L 202.111335 99.92819 
L 202.363449 99.993927 
L 202.471498 99.734628 
L 202.579547 100.017028 
L 202.93971 99.818073 
L 203.191825 100.002812 
L 204.164266 100.065013 
L 204.272315 99.873126 
L 204.524429 99.882006 
L 204.632478 100.056126 
L 204.776544 99.789663 
L 204.884593 100.036576 
L 204.992642 99.87135 
L 205.496871 100.145007 
L 205.712969 99.999258 
L 205.965083 100.056126 
L 206.433295 100.072122 
L 206.577361 99.882006 
L 206.68541 100.146785 
L 207.045573 99.983266 
L 207.297687 100.017028 
L 207.549802 100.017028 
L 207.909965 100.056126 
L 208.018014 100.098785 
L 208.126063 99.883782 
L 208.486227 99.974382 
L 208.738341 99.965498 
L 208.84639 99.857141 
L 208.990455 99.873126 
L 209.098504 100.155675 
L 209.458668 99.87135 
L 209.566717 100.127228 
L 210.070946 99.889111 
L 210.287044 100.065013 
L 210.539158 100.061458 
L 210.683223 100.225026 
L 211.151436 100.038353 
L 211.40355 100.145007 
L 211.763714 100.017028 
L 211.979812 100.205463 
L 212.231926 99.956615 
L 212.48404 99.956615 
L 212.592089 100.098785 
L 212.844204 99.910426 
L 213.060302 100.0739 
L 213.204367 99.874902 
L 213.420465 99.985043 
L 213.67258 99.933519 
L 213.924694 100.0739 
L 214.176808 99.816297 
L 214.284857 100.145007 
L 214.392906 100.038353 
L 214.536972 100.082787 
L 214.645021 99.947732 
L 214.897135 100.02769 
L 215.005184 99.92819 
L 215.113233 100.12545 
L 215.473397 100.047239 
L 215.617462 100.093452 
L 215.83356 99.956615 
L 215.977625 100.127228 
L 216.085674 99.873126 
L 216.193723 100.038353 
L 216.337789 99.965498 
L 216.445838 100.146785 
L 216.553887 99.965498 
L 216.697952 100.065013 
L 216.950066 99.773684 
L 217.058116 100.029467 
L 217.418279 99.857141 
L 218.030557 99.974382 
L 218.138606 99.834055 
L 218.39072 100.04013 
L 218.606818 100.100563 
L 218.750883 99.873126 
L 218.966981 99.929966 
L 219.831374 99.956615 
L 219.939423 99.761256 
L 220.191537 100.065013 
L 220.443651 99.640562 
L 220.5517 99.853589 
L 220.659749 99.75238 
L 220.911864 100.065013 
L 221.019913 99.87135 
L 221.380076 99.983266 
L 221.524142 99.846486 
L 221.884305 100.118339 
L 221.992354 99.956615 
L 222.244468 100.098785 
L 222.460566 99.846486 
L 222.712681 99.983266 
L 222.82073 100.120117 
L 223.072844 99.929966 
L 223.21691 99.84471 
L 223.324959 100.091675 
L 223.937236 99.882006 
L 224.045285 100.091675 
L 224.2974 99.965498 
L 224.405449 100.056126 
L 224.513498 99.855365 
L 224.657563 100.038353 
L 224.873661 99.929966 
L 225.017727 100.011697 
L 225.233825 99.864245 
L 225.954151 99.686703 
L 226.206266 99.864245 
L 227.178707 99.878454 
L 227.286756 99.90865 
L 227.53887 99.725752 
L 227.790985 99.846486 
L 227.899034 99.665406 
L 228.007083 99.805643 
L 228.367246 99.796765 
L 228.511311 99.92819 
L 228.61936 99.807419 
L 228.727409 99.960168 
L 228.979524 99.750605 
L 229.087573 99.92819 
L 229.231638 99.835831 
L 229.339687 99.929966 
L 229.447736 99.723977 
L 229.591802 99.862469 
L 229.843916 99.75238 
L 230.204079 99.846486 
L 230.312128 99.574913 
L 230.420177 99.874902 
L 230.564243 99.686703 
L 230.780341 99.800316 
L 231.140504 99.688478 
L 231.28457 99.649435 
L 231.500668 99.773684 
L 231.644733 99.67073 
L 231.752782 99.828727 
L 232.112945 99.679604 
L 232.220994 99.75593 
L 232.36506 99.592654 
L 232.581158 99.798541 
L 232.725223 99.677829 
L 232.977338 99.763032 
L 233.085387 99.736403 
L 233.193436 99.929966 
L 233.337501 99.668956 
L 233.44555 99.809194 
L 233.553599 99.582009 
L 233.697664 99.734628 
L 233.805713 99.454304 
L 234.057828 99.754155 
L 234.273926 99.493318 
L 234.52604 99.667181 
L 234.634089 99.541208 
L 234.778155 99.818073 
L 234.886204 99.677829 
L 234.994253 99.725752 
L 235.138318 99.583784 
L 235.246367 99.837606 
L 235.354416 99.677829 
L 235.858645 99.688478 
L 235.966694 99.507507 
L 236.687021 99.50396 
L 236.831086 99.649435 
L 236.939135 99.564269 
L 237.047184 99.658308 
L 237.407347 99.448984 
L 237.767511 99.582009 
L 237.911576 99.379838 
L 238.019625 99.562495 
L 238.271739 99.434799 
L 238.379788 99.621043 
L 238.739952 99.344385 
L 238.992066 99.613946 
L 239.100115 99.358565 
L 239.35223 99.512828 
L 239.460279 99.363883 
L 239.712393 99.535886 
L 239.820442 99.402884 
L 240.072556 99.512828 
L 240.180605 99.440118 
L 240.324671 99.512828 
L 240.43272 99.425933 
L 240.540769 99.509281 
L 240.684834 99.427706 
L 240.792883 99.629915 
L 240.900932 99.551851 
L 241.261096 99.715102 
L 241.51321 99.495092 
L 241.621259 99.640562 
L 241.981422 99.466717 
L 242.5937 99.940625 
L 242.845815 98.380116 
L 243.097929 96.532076 
L 244.538583 74.899191 
L 244.646632 74.188951 
L 244.898746 72.228601 
L 245.006795 72.087086 
L 245.114844 71.747326 
L 245.258909 71.787953 
L 245.475007 70.650316 
L 245.619073 70.224302 
L 246.3394 63.9802 
L 246.591514 59.947661 
L 247.167775 59.825645 
L 247.41989 60.209213 
L 247.780053 59.651382 
L 248.140216 60.129942 
L 248.248266 59.79871 
L 248.392331 59.793957 
L 248.50038 59.958755 
L 248.608429 60.475647 
L 248.752494 60.167991 
L 249.004609 61.251898 
L 249.112658 60.850141 
L 249.220707 61.137534 
L 249.364772 61.059716 
L 249.58087 61.407599 
L 249.832984 61.431435 
L 249.941033 61.633288 
L 250.085099 61.080361 
L 250.193148 61.642826 
L 250.301197 61.277315 
L 250.445262 61.771609 
L 250.553311 61.363108 
L 250.66136 61.485467 
L 250.805426 61.475931 
L 251.021524 60.547035 
L 251.165589 60.469302 
L 251.273638 60.740623 
L 251.381687 60.336071 
L 251.525752 60.475647 
L 251.633801 60.169576 
L 251.74185 60.328141 
L 251.885916 60.202871 
L 251.993965 60.608912 
L 252.13803 59.955585 
L 252.246079 60.074459 
L 252.354128 60.374133 
L 252.498194 60.370961 
L 252.606243 60.585113 
L 252.858357 60.180674 
L 252.966406 60.201285 
L 253.074455 60.688252 
L 253.21852 60.586699 
L 253.326569 60.115674 
L 253.578684 60.924753 
L 253.686733 60.038001 
L 253.794782 60.393166 
L 254.046896 60.453439 
L 254.154945 60.993025 
L 254.40706 59.958755 
L 254.515109 60.510547 
L 254.767223 60.259953 
L 254.875272 60.532757 
L 255.127386 60.258367 
L 255.271452 60.453439 
L 255.379501 61.035897 
L 255.631615 60.842204 
L 255.739664 60.477234 
L 255.847713 60.610499 
L 255.991778 60.98191 
L 256.207877 60.827918 
L 256.459991 60.966033 
L 256.56804 60.672383 
L 256.820154 61.189947 
L 256.928203 61.261429 
L 257.540481 68.898778 
L 257.64853 68.314896 
L 258.152759 68.295554 
L 258.260808 68.989172 
L 258.404873 69.040834 
L 258.620971 68.534164 
L 258.765037 68.979486 
L 258.981135 68.676101 
L 259.1252 68.740634 
L 259.341298 69.055365 
L 259.593412 68.59545 
L 259.701461 68.576095 
L 259.845527 68.232699 
L 259.953576 68.727726 
L 260.061625 68.293942 
L 260.20569 68.855202 
L 260.421788 68.319732 
L 260.781952 68.214972 
L 261.034066 68.576095 
L 261.142115 68.102181 
L 261.394229 68.540615 
L 261.646344 68.72934 
L 261.754393 68.319732 
L 261.898458 68.355195 
L 262.006507 68.684167 
L 262.114556 68.397109 
L 262.366671 68.635774 
L 262.47472 68.305225 
L 262.618785 68.556742 
L 263.086997 67.974924 
L 263.195046 68.369703 
L 263.339112 68.324567 
L 263.447161 68.018413 
L 263.699275 68.319732 
L 263.807324 68.303613 
L 263.915373 68.129571 
L 264.059439 68.703526 
L 264.275537 68.258485 
L 264.419602 68.558355 
L 264.527651 68.384212 
L 264.779765 68.787425 
L 264.887814 68.772903 
L 265.03188 68.450313 
L 265.247978 68.955272 
L 265.392043 68.892322 
L 265.608141 69.312161 
L 265.752206 68.808403 
L 265.968305 69.392946 
L 266.11237 68.931059 
L 266.328468 69.371941 
L 266.580582 69.168401 
L 266.688631 68.640613 
L 266.940746 68.898778 
L 267.19286 68.305225 
L 267.300909 68.458375 
L 267.300909 68.458375 
" clip-path="url(#p2f091467bb)" style="fill: none; stroke: #ff7f0e; stroke-width: 1.5; stroke-linecap: square"/>
   </g>
   <g id="line2d_13">
    <path d="M 69.319091 38.27861 
L 105.119332 38.27861 
L 105.33543 102.722629 
L 231.140504 102.722629 
L 231.392619 167.166647 
L 267.19286 167.166647 
L 267.300909 102.722629 
L 267.300909 102.722629 
" clip-path="url(#p2f091467bb)" style="fill: none; stroke: #2ca02c; stroke-width: 1.5; stroke-linecap: square"/>
   </g>
   <g id="patch_4">
    <path d="M 59.42 174.04 
L 59.42 25.44 
" style="fill: none; stroke: #000000; stroke-width: 0.8; stroke-linejoin: miter; stroke-linecap: square"/>
   </g>
   <g id="patch_5">
    <path d="M 277.2 174.04 
L 277.2 25.44 
" style="fill: none; stroke: #000000; stroke-width: 0.8; stroke-linejoin: miter; stroke-linecap: square"/>
   </g>
   <g id="patch_6">
    <path d="M 59.42 174.04 
L 277.2 174.04 
" style="fill: none; stroke: #000000; stroke-width: 0.8; stroke-linejoin: miter; stroke-linecap: square"/>
   </g>
   <g id="patch_7">
    <path d="M 59.42 25.44 
L 277.2 25.44 
" style="fill: none; stroke: #000000; stroke-width: 0.8; stroke-linejoin: miter; stroke-linecap: square"/>
   </g>
   <g id="text_13">
    <!-- Fixation Period -->
    <g transform="translate(124.293438 19.44)scale(0.12 -0.12)">
     <defs>
      <path id="DejaVuSans-46" d="M 628 4666 
L 3309 4666 
L 3309 4134 
L 1259 4134 
L 1259 2759 
L 3109 2759 
L 3109 2228 
L 1259 2228 
L 1259 0 
L 628 0 
L 628 4666 
z
" transform="scale(0.015625)"/>
      <path id="DejaVuSans-78" d="M 3513 3500 
L 2247 1797 
L 3578 0 
L 2900 0 
L 1881 1375 
L 863 0 
L 184 0 
L 1544 1831 
L 300 3500 
L 978 3500 
L 1906 2253 
L 2834 3500 
L 3513 3500 
z
" transform="scale(0.015625)"/>
      <path id="DejaVuSans-72" d="M 2631 2963 
Q 2534 3019 2420 3045 
Q 2306 3072 2169 3072 
Q 1681 3072 1420 2755 
Q 1159 2438 1159 1844 
L 1159 0 
L 581 0 
L 581 3500 
L 1159 3500 
L 1159 2956 
Q 1341 3275 1631 3429 
Q 1922 3584 2338 3584 
Q 2397 3584 2469 3576 
Q 2541 3569 2628 3553 
L 2631 2963 
z
" transform="scale(0.015625)"/>
      <path id="DejaVuSans-64" d="M 2906 2969 
L 2906 4863 
L 3481 4863 
L 3481 0 
L 2906 0 
L 2906 525 
Q 2725 213 2448 61 
Q 2172 -91 1784 -91 
Q 1150 -91 751 415 
Q 353 922 353 1747 
Q 353 2572 751 3078 
Q 1150 3584 1784 3584 
Q 2172 3584 2448 3432 
Q 2725 3281 2906 2969 
z
M 947 1747 
Q 947 1113 1208 752 
Q 1469 391 1925 391 
Q 2381 391 2643 752 
Q 2906 1113 2906 1747 
Q 2906 2381 2643 2742 
Q 2381 3103 1925 3103 
Q 1469 3103 1208 2742 
Q 947 2381 947 1747 
z
" transform="scale(0.015625)"/>
     </defs>
     <use xlink:href="#DejaVuSans-46"/>
     <use xlink:href="#DejaVuSans-69" x="50.269531"/>
     <use xlink:href="#DejaVuSans-78" x="78.052734"/>
     <use xlink:href="#DejaVuSans-61" x="137.232422"/>
     <use xlink:href="#DejaVuSans-74" x="198.511719"/>
     <use xlink:href="#DejaVuSans-69" x="237.720703"/>
     <use xlink:href="#DejaVuSans-6f" x="265.503906"/>
     <use xlink:href="#DejaVuSans-6e" x="326.685547"/>
     <use xlink:href="#DejaVuSans-20" x="390.064453"/>
     <use xlink:href="#DejaVuSans-50" x="421.851562"/>
     <use xlink:href="#DejaVuSans-65" x="478.529297"/>
     <use xlink:href="#DejaVuSans-72" x="540.052734"/>
     <use xlink:href="#DejaVuSans-69" x="581.166016"/>
     <use xlink:href="#DejaVuSans-6f" x="608.949219"/>
     <use xlink:href="#DejaVuSans-64" x="670.130859"/>
    </g>
   </g>
   <g id="legend_1">
    <g id="patch_8">
     <path d="M 66.42 169.04 
L 137.923125 169.04 
Q 139.923125 169.04 139.923125 167.04 
L 139.923125 124.005625 
Q 139.923125 122.005625 137.923125 122.005625 
L 66.42 122.005625 
Q 64.42 122.005625 64.42 124.005625 
L 64.42 167.04 
Q 64.42 169.04 66.42 169.04 
z
" style="fill: #ffffff; opacity: 0.8; stroke: #cccccc; stroke-linejoin: miter"/>
    </g>
    <g id="line2d_14">
     <path d="M 68.42 130.104062 
L 78.42 130.104062 
L 88.42 130.104062 
" style="fill: none; stroke: #1f77b4; stroke-width: 1.5; stroke-linecap: square"/>
    </g>
    <g id="text_14">
     <!-- gaze x -->
     <g transform="translate(96.42 133.604062)scale(0.1 -0.1)">
      <defs>
       <path id="DejaVuSans-67" d="M 2906 1791 
Q 2906 2416 2648 2759 
Q 2391 3103 1925 3103 
Q 1463 3103 1205 2759 
Q 947 2416 947 1791 
Q 947 1169 1205 825 
Q 1463 481 1925 481 
Q 2391 481 2648 825 
Q 2906 1169 2906 1791 
z
M 3481 434 
Q 3481 -459 3084 -895 
Q 2688 -1331 1869 -1331 
Q 1566 -1331 1297 -1286 
Q 1028 -1241 775 -1147 
L 775 -588 
Q 1028 -725 1275 -790 
Q 1522 -856 1778 -856 
Q 2344 -856 2625 -561 
Q 2906 -266 2906 331 
L 2906 616 
Q 2728 306 2450 153 
Q 2172 0 1784 0 
Q 1141 0 747 490 
Q 353 981 353 1791 
Q 353 2603 747 3093 
Q 1141 3584 1784 3584 
Q 2172 3584 2450 3431 
Q 2728 3278 2906 2969 
L 2906 3500 
L 3481 3500 
L 3481 434 
z
" transform="scale(0.015625)"/>
      </defs>
      <use xlink:href="#DejaVuSans-67"/>
      <use xlink:href="#DejaVuSans-61" x="63.476562"/>
      <use xlink:href="#DejaVuSans-7a" x="124.755859"/>
      <use xlink:href="#DejaVuSans-65" x="177.246094"/>
      <use xlink:href="#DejaVuSans-20" x="238.769531"/>
      <use xlink:href="#DejaVuSans-78" x="270.556641"/>
     </g>
    </g>
    <g id="line2d_15">
     <path d="M 68.42 144.782187 
L 78.42 144.782187 
L 88.42 144.782187 
" style="fill: none; stroke: #ff7f0e; stroke-width: 1.5; stroke-linecap: square"/>
    </g>
    <g id="text_15">
     <!-- gaze y -->
     <g transform="translate(96.42 148.282187)scale(0.1 -0.1)">
      <defs>
       <path id="DejaVuSans-79" d="M 2059 -325 
Q 1816 -950 1584 -1140 
Q 1353 -1331 966 -1331 
L 506 -1331 
L 506 -850 
L 844 -850 
Q 1081 -850 1212 -737 
Q 1344 -625 1503 -206 
L 1606 56 
L 191 3500 
L 800 3500 
L 1894 763 
L 2988 3500 
L 3597 3500 
L 2059 -325 
z
" transform="scale(0.015625)"/>
      </defs>
      <use xlink:href="#DejaVuSans-67"/>
      <use xlink:href="#DejaVuSans-61" x="63.476562"/>
      <use xlink:href="#DejaVuSans-7a" x="124.755859"/>
      <use xlink:href="#DejaVuSans-65" x="177.246094"/>
      <use xlink:href="#DejaVuSans-20" x="238.769531"/>
      <use xlink:href="#DejaVuSans-79" x="270.556641"/>
     </g>
    </g>
    <g id="line2d_16">
     <path d="M 68.42 159.460312 
L 78.42 159.460312 
L 88.42 159.460312 
" style="fill: none; stroke: #2ca02c; stroke-width: 1.5; stroke-linecap: square"/>
    </g>
    <g id="text_16">
     <!-- target x -->
     <g transform="translate(96.42 162.960312)scale(0.1 -0.1)">
      <use xlink:href="#DejaVuSans-74"/>
      <use xlink:href="#DejaVuSans-61" x="39.208984"/>
      <use xlink:href="#DejaVuSans-72" x="100.488281"/>
      <use xlink:href="#DejaVuSans-67" x="139.851562"/>
      <use xlink:href="#DejaVuSans-65" x="203.328125"/>
      <use xlink:href="#DejaVuSans-74" x="264.851562"/>
      <use xlink:href="#DejaVuSans-20" x="304.060547"/>
      <use xlink:href="#DejaVuSans-78" x="335.847656"/>
     </g>
    </g>
   </g>
  </g>
 </g>
 <defs>
  <clipPath id="p2f091467bb">
   <rect x="59.42" y="25.44" width="217.78" height="148.6"/>
  </clipPath>
 </defs>
</svg>
