<?xml version="1.0" encoding="utf-8" standalone="no"?>
<!DOCTYPE svg PUBLIC "-//W3C//DTD SVG 1.1//EN"
  "http://www.w3.org/Graphics/SVG/1.1/DTD/svg11.dtd">
<svg xmlns:xlink="http://www.w3.org/1999/xlink" width="288pt" height="216pt" viewBox="0 0 288 216" xmlns="http://www.w3.org/2000/svg" version="1.1">
 <metadata>
  <rdf:RDF xmlns:dc="http://purl.org/dc/elements/1.1/" xmlns:cc="http://creativecommons.org/ns#" xmlns:rdf="http://www.w3.org/1999/02/22-rdf-syntax-ns#">
   <cc:Work>
    <dc:type rdf:resource="http://purl.org/dc/dcmitype/StillImage"/>
    <dc:date>2023-09-06T17:55:03.785544</dc:date>
    <dc:format>image/svg+xml</dc:format>
    <dc:creator>
     <cc:Agent>
      <dc:title>Matplotlib v3.5.3, https://matplotlib.org/</dc:title>
     </cc:Agent>
    </dc:creator>
   </cc:Work>
  </rdf:RDF>
 </metadata>
 <defs>
  <style type="text/css">*{stroke-linejoin: round; stroke-linecap: butt}</style>
 </defs>
 <g id="figure_1">
  <g id="patch_1">
   <path d="M 0 216 
L 288 216 
L 288 0 
L 0 0 
z
" style="fill: #ffffff"/>
  </g>
  <g id="axes_1">
   <g id="patch_2">
    <path d="M 68.825 174.04 
L 277.2 174.04 
L 277.2 26.16 
L 68.825 26.16 
z
" style="fill: #ffffff"/>
   </g>
   <g id="matplotlib.axis_1">
    <g id="xtick_1">
     <g id="line2d_1">
      <defs>
       <path id="mee01d7a044" d="M 0 0 
L 0 3.5 
" style="stroke: #000000; stroke-width: 0.8"/>
      </defs>
      <g>
       <use xlink:href="#mee01d7a044" x="78.296591" y="174.04" style="stroke: #000000; stroke-width: 0.8"/>
      </g>
     </g>
     <g id="text_1">
      <!-- 0 -->
      <g transform="translate(75.115341 188.638438)scale(0.1 -0.1)">
       <defs>
        <path id="DejaVuSans-30" d="M 2034 4250 
Q 1547 4250 1301 3770 
Q 1056 3291 1056 2328 
Q 1056 1369 1301 889 
Q 1547 409 2034 409 
Q 2525 409 2770 889 
Q 3016 1369 3016 2328 
Q 3016 3291 2770 3770 
Q 2525 4250 2034 4250 
z
M 2034 4750 
Q 2819 4750 3233 4129 
Q 3647 3509 3647 2328 
Q 3647 1150 3233 529 
Q 2819 -91 2034 -91 
Q 1250 -91 836 529 
Q 422 1150 422 2328 
Q 422 3509 836 4129 
Q 1250 4750 2034 4750 
z
" transform="scale(0.015625)"/>
       </defs>
       <use xlink:href="#DejaVuSans-30"/>
      </g>
     </g>
    </g>
    <g id="xtick_2">
     <g id="line2d_2">
      <g>
       <use xlink:href="#mee01d7a044" x="121.844135" y="174.04" style="stroke: #000000; stroke-width: 0.8"/>
      </g>
     </g>
     <g id="text_2">
      <!-- 100 -->
      <g transform="translate(112.300385 188.638438)scale(0.1 -0.1)">
       <defs>
        <path id="DejaVuSans-31" d="M 794 531 
L 1825 531 
L 1825 4091 
L 703 3866 
L 703 4441 
L 1819 4666 
L 2450 4666 
L 2450 531 
L 3481 531 
L 3481 0 
L 794 0 
L 794 531 
z
" transform="scale(0.015625)"/>
       </defs>
       <use xlink:href="#DejaVuSans-31"/>
       <use xlink:href="#DejaVuSans-30" x="63.623047"/>
       <use xlink:href="#DejaVuSans-30" x="127.246094"/>
      </g>
     </g>
    </g>
    <g id="xtick_3">
     <g id="line2d_3">
      <g>
       <use xlink:href="#mee01d7a044" x="165.39168" y="174.04" style="stroke: #000000; stroke-width: 0.8"/>
      </g>
     </g>
     <g id="text_3">
      <!-- 200 -->
      <g transform="translate(155.84793 188.638438)scale(0.1 -0.1)">
       <defs>
        <path id="DejaVuSans-32" d="M 1228 531 
L 3431 531 
L 3431 0 
L 469 0 
L 469 531 
Q 828 903 1448 1529 
Q 2069 2156 2228 2338 
Q 2531 2678 2651 2914 
Q 2772 3150 2772 3378 
Q 2772 3750 2511 3984 
Q 2250 4219 1831 4219 
Q 1534 4219 1204 4116 
Q 875 4013 500 3803 
L 500 4441 
Q 881 4594 1212 4672 
Q 1544 4750 1819 4750 
Q 2544 4750 2975 4387 
Q 3406 4025 3406 3419 
Q 3406 3131 3298 2873 
Q 3191 2616 2906 2266 
Q 2828 2175 2409 1742 
Q 1991 1309 1228 531 
z
" transform="scale(0.015625)"/>
       </defs>
       <use xlink:href="#DejaVuSans-32"/>
       <use xlink:href="#DejaVuSans-30" x="63.623047"/>
       <use xlink:href="#DejaVuSans-30" x="127.246094"/>
      </g>
     </g>
    </g>
    <g id="xtick_4">
     <g id="line2d_4">
      <g>
       <use xlink:href="#mee01d7a044" x="208.939224" y="174.04" style="stroke: #000000; stroke-width: 0.8"/>
      </g>
     </g>
     <g id="text_4">
      <!-- 300 -->
      <g transform="translate(199.395474 188.638438)scale(0.1 -0.1)">
       <defs>
        <path id="DejaVuSans-33" d="M 2597 2516 
Q 3050 2419 3304 2112 
Q 3559 1806 3559 1356 
Q 3559 666 3084 287 
Q 2609 -91 1734 -91 
Q 1441 -91 1130 -33 
Q 819 25 488 141 
L 488 750 
Q 750 597 1062 519 
Q 1375 441 1716 441 
Q 2309 441 2620 675 
Q 2931 909 2931 1356 
Q 2931 1769 2642 2001 
Q 2353 2234 1838 2234 
L 1294 2234 
L 1294 2753 
L 1863 2753 
Q 2328 2753 2575 2939 
Q 2822 3125 2822 3475 
Q 2822 3834 2567 4026 
Q 2313 4219 1838 4219 
Q 1578 4219 1281 4162 
Q 984 4106 628 3988 
L 628 4550 
Q 988 4650 1302 4700 
Q 1616 4750 1894 4750 
Q 2613 4750 3031 4423 
Q 3450 4097 3450 3541 
Q 3450 3153 3228 2886 
Q 3006 2619 2597 2516 
z
" transform="scale(0.015625)"/>
       </defs>
       <use xlink:href="#DejaVuSans-33"/>
       <use xlink:href="#DejaVuSans-30" x="63.623047"/>
       <use xlink:href="#DejaVuSans-30" x="127.246094"/>
      </g>
     </g>
    </g>
    <g id="xtick_5">
     <g id="line2d_5">
      <g>
       <use xlink:href="#mee01d7a044" x="252.486769" y="174.04" style="stroke: #000000; stroke-width: 0.8"/>
      </g>
     </g>
     <g id="text_5">
      <!-- 400 -->
      <g transform="translate(242.943019 188.638438)scale(0.1 -0.1)">
       <defs>
        <path id="DejaVuSans-34" d="M 2419 4116 
L 825 1625 
L 2419 1625 
L 2419 4116 
z
M 2253 4666 
L 3047 4666 
L 3047 1625 
L 3713 1625 
L 3713 1100 
L 3047 1100 
L 3047 0 
L 2419 0 
L 2419 1100 
L 313 1100 
L 313 1709 
L 2253 4666 
z
" transform="scale(0.015625)"/>
       </defs>
       <use xlink:href="#DejaVuSans-34"/>
       <use xlink:href="#DejaVuSans-30" x="63.623047"/>
       <use xlink:href="#DejaVuSans-30" x="127.246094"/>
      </g>
     </g>
    </g>
    <g id="text_6">
     <!-- Step -->
     <g transform="translate(161.627344 202.316563)scale(0.1 -0.1)">
      <defs>
       <path id="DejaVuSans-53" d="M 3425 4513 
L 3425 3897 
Q 3066 4069 2747 4153 
Q 2428 4238 2131 4238 
Q 1616 4238 1336 4038 
Q 1056 3838 1056 3469 
Q 1056 3159 1242 3001 
Q 1428 2844 1947 2747 
L 2328 2669 
Q 3034 2534 3370 2195 
Q 3706 1856 3706 1288 
Q 3706 609 3251 259 
Q 2797 -91 1919 -91 
Q 1588 -91 1214 -16 
Q 841 59 441 206 
L 441 856 
Q 825 641 1194 531 
Q 1563 422 1919 422 
Q 2459 422 2753 634 
Q 3047 847 3047 1241 
Q 3047 1584 2836 1778 
Q 2625 1972 2144 2069 
L 1759 2144 
Q 1053 2284 737 2584 
Q 422 2884 422 3419 
Q 422 4038 858 4394 
Q 1294 4750 2059 4750 
Q 2388 4750 2728 4690 
Q 3069 4631 3425 4513 
z
" transform="scale(0.015625)"/>
       <path id="DejaVuSans-74" d="M 1172 4494 
L 1172 3500 
L 2356 3500 
L 2356 3053 
L 1172 3053 
L 1172 1153 
Q 1172 725 1289 603 
Q 1406 481 1766 481 
L 2356 481 
L 2356 0 
L 1766 0 
Q 1100 0 847 248 
Q 594 497 594 1153 
L 594 3053 
L 172 3053 
L 172 3500 
L 594 3500 
L 594 4494 
L 1172 4494 
z
" transform="scale(0.015625)"/>
       <path id="DejaVuSans-65" d="M 3597 1894 
L 3597 1613 
L 953 1613 
Q 991 1019 1311 708 
Q 1631 397 2203 397 
Q 2534 397 2845 478 
Q 3156 559 3463 722 
L 3463 178 
Q 3153 47 2828 -22 
Q 2503 -91 2169 -91 
Q 1331 -91 842 396 
Q 353 884 353 1716 
Q 353 2575 817 3079 
Q 1281 3584 2069 3584 
Q 2775 3584 3186 3129 
Q 3597 2675 3597 1894 
z
M 3022 2063 
Q 3016 2534 2758 2815 
Q 2500 3097 2075 3097 
Q 1594 3097 1305 2825 
Q 1016 2553 972 2059 
L 3022 2063 
z
" transform="scale(0.015625)"/>
       <path id="DejaVuSans-70" d="M 1159 525 
L 1159 -1331 
L 581 -1331 
L 581 3500 
L 1159 3500 
L 1159 2969 
Q 1341 3281 1617 3432 
Q 1894 3584 2278 3584 
Q 2916 3584 3314 3078 
Q 3713 2572 3713 1747 
Q 3713 922 3314 415 
Q 2916 -91 2278 -91 
Q 1894 -91 1617 61 
Q 1341 213 1159 525 
z
M 3116 1747 
Q 3116 2381 2855 2742 
Q 2594 3103 2138 3103 
Q 1681 3103 1420 2742 
Q 1159 2381 1159 1747 
Q 1159 1113 1420 752 
Q 1681 391 2138 391 
Q 2594 391 2855 752 
Q 3116 1113 3116 1747 
z
" transform="scale(0.015625)"/>
      </defs>
      <use xlink:href="#DejaVuSans-53"/>
      <use xlink:href="#DejaVuSans-74" x="63.476562"/>
      <use xlink:href="#DejaVuSans-65" x="102.685547"/>
      <use xlink:href="#DejaVuSans-70" x="164.208984"/>
     </g>
    </g>
   </g>
   <g id="matplotlib.axis_2">
    <g id="ytick_1">
     <g id="line2d_6">
      <defs>
       <path id="mb8b9b1f0a7" d="M 0 0 
L -3.5 0 
" style="stroke: #000000; stroke-width: 0.8"/>
      </defs>
      <g>
       <use xlink:href="#mb8b9b1f0a7" x="68.825" y="174.04" style="stroke: #000000; stroke-width: 0.8"/>
      </g>
     </g>
     <g id="text_7">
      <!-- −0.10 -->
      <g transform="translate(31.179688 177.839219)scale(0.1 -0.1)">
       <defs>
        <path id="DejaVuSans-2212" d="M 678 2272 
L 4684 2272 
L 4684 1741 
L 678 1741 
L 678 2272 
z
" transform="scale(0.015625)"/>
        <path id="DejaVuSans-2e" d="M 684 794 
L 1344 794 
L 1344 0 
L 684 0 
L 684 794 
z
" transform="scale(0.015625)"/>
       </defs>
       <use xlink:href="#DejaVuSans-2212"/>
       <use xlink:href="#DejaVuSans-30" x="83.789062"/>
       <use xlink:href="#DejaVuSans-2e" x="147.412109"/>
       <use xlink:href="#DejaVuSans-31" x="179.199219"/>
       <use xlink:href="#DejaVuSans-30" x="242.822266"/>
      </g>
     </g>
    </g>
    <g id="ytick_2">
     <g id="line2d_7">
      <g>
       <use xlink:href="#mb8b9b1f0a7" x="68.825" y="137.07" style="stroke: #000000; stroke-width: 0.8"/>
      </g>
     </g>
     <g id="text_8">
      <!-- −0.05 -->
      <g transform="translate(31.179688 140.869219)scale(0.1 -0.1)">
       <defs>
        <path id="DejaVuSans-35" d="M 691 4666 
L 3169 4666 
L 3169 4134 
L 1269 4134 
L 1269 2991 
Q 1406 3038 1543 3061 
Q 1681 3084 1819 3084 
Q 2600 3084 3056 2656 
Q 3513 2228 3513 1497 
Q 3513 744 3044 326 
Q 2575 -91 1722 -91 
Q 1428 -91 1123 -41 
Q 819 9 494 109 
L 494 744 
Q 775 591 1075 516 
Q 1375 441 1709 441 
Q 2250 441 2565 725 
Q 2881 1009 2881 1497 
Q 2881 1984 2565 2268 
Q 2250 2553 1709 2553 
Q 1456 2553 1204 2497 
Q 953 2441 691 2322 
L 691 4666 
z
" transform="scale(0.015625)"/>
       </defs>
       <use xlink:href="#DejaVuSans-2212"/>
       <use xlink:href="#DejaVuSans-30" x="83.789062"/>
       <use xlink:href="#DejaVuSans-2e" x="147.412109"/>
       <use xlink:href="#DejaVuSans-30" x="179.199219"/>
       <use xlink:href="#DejaVuSans-35" x="242.822266"/>
      </g>
     </g>
    </g>
    <g id="ytick_3">
     <g id="line2d_8">
      <g>
       <use xlink:href="#mb8b9b1f0a7" x="68.825" y="100.1" style="stroke: #000000; stroke-width: 0.8"/>
      </g>
     </g>
     <g id="text_9">
      <!-- 0.00 -->
      <g transform="translate(39.559375 103.899219)scale(0.1 -0.1)">
       <use xlink:href="#DejaVuSans-30"/>
       <use xlink:href="#DejaVuSans-2e" x="63.623047"/>
       <use xlink:href="#DejaVuSans-30" x="95.410156"/>
       <use xlink:href="#DejaVuSans-30" x="159.033203"/>
      </g>
     </g>
    </g>
    <g id="ytick_4">
     <g id="line2d_9">
      <g>
       <use xlink:href="#mb8b9b1f0a7" x="68.825" y="63.13" style="stroke: #000000; stroke-width: 0.8"/>
      </g>
     </g>
     <g id="text_10">
      <!-- 0.05 -->
      <g transform="translate(39.559375 66.929219)scale(0.1 -0.1)">
       <use xlink:href="#DejaVuSans-30"/>
       <use xlink:href="#DejaVuSans-2e" x="63.623047"/>
       <use xlink:href="#DejaVuSans-30" x="95.410156"/>
       <use xlink:href="#DejaVuSans-35" x="159.033203"/>
      </g>
     </g>
    </g>
    <g id="ytick_5">
     <g id="line2d_10">
      <g>
       <use xlink:href="#mb8b9b1f0a7" x="68.825" y="26.16" style="stroke: #000000; stroke-width: 0.8"/>
      </g>
     </g>
     <g id="text_11">
      <!-- 0.10 -->
      <g transform="translate(39.559375 29.959219)scale(0.1 -0.1)">
       <use xlink:href="#DejaVuSans-30"/>
       <use xlink:href="#DejaVuSans-2e" x="63.623047"/>
       <use xlink:href="#DejaVuSans-31" x="95.410156"/>
       <use xlink:href="#DejaVuSans-30" x="159.033203"/>
      </g>
     </g>
    </g>
    <g id="text_12">
     <!-- Gaze Position (a.u.) -->
     <g transform="translate(25.1 148.69375)rotate(-90)scale(0.1 -0.1)">
      <defs>
       <path id="DejaVuSans-47" d="M 3809 666 
L 3809 1919 
L 2778 1919 
L 2778 2438 
L 4434 2438 
L 4434 434 
Q 4069 175 3628 42 
Q 3188 -91 2688 -91 
Q 1594 -91 976 548 
Q 359 1188 359 2328 
Q 359 3472 976 4111 
Q 1594 4750 2688 4750 
Q 3144 4750 3555 4637 
Q 3966 4525 4313 4306 
L 4313 3634 
Q 3963 3931 3569 4081 
Q 3175 4231 2741 4231 
Q 1884 4231 1454 3753 
Q 1025 3275 1025 2328 
Q 1025 1384 1454 906 
Q 1884 428 2741 428 
Q 3075 428 3337 486 
Q 3600 544 3809 666 
z
" transform="scale(0.015625)"/>
       <path id="DejaVuSans-61" d="M 2194 1759 
Q 1497 1759 1228 1600 
Q 959 1441 959 1056 
Q 959 750 1161 570 
Q 1363 391 1709 391 
Q 2188 391 2477 730 
Q 2766 1069 2766 1631 
L 2766 1759 
L 2194 1759 
z
M 3341 1997 
L 3341 0 
L 2766 0 
L 2766 531 
Q 2569 213 2275 61 
Q 1981 -91 1556 -91 
Q 1019 -91 701 211 
Q 384 513 384 1019 
Q 384 1609 779 1909 
Q 1175 2209 1959 2209 
L 2766 2209 
L 2766 2266 
Q 2766 2663 2505 2880 
Q 2244 3097 1772 3097 
Q 1472 3097 1187 3025 
Q 903 2953 641 2809 
L 641 3341 
Q 956 3463 1253 3523 
Q 1550 3584 1831 3584 
Q 2591 3584 2966 3190 
Q 3341 2797 3341 1997 
z
" transform="scale(0.015625)"/>
       <path id="DejaVuSans-7a" d="M 353 3500 
L 3084 3500 
L 3084 2975 
L 922 459 
L 3084 459 
L 3084 0 
L 275 0 
L 275 525 
L 2438 3041 
L 353 3041 
L 353 3500 
z
" transform="scale(0.015625)"/>
       <path id="DejaVuSans-20" transform="scale(0.015625)"/>
       <path id="DejaVuSans-50" d="M 1259 4147 
L 1259 2394 
L 2053 2394 
Q 2494 2394 2734 2622 
Q 2975 2850 2975 3272 
Q 2975 3691 2734 3919 
Q 2494 4147 2053 4147 
L 1259 4147 
z
M 628 4666 
L 2053 4666 
Q 2838 4666 3239 4311 
Q 3641 3956 3641 3272 
Q 3641 2581 3239 2228 
Q 2838 1875 2053 1875 
L 1259 1875 
L 1259 0 
L 628 0 
L 628 4666 
z
" transform="scale(0.015625)"/>
       <path id="DejaVuSans-6f" d="M 1959 3097 
Q 1497 3097 1228 2736 
Q 959 2375 959 1747 
Q 959 1119 1226 758 
Q 1494 397 1959 397 
Q 2419 397 2687 759 
Q 2956 1122 2956 1747 
Q 2956 2369 2687 2733 
Q 2419 3097 1959 3097 
z
M 1959 3584 
Q 2709 3584 3137 3096 
Q 3566 2609 3566 1747 
Q 3566 888 3137 398 
Q 2709 -91 1959 -91 
Q 1206 -91 779 398 
Q 353 888 353 1747 
Q 353 2609 779 3096 
Q 1206 3584 1959 3584 
z
" transform="scale(0.015625)"/>
       <path id="DejaVuSans-73" d="M 2834 3397 
L 2834 2853 
Q 2591 2978 2328 3040 
Q 2066 3103 1784 3103 
Q 1356 3103 1142 2972 
Q 928 2841 928 2578 
Q 928 2378 1081 2264 
Q 1234 2150 1697 2047 
L 1894 2003 
Q 2506 1872 2764 1633 
Q 3022 1394 3022 966 
Q 3022 478 2636 193 
Q 2250 -91 1575 -91 
Q 1294 -91 989 -36 
Q 684 19 347 128 
L 347 722 
Q 666 556 975 473 
Q 1284 391 1588 391 
Q 1994 391 2212 530 
Q 2431 669 2431 922 
Q 2431 1156 2273 1281 
Q 2116 1406 1581 1522 
L 1381 1569 
Q 847 1681 609 1914 
Q 372 2147 372 2553 
Q 372 3047 722 3315 
Q 1072 3584 1716 3584 
Q 2034 3584 2315 3537 
Q 2597 3491 2834 3397 
z
" transform="scale(0.015625)"/>
       <path id="DejaVuSans-69" d="M 603 3500 
L 1178 3500 
L 1178 0 
L 603 0 
L 603 3500 
z
M 603 4863 
L 1178 4863 
L 1178 4134 
L 603 4134 
L 603 4863 
z
" transform="scale(0.015625)"/>
       <path id="DejaVuSans-6e" d="M 3513 2113 
L 3513 0 
L 2938 0 
L 2938 2094 
Q 2938 2591 2744 2837 
Q 2550 3084 2163 3084 
Q 1697 3084 1428 2787 
Q 1159 2491 1159 1978 
L 1159 0 
L 581 0 
L 581 3500 
L 1159 3500 
L 1159 2956 
Q 1366 3272 1645 3428 
Q 1925 3584 2291 3584 
Q 2894 3584 3203 3211 
Q 3513 2838 3513 2113 
z
" transform="scale(0.015625)"/>
       <path id="DejaVuSans-28" d="M 1984 4856 
Q 1566 4138 1362 3434 
Q 1159 2731 1159 2009 
Q 1159 1288 1364 580 
Q 1569 -128 1984 -844 
L 1484 -844 
Q 1016 -109 783 600 
Q 550 1309 550 2009 
Q 550 2706 781 3412 
Q 1013 4119 1484 4856 
L 1984 4856 
z
" transform="scale(0.015625)"/>
       <path id="DejaVuSans-75" d="M 544 1381 
L 544 3500 
L 1119 3500 
L 1119 1403 
Q 1119 906 1312 657 
Q 1506 409 1894 409 
Q 2359 409 2629 706 
Q 2900 1003 2900 1516 
L 2900 3500 
L 3475 3500 
L 3475 0 
L 2900 0 
L 2900 538 
Q 2691 219 2414 64 
Q 2138 -91 1772 -91 
Q 1169 -91 856 284 
Q 544 659 544 1381 
z
M 1991 3584 
L 1991 3584 
z
" transform="scale(0.015625)"/>
       <path id="DejaVuSans-29" d="M 513 4856 
L 1013 4856 
Q 1481 4119 1714 3412 
Q 1947 2706 1947 2009 
Q 1947 1309 1714 600 
Q 1481 -109 1013 -844 
L 513 -844 
Q 928 -128 1133 580 
Q 1338 1288 1338 2009 
Q 1338 2731 1133 3434 
Q 928 4138 513 4856 
z
" transform="scale(0.015625)"/>
      </defs>
      <use xlink:href="#DejaVuSans-47"/>
      <use xlink:href="#DejaVuSans-61" x="77.490234"/>
      <use xlink:href="#DejaVuSans-7a" x="138.769531"/>
      <use xlink:href="#DejaVuSans-65" x="191.259766"/>
      <use xlink:href="#DejaVuSans-20" x="252.783203"/>
      <use xlink:href="#DejaVuSans-50" x="284.570312"/>
      <use xlink:href="#DejaVuSans-6f" x="341.248047"/>
      <use xlink:href="#DejaVuSans-73" x="402.429688"/>
      <use xlink:href="#DejaVuSans-69" x="454.529297"/>
      <use xlink:href="#DejaVuSans-74" x="482.3125"/>
      <use xlink:href="#DejaVuSans-69" x="521.521484"/>
      <use xlink:href="#DejaVuSans-6f" x="549.304688"/>
      <use xlink:href="#DejaVuSans-6e" x="610.486328"/>
      <use xlink:href="#DejaVuSans-20" x="673.865234"/>
      <use xlink:href="#DejaVuSans-28" x="705.652344"/>
      <use xlink:href="#DejaVuSans-61" x="744.666016"/>
      <use xlink:href="#DejaVuSans-2e" x="805.945312"/>
      <use xlink:href="#DejaVuSans-75" x="837.732422"/>
      <use xlink:href="#DejaVuSans-2e" x="901.111328"/>
      <use xlink:href="#DejaVuSans-29" x="932.898438"/>
     </g>
    </g>
   </g>
   <g id="line2d_11">
    <path d="M 78.296591 101.40313 
L 78.732066 86.322188 
L 79.167542 123.310612 
L 79.603017 103.316656 
L 80.038493 94.583072 
L 80.909444 107.040088 
L 81.344919 117.996011 
L 81.780394 77.605651 
L 82.21587 95.872907 
L 82.651345 96.457437 
L 83.086821 94.074877 
L 83.522296 110.142028 
L 83.957772 102.798292 
L 84.393247 108.472501 
L 84.828723 97.665668 
L 85.264198 94.852681 
L 85.699673 97.849935 
L 86.135149 97.360193 
L 86.570624 116.050974 
L 87.0061 94.348927 
L 87.441575 87.948369 
L 87.877051 98.361056 
L 88.312526 98.143216 
L 88.748002 108.681184 
L 89.183477 104.822087 
L 89.618952 110.780089 
L 90.054428 89.323327 
L 90.489903 106.581957 
L 90.925379 90.365928 
L 91.360854 99.027041 
L 91.79633 93.100443 
L 92.667281 113.971805 
L 93.102756 96.051542 
L 93.538231 96.253199 
L 93.973707 94.350632 
L 94.409182 106.850499 
L 94.844658 104.773043 
L 95.280133 92.127573 
L 95.715609 98.100509 
L 96.151084 114.390851 
L 96.58656 79.956118 
L 97.022035 103.331751 
L 97.45751 118.031974 
L 97.892986 97.58136 
L 98.328461 106.328466 
L 98.763937 81.764304 
L 99.199412 92.162388 
L 100.070363 118.276504 
L 100.505839 106.577018 
L 100.941314 81.674585 
L 101.376789 92.695618 
L 101.812265 90.966118 
L 102.24774 101.521454 
L 102.683216 97.189196 
L 103.118691 117.051963 
L 103.554167 108.961836 
L 103.989642 111.278027 
L 104.425118 105.361994 
L 104.860593 80.838276 
L 105.296068 92.668128 
L 105.731544 114.354086 
L 106.602495 84.488704 
L 107.03797 96.717561 
L 107.473446 97.229288 
L 107.908921 106.110708 
L 108.344397 93.583389 
L 109.215347 88.390841 
L 109.650823 120.673615 
L 110.086298 119.064367 
L 110.521774 103.713321 
L 110.957249 126.336234 
L 111.392725 84.985146 
L 111.8282 110.100324 
L 112.263676 100.162775 
L 112.699151 86.212633 
L 113.134626 101.615199 
L 113.570102 52.633055 
L 114.005577 56.672835 
L 114.441053 75.654241 
L 114.876528 157.205079 
L 115.312004 134.347448 
L 115.747479 138.483897 
L 116.182955 120.513392 
L 116.61843 93.989661 
L 117.053905 96.667301 
L 117.489381 87.220422 
L 117.924856 68.666867 
L 118.360332 83.496875 
L 118.795807 88.848616 
L 119.231283 96.723431 
L 119.666758 113.860363 
L 120.102234 98.28791 
L 120.537709 102.315213 
L 120.973184 108.662137 
L 121.40866 126.443785 
L 121.844135 95.853478 
L 122.279611 107.279084 
L 122.715086 113.455008 
L 123.150562 81.198122 
L 123.586037 81.999945 
L 124.021513 95.220347 
L 124.456988 92.486358 
L 124.892463 105.216592 
L 125.327939 91.843492 
L 125.763414 115.565902 
L 126.634365 99.708311 
L 127.069841 102.085237 
L 127.505316 102.877211 
L 127.940792 95.574055 
L 128.376267 103.390387 
L 128.811742 93.979217 
L 129.247218 105.647864 
L 129.682693 82.610465 
L 130.118169 104.985332 
L 130.553644 106.898226 
L 130.98912 99.523258 
L 131.424595 109.563816 
L 131.860071 87.490248 
L 132.295546 108.012884 
L 132.731021 89.888922 
L 133.166497 101.283346 
L 133.601972 106.782657 
L 134.037448 105.147956 
L 134.472923 98.208429 
L 134.908399 78.256467 
L 135.343874 97.93093 
L 135.77935 128.239739 
L 136.214825 108.897648 
L 136.6503 100.7247 
L 137.085776 99.558253 
L 137.521251 94.058802 
L 137.956727 79.227061 
L 138.392202 96.911466 
L 138.827678 90.058097 
L 139.263153 93.54034 
L 139.698629 112.735142 
L 140.134104 124.012371 
L 140.569579 104.554181 
L 141.005055 121.019842 
L 141.44053 89.794348 
L 141.876006 77.343756 
L 142.311481 100.304827 
L 142.746957 95.513299 
L 143.182432 97.727841 
L 143.617908 106.578393 
L 144.053383 108.093691 
L 144.488858 85.553495 
L 145.359809 109.385139 
L 145.795285 103.309862 
L 146.23076 90.110276 
L 146.666236 98.376299 
L 147.101711 109.024475 
L 147.537187 114.094252 
L 147.972662 107.508787 
L 148.408137 95.397429 
L 148.843613 90.788663 
L 149.279088 94.096484 
L 149.714564 93.154524 
L 150.150039 94.518448 
L 150.585515 107.492878 
L 151.02099 96.685084 
L 151.456466 105.862848 
L 151.891941 103.495849 
L 152.327416 96.640464 
L 152.762892 101.225203 
L 153.198367 119.088825 
L 153.633843 110.573925 
L 154.069318 70.057114 
L 154.940269 102.122444 
L 155.375745 103.810271 
L 155.81122 117.13183 
L 156.246695 100.076054 
L 156.682171 92.248754 
L 157.117646 108.788005 
L 157.988597 91.825029 
L 158.424073 109.10228 
L 158.859548 89.659837 
L 159.295024 78.27745 
L 159.730499 121.657748 
L 160.165974 99.578243 
L 160.60145 107.087934 
L 161.036925 87.178814 
L 161.472401 103.187058 
L 162.343352 109.144563 
L 162.778827 106.674615 
L 163.214303 110.795746 
L 163.649778 80.999803 
L 164.085253 91.51178 
L 164.520729 92.025677 
L 164.956204 103.489474 
L 165.827155 92.560247 
L 166.698106 106.905056 
L 167.133582 120.187386 
L 167.569057 111.321625 
L 168.004532 82.359593 
L 168.440008 95.233828 
L 168.875483 118.052977 
L 169.310959 91.218701 
L 169.746434 94.532152 
L 170.18191 99.513845 
L 170.617385 90.310153 
L 171.052861 109.953912 
L 171.488336 84.114424 
L 172.359287 118.438207 
L 172.794762 106.665127 
L 173.230238 82.506658 
L 173.665713 100.856201 
L 174.101189 103.059492 
L 174.536664 109.353093 
L 174.972139 100.462023 
L 175.407615 113.382484 
L 175.84309 91.702575 
L 176.278566 91.615854 
L 176.714041 92.266774 
L 177.149517 94.415862 
L 177.584992 94.504288 
L 178.020468 113.996844 
L 178.455943 101.107462 
L 178.891418 105.884662 
L 179.326894 94.309109 
L 179.762369 105.949305 
L 180.197845 111.258963 
L 180.63332 82.675353 
L 181.068796 103.733493 
L 181.504271 94.70136 
L 181.939747 106.502739 
L 182.375222 107.481076 
L 182.810697 106.544449 
L 183.246173 77.640518 
L 183.681648 97.45845 
L 184.117124 90.077083 
L 184.552599 103.793848 
L 185.42355 115.470463 
L 185.859026 113.14004 
L 186.294501 100.755643 
L 186.729976 82.837518 
L 187.600927 95.87732 
L 188.036403 108.659209 
L 188.471878 91.4676 
L 188.907354 98.418614 
L 189.342829 113.253778 
L 189.778305 100.337158 
L 190.21378 105.788439 
L 190.649255 104.429198 
L 191.084731 99.312631 
L 191.520206 83.501022 
L 191.955682 90.184978 
L 192.391157 109.327085 
L 192.826633 110.416702 
L 193.262108 99.185506 
L 193.697584 107.845959 
L 194.133059 102.321858 
L 194.568534 91.222664 
L 195.00401 89.41335 
L 195.439485 94.559807 
L 195.874961 116.101059 
L 196.310436 102.367717 
L 196.745912 79.922566 
L 197.616863 122.799148 
L 198.052338 102.77047 
L 198.923289 87.073726 
L 199.358764 110.166181 
L 199.79424 92.274877 
L 200.229715 98.668143 
L 200.665191 97.380736 
L 201.100666 95.715566 
L 201.536142 115.200085 
L 201.971617 105.586281 
L 202.407092 87.747933 
L 202.842568 111.566138 
L 203.278043 89.425957 
L 203.713519 93.703706 
L 204.148994 101.040928 
L 204.58447 115.492187 
L 205.455421 91.121137 
L 205.890896 95.723223 
L 206.326371 108.773069 
L 206.761847 91.8862 
L 207.197322 104.219696 
L 207.632798 96.111734 
L 208.068273 90.542905 
L 208.503749 111.329946 
L 208.939224 105.278897 
L 209.3747 108.382649 
L 209.810175 101.506212 
L 210.24565 98.741314 
L 210.681126 84.679338 
L 211.116601 91.028136 
L 211.552077 107.582065 
L 211.987552 90.046395 
L 212.423028 121.240231 
L 212.858503 101.839369 
L 213.293979 101.743534 
L 213.729454 89.552986 
L 214.164929 107.793321 
L 214.600405 88.606108 
L 215.03588 113.911895 
L 215.471356 102.44466 
L 215.906831 76.678296 
L 216.342307 100.08102 
L 216.777782 108.676645 
L 217.213258 112.91866 
L 217.648733 97.134998 
L 218.084208 98.44828 
L 218.519684 92.182894 
L 218.955159 106.678131 
L 219.390635 103.36195 
L 220.261586 100.36466 
L 220.697061 103.215032 
L 221.132537 73.027415 
L 221.568012 103.058139 
L 222.003487 116.502738 
L 222.438963 93.015597 
L 222.874438 95.181221 
L 223.745389 115.860619 
L 224.180865 105.322574 
L 224.61634 91.501892 
L 225.051816 95.845121 
L 225.487291 103.163422 
L 225.922766 82.817168 
L 226.358242 106.576341 
L 226.793717 108.194014 
L 227.229193 94.015691 
L 227.664668 96.066369 
L 228.100144 112.146821 
L 228.535619 81.462181 
L 228.971095 109.772955 
L 229.842045 99.555888 
L 231.148472 108.974043 
L 231.583947 101.854736 
L 232.019423 77.902303 
L 232.454898 95.609387 
L 232.890374 89.421998 
L 233.325849 99.376339 
L 233.761324 116.678246 
L 234.1968 98.104153 
L 235.067751 123.574067 
L 235.503226 83.751836 
L 235.938702 89.65665 
L 236.374177 99.505003 
L 236.809653 92.82874 
L 237.245128 90.537291 
L 237.680603 114.911814 
L 238.116079 85.264147 
L 238.551554 104.078502 
L 238.98703 117.55324 
L 239.422505 104.357827 
L 239.857981 110.850724 
L 240.293456 87.059495 
L 240.728932 88.42903 
L 241.164407 89.419719 
L 241.599882 111.842033 
L 242.035358 124.813888 
L 242.470833 83.140601 
L 242.906309 97.027558 
L 243.341784 90.119568 
L 243.77726 89.318739 
L 244.212735 118.11732 
L 244.648211 87.969396 
L 245.083686 113.715499 
L 245.519161 97.169246 
L 245.954637 108.149762 
L 246.390112 107.794218 
L 246.825588 108.186316 
L 247.261063 84.43631 
L 247.696539 109.080678 
L 248.132014 90.548442 
L 248.56749 89.517036 
L 249.002965 85.781132 
L 249.43844 104.602936 
L 249.873916 113.085647 
L 250.309391 90.323011 
L 250.744867 117.464577 
L 251.180342 102.171415 
L 251.615818 94.219083 
L 252.051293 105.408254 
L 252.486769 99.585494 
L 252.922244 105.32806 
L 253.357719 93.669884 
L 253.793195 110.910394 
L 254.22867 77.626459 
L 254.664146 114.16687 
L 255.099621 83.547415 
L 255.535097 95.910779 
L 255.970572 113.436472 
L 256.406048 90.580691 
L 256.841523 117.154125 
L 257.276998 96.237224 
L 257.712474 98.748868 
L 258.147949 95.206651 
L 258.583425 113.891726 
L 259.0189 92.236916 
L 259.454376 103.080494 
L 260.325327 98.931647 
L 260.760802 94.706188 
L 261.631753 106.370957 
L 262.067228 84.024106 
L 262.502704 108.187978 
L 262.938179 92.961396 
L 263.373655 102.940297 
L 263.80913 109.202736 
L 264.244606 92.738681 
L 264.680081 106.822573 
L 265.115556 111.760324 
L 265.551032 97.874735 
L 265.986507 100.804361 
L 266.421983 101.66586 
L 266.857458 88.202817 
L 267.292934 99.750974 
L 267.728409 76.054214 
L 267.728409 76.054214 
" clip-path="url(#p8163bee12b)" style="fill: none; stroke: #1f77b4; stroke-linecap: square"/>
   </g>
   <g id="line2d_12">
    <path d="M 78.296591 101.550081 
L 78.732066 91.837216 
L 79.167542 115.335513 
L 79.603017 89.568916 
L 80.038493 98.862851 
L 80.473968 100.320328 
L 80.909444 103.903493 
L 81.344919 115.482671 
L 81.780394 87.832618 
L 82.21587 92.969149 
L 82.651345 105.128173 
L 83.086821 105.504745 
L 83.522296 95.117548 
L 83.957772 99.298068 
L 84.393247 94.4026 
L 84.828723 90.884004 
L 85.264198 112.871031 
L 85.699673 95.882004 
L 86.135149 114.649926 
L 86.570624 107.501376 
L 87.0061 94.006169 
L 87.441575 93.094796 
L 87.877051 85.316772 
L 88.312526 102.862254 
L 88.748002 104.263914 
L 89.183477 120.954366 
L 89.618952 92.715428 
L 90.054428 91.289197 
L 90.489903 95.943385 
L 90.925379 98.227662 
L 91.360854 105.624381 
L 91.79633 104.167172 
L 92.231805 95.793172 
L 92.667281 95.671251 
L 93.102756 106.667842 
L 93.538231 104.84395 
L 93.973707 100.10675 
L 94.409182 102.115297 
L 94.844658 98.042961 
L 95.280133 89.75882 
L 95.715609 96.692279 
L 96.151084 110.553263 
L 96.58656 99.409763 
L 97.022035 108.349032 
L 97.45751 95.958846 
L 97.892986 79.065128 
L 98.328461 106.144943 
L 98.763937 102.042473 
L 99.199412 113.044465 
L 99.634888 106.627428 
L 100.070363 107.218903 
L 100.505839 87.349788 
L 100.941314 89.334266 
L 101.376789 98.69197 
L 101.812265 98.658424 
L 102.24774 100.402382 
L 102.683216 110.986143 
L 103.118691 99.066041 
L 103.554167 100.264855 
L 103.989642 106.918156 
L 104.425118 85.451847 
L 104.860593 101.093979 
L 105.296068 111.543148 
L 105.731544 96.549823 
L 106.167019 97.752188 
L 106.602495 96.596926 
L 107.03797 88.234692 
L 107.473446 117.84265 
L 107.908921 109.975085 
L 108.344397 99.431444 
L 108.779872 82.837775 
L 109.650823 106.502813 
L 110.086298 102.791521 
L 110.521774 101.819231 
L 110.957249 103.784282 
L 111.392725 108.042851 
L 112.263676 85.643618 
L 112.699151 103.939165 
L 113.134626 108.109242 
L 113.570102 99.290158 
L 114.441053 90.785378 
L 114.876528 102.830899 
L 115.312004 109.041517 
L 115.747479 96.962508 
L 116.182955 107.852878 
L 116.61843 104.404215 
L 117.053905 88.730365 
L 117.489381 105.825751 
L 117.924856 96.39662 
L 118.360332 99.344641 
L 118.795807 99.882762 
L 119.231283 98.524716 
L 119.666758 95.967309 
L 120.102234 98.386698 
L 120.537709 104.363961 
L 120.973184 105.28541 
L 121.40866 101.474712 
L 121.844135 107.915564 
L 122.279611 81.178181 
L 122.715086 108.043082 
L 123.150562 109.368221 
L 123.586037 91.553204 
L 124.021513 110.031498 
L 124.456988 94.157442 
L 124.892463 86.425833 
L 125.327939 101.006274 
L 125.763414 105.39465 
L 126.19889 98.52956 
L 126.634365 105.485285 
L 127.069841 94.774067 
L 127.505316 97.735135 
L 127.940792 109.525994 
L 128.376267 108.500229 
L 128.811742 102.758986 
L 129.247218 92.194491 
L 129.682693 99.111408 
L 130.118169 100.098651 
L 130.553644 88.085073 
L 130.98912 95.808594 
L 131.424595 107.904418 
L 131.860071 93.944839 
L 132.295546 113.321621 
L 132.731021 99.154078 
L 133.166497 95.993474 
L 133.601972 106.765131 
L 134.037448 102.767316 
L 134.472923 101.39789 
L 134.908399 87.803577 
L 135.343874 96.687093 
L 135.77935 114.404637 
L 136.214825 98.313184 
L 136.6503 96.182026 
L 137.085776 98.234883 
L 137.521251 105.520588 
L 137.956727 89.505243 
L 138.827678 101.920891 
L 139.263153 98.131648 
L 139.698629 112.883271 
L 140.134104 104.091001 
L 140.569579 109.027092 
L 141.005055 99.247908 
L 141.44053 99.358614 
L 141.876006 86.446639 
L 142.746957 100.741613 
L 143.182432 102.066536 
L 143.617908 89.788463 
L 144.053383 98.25153 
L 144.488858 110.833591 
L 144.924334 113.958733 
L 145.359809 110.558372 
L 146.23076 83.147976 
L 146.666236 101.554497 
L 147.101711 104.686922 
L 147.537187 103.484925 
L 147.972662 87.46946 
L 148.408137 88.149329 
L 148.843613 107.675227 
L 149.279088 97.645155 
L 149.714564 113.851406 
L 150.150039 102.406022 
L 150.585515 95.082174 
L 151.02099 103.885487 
L 151.456466 108.847672 
L 151.891941 92.061417 
L 152.327416 110.264241 
L 153.198367 87.489271 
L 153.633843 83.230695 
L 154.069318 90.329665 
L 154.504794 106.648064 
L 154.940269 112.471772 
L 155.375745 110.263017 
L 155.81122 109.378838 
L 156.246695 109.953172 
L 156.682171 86.192417 
L 157.117646 98.12292 
L 157.553122 92.626743 
L 157.988597 96.935701 
L 158.424073 106.323476 
L 158.859548 106.123913 
L 159.295024 78.472813 
L 159.730499 106.450617 
L 160.165974 94.795931 
L 160.60145 110.11518 
L 161.036925 96.445244 
L 161.472401 102.176454 
L 161.907876 119.967606 
L 162.343352 92.636647 
L 162.778827 104.057419 
L 163.214303 103.885018 
L 163.649778 75.821967 
L 164.085253 109.539905 
L 164.520729 97.08697 
L 164.956204 100.340674 
L 165.39168 87.303471 
L 165.827155 106.562456 
L 166.262631 106.306401 
L 166.698106 104.880322 
L 167.133582 105.162029 
L 167.569057 101.249664 
L 168.004532 91.277232 
L 168.440008 92.265201 
L 168.875483 108.516045 
L 169.310959 99.188363 
L 169.746434 112.050868 
L 170.18191 91.653305 
L 171.052861 95.513551 
L 171.488336 116.289205 
L 171.923811 85.895037 
L 172.359287 113.719633 
L 172.794762 93.591897 
L 173.230238 97.966331 
L 173.665713 96.633705 
L 174.101189 95.911148 
L 174.536664 116.409801 
L 174.972139 94.51025 
L 175.407615 95.840124 
L 175.84309 103.997281 
L 176.278566 100.473508 
L 176.714041 101.35938 
L 177.149517 104.537396 
L 177.584992 92.960223 
L 178.020468 104.000781 
L 178.455943 83.074567 
L 178.891418 114.254161 
L 179.762369 95.49152 
L 180.197845 96.683867 
L 180.63332 101.774604 
L 181.068796 100.440809 
L 181.504271 95.627846 
L 181.939747 100.268826 
L 182.375222 98.533261 
L 182.810697 104.5321 
L 183.246173 105.631321 
L 183.681648 111.183273 
L 184.117124 87.285316 
L 184.552599 97.468661 
L 184.988075 102.105475 
L 185.42355 99.895973 
L 185.859026 101.384103 
L 186.294501 99.605167 
L 186.729976 87.21485 
L 187.165452 88.886112 
L 187.600927 120.964071 
L 188.036403 106.813375 
L 188.471878 101.928827 
L 188.907354 86.552172 
L 189.342829 115.11723 
L 190.21378 95.487863 
L 190.649255 94.372514 
L 191.084731 83.561063 
L 191.520206 104.247682 
L 191.955682 101.019567 
L 192.391157 100.234131 
L 192.826633 97.885515 
L 193.262108 115.472317 
L 193.697584 108.194489 
L 194.133059 86.937618 
L 194.568534 104.564658 
L 195.00401 92.164945 
L 195.439485 101.939437 
L 195.874961 105.506341 
L 196.310436 99.137516 
L 196.745912 88.071775 
L 197.181387 94.254054 
L 197.616863 111.298594 
L 198.052338 118.548447 
L 198.487813 94.336297 
L 198.923289 92.480944 
L 199.358764 94.40707 
L 199.79424 94.609713 
L 200.229715 111.85215 
L 200.665191 96.388746 
L 201.100666 91.856528 
L 201.536142 110.271363 
L 201.971617 111.863146 
L 202.407092 89.471692 
L 202.842568 99.126711 
L 203.278043 102.479266 
L 203.713519 93.800453 
L 204.148994 96.118115 
L 204.58447 110.671112 
L 205.019945 110.986801 
L 205.455421 87.126485 
L 205.890896 79.723522 
L 206.326371 116.564489 
L 206.761847 103.52676 
L 207.197322 107.948224 
L 207.632798 91.932093 
L 208.068273 100.954385 
L 208.503749 100.545184 
L 208.939224 89.040507 
L 209.3747 111.656687 
L 209.810175 105.547397 
L 210.24565 92.089568 
L 210.681126 102.662043 
L 211.116601 107.914874 
L 211.552077 91.975823 
L 211.987552 92.216112 
L 212.423028 111.970597 
L 212.858503 83.209729 
L 213.293979 102.833176 
L 213.729454 95.442118 
L 214.164929 117.502552 
L 214.600405 98.201774 
L 215.03588 111.261304 
L 215.471356 101.498225 
L 215.906831 81.010634 
L 216.342307 111.597763 
L 216.777782 104.074144 
L 217.213258 84.246919 
L 217.648733 92.834841 
L 218.084208 96.246434 
L 218.955159 116.66156 
L 219.390635 103.777714 
L 219.82611 100.325442 
L 220.261586 83.019744 
L 220.697061 97.231916 
L 221.132537 105.347786 
L 221.568012 107.195162 
L 222.003487 112.754506 
L 222.438963 87.517668 
L 222.874438 98.271205 
L 223.309914 96.607056 
L 223.745389 97.915478 
L 224.180865 102.716093 
L 224.61634 97.683813 
L 225.051816 105.589035 
L 225.487291 95.207607 
L 225.922766 98.510077 
L 226.358242 108.752964 
L 226.793717 86.996453 
L 227.664668 122.46727 
L 228.100144 106.694533 
L 228.535619 73.344216 
L 228.971095 97.158604 
L 229.40657 84.652137 
L 229.842045 105.934242 
L 230.277521 118.069316 
L 230.712996 94.402923 
L 231.148472 102.485964 
L 231.583947 107.544023 
L 232.019423 102.923497 
L 232.454898 86.044616 
L 232.890374 97.71775 
L 233.325849 93.95075 
L 233.761324 115.11739 
L 234.1968 96.370521 
L 234.632275 102.527613 
L 235.067751 112.965001 
L 235.503226 96.038008 
L 235.938702 84.949217 
L 236.374177 89.433124 
L 236.809653 101.913335 
L 237.245128 118.280702 
L 237.680603 96.688511 
L 238.116079 97.652286 
L 238.551554 88.305467 
L 238.98703 116.911774 
L 239.422505 111.883259 
L 240.293456 88.316311 
L 240.728932 91.813386 
L 241.164407 91.093975 
L 241.599882 114.378917 
L 242.035358 99.804764 
L 242.470833 98.676536 
L 242.906309 108.880099 
L 243.341784 86.086543 
L 243.77726 107.837753 
L 244.212735 96.502201 
L 244.648211 98.534575 
L 245.083686 110.1834 
L 245.519161 98.902904 
L 245.954637 98.562885 
L 246.390112 99.184833 
L 246.825588 102.615007 
L 247.261063 98.295764 
L 247.696539 106.072535 
L 248.132014 86.564997 
L 248.56749 87.850081 
L 249.002965 109.182413 
L 249.873916 105.158413 
L 250.309391 102.34259 
L 250.744867 102.072904 
L 251.180342 100.621886 
L 251.615818 90.756217 
L 252.051293 97.985724 
L 252.486769 91.129768 
L 252.922244 106.586933 
L 253.357719 111.039563 
L 254.22867 92.064455 
L 254.664146 106.244277 
L 255.099621 107.050698 
L 255.535097 86.269437 
L 255.970572 101.93323 
L 256.406048 96.028198 
L 256.841523 101.024805 
L 257.276998 97.691526 
L 257.712474 111.437658 
L 258.147949 96.36132 
L 258.583425 112.919189 
L 259.0189 89.492137 
L 259.454376 88.09997 
L 259.889851 108.765488 
L 260.325327 98.896608 
L 260.760802 110.796738 
L 261.196277 88.532154 
L 261.631753 105.938461 
L 262.067228 96.06162 
L 262.502704 96.264371 
L 262.938179 98.702897 
L 263.373655 109.217799 
L 263.80913 109.853188 
L 264.244606 79.040231 
L 264.680081 113.571137 
L 265.115556 91.942805 
L 265.551032 102.866629 
L 265.986507 104.903571 
L 266.421983 104.876452 
L 266.857458 93.899694 
L 267.292934 93.396622 
L 267.728409 89.913255 
L 267.728409 89.913255 
" clip-path="url(#p8163bee12b)" style="fill: none; stroke: #ff7f0e; stroke-linecap: square"/>
   </g>
   <g id="line2d_13">
    <path d="M 78.296591 107.162896 
L 78.732066 96.329764 
L 79.167542 112.429475 
L 79.603017 93.435348 
L 80.473968 102.335401 
L 80.909444 102.016938 
L 81.344919 102.838981 
L 81.780394 86.636547 
L 82.21587 106.189086 
L 82.651345 100.246133 
L 83.086821 99.305813 
L 83.522296 105.455717 
L 83.957772 98.264066 
L 84.393247 101.991403 
L 84.828723 96.497722 
L 85.264198 99.396753 
L 85.699673 101.099085 
L 86.135149 99.936753 
L 86.570624 104.772695 
L 87.0061 92.865984 
L 87.877051 102.703171 
L 88.312526 100.027387 
L 88.748002 102.734492 
L 89.183477 98.813635 
L 89.618952 102.086 
L 90.054428 94.73581 
L 90.489903 105.852876 
L 90.925379 94.694657 
L 91.360854 102.265278 
L 91.79633 98.124467 
L 92.231805 103.377601 
L 92.667281 102.859639 
L 93.102756 94.126579 
L 93.538231 100.167219 
L 93.973707 99.624358 
L 94.409182 104.266623 
L 94.844658 99.407515 
L 95.280133 96.938632 
L 95.715609 102.090979 
L 96.151084 105.530114 
L 96.58656 91.491317 
L 97.022035 107.891878 
L 97.45751 105.000074 
L 97.892986 94.987347 
L 98.328461 103.015702 
L 98.763937 91.911946 
L 99.199412 102.699521 
L 99.634888 104.861669 
L 100.070363 103.057277 
L 100.505839 96.200172 
L 100.941314 91.799189 
L 101.376789 102.855258 
L 101.812265 99.5235 
L 102.24774 103.618445 
L 102.683216 99.016936 
L 103.118691 106.720922 
L 103.554167 97.403291 
L 103.989642 100.679048 
L 104.425118 98.127989 
L 104.860593 91.925427 
L 105.296068 103.057463 
L 105.731544 107.328653 
L 106.167019 95.529994 
L 106.602495 96.061158 
L 107.03797 104.176286 
L 107.473446 100.270576 
L 107.908921 102.320355 
L 108.344397 95.924227 
L 108.779872 99.13987 
L 109.215347 99.52196 
L 109.650823 110.860925 
L 110.086298 99.563584 
L 110.521774 96.262239 
L 110.957249 107.640971 
L 111.392725 89.762228 
L 111.8282 108.471726 
L 112.263676 96.787484 
L 112.699151 96.612464 
L 113.134626 105.234189 
L 113.570102 83.772618 
L 114.005577 101.109946 
L 114.441053 106.427135 
L 114.876528 127.283613 
L 115.312004 94.385592 
L 115.747479 101.478816 
L 116.182955 94.109832 
L 116.61843 93.469067 
L 117.053905 100.992546 
L 117.489381 96.951041 
L 117.924856 95.461611 
L 118.360332 105.043336 
L 118.795807 101.883914 
L 119.231283 102.068704 
L 119.666758 105.81231 
L 120.102234 94.909182 
L 120.537709 101.106826 
L 120.973184 102.215642 
L 121.40866 106.027216 
L 121.844135 92.452423 
L 122.279611 103.908535 
L 122.715086 101.643981 
L 123.150562 89.347704 
L 123.586037 100.367275 
L 124.021513 103.4051 
L 124.456988 99.18867 
L 124.892463 104.343411 
L 125.327939 96.756725 
L 125.763414 108.00747 
L 126.19889 97.504705 
L 126.634365 98.082073 
L 127.069841 100.892309 
L 127.505316 100.363991 
L 127.940792 98.274211 
L 128.376267 102.705444 
L 128.811742 96.962943 
L 129.247218 103.017162 
L 129.682693 92.420867 
L 130.118169 107.558289 
L 130.553644 100.578223 
L 130.98912 97.641678 
L 131.424595 103.446853 
L 131.860071 94.581608 
L 132.295546 106.940878 
L 132.731021 94.05868 
L 133.166497 102.948606 
L 133.601972 101.933104 
L 134.037448 99.5551 
L 134.472923 98.365118 
L 134.908399 93.449346 
L 135.343874 105.018616 
L 135.77935 110.202936 
L 136.214825 93.652636 
L 136.6503 98.056763 
L 137.085776 99.711184 
L 137.521251 98.26685 
L 137.956727 96.392065 
L 138.392202 105.994801 
L 138.827678 97.815544 
L 139.263153 100.970561 
L 139.698629 106.498267 
L 140.134104 103.859076 
L 140.569579 95.235453 
L 141.005055 105.588554 
L 141.44053 89.691502 
L 141.876006 96.987352 
L 142.311481 107.75369 
L 142.746957 98.502824 
L 143.617908 103.050184 
L 144.053383 100.605099 
L 144.488858 94.464951 
L 144.924334 103.958939 
L 145.359809 104.184942 
L 145.795285 98.58118 
L 146.23076 95.700138 
L 146.666236 102.166506 
L 147.101711 103.649392 
L 147.537187 101.789926 
L 147.972662 98.453634 
L 148.408137 96.06288 
L 149.279088 100.926955 
L 149.714564 99.786013 
L 150.150039 100.554642 
L 150.585515 103.343607 
L 151.02099 96.497402 
L 151.456466 103.159255 
L 151.891941 99.50825 
L 152.327416 97.814872 
L 153.198367 104.565906 
L 153.633843 97.2617 
L 154.069318 86.594397 
L 154.504794 104.575611 
L 154.940269 104.820963 
L 155.375745 100.662609 
L 155.81122 103.43039 
L 156.246695 94.414741 
L 156.682171 97.4909 
L 157.117646 104.234812 
L 157.553122 97.127372 
L 157.988597 98.088727 
L 158.424073 105.859084 
L 158.859548 93.619186 
L 159.295024 97.254403 
L 159.730499 114.5601 
L 160.165974 92.740165 
L 160.60145 101.977423 
L 161.036925 93.463627 
L 161.472401 105.436081 
L 161.907876 100.769611 
L 162.343352 101.193021 
L 162.778827 99.276684 
L 163.214303 101.130283 
L 163.649778 90.168019 
L 164.085253 103.603992 
L 164.520729 100.228474 
L 164.956204 103.921266 
L 165.39168 98.091859 
L 165.827155 98.873799 
L 166.262631 102.642397 
L 166.698106 102.339206 
L 167.133582 103.420582 
L 168.004532 90.44599 
L 168.440008 103.318559 
L 168.875483 107.706383 
L 169.310959 93.391431 
L 169.746434 101.204484 
L 170.18191 101.760565 
L 170.617385 97.799077 
L 171.052861 106.647919 
L 171.488336 91.486837 
L 171.923811 104.23878 
L 172.359287 106.022888 
L 172.794762 96.17564 
L 173.230238 94.060383 
L 173.665713 106.216515 
L 174.101189 100.83443 
L 174.536664 101.6734 
L 174.972139 97.13631 
L 175.407615 104.40682 
L 175.84309 94.680023 
L 176.278566 100.071093 
L 177.149517 100.637272 
L 177.584992 100.129475 
L 178.020468 106.597519 
L 178.455943 96.877654 
L 178.891418 101.6924 
L 179.326894 96.241482 
L 179.762369 103.010049 
L 180.197845 101.869886 
L 180.63332 92.954098 
L 181.068796 107.11938 
L 181.504271 97.089289 
L 181.939747 103.050345 
L 182.375222 100.426112 
L 182.810697 99.787791 
L 183.246173 92.874017 
L 183.681648 106.705977 
L 184.117124 97.639544 
L 184.552599 103.529191 
L 184.988075 102.215907 
L 185.42355 101.876298 
L 185.859026 99.517394 
L 186.294501 95.971868 
L 186.729976 94.127292 
L 187.165452 101.583901 
L 187.600927 102.468067 
L 188.036403 104.36063 
L 188.471878 95.802098 
L 188.907354 102.417005 
L 189.342829 105.045055 
L 189.778305 96.870845 
L 190.21378 101.917094 
L 190.649255 99.64692 
L 191.084731 98.820858 
L 191.520206 94.829464 
L 191.955682 102.327985 
L 192.391157 104.885527 
L 192.826633 100.463206 
L 193.262108 97.292201 
L 193.697584 102.986818 
L 194.133059 98.258633 
L 194.568534 97.325202 
L 195.439485 101.815486 
L 195.874961 105.485313 
L 196.310436 95.52222 
L 196.745912 92.618283 
L 197.181387 105.883465 
L 197.616863 106.680908 
L 198.052338 93.423774 
L 198.487813 98.353581 
L 198.923289 97.196311 
L 199.358764 107.797485 
L 199.79424 95.627174 
L 200.229715 102.231089 
L 200.665191 99.670864 
L 201.100666 99.683708 
L 201.536142 106.594839 
L 201.971617 96.895399 
L 202.407092 95.640413 
L 202.842568 108.039402 
L 203.278043 92.71994 
L 203.713519 101.169437 
L 204.58447 103.712815 
L 205.019945 95.499676 
L 205.455421 96.57664 
L 205.890896 101.250521 
L 206.326371 104.449949 
L 206.761847 94.471044 
L 207.197322 103.183374 
L 207.632798 97.397346 
L 208.068273 98.243724 
L 208.503749 105.29676 
L 208.939224 98.082984 
L 209.3747 101.134584 
L 209.810175 98.380891 
L 210.24565 99.178367 
L 210.681126 95.412675 
L 211.116601 101.6872 
L 211.552077 105.617976 
L 211.987552 94.254777 
L 212.423028 107.898459 
L 212.858503 93.633046 
L 213.293979 100.068055 
L 213.729454 97.052363 
L 214.164929 106.180112 
L 214.600405 93.704262 
L 215.03588 106.426447 
L 215.471356 96.277588 
L 215.906831 93.658409 
L 216.342307 107.900909 
L 216.777782 102.965208 
L 217.213258 101.160504 
L 217.648733 94.838779 
L 218.084208 100.537761 
L 218.519684 98.533654 
L 218.955159 104.931745 
L 219.390635 98.994606 
L 219.82611 99.723318 
L 220.261586 99.603147 
L 220.697061 101.050124 
L 221.132537 92.553096 
L 221.568012 110.110241 
L 222.003487 104.581533 
L 222.438963 94.228215 
L 222.874438 100.821874 
L 223.309914 103.545589 
L 223.745389 102.685658 
L 224.180865 96.587318 
L 224.61634 95.493106 
L 225.051816 101.185807 
L 225.487291 102.539434 
L 225.922766 93.317915 
L 226.358242 106.039794 
L 227.229193 96.555419 
L 228.100144 105.460151 
L 228.535619 92.42884 
L 228.971095 109.536924 
L 229.40657 98.281711 
L 229.842045 98.90945 
L 230.277521 101.207149 
L 230.712996 101.011512 
L 231.148472 100.940543 
L 231.583947 97.726898 
L 232.019423 92.115856 
L 232.454898 104.526771 
L 232.890374 98.037537 
L 233.325849 103.418114 
L 233.761324 104.425477 
L 234.1968 93.908636 
L 234.632275 104.352751 
L 235.067751 103.277915 
L 235.503226 86.825923 
L 235.938702 102.068272 
L 236.374177 102.562088 
L 236.809653 97.874579 
L 237.245128 99.336184 
L 237.680603 106.193631 
L 238.116079 90.217444 
L 238.551554 104.803589 
L 238.98703 104.591579 
L 239.422505 95.701529 
L 239.857981 101.723224 
L 240.293456 92.16959 
L 240.728932 100.556512 
L 241.164407 100.347672 
L 241.599882 107.574104 
L 242.035358 104.423952 
L 242.470833 89.681679 
L 242.906309 104.728986 
L 243.341784 97.797337 
L 243.77726 99.899793 
L 244.212735 109.699527 
L 244.648211 90.050692 
L 245.083686 106.536525 
L 245.519161 94.584582 
L 245.954637 103.760172 
L 246.390112 100.011114 
L 246.825588 100.230699 
L 247.261063 92.183331 
L 247.696539 106.261092 
L 248.132014 93.922588 
L 248.56749 99.756198 
L 249.002965 99.166024 
L 249.43844 106.373934 
L 249.873916 102.220678 
L 250.309391 92.512455 
L 250.744867 109.147189 
L 251.180342 96.27671 
L 251.615818 97.449222 
L 252.051293 103.829724 
L 252.486769 98.64431 
L 252.922244 102.014189 
L 253.357719 96.213941 
L 253.793195 104.410127 
L 254.22867 89.005355 
L 254.664146 112.280137 
L 255.099621 92.445136 
L 255.535097 104.221122 
L 255.970572 105.941897 
L 256.406048 94.386055 
L 256.841523 108.957812 
L 257.276998 93.127699 
L 257.712474 100.727911 
L 258.147949 98.919261 
L 258.583425 106.328358 
L 259.0189 94.686297 
L 259.454376 103.714526 
L 259.889851 99.473801 
L 260.325327 99.532437 
L 260.760802 98.691513 
L 261.196277 101.954063 
L 261.631753 101.625646 
L 262.067228 92.65105 
L 262.502704 106.140968 
L 262.938179 95.024473 
L 263.373655 103.426301 
L 263.80913 101.66561 
L 264.244606 94.611982 
L 264.680081 104.79463 
L 265.115556 101.334438 
L 265.551032 95.471471 
L 265.986507 101.076542 
L 266.421983 100.315375 
L 266.857458 95.612319 
L 267.292934 103.949386 
L 267.728409 94.17581 
L 267.728409 94.17581 
" clip-path="url(#p8163bee12b)" style="fill: none; stroke: #a52a2a; stroke-linecap: square"/>
   </g>
   <g id="line2d_14">
    <path d="M 78.296591 100.434822 
L 78.732066 97.671784 
L 79.167542 107.932766 
L 79.603017 91.511134 
L 80.038493 102.423484 
L 80.473968 100.585825 
L 80.909444 101.294388 
L 81.344919 102.994795 
L 81.780394 90.883316 
L 82.21587 101.812177 
L 82.651345 103.139756 
L 83.522296 96.637601 
L 83.957772 101.14513 
L 84.393247 98.468177 
L 84.828723 98.927135 
L 85.264198 105.596757 
L 85.699673 94.436991 
L 86.135149 106.355974 
L 86.570624 98.312862 
L 87.0061 95.601598 
L 87.441575 99.796209 
L 87.877051 98.155494 
L 88.312526 105.948494 
L 88.748002 100.450415 
L 89.183477 105.663484 
L 89.618952 90.68702 
L 90.054428 99.743442 
L 90.489903 101.651396 
L 90.925379 100.861426 
L 91.360854 101.94918 
L 92.231805 97.308667 
L 92.667281 100.06952 
L 93.102756 103.76553 
L 93.538231 99.492036 
L 93.973707 98.9157 
L 94.409182 100.769516 
L 94.844658 98.742555 
L 95.280133 98.028965 
L 95.715609 102.411153 
L 96.151084 104.720328 
L 96.58656 97.314125 
L 97.022035 103.079756 
L 97.45751 95.969938 
L 97.892986 95.87657 
L 98.328461 109.126605 
L 98.763937 98.73251 
L 99.199412 102.850498 
L 99.634888 97.960988 
L 100.070363 100.247869 
L 100.505839 93.476961 
L 100.941314 100.761493 
L 101.376789 102.439426 
L 101.812265 100.088818 
L 102.24774 100.681319 
L 102.683216 102.74594 
L 103.118691 96.126633 
L 103.554167 100.499605 
L 103.989642 101.763325 
L 104.425118 92.944564 
L 104.860593 105.314044 
L 105.296068 102.712292 
L 105.731544 95.102225 
L 106.167019 100.500789 
L 106.602495 99.811184 
L 107.03797 97.312589 
L 107.473446 109.969319 
L 107.908921 98.133109 
L 108.344397 96.585453 
L 108.779872 94.568777 
L 109.215347 102.82583 
L 109.650823 104.353905 
L 110.086298 98.862903 
L 110.957249 100.755017 
L 111.392725 101.164642 
L 111.8282 96.277086 
L 112.263676 96.456503 
L 112.699151 104.673887 
L 113.134626 101.490026 
L 113.570102 97.160305 
L 114.005577 99.120696 
L 114.441053 98.570812 
L 114.876528 104.115174 
L 115.312004 101.652655 
L 115.747479 96.073663 
L 116.182955 103.730124 
L 117.053905 94.875383 
L 117.489381 105.798462 
L 117.924856 97.742717 
L 118.360332 101.082674 
L 118.795807 100.279374 
L 119.666758 99.247531 
L 120.102234 100.906463 
L 120.537709 101.594316 
L 120.973184 100.407149 
L 121.40866 98.829767 
L 121.844135 101.710213 
L 122.279611 91.187539 
L 122.715086 106.816225 
L 123.586037 94.161661 
L 124.021513 104.719574 
L 124.456988 94.808648 
L 124.892463 97.522798 
L 125.327939 103.74511 
L 125.763414 101.562792 
L 126.19889 97.811637 
L 126.634365 101.838931 
L 127.069841 96.529594 
L 127.505316 101.087023 
L 127.940792 103.047715 
L 128.376267 99.758078 
L 128.811742 98.186252 
L 129.247218 97.458876 
L 129.682693 102.405639 
L 130.118169 100.429081 
L 130.553644 97.096605 
L 130.98912 102.674507 
L 131.424595 104.131941 
L 131.860071 96.610105 
L 132.295546 106.558928 
L 132.731021 95.377486 
L 133.601972 103.690552 
L 134.037448 98.767395 
L 134.472923 99.757643 
L 134.908399 95.568562 
L 135.343874 102.320879 
L 135.77935 106.005847 
L 136.214825 94.736183 
L 136.6503 99.567211 
L 137.085776 100.784286 
L 137.521251 102.528568 
L 137.956727 96.096164 
L 138.392202 102.100889 
L 138.827678 102.23766 
L 139.263153 99.152689 
L 139.698629 105.017208 
L 140.134104 97.169243 
L 140.569579 101.334023 
L 141.005055 96.840272 
L 141.44053 100.136902 
L 141.876006 96.872006 
L 142.311481 102.520378 
L 142.746957 102.444613 
L 143.182432 100.431231 
L 143.617908 96.007309 
L 144.053383 102.921023 
L 144.488858 103.245515 
L 146.23076 95.34138 
L 146.666236 104.70163 
L 147.101711 101.144142 
L 147.537187 99.699334 
L 147.972662 96.096134 
L 148.408137 100.326623 
L 148.843613 106.608632 
L 149.279088 97.592482 
L 149.714564 105.502084 
L 150.150039 96.284871 
L 150.585515 98.269038 
L 151.02099 103.034438 
L 151.456466 101.754061 
L 151.891941 95.903437 
L 152.327416 106.167608 
L 152.762892 96.521388 
L 153.198367 97.090216 
L 153.633843 98.680475 
L 154.069318 102.466323 
L 154.504794 104.1796 
L 155.375745 99.363748 
L 156.246695 100.291445 
L 156.682171 92.179749 
L 157.117646 103.082626 
L 157.553122 98.267941 
L 157.988597 101.17724 
L 158.424073 103.229259 
L 158.859548 100.033479 
L 159.295024 93.187225 
L 159.730499 109.425935 
L 160.165974 96.215105 
L 160.60145 103.929812 
L 161.036925 95.543355 
L 161.472401 102.010403 
L 161.907876 104.547788 
L 162.343352 90.98968 
L 162.778827 103.906924 
L 163.214303 100.0569 
L 163.649778 90.745649 
L 164.085253 111.339313 
L 164.520729 96.986766 
L 164.956204 101.184568 
L 165.39168 95.754266 
L 165.827155 104.914746 
L 166.262631 100.014648 
L 166.698106 99.62464 
L 167.133582 100.170427 
L 167.569057 98.795878 
L 168.004532 96.775856 
L 168.440008 100.346992 
L 168.875483 105.516948 
L 169.310959 97.76808 
L 169.746434 104.387501 
L 170.18191 93.300813 
L 170.617385 100.541633 
L 171.052861 100.797905 
L 171.488336 107.025218 
L 171.923811 92.501458 
L 172.359287 109.374866 
L 172.794762 93.390754 
L 173.230238 101.193608 
L 173.665713 99.655792 
L 174.101189 99.859147 
L 174.536664 105.224663 
L 174.972139 92.80015 
L 175.407615 100.543291 
L 175.84309 102.139289 
L 176.278566 98.925409 
L 176.714041 100.395291 
L 177.149517 100.894504 
L 177.584992 96.240943 
L 178.020468 103.780186 
L 178.455943 94.868446 
L 178.891418 110.493198 
L 179.326894 97.17979 
L 179.762369 97.599497 
L 180.197845 100.497449 
L 180.63332 101.372684 
L 181.068796 99.655402 
L 181.504271 98.495679 
L 181.939747 101.260245 
L 182.375222 99.521478 
L 182.810697 102.099613 
L 183.246173 100.374805 
L 183.681648 101.950651 
L 184.117124 92.134014 
L 184.552599 102.645836 
L 184.988075 101.645605 
L 185.42355 99.363499 
L 185.859026 100.472033 
L 186.294501 99.507021 
L 186.729976 95.969894 
L 187.165452 100.517816 
L 187.600927 110.792652 
L 188.036403 95.383102 
L 188.471878 98.878863 
L 188.907354 94.974448 
L 189.342829 109.621687 
L 189.778305 97.837923 
L 190.21378 96.57298 
L 190.649255 99.728217 
L 191.084731 97.397137 
L 191.520206 106.99554 
L 191.955682 99.023961 
L 192.391157 99.903641 
L 192.826633 99.317128 
L 193.262108 104.4967 
L 193.697584 97.674057 
L 194.133059 93.014377 
L 194.568534 104.50676 
L 195.00401 95.966762 
L 195.439485 103.358164 
L 195.874961 100.991726 
L 196.310436 97.977058 
L 196.745912 96.41142 
L 197.616863 105.781513 
L 198.052338 102.516618 
L 198.487813 94.046963 
L 198.923289 99.481549 
L 199.358764 100.742042 
L 199.79424 100.150661 
L 200.229715 105.847479 
L 200.665191 94.945532 
L 201.100666 98.966946 
L 201.536142 106.238279 
L 202.407092 94.502137 
L 202.842568 103.31834 
L 203.278043 101.217518 
L 203.713519 97.930297 
L 204.58447 103.738249 
L 205.019945 100.20523 
L 205.455421 92.146561 
L 205.890896 98.249259 
L 206.326371 112.380323 
L 206.761847 95.75409 
L 207.197322 101.205366 
L 207.632798 94.76129 
L 208.068273 103.10743 
L 208.939224 96.265108 
L 209.3747 107.638726 
L 209.810175 98.572677 
L 210.24565 95.614057 
L 210.681126 103.624159 
L 211.116601 101.413208 
L 211.552077 94.786983 
L 212.423028 105.038621 
L 212.858503 90.513044 
L 213.293979 106.641149 
L 213.729454 98.252236 
L 214.164929 107.453478 
L 214.600405 93.666407 
L 215.03588 103.364883 
L 215.471356 96.84564 
L 215.906831 94.978102 
L 216.342307 110.29571 
L 216.777782 97.592127 
L 217.213258 95.143194 
L 217.648733 102.962641 
L 218.084208 101.237198 
L 218.519684 102.736904 
L 218.955159 103.389169 
L 219.390635 95.805385 
L 219.82611 99.236932 
L 220.261586 94.331434 
L 220.697061 104.837391 
L 221.132537 102.128968 
L 221.568012 100.715792 
L 222.003487 101.953115 
L 222.438963 93.79079 
L 222.874438 103.684512 
L 223.309914 99.545284 
L 223.745389 100.427105 
L 224.180865 101.700205 
L 224.61634 98.422573 
L 225.051816 102.076306 
L 225.487291 96.639524 
L 225.922766 101.200823 
L 226.358242 102.660722 
L 226.793717 92.84783 
L 227.229193 105.047191 
L 227.664668 105.32735 
L 228.100144 94.842421 
L 228.535619 91.762421 
L 228.971095 108.038129 
L 229.40657 95.931177 
L 229.842045 105.420526 
L 230.277521 104.145025 
L 230.712996 92.211202 
L 231.148472 102.12076 
L 231.583947 101.78602 
L 232.454898 95.88028 
L 232.890374 103.991044 
L 233.325849 98.844333 
L 233.761324 105.39166 
L 234.1968 93.851044 
L 234.632275 102.152364 
L 235.067751 102.709347 
L 235.503226 94.457669 
L 235.938702 96.403737 
L 236.374177 101.220977 
L 236.809653 104.26007 
L 237.245128 105.555789 
L 237.680603 94.701953 
L 238.116079 100.421258 
L 238.551554 97.763295 
L 238.98703 109.635436 
L 239.422505 98.423829 
L 239.857981 96.901478 
L 240.293456 96.509047 
L 240.728932 101.265692 
L 241.164407 99.920147 
L 241.599882 107.861647 
L 242.035358 95.241949 
L 242.906309 103.501187 
L 243.341784 92.502149 
L 243.77726 105.537802 
L 244.212735 96.321483 
L 244.648211 100.777458 
L 245.083686 103.012206 
L 245.519161 96.339835 
L 245.954637 99.98666 
L 246.390112 100.255487 
L 246.825588 101.243391 
L 247.261063 98.660252 
L 247.696539 102.044193 
L 248.132014 93.597487 
L 248.56749 100.528362 
L 249.002965 105.433083 
L 249.43844 99.47033 
L 249.873916 99.566252 
L 250.309391 99.161393 
L 250.744867 100.010105 
L 251.180342 99.737245 
L 251.615818 96.811444 
L 252.051293 102.509836 
L 252.486769 98.386011 
L 252.922244 105.252388 
L 253.793195 97.407569 
L 254.22867 97.364872 
L 254.664146 104.826608 
L 255.099621 100.301605 
L 255.535097 93.172913 
L 255.970572 105.321265 
L 256.406048 98.623742 
L 256.841523 101.765536 
L 257.276998 98.988907 
L 257.712474 103.536533 
L 258.147949 95.074554 
L 258.583425 105.619289 
L 259.0189 94.243237 
L 259.454376 99.635944 
L 259.889851 106.988505 
L 260.325327 97.63278 
L 260.760802 104.06671 
L 261.196277 92.678472 
L 261.631753 104.451577 
L 262.067228 96.80772 
L 262.502704 100.150688 
L 262.938179 100.912842 
L 263.373655 103.604967 
L 263.80913 100.258847 
L 264.244606 89.829014 
L 264.680081 111.610302 
L 265.115556 94.692917 
L 265.551032 103.741274 
L 265.986507 100.77898 
L 266.421983 100.09322 
L 266.857458 96.441081 
L 267.292934 99.932309 
L 267.728409 99.229158 
L 267.728409 99.229158 
" clip-path="url(#p8163bee12b)" style="fill: none; stroke: #800080; stroke-linecap: square"/>
   </g>
   <g id="patch_3">
    <path d="M 68.825 174.04 
L 68.825 26.16 
" style="fill: none; stroke: #000000; stroke-width: 0.8; stroke-linejoin: miter; stroke-linecap: square"/>
   </g>
   <g id="patch_4">
    <path d="M 277.2 174.04 
L 277.2 26.16 
" style="fill: none; stroke: #000000; stroke-width: 0.8; stroke-linejoin: miter; stroke-linecap: square"/>
   </g>
   <g id="patch_5">
    <path d="M 68.825 174.04 
L 277.2 174.04 
" style="fill: none; stroke: #000000; stroke-width: 0.8; stroke-linejoin: miter; stroke-linecap: square"/>
   </g>
   <g id="patch_6">
    <path d="M 68.825 26.16 
L 277.2 26.16 
" style="fill: none; stroke: #000000; stroke-width: 0.8; stroke-linejoin: miter; stroke-linecap: square"/>
   </g>
   <g id="text_13">
    <!-- Trial Data -->
    <g transform="translate(144.522812 20.16)scale(0.12 -0.12)">
     <defs>
      <path id="DejaVuSans-54" d="M -19 4666 
L 3928 4666 
L 3928 4134 
L 2272 4134 
L 2272 0 
L 1638 0 
L 1638 4134 
L -19 4134 
L -19 4666 
z
" transform="scale(0.015625)"/>
      <path id="DejaVuSans-72" d="M 2631 2963 
Q 2534 3019 2420 3045 
Q 2306 3072 2169 3072 
Q 1681 3072 1420 2755 
Q 1159 2438 1159 1844 
L 1159 0 
L 581 0 
L 581 3500 
L 1159 3500 
L 1159 2956 
Q 1341 3275 1631 3429 
Q 1922 3584 2338 3584 
Q 2397 3584 2469 3576 
Q 2541 3569 2628 3553 
L 2631 2963 
z
" transform="scale(0.015625)"/>
      <path id="DejaVuSans-6c" d="M 603 4863 
L 1178 4863 
L 1178 0 
L 603 0 
L 603 4863 
z
" transform="scale(0.015625)"/>
      <path id="DejaVuSans-44" d="M 1259 4147 
L 1259 519 
L 2022 519 
Q 2988 519 3436 956 
Q 3884 1394 3884 2338 
Q 3884 3275 3436 3711 
Q 2988 4147 2022 4147 
L 1259 4147 
z
M 628 4666 
L 1925 4666 
Q 3281 4666 3915 4102 
Q 4550 3538 4550 2338 
Q 4550 1131 3912 565 
Q 3275 0 1925 0 
L 628 0 
L 628 4666 
z
" transform="scale(0.015625)"/>
     </defs>
     <use xlink:href="#DejaVuSans-54"/>
     <use xlink:href="#DejaVuSans-72" x="46.333984"/>
     <use xlink:href="#DejaVuSans-69" x="87.447266"/>
     <use xlink:href="#DejaVuSans-61" x="115.230469"/>
     <use xlink:href="#DejaVuSans-6c" x="176.509766"/>
     <use xlink:href="#DejaVuSans-20" x="204.292969"/>
     <use xlink:href="#DejaVuSans-44" x="236.080078"/>
     <use xlink:href="#DejaVuSans-61" x="313.082031"/>
     <use xlink:href="#DejaVuSans-74" x="374.361328"/>
     <use xlink:href="#DejaVuSans-61" x="413.570312"/>
    </g>
   </g>
   <g id="legend_1">
    <g id="patch_7">
     <path d="M 75.825 169.04 
L 239.803125 169.04 
Q 241.803125 169.04 241.803125 167.04 
L 241.803125 138.68375 
Q 241.803125 136.68375 239.803125 136.68375 
L 75.825 136.68375 
Q 73.825 136.68375 73.825 138.68375 
L 73.825 167.04 
Q 73.825 169.04 75.825 169.04 
z
" style="fill: #ffffff; opacity: 0.8; stroke: #cccccc; stroke-linejoin: miter"/>
    </g>
    <g id="line2d_15">
     <path d="M 77.825 144.782188 
L 87.825 144.782188 
L 97.825 144.782188 
" style="fill: none; stroke: #1f77b4; stroke-linecap: square"/>
    </g>
    <g id="text_14">
     <!-- gaze x -->
     <g transform="translate(105.825 148.282188)scale(0.1 -0.1)">
      <defs>
       <path id="DejaVuSans-67" d="M 2906 1791 
Q 2906 2416 2648 2759 
Q 2391 3103 1925 3103 
Q 1463 3103 1205 2759 
Q 947 2416 947 1791 
Q 947 1169 1205 825 
Q 1463 481 1925 481 
Q 2391 481 2648 825 
Q 2906 1169 2906 1791 
z
M 3481 434 
Q 3481 -459 3084 -895 
Q 2688 -1331 1869 -1331 
Q 1566 -1331 1297 -1286 
Q 1028 -1241 775 -1147 
L 775 -588 
Q 1028 -725 1275 -790 
Q 1522 -856 1778 -856 
Q 2344 -856 2625 -561 
Q 2906 -266 2906 331 
L 2906 616 
Q 2728 306 2450 153 
Q 2172 0 1784 0 
Q 1141 0 747 490 
Q 353 981 353 1791 
Q 353 2603 747 3093 
Q 1141 3584 1784 3584 
Q 2172 3584 2450 3431 
Q 2728 3278 2906 2969 
L 2906 3500 
L 3481 3500 
L 3481 434 
z
" transform="scale(0.015625)"/>
       <path id="DejaVuSans-78" d="M 3513 3500 
L 2247 1797 
L 3578 0 
L 2900 0 
L 1881 1375 
L 863 0 
L 184 0 
L 1544 1831 
L 300 3500 
L 978 3500 
L 1906 2253 
L 2834 3500 
L 3513 3500 
z
" transform="scale(0.015625)"/>
      </defs>
      <use xlink:href="#DejaVuSans-67"/>
      <use xlink:href="#DejaVuSans-61" x="63.476562"/>
      <use xlink:href="#DejaVuSans-7a" x="124.755859"/>
      <use xlink:href="#DejaVuSans-65" x="177.246094"/>
      <use xlink:href="#DejaVuSans-20" x="238.769531"/>
      <use xlink:href="#DejaVuSans-78" x="270.556641"/>
     </g>
    </g>
    <g id="line2d_16">
     <path d="M 77.825 159.460313 
L 87.825 159.460313 
L 97.825 159.460313 
" style="fill: none; stroke: #ff7f0e; stroke-linecap: square"/>
    </g>
    <g id="text_15">
     <!-- gaze y -->
     <g transform="translate(105.825 162.960313)scale(0.1 -0.1)">
      <defs>
       <path id="DejaVuSans-79" d="M 2059 -325 
Q 1816 -950 1584 -1140 
Q 1353 -1331 966 -1331 
L 506 -1331 
L 506 -850 
L 844 -850 
Q 1081 -850 1212 -737 
Q 1344 -625 1503 -206 
L 1606 56 
L 191 3500 
L 800 3500 
L 1894 763 
L 2988 3500 
L 3597 3500 
L 2059 -325 
z
" transform="scale(0.015625)"/>
      </defs>
      <use xlink:href="#DejaVuSans-67"/>
      <use xlink:href="#DejaVuSans-61" x="63.476562"/>
      <use xlink:href="#DejaVuSans-7a" x="124.755859"/>
      <use xlink:href="#DejaVuSans-65" x="177.246094"/>
      <use xlink:href="#DejaVuSans-20" x="238.769531"/>
      <use xlink:href="#DejaVuSans-79" x="270.556641"/>
     </g>
    </g>
    <g id="line2d_17">
     <path d="M 158.8 144.782188 
L 168.8 144.782188 
L 178.8 144.782188 
" style="fill: none; stroke: #a52a2a; stroke-linecap: square"/>
    </g>
    <g id="text_16">
     <!-- gaze x vel -->
     <g transform="translate(186.8 148.282188)scale(0.1 -0.1)">
      <defs>
       <path id="DejaVuSans-76" d="M 191 3500 
L 800 3500 
L 1894 563 
L 2988 3500 
L 3597 3500 
L 2284 0 
L 1503 0 
L 191 3500 
z
" transform="scale(0.015625)"/>
      </defs>
      <use xlink:href="#DejaVuSans-67"/>
      <use xlink:href="#DejaVuSans-61" x="63.476562"/>
      <use xlink:href="#DejaVuSans-7a" x="124.755859"/>
      <use xlink:href="#DejaVuSans-65" x="177.246094"/>
      <use xlink:href="#DejaVuSans-20" x="238.769531"/>
      <use xlink:href="#DejaVuSans-78" x="270.556641"/>
      <use xlink:href="#DejaVuSans-20" x="329.736328"/>
      <use xlink:href="#DejaVuSans-76" x="361.523438"/>
      <use xlink:href="#DejaVuSans-65" x="420.703125"/>
      <use xlink:href="#DejaVuSans-6c" x="482.226562"/>
     </g>
    </g>
    <g id="line2d_18">
     <path d="M 158.8 159.460313 
L 168.8 159.460313 
L 178.8 159.460313 
" style="fill: none; stroke: #800080; stroke-linecap: square"/>
    </g>
    <g id="text_17">
     <!-- gaze y vel -->
     <g transform="translate(186.8 162.960313)scale(0.1 -0.1)">
      <use xlink:href="#DejaVuSans-67"/>
      <use xlink:href="#DejaVuSans-61" x="63.476562"/>
      <use xlink:href="#DejaVuSans-7a" x="124.755859"/>
      <use xlink:href="#DejaVuSans-65" x="177.246094"/>
      <use xlink:href="#DejaVuSans-20" x="238.769531"/>
      <use xlink:href="#DejaVuSans-79" x="270.556641"/>
      <use xlink:href="#DejaVuSans-20" x="329.736328"/>
      <use xlink:href="#DejaVuSans-76" x="361.523438"/>
      <use xlink:href="#DejaVuSans-65" x="420.703125"/>
      <use xlink:href="#DejaVuSans-6c" x="482.226562"/>
     </g>
    </g>
   </g>
  </g>
 </g>
 <defs>
  <clipPath id="p8163bee12b">
   <rect x="68.825" y="26.16" width="208.375" height="147.88"/>
  </clipPath>
 </defs>
</svg>
