<?xml version="1.0" encoding="utf-8" standalone="no"?>
<!DOCTYPE svg PUBLIC "-//W3C//DTD SVG 1.1//EN"
  "http://www.w3.org/Graphics/SVG/1.1/DTD/svg11.dtd">
<svg xmlns:xlink="http://www.w3.org/1999/xlink" width="288pt" height="216pt" viewBox="0 0 288 216" xmlns="http://www.w3.org/2000/svg" version="1.1">
 <metadata>
  <rdf:RDF xmlns:dc="http://purl.org/dc/elements/1.1/" xmlns:cc="http://creativecommons.org/ns#" xmlns:rdf="http://www.w3.org/1999/02/22-rdf-syntax-ns#">
   <cc:Work>
    <dc:type rdf:resource="http://purl.org/dc/dcmitype/StillImage"/>
    <dc:date>2023-08-25T16:23:10.514955</dc:date>
    <dc:format>image/svg+xml</dc:format>
    <dc:creator>
     <cc:Agent>
      <dc:title>Matplotlib v3.5.3, https://matplotlib.org/</dc:title>
     </cc:Agent>
    </dc:creator>
   </cc:Work>
  </rdf:RDF>
 </metadata>
 <defs>
  <style type="text/css">*{stroke-linejoin: round; stroke-linecap: butt}</style>
 </defs>
 <g id="figure_1">
  <g id="patch_1">
   <path d="M 0 216 
L 288 216 
L 288 0 
L 0 0 
z
" style="fill: #ffffff"/>
  </g>
  <g id="axes_1">
   <g id="patch_2">
    <path d="M 56.18 174.04 
L 277.2 174.04 
L 277.2 25.44 
L 56.18 25.44 
z
" style="fill: #ffffff"/>
   </g>
   <g id="matplotlib.axis_1">
    <g id="xtick_1">
     <g id="line2d_1">
      <defs>
       <path id="ma2b2ff4fcb" d="M 0 0 
L 0 3.5 
" style="stroke: #000000; stroke-width: 0.8"/>
      </defs>
      <g>
       <use xlink:href="#ma2b2ff4fcb" x="66.226364" y="174.04" style="stroke: #000000; stroke-width: 0.8"/>
      </g>
     </g>
     <g id="text_1">
      <!-- 0 -->
      <g transform="translate(63.045114 188.638438)scale(0.1 -0.1)">
       <defs>
        <path id="DejaVuSans-30" d="M 2034 4250 
Q 1547 4250 1301 3770 
Q 1056 3291 1056 2328 
Q 1056 1369 1301 889 
Q 1547 409 2034 409 
Q 2525 409 2770 889 
Q 3016 1369 3016 2328 
Q 3016 3291 2770 3770 
Q 2525 4250 2034 4250 
z
M 2034 4750 
Q 2819 4750 3233 4129 
Q 3647 3509 3647 2328 
Q 3647 1150 3233 529 
Q 2819 -91 2034 -91 
Q 1250 -91 836 529 
Q 422 1150 422 2328 
Q 422 3509 836 4129 
Q 1250 4750 2034 4750 
z
" transform="scale(0.015625)"/>
       </defs>
       <use xlink:href="#DejaVuSans-30"/>
      </g>
     </g>
    </g>
    <g id="xtick_2">
     <g id="line2d_2">
      <g>
       <use xlink:href="#ma2b2ff4fcb" x="112.416541" y="174.04" style="stroke: #000000; stroke-width: 0.8"/>
      </g>
     </g>
     <g id="text_2">
      <!-- 100 -->
      <g transform="translate(102.872791 188.638438)scale(0.1 -0.1)">
       <defs>
        <path id="DejaVuSans-31" d="M 794 531 
L 1825 531 
L 1825 4091 
L 703 3866 
L 703 4441 
L 1819 4666 
L 2450 4666 
L 2450 531 
L 3481 531 
L 3481 0 
L 794 0 
L 794 531 
z
" transform="scale(0.015625)"/>
       </defs>
       <use xlink:href="#DejaVuSans-31"/>
       <use xlink:href="#DejaVuSans-30" x="63.623047"/>
       <use xlink:href="#DejaVuSans-30" x="127.246094"/>
      </g>
     </g>
    </g>
    <g id="xtick_3">
     <g id="line2d_3">
      <g>
       <use xlink:href="#ma2b2ff4fcb" x="158.606719" y="174.04" style="stroke: #000000; stroke-width: 0.8"/>
      </g>
     </g>
     <g id="text_3">
      <!-- 200 -->
      <g transform="translate(149.062969 188.638438)scale(0.1 -0.1)">
       <defs>
        <path id="DejaVuSans-32" d="M 1228 531 
L 3431 531 
L 3431 0 
L 469 0 
L 469 531 
Q 828 903 1448 1529 
Q 2069 2156 2228 2338 
Q 2531 2678 2651 2914 
Q 2772 3150 2772 3378 
Q 2772 3750 2511 3984 
Q 2250 4219 1831 4219 
Q 1534 4219 1204 4116 
Q 875 4013 500 3803 
L 500 4441 
Q 881 4594 1212 4672 
Q 1544 4750 1819 4750 
Q 2544 4750 2975 4387 
Q 3406 4025 3406 3419 
Q 3406 3131 3298 2873 
Q 3191 2616 2906 2266 
Q 2828 2175 2409 1742 
Q 1991 1309 1228 531 
z
" transform="scale(0.015625)"/>
       </defs>
       <use xlink:href="#DejaVuSans-32"/>
       <use xlink:href="#DejaVuSans-30" x="63.623047"/>
       <use xlink:href="#DejaVuSans-30" x="127.246094"/>
      </g>
     </g>
    </g>
    <g id="xtick_4">
     <g id="line2d_4">
      <g>
       <use xlink:href="#ma2b2ff4fcb" x="204.796897" y="174.04" style="stroke: #000000; stroke-width: 0.8"/>
      </g>
     </g>
     <g id="text_4">
      <!-- 300 -->
      <g transform="translate(195.253147 188.638438)scale(0.1 -0.1)">
       <defs>
        <path id="DejaVuSans-33" d="M 2597 2516 
Q 3050 2419 3304 2112 
Q 3559 1806 3559 1356 
Q 3559 666 3084 287 
Q 2609 -91 1734 -91 
Q 1441 -91 1130 -33 
Q 819 25 488 141 
L 488 750 
Q 750 597 1062 519 
Q 1375 441 1716 441 
Q 2309 441 2620 675 
Q 2931 909 2931 1356 
Q 2931 1769 2642 2001 
Q 2353 2234 1838 2234 
L 1294 2234 
L 1294 2753 
L 1863 2753 
Q 2328 2753 2575 2939 
Q 2822 3125 2822 3475 
Q 2822 3834 2567 4026 
Q 2313 4219 1838 4219 
Q 1578 4219 1281 4162 
Q 984 4106 628 3988 
L 628 4550 
Q 988 4650 1302 4700 
Q 1616 4750 1894 4750 
Q 2613 4750 3031 4423 
Q 3450 4097 3450 3541 
Q 3450 3153 3228 2886 
Q 3006 2619 2597 2516 
z
" transform="scale(0.015625)"/>
       </defs>
       <use xlink:href="#DejaVuSans-33"/>
       <use xlink:href="#DejaVuSans-30" x="63.623047"/>
       <use xlink:href="#DejaVuSans-30" x="127.246094"/>
      </g>
     </g>
    </g>
    <g id="xtick_5">
     <g id="line2d_5">
      <g>
       <use xlink:href="#ma2b2ff4fcb" x="250.987074" y="174.04" style="stroke: #000000; stroke-width: 0.8"/>
      </g>
     </g>
     <g id="text_5">
      <!-- 400 -->
      <g transform="translate(241.443324 188.638438)scale(0.1 -0.1)">
       <defs>
        <path id="DejaVuSans-34" d="M 2419 4116 
L 825 1625 
L 2419 1625 
L 2419 4116 
z
M 2253 4666 
L 3047 4666 
L 3047 1625 
L 3713 1625 
L 3713 1100 
L 3047 1100 
L 3047 0 
L 2419 0 
L 2419 1100 
L 313 1100 
L 313 1709 
L 2253 4666 
z
" transform="scale(0.015625)"/>
       </defs>
       <use xlink:href="#DejaVuSans-34"/>
       <use xlink:href="#DejaVuSans-30" x="63.623047"/>
       <use xlink:href="#DejaVuSans-30" x="127.246094"/>
      </g>
     </g>
    </g>
    <g id="text_6">
     <!-- Step -->
     <g transform="translate(155.304844 202.316563)scale(0.1 -0.1)">
      <defs>
       <path id="DejaVuSans-53" d="M 3425 4513 
L 3425 3897 
Q 3066 4069 2747 4153 
Q 2428 4238 2131 4238 
Q 1616 4238 1336 4038 
Q 1056 3838 1056 3469 
Q 1056 3159 1242 3001 
Q 1428 2844 1947 2747 
L 2328 2669 
Q 3034 2534 3370 2195 
Q 3706 1856 3706 1288 
Q 3706 609 3251 259 
Q 2797 -91 1919 -91 
Q 1588 -91 1214 -16 
Q 841 59 441 206 
L 441 856 
Q 825 641 1194 531 
Q 1563 422 1919 422 
Q 2459 422 2753 634 
Q 3047 847 3047 1241 
Q 3047 1584 2836 1778 
Q 2625 1972 2144 2069 
L 1759 2144 
Q 1053 2284 737 2584 
Q 422 2884 422 3419 
Q 422 4038 858 4394 
Q 1294 4750 2059 4750 
Q 2388 4750 2728 4690 
Q 3069 4631 3425 4513 
z
" transform="scale(0.015625)"/>
       <path id="DejaVuSans-74" d="M 1172 4494 
L 1172 3500 
L 2356 3500 
L 2356 3053 
L 1172 3053 
L 1172 1153 
Q 1172 725 1289 603 
Q 1406 481 1766 481 
L 2356 481 
L 2356 0 
L 1766 0 
Q 1100 0 847 248 
Q 594 497 594 1153 
L 594 3053 
L 172 3053 
L 172 3500 
L 594 3500 
L 594 4494 
L 1172 4494 
z
" transform="scale(0.015625)"/>
       <path id="DejaVuSans-65" d="M 3597 1894 
L 3597 1613 
L 953 1613 
Q 991 1019 1311 708 
Q 1631 397 2203 397 
Q 2534 397 2845 478 
Q 3156 559 3463 722 
L 3463 178 
Q 3153 47 2828 -22 
Q 2503 -91 2169 -91 
Q 1331 -91 842 396 
Q 353 884 353 1716 
Q 353 2575 817 3079 
Q 1281 3584 2069 3584 
Q 2775 3584 3186 3129 
Q 3597 2675 3597 1894 
z
M 3022 2063 
Q 3016 2534 2758 2815 
Q 2500 3097 2075 3097 
Q 1594 3097 1305 2825 
Q 1016 2553 972 2059 
L 3022 2063 
z
" transform="scale(0.015625)"/>
       <path id="DejaVuSans-70" d="M 1159 525 
L 1159 -1331 
L 581 -1331 
L 581 3500 
L 1159 3500 
L 1159 2969 
Q 1341 3281 1617 3432 
Q 1894 3584 2278 3584 
Q 2916 3584 3314 3078 
Q 3713 2572 3713 1747 
Q 3713 922 3314 415 
Q 2916 -91 2278 -91 
Q 1894 -91 1617 61 
Q 1341 213 1159 525 
z
M 3116 1747 
Q 3116 2381 2855 2742 
Q 2594 3103 2138 3103 
Q 1681 3103 1420 2742 
Q 1159 2381 1159 1747 
Q 1159 1113 1420 752 
Q 1681 391 2138 391 
Q 2594 391 2855 752 
Q 3116 1113 3116 1747 
z
" transform="scale(0.015625)"/>
      </defs>
      <use xlink:href="#DejaVuSans-53"/>
      <use xlink:href="#DejaVuSans-74" x="63.476562"/>
      <use xlink:href="#DejaVuSans-65" x="102.685547"/>
      <use xlink:href="#DejaVuSans-70" x="164.208984"/>
     </g>
    </g>
   </g>
   <g id="matplotlib.axis_2">
    <g id="ytick_1">
     <g id="line2d_6">
      <defs>
       <path id="m8e1fab86fd" d="M 0 0 
L -3.5 0 
" style="stroke: #000000; stroke-width: 0.8"/>
      </defs>
      <g>
       <use xlink:href="#m8e1fab86fd" x="56.18" y="174.04" style="stroke: #000000; stroke-width: 0.8"/>
      </g>
     </g>
     <g id="text_7">
      <!-- −0.3 -->
      <g transform="translate(24.897188 177.839219)scale(0.1 -0.1)">
       <defs>
        <path id="DejaVuSans-2212" d="M 678 2272 
L 4684 2272 
L 4684 1741 
L 678 1741 
L 678 2272 
z
" transform="scale(0.015625)"/>
        <path id="DejaVuSans-2e" d="M 684 794 
L 1344 794 
L 1344 0 
L 684 0 
L 684 794 
z
" transform="scale(0.015625)"/>
       </defs>
       <use xlink:href="#DejaVuSans-2212"/>
       <use xlink:href="#DejaVuSans-30" x="83.789062"/>
       <use xlink:href="#DejaVuSans-2e" x="147.412109"/>
       <use xlink:href="#DejaVuSans-33" x="179.199219"/>
      </g>
     </g>
    </g>
    <g id="ytick_2">
     <g id="line2d_7">
      <g>
       <use xlink:href="#m8e1fab86fd" x="56.18" y="149.273333" style="stroke: #000000; stroke-width: 0.8"/>
      </g>
     </g>
     <g id="text_8">
      <!-- −0.2 -->
      <g transform="translate(24.897188 153.072552)scale(0.1 -0.1)">
       <use xlink:href="#DejaVuSans-2212"/>
       <use xlink:href="#DejaVuSans-30" x="83.789062"/>
       <use xlink:href="#DejaVuSans-2e" x="147.412109"/>
       <use xlink:href="#DejaVuSans-32" x="179.199219"/>
      </g>
     </g>
    </g>
    <g id="ytick_3">
     <g id="line2d_8">
      <g>
       <use xlink:href="#m8e1fab86fd" x="56.18" y="124.506667" style="stroke: #000000; stroke-width: 0.8"/>
      </g>
     </g>
     <g id="text_9">
      <!-- −0.1 -->
      <g transform="translate(24.897188 128.305885)scale(0.1 -0.1)">
       <use xlink:href="#DejaVuSans-2212"/>
       <use xlink:href="#DejaVuSans-30" x="83.789062"/>
       <use xlink:href="#DejaVuSans-2e" x="147.412109"/>
       <use xlink:href="#DejaVuSans-31" x="179.199219"/>
      </g>
     </g>
    </g>
    <g id="ytick_4">
     <g id="line2d_9">
      <g>
       <use xlink:href="#m8e1fab86fd" x="56.18" y="99.74" style="stroke: #000000; stroke-width: 0.8"/>
      </g>
     </g>
     <g id="text_10">
      <!-- 0.0 -->
      <g transform="translate(33.276875 103.539219)scale(0.1 -0.1)">
       <use xlink:href="#DejaVuSans-30"/>
       <use xlink:href="#DejaVuSans-2e" x="63.623047"/>
       <use xlink:href="#DejaVuSans-30" x="95.410156"/>
      </g>
     </g>
    </g>
    <g id="ytick_5">
     <g id="line2d_10">
      <g>
       <use xlink:href="#m8e1fab86fd" x="56.18" y="74.973333" style="stroke: #000000; stroke-width: 0.8"/>
      </g>
     </g>
     <g id="text_11">
      <!-- 0.1 -->
      <g transform="translate(33.276875 78.772552)scale(0.1 -0.1)">
       <use xlink:href="#DejaVuSans-30"/>
       <use xlink:href="#DejaVuSans-2e" x="63.623047"/>
       <use xlink:href="#DejaVuSans-31" x="95.410156"/>
      </g>
     </g>
    </g>
    <g id="ytick_6">
     <g id="line2d_11">
      <g>
       <use xlink:href="#m8e1fab86fd" x="56.18" y="50.206667" style="stroke: #000000; stroke-width: 0.8"/>
      </g>
     </g>
     <g id="text_12">
      <!-- 0.2 -->
      <g transform="translate(33.276875 54.005885)scale(0.1 -0.1)">
       <use xlink:href="#DejaVuSans-30"/>
       <use xlink:href="#DejaVuSans-2e" x="63.623047"/>
       <use xlink:href="#DejaVuSans-32" x="95.410156"/>
      </g>
     </g>
    </g>
    <g id="ytick_7">
     <g id="line2d_12">
      <g>
       <use xlink:href="#m8e1fab86fd" x="56.18" y="25.44" style="stroke: #000000; stroke-width: 0.8"/>
      </g>
     </g>
     <g id="text_13">
      <!-- 0.3 -->
      <g transform="translate(33.276875 29.239219)scale(0.1 -0.1)">
       <use xlink:href="#DejaVuSans-30"/>
       <use xlink:href="#DejaVuSans-2e" x="63.623047"/>
       <use xlink:href="#DejaVuSans-33" x="95.410156"/>
      </g>
     </g>
    </g>
    <g id="text_14">
     <!-- Gaze Position (a.u.) -->
     <g transform="translate(18.8175 148.33375)rotate(-90)scale(0.1 -0.1)">
      <defs>
       <path id="DejaVuSans-47" d="M 3809 666 
L 3809 1919 
L 2778 1919 
L 2778 2438 
L 4434 2438 
L 4434 434 
Q 4069 175 3628 42 
Q 3188 -91 2688 -91 
Q 1594 -91 976 548 
Q 359 1188 359 2328 
Q 359 3472 976 4111 
Q 1594 4750 2688 4750 
Q 3144 4750 3555 4637 
Q 3966 4525 4313 4306 
L 4313 3634 
Q 3963 3931 3569 4081 
Q 3175 4231 2741 4231 
Q 1884 4231 1454 3753 
Q 1025 3275 1025 2328 
Q 1025 1384 1454 906 
Q 1884 428 2741 428 
Q 3075 428 3337 486 
Q 3600 544 3809 666 
z
" transform="scale(0.015625)"/>
       <path id="DejaVuSans-61" d="M 2194 1759 
Q 1497 1759 1228 1600 
Q 959 1441 959 1056 
Q 959 750 1161 570 
Q 1363 391 1709 391 
Q 2188 391 2477 730 
Q 2766 1069 2766 1631 
L 2766 1759 
L 2194 1759 
z
M 3341 1997 
L 3341 0 
L 2766 0 
L 2766 531 
Q 2569 213 2275 61 
Q 1981 -91 1556 -91 
Q 1019 -91 701 211 
Q 384 513 384 1019 
Q 384 1609 779 1909 
Q 1175 2209 1959 2209 
L 2766 2209 
L 2766 2266 
Q 2766 2663 2505 2880 
Q 2244 3097 1772 3097 
Q 1472 3097 1187 3025 
Q 903 2953 641 2809 
L 641 3341 
Q 956 3463 1253 3523 
Q 1550 3584 1831 3584 
Q 2591 3584 2966 3190 
Q 3341 2797 3341 1997 
z
" transform="scale(0.015625)"/>
       <path id="DejaVuSans-7a" d="M 353 3500 
L 3084 3500 
L 3084 2975 
L 922 459 
L 3084 459 
L 3084 0 
L 275 0 
L 275 525 
L 2438 3041 
L 353 3041 
L 353 3500 
z
" transform="scale(0.015625)"/>
       <path id="DejaVuSans-20" transform="scale(0.015625)"/>
       <path id="DejaVuSans-50" d="M 1259 4147 
L 1259 2394 
L 2053 2394 
Q 2494 2394 2734 2622 
Q 2975 2850 2975 3272 
Q 2975 3691 2734 3919 
Q 2494 4147 2053 4147 
L 1259 4147 
z
M 628 4666 
L 2053 4666 
Q 2838 4666 3239 4311 
Q 3641 3956 3641 3272 
Q 3641 2581 3239 2228 
Q 2838 1875 2053 1875 
L 1259 1875 
L 1259 0 
L 628 0 
L 628 4666 
z
" transform="scale(0.015625)"/>
       <path id="DejaVuSans-6f" d="M 1959 3097 
Q 1497 3097 1228 2736 
Q 959 2375 959 1747 
Q 959 1119 1226 758 
Q 1494 397 1959 397 
Q 2419 397 2687 759 
Q 2956 1122 2956 1747 
Q 2956 2369 2687 2733 
Q 2419 3097 1959 3097 
z
M 1959 3584 
Q 2709 3584 3137 3096 
Q 3566 2609 3566 1747 
Q 3566 888 3137 398 
Q 2709 -91 1959 -91 
Q 1206 -91 779 398 
Q 353 888 353 1747 
Q 353 2609 779 3096 
Q 1206 3584 1959 3584 
z
" transform="scale(0.015625)"/>
       <path id="DejaVuSans-73" d="M 2834 3397 
L 2834 2853 
Q 2591 2978 2328 3040 
Q 2066 3103 1784 3103 
Q 1356 3103 1142 2972 
Q 928 2841 928 2578 
Q 928 2378 1081 2264 
Q 1234 2150 1697 2047 
L 1894 2003 
Q 2506 1872 2764 1633 
Q 3022 1394 3022 966 
Q 3022 478 2636 193 
Q 2250 -91 1575 -91 
Q 1294 -91 989 -36 
Q 684 19 347 128 
L 347 722 
Q 666 556 975 473 
Q 1284 391 1588 391 
Q 1994 391 2212 530 
Q 2431 669 2431 922 
Q 2431 1156 2273 1281 
Q 2116 1406 1581 1522 
L 1381 1569 
Q 847 1681 609 1914 
Q 372 2147 372 2553 
Q 372 3047 722 3315 
Q 1072 3584 1716 3584 
Q 2034 3584 2315 3537 
Q 2597 3491 2834 3397 
z
" transform="scale(0.015625)"/>
       <path id="DejaVuSans-69" d="M 603 3500 
L 1178 3500 
L 1178 0 
L 603 0 
L 603 3500 
z
M 603 4863 
L 1178 4863 
L 1178 4134 
L 603 4134 
L 603 4863 
z
" transform="scale(0.015625)"/>
       <path id="DejaVuSans-6e" d="M 3513 2113 
L 3513 0 
L 2938 0 
L 2938 2094 
Q 2938 2591 2744 2837 
Q 2550 3084 2163 3084 
Q 1697 3084 1428 2787 
Q 1159 2491 1159 1978 
L 1159 0 
L 581 0 
L 581 3500 
L 1159 3500 
L 1159 2956 
Q 1366 3272 1645 3428 
Q 1925 3584 2291 3584 
Q 2894 3584 3203 3211 
Q 3513 2838 3513 2113 
z
" transform="scale(0.015625)"/>
       <path id="DejaVuSans-28" d="M 1984 4856 
Q 1566 4138 1362 3434 
Q 1159 2731 1159 2009 
Q 1159 1288 1364 580 
Q 1569 -128 1984 -844 
L 1484 -844 
Q 1016 -109 783 600 
Q 550 1309 550 2009 
Q 550 2706 781 3412 
Q 1013 4119 1484 4856 
L 1984 4856 
z
" transform="scale(0.015625)"/>
       <path id="DejaVuSans-75" d="M 544 1381 
L 544 3500 
L 1119 3500 
L 1119 1403 
Q 1119 906 1312 657 
Q 1506 409 1894 409 
Q 2359 409 2629 706 
Q 2900 1003 2900 1516 
L 2900 3500 
L 3475 3500 
L 3475 0 
L 2900 0 
L 2900 538 
Q 2691 219 2414 64 
Q 2138 -91 1772 -91 
Q 1169 -91 856 284 
Q 544 659 544 1381 
z
M 1991 3584 
L 1991 3584 
z
" transform="scale(0.015625)"/>
       <path id="DejaVuSans-29" d="M 513 4856 
L 1013 4856 
Q 1481 4119 1714 3412 
Q 1947 2706 1947 2009 
Q 1947 1309 1714 600 
Q 1481 -109 1013 -844 
L 513 -844 
Q 928 -128 1133 580 
Q 1338 1288 1338 2009 
Q 1338 2731 1133 3434 
Q 928 4138 513 4856 
z
" transform="scale(0.015625)"/>
      </defs>
      <use xlink:href="#DejaVuSans-47"/>
      <use xlink:href="#DejaVuSans-61" x="77.490234"/>
      <use xlink:href="#DejaVuSans-7a" x="138.769531"/>
      <use xlink:href="#DejaVuSans-65" x="191.259766"/>
      <use xlink:href="#DejaVuSans-20" x="252.783203"/>
      <use xlink:href="#DejaVuSans-50" x="284.570312"/>
      <use xlink:href="#DejaVuSans-6f" x="341.248047"/>
      <use xlink:href="#DejaVuSans-73" x="402.429688"/>
      <use xlink:href="#DejaVuSans-69" x="454.529297"/>
      <use xlink:href="#DejaVuSans-74" x="482.3125"/>
      <use xlink:href="#DejaVuSans-69" x="521.521484"/>
      <use xlink:href="#DejaVuSans-6f" x="549.304688"/>
      <use xlink:href="#DejaVuSans-6e" x="610.486328"/>
      <use xlink:href="#DejaVuSans-20" x="673.865234"/>
      <use xlink:href="#DejaVuSans-28" x="705.652344"/>
      <use xlink:href="#DejaVuSans-61" x="744.666016"/>
      <use xlink:href="#DejaVuSans-2e" x="805.945312"/>
      <use xlink:href="#DejaVuSans-75" x="837.732422"/>
      <use xlink:href="#DejaVuSans-2e" x="901.111328"/>
      <use xlink:href="#DejaVuSans-29" x="932.898438"/>
     </g>
    </g>
   </g>
   <g id="line2d_13">
    <path d="M 66.226364 99.471818 
L 66.688265 94.307017 
L 67.150167 106.684807 
L 67.612069 100.068473 
L 68.073971 97.295902 
L 68.997774 101.876142 
L 69.459676 105.741535 
L 69.921578 92.370116 
L 70.38348 98.593657 
L 70.845381 98.836187 
L 71.307283 98.030571 
L 71.769185 103.361704 
L 72.231087 100.824195 
L 72.692989 102.638037 
L 73.15489 98.939127 
L 73.616792 97.938527 
L 74.078694 98.91237 
L 74.540596 98.747788 
L 75.002497 105.032787 
L 75.464399 97.80368 
L 75.926301 95.703869 
L 76.388203 99.227865 
L 76.850104 99.173613 
L 77.312006 102.699152 
L 77.773908 101.379079 
L 78.23581 103.328889 
L 78.697712 96.086298 
L 79.159613 101.812688 
L 79.621515 96.337593 
L 80.083417 99.213197 
L 80.545319 97.222257 
L 81.469122 104.237945 
L 81.931024 98.242249 
L 82.392926 98.293797 
L 82.854828 97.606125 
L 83.316729 101.703375 
L 83.778631 100.883513 
L 84.240533 96.505798 
L 84.702435 98.373705 
L 85.164336 103.742336 
L 85.626238 92.204041 
L 86.08814 100.149012 
L 86.550042 105.332092 
L 87.011944 98.89167 
L 87.473845 102.364341 
L 87.935747 94.76828 
L 88.397649 98.902419 
L 89.321452 108.639974 
L 89.783354 104.862622 
L 90.245256 96.315498 
L 90.707158 99.408607 
L 91.16906 97.840012 
L 91.630961 100.052364 
L 92.092863 97.057529 
L 92.554765 102.109607 
L 93.016667 97.938857 
L 93.478568 97.603157 
L 93.94047 95.052552 
L 94.402372 86.959431 
L 94.864274 91.808976 
L 95.326176 100.709351 
L 96.249979 95.661872 
L 96.711881 102.572532 
L 97.173783 105.348253 
L 97.635684 110.375292 
L 98.097586 107.37862 
L 98.559488 106.54554 
L 99.02139 104.741399 
L 99.483292 113.412704 
L 99.945193 109.814038 
L 100.407095 101.017959 
L 100.868997 104.762288 
L 101.330899 87.355471 
L 101.7928 92.928108 
L 102.716604 82.718077 
L 103.178506 88.819437 
L 103.640408 74.646991 
L 104.102309 79.268551 
L 104.564211 89.543154 
L 105.026113 120.96177 
L 105.488015 117.116006 
L 105.949916 121.587613 
L 106.411818 117.596923 
L 106.87372 109.488632 
L 107.335622 109.869746 
L 107.797524 105.011679 
L 108.259425 96.169059 
L 108.721327 97.910019 
L 109.183229 96.258698 
L 109.645131 95.612831 
L 110.107032 98.56092 
L 110.568934 91.295645 
L 111.030836 91.489522 
L 111.492738 93.399531 
L 111.954639 100.024461 
L 112.416541 91.194727 
L 112.878443 96.99015 
L 113.340345 101.34965 
L 113.802247 92.921779 
L 114.264148 95.431678 
L 114.72605 101.777385 
L 115.187952 102.312161 
L 115.649854 107.469252 
L 116.111755 103.289291 
L 116.573657 110.957612 
L 117.497461 103.652602 
L 117.959363 102.966481 
L 118.421264 101.617138 
L 118.883166 97.575612 
L 119.345068 98.760511 
L 119.80697 94.45869 
L 120.268871 97.591704 
L 120.730773 89.524987 
L 121.192675 97.102866 
L 121.654577 98.225607 
L 122.116479 96.56279 
L 122.57838 100.955575 
L 123.040282 94.692022 
L 123.502184 102.670505 
L 123.964086 97.561465 
L 124.425987 102.103008 
L 124.887889 104.371846 
L 125.349791 103.930766 
L 125.811693 101.410609 
L 126.273595 94.284328 
L 126.735496 100.266263 
L 127.197398 109.743722 
L 127.6593 102.623771 
L 128.121202 99.365875 
L 128.583103 98.638446 
L 129.045005 96.673004 
L 129.506907 91.788702 
L 129.968809 97.963118 
L 130.430711 96.020191 
L 130.892612 97.561676 
L 131.354514 104.309444 
L 131.816416 108.283085 
L 132.278318 101.79921 
L 132.740219 107.176928 
L 133.202121 96.432684 
L 133.664023 91.881486 
L 134.125925 99.166155 
L 134.587827 97.205445 
L 135.049728 97.710252 
L 135.51163 100.605074 
L 135.973532 101.230335 
L 136.435434 93.973942 
L 137.359237 102.884096 
L 137.821139 101.344265 
L 138.283041 97.339891 
L 139.206844 104.05587 
L 139.668746 105.67228 
L 140.130648 103.221917 
L 140.59255 98.804205 
L 141.054451 96.845898 
L 141.516353 97.553678 
L 141.978255 96.913802 
L 142.440157 97.166739 
L 142.902059 101.449782 
L 143.36396 97.901864 
L 143.825862 101.152491 
L 144.287764 100.591125 
L 144.749666 98.522998 
L 145.211567 100.226933 
L 145.673469 106.27467 
L 146.135371 103.359363 
L 146.597273 89.599847 
L 147.521076 99.727003 
L 147.982978 99.984717 
L 148.44488 104.230881 
L 148.906782 98.456074 
L 149.368683 95.969759 
L 149.830585 101.857469 
L 150.754389 97.399488 
L 151.21629 103.928243 
L 151.678192 98.115478 
L 152.140094 94.853355 
L 152.601996 109.687812 
L 153.063898 102.277287 
L 153.525799 104.424782 
L 153.987701 97.047175 
L 154.449603 101.419789 
L 154.911505 101.150982 
L 155.373406 101.042809 
L 155.835308 99.119426 
L 156.29721 99.660158 
L 156.759112 89.216974 
L 157.221014 92.729171 
L 157.682915 93.368019 
L 158.144817 98.111263 
L 158.606719 97.337458 
L 159.068621 97.138018 
L 159.992424 104.747047 
L 160.454326 110.2255 
L 160.916228 107.865238 
L 161.37813 98.286735 
L 161.840031 102.227984 
L 162.301933 109.059488 
L 162.763835 98.92195 
L 163.225737 98.684699 
L 163.687638 98.964731 
L 164.14954 94.604999 
L 164.611442 100.151245 
L 165.073344 90.801576 
L 165.997147 102.083322 
L 166.459049 98.584133 
L 166.920951 91.217825 
L 167.382853 98.275538 
L 167.844754 100.005897 
L 168.306656 103.086123 
L 168.768558 100.972798 
L 169.23046 105.992023 
L 169.692362 99.206896 
L 170.616165 99.660477 
L 171.078067 100.196772 
L 171.539969 99.875643 
L 172.00187 105.930029 
L 172.463772 101.060179 
L 172.925674 102.076201 
L 173.387576 97.626362 
L 173.849478 101.003046 
L 174.311379 102.342198 
L 174.773281 92.436909 
L 175.235183 99.284715 
L 175.697085 96.186335 
L 176.158986 100.196287 
L 176.620888 100.698067 
L 177.08279 100.653234 
L 177.544692 91.305796 
L 178.006594 98.309346 
L 178.468495 96.199092 
L 178.930397 101.121421 
L 179.854201 105.497972 
L 180.316102 104.836413 
L 180.778004 100.736256 
L 181.239906 94.725586 
L 182.16371 98.979024 
L 182.625611 103.189543 
L 183.087513 97.365834 
L 183.549415 99.636357 
L 184.011317 104.549833 
L 184.473218 100.158911 
L 184.93512 101.898377 
L 185.397022 101.322513 
L 185.858924 99.446775 
L 186.320825 93.947705 
L 186.782727 95.95217 
L 187.244629 102.11649 
L 187.706531 102.246495 
L 188.168433 98.291518 
L 188.630334 101.070512 
L 189.092236 99.193826 
L 189.554138 95.560707 
L 190.01604 95.153705 
L 190.477941 97.180886 
L 190.939843 104.78059 
L 191.401745 100.611468 
L 191.863647 93.529241 
L 192.78745 108.603963 
L 193.249352 102.097048 
L 193.711254 99.822344 
L 194.173156 96.824902 
L 194.635057 104.342155 
L 195.096959 98.014303 
L 195.558861 99.73581 
L 196.482665 97.818433 
L 196.944566 103.924933 
L 197.406468 100.368085 
L 197.86837 94.170401 
L 198.330272 102.059324 
L 198.792173 94.694172 
L 199.254075 96.310858 
L 199.715977 99.065549 
L 200.177879 104.285649 
L 200.639781 100.086255 
L 201.101682 96.969718 
L 201.563584 98.892547 
L 202.025486 103.563244 
L 202.487388 98.093864 
L 202.949289 102.280347 
L 203.411191 99.483162 
L 203.873093 97.409872 
L 204.334995 104.062507 
L 204.796897 101.659942 
L 205.258798 102.302952 
L 205.7207 99.6301 
L 206.182602 98.40706 
L 206.644504 93.510266 
L 207.106405 95.585429 
L 207.568307 101.22301 
L 208.030209 95.57754 
L 208.492111 106.364111 
L 208.954013 100.273397 
L 209.415914 100.668729 
L 209.877816 96.978299 
L 210.339718 103.394167 
L 210.80162 97.142995 
L 211.263521 105.634816 
L 211.725423 101.637415 
L 212.187325 92.687276 
L 212.649227 100.072567 
L 213.111129 102.411192 
L 213.57303 103.265201 
L 214.034932 97.452728 
L 214.496834 97.475108 
L 214.958736 95.125092 
L 215.420637 99.93657 
L 215.882539 99.00838 
L 216.344441 98.905015 
L 216.806343 98.991111 
L 217.268245 100.656311 
L 217.730146 91.303191 
L 218.192048 102.082109 
L 218.65395 107.18171 
L 219.115852 99.713989 
L 219.577753 100.590724 
L 220.501557 107.018954 
L 220.963459 102.891147 
L 221.425361 97.513312 
L 221.887262 98.154967 
L 222.349164 99.820949 
L 222.811066 92.335378 
L 223.272968 99.808706 
L 223.734869 100.096785 
L 224.196771 95.340901 
L 224.658673 96.253353 
L 225.120575 102.055899 
L 225.582476 92.323477 
L 226.044378 102.409357 
L 226.968182 100.086427 
L 227.891985 102.742619 
L 228.353887 103.958925 
L 228.815789 101.532702 
L 229.277691 93.369881 
L 229.739592 99.105023 
L 230.201494 96.823798 
L 230.663396 99.974412 
L 231.125298 105.637972 
L 231.5872 99.348688 
L 232.511003 107.908051 
L 232.972905 94.617837 
L 233.434807 96.621738 
L 233.896708 99.888065 
L 234.35861 97.53077 
L 234.820512 96.535319 
L 235.282414 104.363205 
L 235.744316 94.00506 
L 236.206217 99.825896 
L 236.668119 103.858847 
L 237.130021 99.024999 
L 237.591923 100.921836 
L 238.053824 92.874075 
L 238.977628 94.267677 
L 239.43953 102.471206 
L 239.901432 107.721633 
L 240.363333 94.802651 
L 240.825235 100.524125 
L 241.287137 99.191486 
L 241.749039 99.696475 
L 242.21094 109.804064 
L 242.672842 99.781573 
L 243.134744 108.063805 
L 243.596646 101.779369 
L 244.058548 104.380112 
L 244.982351 101.693168 
L 245.444253 92.403499 
L 245.906155 99.527665 
L 246.368056 92.512387 
L 246.829958 91.761266 
L 247.29186 90.536648 
L 247.753762 97.278981 
L 248.215664 100.901164 
L 248.677565 94.296564 
L 249.139467 104.522416 
L 249.601369 100.521983 
L 250.063271 98.854514 
L 250.525172 103.386761 
L 250.987074 101.958938 
L 251.448976 104.131781 
L 251.910878 100.22675 
L 252.37278 105.802902 
L 252.834681 94.323196 
L 253.296583 106.16836 
L 253.758485 95.515248 
L 254.220387 99.300237 
L 254.682288 104.876776 
L 255.14419 96.989508 
L 255.606092 105.703025 
L 256.067994 98.52449 
L 256.529896 99.177039 
L 256.991797 97.75941 
L 257.453699 103.730797 
L 257.915601 96.136126 
L 258.377503 99.391671 
L 259.301306 97.281045 
L 259.763208 95.605285 
L 260.687011 99.377015 
L 261.148913 92.057919 
L 261.610815 100.476145 
L 262.072717 95.841952 
L 262.534619 99.764108 
L 262.99652 102.519711 
L 263.458422 97.703008 
L 263.920324 103.121131 
L 264.382226 105.443922 
L 264.844127 101.399455 
L 265.306029 102.897936 
L 265.767931 103.589092 
L 266.229833 99.342976 
L 266.691735 103.310725 
L 267.153636 95.285286 
L 267.153636 95.285286 
" clip-path="url(#p53f5eebe20)" style="fill: none; stroke: #1f77b4; stroke-linecap: square"/>
   </g>
   <g id="line2d_14">
    <path d="M 66.226364 100.148955 
L 66.688265 96.99924 
L 67.150167 104.95913 
L 67.612069 96.392723 
L 68.073971 99.540417 
L 68.535873 100.034396 
L 68.997774 101.217625 
L 69.459676 105.066283 
L 69.921578 95.7734 
L 70.38348 97.471494 
L 70.845381 101.537579 
L 71.307283 101.674379 
L 71.769185 98.21863 
L 72.231087 99.645305 
L 72.692989 98.021146 
L 73.15489 96.832862 
L 73.616792 104.150379 
L 74.078694 98.368567 
L 74.540596 104.521096 
L 75.002497 101.960533 
L 75.464399 97.260959 
L 75.926301 96.788723 
L 76.388203 94.057078 
L 76.850104 99.875027 
L 77.312006 100.373302 
L 77.773908 106.090647 
L 78.23581 96.85377 
L 78.697712 96.676348 
L 79.159613 98.584382 
L 79.621515 99.708167 
L 80.083417 102.509937 
L 80.545319 102.268543 
L 81.00722 99.596798 
L 81.469122 99.551832 
L 81.931024 103.086037 
L 82.392926 102.190891 
L 82.854828 100.211897 
L 83.316729 100.425478 
L 83.778631 98.585427 
L 84.240533 95.370878 
L 84.702435 97.339276 
L 85.164336 101.753581 
L 85.626238 97.943353 
L 86.08814 101.019059 
L 86.550042 97.099859 
L 87.011944 91.79601 
L 87.473845 101.306864 
L 87.935747 100.412321 
L 88.397649 104.567802 
L 88.859551 102.833631 
L 89.321452 103.35371 
L 89.783354 96.89969 
L 90.245256 97.630382 
L 90.707158 100.694188 
L 91.16906 100.486884 
L 91.630961 100.771213 
L 92.092863 103.942382 
L 92.554765 99.536225 
L 93.016667 99.521232 
L 93.478568 101.365415 
L 93.94047 93.854333 
L 94.402372 98.861837 
L 94.864274 102.236279 
L 95.326176 97.203455 
L 95.788077 97.709405 
L 96.249979 97.529418 
L 96.711881 95.02068 
L 97.173783 105.290269 
L 97.635684 103.037145 
L 98.097586 99.885335 
L 98.559488 94.672891 
L 99.483292 103.079423 
L 99.945193 101.931589 
L 100.407095 101.592709 
L 100.868997 102.131563 
L 101.330899 103.343684 
L 102.254702 95.208681 
L 102.716604 100.972028 
L 103.178506 102.01053 
L 103.640408 98.733369 
L 104.564211 95.441013 
L 105.026113 99.390861 
L 105.488015 101.490528 
L 105.949916 97.568927 
L 106.411818 101.439145 
L 106.87372 100.590063 
L 107.335622 95.708088 
L 107.797524 101.836345 
L 108.259425 99.080985 
L 108.721327 100.43646 
L 109.183229 100.913835 
L 109.645131 100.65272 
L 110.107032 99.861282 
L 110.568934 100.593903 
L 111.030836 102.374739 
L 111.492738 102.333456 
L 111.954639 100.608669 
L 112.416541 102.26264 
L 112.878443 92.800705 
L 113.340345 101.346212 
L 113.802247 101.442209 
L 114.264148 95.274156 
L 114.72605 101.43555 
L 115.187952 96.268754 
L 115.649854 93.991712 
L 116.111755 99.314691 
L 116.573657 101.298698 
L 117.035559 99.52771 
L 117.497461 102.338999 
L 117.959363 99.131114 
L 118.421264 100.361003 
L 118.883166 104.385321 
L 119.345068 103.9532 
L 119.80697 101.797944 
L 120.268871 97.919435 
L 120.730773 99.835026 
L 121.192675 99.752611 
L 121.654577 95.34969 
L 122.116479 97.628821 
L 122.57838 101.467311 
L 123.040282 96.682786 
L 123.502184 103.165207 
L 123.964086 98.498399 
L 124.425987 97.584626 
L 124.887889 101.381115 
L 125.349791 100.252906 
L 125.811693 100.010336 
L 126.273595 95.665947 
L 126.735496 98.835846 
L 127.197398 104.945127 
L 127.6593 99.706372 
L 128.121202 99.115459 
L 128.583103 99.891057 
L 129.045005 102.375845 
L 129.506907 97.002877 
L 130.430711 100.958491 
L 130.892612 99.493906 
L 131.354514 104.189251 
L 131.816416 100.967516 
L 132.278318 102.339796 
L 132.740219 98.809194 
L 133.202121 98.647663 
L 133.664023 94.206058 
L 134.587827 99.061778 
L 135.049728 99.686641 
L 135.51163 95.83058 
L 135.973532 98.96806 
L 136.435434 103.496918 
L 136.897335 104.834936 
L 137.359237 103.933253 
L 138.283041 94.982613 
L 138.744943 101.125786 
L 139.206844 102.067546 
L 139.668746 101.487314 
L 140.130648 95.895586 
L 140.59255 95.869814 
L 141.054451 102.15439 
L 141.516353 98.559587 
L 141.978255 103.793681 
L 142.440157 99.823258 
L 142.902059 97.303061 
L 143.36396 100.260974 
L 143.825862 102.008398 
L 144.287764 96.5396 
L 144.749666 102.843778 
L 145.673469 95.692501 
L 146.135371 94.477403 
L 146.597273 97.008878 
L 147.059175 102.547646 
L 147.521076 104.477714 
L 147.982978 103.624865 
L 148.44488 103.139219 
L 148.906782 103.095138 
L 149.368683 94.892069 
L 149.830585 98.679021 
L 150.292487 96.702975 
L 150.754389 98.113692 
L 151.21629 101.339664 
L 151.678192 101.460075 
L 152.140094 92.463189 
L 152.601996 102.133357 
L 153.063898 98.509129 
L 153.525799 103.847482 
L 153.987701 99.359128 
L 154.449603 101.226036 
L 154.911505 106.985529 
L 155.373406 97.505246 
L 155.835308 100.922859 
L 156.29721 100.434864 
L 156.759112 90.649238 
L 157.221014 101.665468 
L 157.682915 97.374013 
L 158.144817 98.528685 
L 158.606719 94.412275 
L 159.068621 101.272178 
L 159.530522 101.702551 
L 159.992424 101.779885 
L 160.454326 102.392716 
L 160.916228 101.492551 
L 161.37813 98.396818 
L 161.840031 98.771378 
L 162.301933 104.049363 
L 162.763835 100.570965 
L 163.225737 104.382206 
L 163.687638 96.97414 
L 164.14954 96.985811 
L 164.611442 97.17692 
L 165.073344 103.759421 
L 165.535246 93.381396 
L 165.997147 102.704414 
L 166.459049 96.160546 
L 166.920951 97.988575 
L 167.382853 98.019087 
L 167.844754 98.304368 
L 168.306656 105.680377 
L 168.768558 98.774426 
L 169.23046 99.518955 
L 169.692362 102.389095 
L 170.154263 101.176848 
L 170.616165 101.285675 
L 171.078067 102.039537 
L 171.539969 97.775475 
L 172.00187 101.065742 
L 172.463772 93.680005 
L 172.925674 103.823987 
L 173.849478 97.278383 
L 174.311379 97.728104 
L 174.773281 99.584223 
L 175.235183 99.358335 
L 175.697085 97.999993 
L 176.158986 99.803837 
L 176.620888 99.435105 
L 177.08279 101.597506 
L 177.544692 102.04812 
L 178.006594 103.920516 
L 178.468495 95.869991 
L 178.930397 99.194871 
L 179.392299 100.642521 
L 179.854201 99.797179 
L 180.316102 100.205485 
L 180.778004 99.542686 
L 181.239906 95.349729 
L 181.701808 95.886 
L 182.16371 106.617878 
L 182.625611 101.86679 
L 183.087513 100.214279 
L 183.549415 95.039764 
L 184.011317 104.578961 
L 184.93512 97.964071 
L 185.397022 97.599952 
L 185.858924 94.018851 
L 186.320825 101.021732 
L 186.782727 100.044073 
L 187.244629 99.904361 
L 187.706531 99.245553 
L 188.168433 105.250702 
L 188.630334 102.895937 
L 189.092236 95.812948 
L 189.554138 101.699874 
L 190.01604 97.473496 
L 190.477941 100.625553 
L 190.939843 101.663062 
L 191.401745 99.355953 
L 191.863647 95.480005 
L 192.325549 97.406146 
L 192.78745 103.012278 
L 193.249352 105.390382 
L 193.711254 97.287004 
L 194.173156 96.72598 
L 194.635057 97.475823 
L 195.096959 97.678277 
L 195.558861 103.601416 
L 196.020763 98.565867 
L 196.482665 97.173753 
L 196.944566 103.439667 
L 197.406468 104.037313 
L 197.86837 96.568458 
L 198.330272 99.804993 
L 198.792173 100.908765 
L 199.254075 97.968608 
L 199.715977 98.704372 
L 200.177879 103.534817 
L 200.639781 103.59308 
L 201.101682 95.547159 
L 201.563584 93.002305 
L 202.025486 105.260332 
L 202.487388 100.790672 
L 202.949289 102.148943 
L 203.411191 96.647237 
L 203.873093 99.529908 
L 204.334995 99.268218 
L 204.796897 95.325294 
L 205.258798 102.867384 
L 205.7207 100.86106 
L 206.182602 96.476896 
L 206.644504 100.225519 
L 207.106405 102.264139 
L 207.568307 97.252473 
L 208.030209 97.674471 
L 208.492111 104.607185 
L 208.954013 95.222705 
L 209.415914 101.942054 
L 209.877816 99.484287 
L 210.339718 106.752342 
L 210.80162 100.033767 
L 211.263521 104.046122 
L 211.725423 100.344347 
L 212.187325 93.029368 
L 212.649227 102.853112 
L 213.111129 99.990471 
L 213.57303 93.123558 
L 214.034932 95.914013 
L 214.496834 97.114968 
L 215.420637 104.435604 
L 215.882539 100.477616 
L 216.344441 99.700302 
L 216.806343 94.262583 
L 217.268245 99.327154 
L 217.730146 102.270972 
L 218.192048 103.025015 
L 218.65395 104.933274 
L 219.115852 96.448179 
L 219.577753 99.958191 
L 220.039655 99.269336 
L 220.501557 99.556208 
L 220.963459 101.008388 
L 221.425361 99.172463 
L 221.887262 101.679678 
L 222.349164 98.070877 
L 222.811066 99.051866 
L 223.272968 102.360873 
L 223.734869 94.953866 
L 224.658673 106.617605 
L 225.120575 101.252764 
L 225.582476 90.03265 
L 226.044378 98.003119 
L 226.50628 93.858087 
L 226.968182 101.083866 
L 227.430084 105.295853 
L 227.891985 97.557155 
L 228.353887 100.480729 
L 228.815789 102.401908 
L 229.277691 101.074236 
L 229.739592 95.616867 
L 230.201494 99.685527 
L 230.663396 98.534678 
L 231.125298 105.681931 
L 231.5872 99.404455 
L 232.049101 101.414602 
L 232.511003 104.807932 
L 232.972905 98.989851 
L 233.434807 95.087672 
L 233.896708 96.36883 
L 234.35861 100.303752 
L 234.820512 105.526384 
L 235.282414 98.033136 
L 235.744316 98.110567 
L 236.206217 94.769257 
L 236.668119 104.196557 
L 237.130021 102.434227 
L 238.053824 94.675953 
L 238.515726 96.072376 
L 238.977628 96.15099 
L 239.43953 104.341844 
L 239.901432 99.889845 
L 240.363333 99.9386 
L 240.825235 103.735448 
L 241.287137 96.389973 
L 241.749039 103.841201 
L 242.21094 100.064892 
L 242.672842 100.616749 
L 243.134744 104.253398 
L 243.596646 100.103275 
L 244.058548 99.554239 
L 244.520449 99.314539 
L 244.982351 100.054225 
L 245.444253 98.282754 
L 245.906155 100.681388 
L 246.368056 94.077059 
L 246.829958 94.57269 
L 247.29186 101.900007 
L 248.215664 101.122566 
L 248.677565 100.477846 
L 249.139467 100.635566 
L 249.601369 100.312763 
L 250.063271 97.066055 
L 250.525172 99.436133 
L 250.987074 96.991763 
L 251.448976 101.952727 
L 251.910878 103.197844 
L 252.834681 96.436186 
L 253.296583 101.106362 
L 253.758485 101.415875 
L 254.220387 94.621631 
L 254.682288 100.152645 
L 255.14419 98.550184 
L 255.606092 100.649372 
L 256.067994 99.957663 
L 256.529896 104.931471 
L 256.991797 100.143933 
L 257.453699 105.802915 
L 257.915601 97.891371 
L 258.377503 97.173996 
L 258.839404 103.669529 
L 259.301306 99.792889 
L 259.763208 103.111597 
L 260.22511 94.951103 
L 260.687011 100.110561 
L 261.148913 96.23062 
L 261.610815 95.886475 
L 262.072717 96.497789 
L 262.534619 100.049513 
L 262.99652 100.534075 
L 263.458422 90.710724 
L 263.920324 102.962488 
L 264.382226 96.534227 
L 264.844127 101.069884 
L 265.306029 102.611819 
L 265.767931 103.368729 
L 266.229833 100.296134 
L 266.691735 100.517186 
L 267.153636 99.493647 
L 267.153636 99.493647 
" clip-path="url(#p53f5eebe20)" style="fill: none; stroke: #ff7f0e; stroke-linecap: square"/>
   </g>
   <g id="line2d_15">
    <path d="M 66.226364 102.03566 
L 66.688265 98.4488 
L 67.150167 103.86593 
L 67.612069 97.534555 
L 68.535873 100.554432 
L 68.997774 100.452315 
L 69.459676 100.706348 
L 69.921578 95.28286 
L 70.38348 101.814514 
L 70.845381 99.800632 
L 71.307283 99.471461 
L 71.769185 101.517045 
L 72.231087 99.105623 
L 72.692989 100.344614 
L 73.15489 98.50703 
L 73.616792 99.48985 
L 74.078694 100.064614 
L 74.540596 99.685139 
L 75.002497 101.31125 
L 75.464399 97.330298 
L 76.388203 100.620999 
L 76.850104 99.721916 
L 77.312006 100.621385 
L 77.773908 99.299976 
L 78.23581 100.389937 
L 78.697712 97.929352 
L 79.159613 101.648797 
L 79.621515 97.914968 
L 80.083417 100.458901 
L 80.545319 99.076353 
L 81.00722 100.841057 
L 81.469122 100.668129 
L 81.931024 97.741435 
L 82.392926 99.757183 
L 82.854828 99.568082 
L 83.316729 101.10575 
L 83.778631 99.466713 
L 84.240533 98.645571 
L 84.702435 100.362636 
L 85.164336 101.529544 
L 85.626238 96.855426 
L 86.08814 102.388324 
L 86.550042 101.467693 
L 87.011944 98.129894 
L 87.473845 100.897557 
L 87.935747 97.20798 
L 88.397649 100.773535 
L 88.859551 101.528513 
L 89.321452 100.833004 
L 89.783354 98.480882 
L 90.245256 96.890959 
L 90.707158 100.513277 
L 91.16906 99.217135 
L 91.630961 100.477451 
L 92.092863 98.991291 
L 92.554765 101.424026 
L 93.016667 98.34975 
L 93.478568 99.656075 
L 93.94047 98.889798 
L 94.402372 97.042293 
L 94.864274 100.952386 
L 95.326176 102.706792 
L 95.788077 98.965505 
L 96.249979 99.059002 
L 96.711881 102.043553 
L 97.173783 100.665241 
L 97.635684 100.996759 
L 98.097586 98.74111 
L 98.559488 99.462307 
L 99.02139 99.288965 
L 99.483292 102.630435 
L 99.945193 98.540445 
L 100.407095 97.54098 
L 100.868997 100.98811 
L 101.330899 95.388295 
L 101.7928 101.597546 
L 102.254702 98.043315 
L 102.716604 98.460006 
L 103.178506 101.773787 
L 103.640408 95.015851 
L 104.102309 100.89539 
L 104.564211 103.164868 
L 105.026113 110.212873 
L 105.488015 98.778559 
L 105.949916 101.230535 
L 106.411818 98.409771 
L 106.87372 97.712927 
L 107.335622 99.867038 
L 107.797524 98.120644 
L 108.259425 97.529345 
L 108.721327 100.32032 
L 109.183229 99.18956 
L 109.645131 99.578533 
L 110.107032 100.722696 
L 110.568934 97.318242 
L 111.030836 99.788469 
L 111.492738 100.37667 
L 111.954639 101.94831 
L 112.416541 97.532567 
L 112.878443 101.671808 
L 113.340345 100.829875 
L 113.802247 96.93071 
L 114.264148 100.576633 
L 114.72605 101.326427 
L 115.187952 99.918259 
L 115.649854 101.45903 
L 116.111755 98.69501 
L 116.573657 102.296107 
L 117.035559 98.606966 
L 117.497461 98.763523 
L 117.959363 99.511293 
L 118.421264 99.290219 
L 118.883166 98.729618 
L 119.345068 100.134966 
L 119.80697 98.30606 
L 120.268871 100.523254 
L 120.730773 97.051094 
L 121.192675 102.26596 
L 121.654577 100.020685 
L 122.116479 99.185728 
L 122.57838 101.204261 
L 123.040282 98.174112 
L 123.502184 102.399494 
L 123.964086 98.036987 
L 124.425987 100.875386 
L 124.887889 100.496279 
L 125.349791 99.592973 
L 125.811693 99.109961 
L 126.273595 97.364573 
L 126.735496 101.235484 
L 127.197398 102.899153 
L 127.6593 97.366683 
L 128.121202 98.925526 
L 128.583103 99.497523 
L 129.045005 99.084853 
L 129.506907 98.518924 
L 129.968809 101.798139 
L 130.430711 99.092358 
L 130.892612 100.125371 
L 131.354514 101.989256 
L 131.816416 101.064547 
L 132.278318 98.119031 
L 132.740219 101.532573 
L 133.202121 96.158585 
L 133.664023 98.6022 
L 134.125925 102.168223 
L 134.587827 99.08643 
L 135.51163 100.704941 
L 135.973532 99.94842 
L 136.435434 97.925902 
L 136.897335 101.175337 
L 137.359237 101.274714 
L 137.821139 99.355042 
L 138.283041 98.405209 
L 138.744943 100.501741 
L 139.206844 100.963004 
L 139.668746 100.278803 
L 140.59255 98.267429 
L 141.516353 99.916945 
L 141.978255 99.526708 
L 142.440157 99.824312 
L 142.902059 100.810761 
L 143.36396 98.55736 
L 143.825862 100.823543 
L 144.287764 99.599658 
L 144.749666 99.050624 
L 145.673469 101.251934 
L 146.135371 98.768231 
L 146.597273 95.153495 
L 147.059175 101.168061 
L 147.521076 101.211638 
L 147.982978 99.825905 
L 148.44488 100.801541 
L 148.906782 97.815064 
L 149.368683 98.911228 
L 149.830585 101.211928 
L 150.292487 98.924778 
L 150.754389 99.236921 
L 151.21629 101.916252 
L 151.678192 97.802412 
L 152.140094 98.924469 
L 152.601996 104.684819 
L 153.063898 97.269825 
L 153.525799 100.276874 
L 153.987701 97.280798 
L 154.449603 101.197538 
L 154.911505 99.672798 
L 155.373406 99.703942 
L 155.835308 99.098872 
L 156.29721 99.875183 
L 156.759112 96.258939 
L 157.221014 100.910732 
L 157.682915 99.899712 
L 158.144817 101.321082 
L 158.606719 99.482065 
L 159.068621 99.69014 
L 159.530522 101.082912 
L 159.992424 100.933431 
L 160.454326 101.109613 
L 161.37813 96.547165 
L 161.840031 100.725312 
L 162.301933 102.017168 
L 162.763835 97.205616 
L 163.225737 99.660916 
L 163.687638 99.833344 
L 164.14954 98.650067 
L 164.611442 101.588749 
L 165.073344 96.623444 
L 165.535246 101.050159 
L 165.997147 101.753704 
L 166.459049 98.573603 
L 166.920951 97.898423 
L 167.382853 102.092571 
L 167.844754 100.316787 
L 168.306656 100.510056 
L 168.768558 99.035558 
L 169.23046 101.413075 
L 169.692362 98.043718 
L 170.154263 99.812081 
L 171.078067 99.874074 
L 171.539969 99.632957 
L 172.00187 101.758129 
L 172.463772 98.522538 
L 172.925674 100.078674 
L 173.387576 98.25672 
L 173.849478 100.584171 
L 174.311379 100.186384 
L 174.773281 97.263678 
L 175.235183 102.022602 
L 175.697085 98.707207 
L 176.158986 100.742488 
L 176.620888 99.90726 
L 177.08279 99.725055 
L 177.544692 97.403141 
L 178.006594 102.074516 
L 178.468495 99.036582 
L 178.930397 100.970582 
L 179.392299 100.538494 
L 179.854201 100.400356 
L 180.316102 99.57461 
L 180.778004 98.373281 
L 181.239906 97.736443 
L 181.701808 100.225196 
L 182.16371 100.510884 
L 182.625611 101.143506 
L 183.087513 98.284073 
L 183.549415 100.496841 
L 184.011317 101.377826 
L 184.473218 98.642269 
L 184.93512 100.319822 
L 185.397022 99.548046 
L 185.858924 99.271065 
L 186.320825 97.906977 
L 186.782727 100.408155 
L 187.244629 101.28108 
L 187.706531 99.783335 
L 188.168433 98.751256 
L 188.630334 100.666331 
L 189.092236 99.114438 
L 189.554138 98.83172 
L 190.477941 100.415727 
L 190.939843 101.639926 
L 191.401745 98.350293 
L 191.863647 97.379258 
L 192.325549 101.776397 
L 192.78745 102.049712 
L 193.249352 97.571028 
L 193.711254 99.171324 
L 194.173156 98.740852 
L 194.635057 102.245751 
L 195.096959 98.158037 
L 195.558861 100.313836 
L 196.020763 99.441496 
L 196.482665 99.484533 
L 196.944566 101.7755 
L 197.406468 98.554384 
L 197.86837 98.190579 
L 198.330272 102.369641 
L 198.792173 97.284949 
L 199.254075 100.144172 
L 200.177879 101.045025 
L 200.639781 98.340202 
L 201.101682 98.701154 
L 201.563584 100.220707 
L 202.025486 101.296899 
L 202.487388 97.916873 
L 202.949289 100.786621 
L 203.411191 98.807605 
L 203.873093 99.048903 
L 204.334995 101.403159 
L 204.796897 98.939145 
L 205.258798 99.954337 
L 205.7207 99.071787 
L 206.182602 99.33232 
L 206.644504 98.107735 
L 207.106405 100.258791 
L 207.568307 101.619194 
L 208.030209 97.858177 
L 208.492111 102.436643 
L 208.954013 97.709762 
L 209.415914 99.871777 
L 209.877816 98.817392 
L 210.339718 101.878623 
L 210.80162 97.656276 
L 211.263521 101.862955 
L 211.725423 98.407533 
L 212.187325 97.502465 
L 212.649227 102.201764 
L 213.111129 100.519542 
L 213.57303 99.953502 
L 214.034932 97.802509 
L 214.496834 99.74746 
L 214.958736 99.152496 
L 215.420637 101.343826 
L 215.882539 99.430603 
L 216.344441 99.714159 
L 216.806343 99.768699 
L 217.268245 100.295067 
L 217.730146 97.40172 
L 218.192048 103.332972 
L 218.65395 101.439867 
L 219.115852 97.87307 
L 219.577753 100.032245 
L 220.039655 100.854431 
L 220.501557 100.511235 
L 220.963459 98.364064 
L 221.425361 97.947389 
L 221.887262 99.900414 
L 222.349164 100.295327 
L 222.811066 97.24481 
L 223.272968 101.608332 
L 223.734869 99.836026 
L 224.196771 98.551029 
L 225.120575 101.674182 
L 225.582476 97.306895 
L 226.044378 103.10196 
L 226.50628 99.327072 
L 226.968182 99.468964 
L 227.430084 100.240092 
L 228.353887 100.044076 
L 228.815789 98.931259 
L 229.277691 97.01906 
L 229.739592 101.173786 
L 230.201494 98.979592 
L 230.663396 100.790205 
L 231.125298 101.15589 
L 231.5872 97.643572 
L 232.049101 101.162077 
L 232.511003 100.813283 
L 232.972905 95.309929 
L 233.434807 100.407967 
L 233.896708 100.556582 
L 234.35861 98.954235 
L 234.820512 99.408183 
L 235.282414 101.696971 
L 235.744316 96.287285 
L 236.206217 101.195209 
L 236.668119 101.084317 
L 237.130021 98.128717 
L 237.591923 100.214209 
L 238.053824 97.057413 
L 238.515726 99.948762 
L 238.977628 99.931829 
L 239.43953 102.47451 
L 239.901432 101.490142 
L 240.363333 96.510254 
L 240.825235 101.647158 
L 241.287137 99.295787 
L 241.749039 99.866247 
L 242.21094 103.109196 
L 242.672842 96.39917 
L 243.134744 101.810558 
L 243.596646 97.645188 
L 244.058548 100.606914 
L 244.520449 99.384074 
L 244.982351 99.31892 
L 245.444253 96.643444 
L 245.906155 101.521041 
L 246.368056 97.401574 
L 246.829958 99.489626 
L 247.29186 99.433845 
L 247.753762 101.987444 
L 248.215664 100.645546 
L 248.677565 97.538467 
L 249.139467 103.148617 
L 249.601369 98.739892 
L 250.063271 99.184177 
L 250.525172 101.250749 
L 250.987074 99.383044 
L 251.448976 100.464281 
L 251.910878 98.438323 
L 252.37278 101.134038 
L 252.834681 95.913431 
L 253.296583 103.688388 
L 253.758485 97.076722 
L 254.220387 101.001663 
L 254.682288 101.598846 
L 255.14419 97.768183 
L 255.606092 102.644505 
L 256.067994 97.347155 
L 256.529896 99.903137 
L 256.991797 99.267457 
L 257.453699 101.730462 
L 257.915601 97.841332 
L 258.377503 100.825182 
L 258.839404 99.40375 
L 259.301306 99.464531 
L 259.763208 99.181413 
L 260.22511 100.313965 
L 260.687011 100.252459 
L 261.148913 97.300301 
L 261.610815 101.844556 
L 262.072717 98.195269 
L 262.534619 101.047385 
L 262.99652 100.428901 
L 263.458422 98.134432 
L 263.920324 101.546041 
L 264.382226 100.320698 
L 264.844127 98.391844 
L 265.306029 100.239494 
L 265.767931 99.912789 
L 266.229833 98.324628 
L 266.691735 101.062583 
L 267.153636 97.73364 
L 267.153636 97.73364 
" clip-path="url(#p53f5eebe20)" style="fill: none; stroke: #a52a2a; stroke-linecap: square"/>
   </g>
   <g id="line2d_16">
    <path d="M 66.226364 99.887087 
L 66.688265 98.952571 
L 67.150167 102.393297 
L 67.612069 96.884531 
L 68.073971 100.526923 
L 68.535873 99.90466 
L 68.997774 100.13441 
L 69.459676 100.702164 
L 69.921578 96.642373 
L 70.38348 100.306031 
L 70.845381 100.756521 
L 71.769185 98.588084 
L 72.231087 100.096669 
L 72.692989 99.198614 
L 73.15489 99.343905 
L 73.616792 101.569379 
L 74.078694 97.812729 
L 74.540596 101.790843 
L 75.002497 99.099859 
L 75.464399 98.173475 
L 75.926301 99.582588 
L 76.388203 99.057089 
L 76.850104 101.679316 
L 77.312006 99.864569 
L 77.773908 101.645782 
L 78.23581 96.661041 
L 78.697712 99.695645 
L 79.159613 100.376012 
L 79.621515 100.114595 
L 80.083417 100.440442 
L 81.00722 98.849418 
L 81.469122 99.728758 
L 81.931024 100.918068 
L 82.392926 99.441618 
L 82.854828 99.245252 
L 83.316729 99.811194 
L 83.778631 99.12665 
L 84.240533 98.936363 
L 84.702435 100.396133 
L 85.164336 101.211435 
L 85.626238 98.787443 
L 86.08814 100.765235 
L 86.550042 98.4336 
L 87.011944 98.414038 
L 87.473845 102.910285 
L 87.935747 99.441819 
L 88.397649 100.77887 
L 88.859551 99.161943 
L 89.321452 99.87002 
L 89.783354 97.58866 
L 90.245256 99.983564 
L 90.707158 100.505951 
L 91.16906 99.670899 
L 91.630961 99.834776 
L 92.092863 100.532792 
L 92.554765 98.271281 
L 93.016667 99.735002 
L 93.478568 100.201046 
L 93.94047 97.236306 
L 94.402372 101.409168 
L 94.864274 100.58361 
L 95.326176 98.062392 
L 95.788077 99.90865 
L 96.249979 99.695003 
L 96.711881 98.903754 
L 97.173783 103.163196 
L 97.635684 99.176719 
L 98.097586 98.689397 
L 98.559488 98.002519 
L 99.02139 100.723753 
L 99.483292 101.230506 
L 99.945193 99.357389 
L 100.868997 99.919618 
L 101.330899 100.04303 
L 101.7928 98.362684 
L 102.254702 98.405649 
L 102.716604 101.180837 
L 103.178506 100.086167 
L 103.640408 98.647613 
L 104.102309 99.346346 
L 104.564211 99.167419 
L 105.026113 101.056616 
L 105.488015 100.264917 
L 105.949916 98.432799 
L 106.411818 101.030073 
L 107.335622 98.112675 
L 107.797524 101.782752 
L 108.259425 99.05116 
L 108.721327 100.191825 
L 109.645131 99.674721 
L 110.107032 99.476188 
L 110.568934 99.984207 
L 111.030836 100.185209 
L 111.954639 99.165071 
L 112.416541 100.153493 
L 112.878443 96.586022 
L 113.340345 101.876377 
L 114.264148 97.683982 
L 114.72605 101.280349 
L 115.187952 98.017735 
L 115.649854 98.980986 
L 116.111755 101.070745 
L 116.573657 100.401336 
L 117.035559 99.149671 
L 117.497461 100.442822 
L 117.959363 98.670705 
L 118.421264 100.149963 
L 118.883166 100.746079 
L 119.345068 99.59596 
L 119.80697 99.021581 
L 120.268871 98.770373 
L 120.730773 100.378531 
L 121.192675 99.712528 
L 121.654577 98.63927 
L 122.116479 100.49971 
L 122.57838 101.019497 
L 123.040282 98.543869 
L 123.502184 101.900807 
L 123.964086 98.184397 
L 124.887889 101.005496 
L 125.349791 99.36393 
L 125.811693 99.679357 
L 126.273595 98.29187 
L 126.735496 100.532475 
L 127.197398 101.776427 
L 127.6593 97.993748 
L 128.121202 99.592272 
L 128.583103 99.998533 
L 129.045005 100.568263 
L 129.506907 98.396758 
L 129.968809 100.387109 
L 130.430711 100.411429 
L 130.892612 99.373854 
L 131.354514 101.305115 
L 131.816416 98.666088 
L 132.278318 100.08307 
L 132.740219 98.563133 
L 133.202121 99.686157 
L 133.664023 98.629599 
L 134.125925 100.544717 
L 134.587827 100.553856 
L 135.049728 99.896216 
L 135.51163 98.454646 
L 135.973532 100.785827 
L 136.435434 100.872215 
L 138.283041 98.169507 
L 138.744943 101.275793 
L 139.206844 100.05392 
L 139.668746 99.546589 
L 140.130648 98.342068 
L 140.59255 99.73141 
L 141.054451 101.834858 
L 141.516353 98.841299 
L 141.978255 101.484698 
L 142.440157 98.416526 
L 142.902059 99.109951 
L 143.36396 100.725971 
L 143.825862 100.322475 
L 144.287764 98.372801 
L 144.749666 101.841393 
L 145.211567 98.620498 
L 145.673469 98.791807 
L 146.135371 99.334968 
L 146.597273 100.583825 
L 147.059175 101.124692 
L 147.982978 99.455717 
L 148.906782 99.725306 
L 149.368683 97.005644 
L 149.830585 100.686738 
L 150.292487 99.081318 
L 150.754389 100.092679 
L 151.21629 100.815324 
L 151.678192 99.780137 
L 152.140094 97.490778 
L 152.601996 102.96339 
L 153.063898 98.531924 
L 153.525799 101.074588 
L 153.987701 98.243882 
L 154.449603 100.362303 
L 154.911505 101.179873 
L 155.373406 96.579906 
L 155.835308 100.879204 
L 156.29721 99.618001 
L 156.759112 96.478125 
L 157.221014 103.412077 
L 157.682915 98.667137 
L 158.144817 100.124891 
L 158.606719 98.367863 
L 159.068621 101.454976 
L 159.530522 99.883458 
L 159.992424 99.765778 
L 160.454326 99.893208 
L 160.916228 99.439945 
L 161.37813 98.708089 
L 161.840031 99.83364 
L 162.301933 101.499329 
L 162.763835 98.870401 
L 163.225737 101.010414 
L 163.687638 97.270645 
L 164.14954 99.742918 
L 164.611442 99.803703 
L 165.073344 101.934167 
L 165.535246 97.145494 
L 165.997147 102.847673 
L 166.459049 97.55871 
L 166.920951 100.197007 
L 167.382853 99.750171 
L 167.844754 99.835094 
L 168.306656 101.584002 
L 168.768558 97.438016 
L 169.23046 99.988176 
L 169.692362 100.457535 
L 170.154263 99.335918 
L 170.616165 99.776276 
L 171.078067 99.928465 
L 171.539969 98.318646 
L 172.00187 100.836756 
L 172.463772 97.893565 
L 172.925674 103.121328 
L 173.387576 98.697933 
L 173.849478 98.885149 
L 174.311379 99.889907 
L 174.773281 100.20403 
L 175.697085 99.28722 
L 176.158986 100.190961 
L 176.620888 99.61709 
L 177.08279 100.4608 
L 177.544692 99.852653 
L 178.006594 100.364132 
L 178.468495 97.056492 
L 178.930397 100.57122 
L 179.392299 100.22255 
L 179.854201 99.458219 
L 180.316102 99.842077 
L 180.778004 99.519067 
L 181.239906 98.342347 
L 181.701808 99.874068 
L 182.16371 103.317293 
L 182.625611 98.156304 
L 183.087513 99.326872 
L 183.549415 98.015162 
L 184.011317 102.919732 
L 184.473218 98.975725 
L 184.93512 98.55407 
L 185.397022 99.618627 
L 185.858924 98.844725 
L 186.320825 102.074294 
L 186.782727 99.414114 
L 187.244629 99.705072 
L 187.706531 99.520398 
L 188.168433 101.241287 
L 188.630334 98.955079 
L 189.092236 97.379004 
L 189.554138 101.211732 
L 190.01604 98.331207 
L 190.477941 100.790685 
L 190.939843 99.999377 
L 191.401745 98.970963 
L 191.863647 98.448017 
L 192.78745 101.60871 
L 193.249352 100.532701 
L 193.711254 97.714156 
L 194.173156 99.552992 
L 194.635057 99.989948 
L 195.096959 99.790614 
L 195.558861 101.71438 
L 196.020763 98.061484 
L 196.482665 99.391972 
L 196.944566 101.828638 
L 197.86837 97.872786 
L 198.330272 100.818845 
L 198.792173 100.107924 
L 199.254075 99.004961 
L 200.177879 100.947611 
L 200.639781 99.759421 
L 201.101682 97.058026 
L 201.563584 99.103787 
L 202.025486 103.826009 
L 202.487388 98.250113 
L 202.949289 100.079568 
L 203.411191 97.906098 
L 203.873093 100.70089 
L 204.796897 98.425692 
L 205.258798 102.25403 
L 205.7207 99.238419 
L 206.182602 98.278612 
L 206.644504 100.989541 
L 207.106405 100.249655 
L 207.568307 98.069445 
L 208.492111 101.473179 
L 208.954013 96.61184 
L 209.415914 101.979783 
L 209.877816 99.125558 
L 210.339718 102.162685 
L 210.80162 97.500475 
L 211.263521 100.743089 
L 211.725423 98.506075 
L 212.187325 97.911255 
L 212.649227 103.014581 
L 213.111129 98.785786 
L 213.57303 98.023272 
L 214.034932 100.670152 
L 214.496834 100.140318 
L 214.958736 100.670647 
L 215.420637 100.939349 
L 215.882539 98.420671 
L 216.344441 99.545671 
L 216.806343 97.927427 
L 217.268245 101.428191 
L 217.730146 100.475954 
L 218.192048 99.991348 
L 218.65395 100.376087 
L 219.115852 97.618726 
L 219.577753 100.910004 
L 220.039655 99.510382 
L 220.963459 100.22406 
L 221.425361 99.128025 
L 221.887262 100.366804 
L 222.349164 98.537066 
L 222.811066 100.066996 
L 223.272968 100.567252 
L 223.734869 97.270998 
L 224.196771 101.368468 
L 224.658673 101.456623 
L 225.120575 97.95172 
L 225.582476 96.934971 
L 226.044378 102.396823 
L 226.50628 98.358323 
L 226.968182 101.546445 
L 227.430084 101.143996 
L 227.891985 97.160434 
L 228.353887 100.470894 
L 228.815789 100.380393 
L 229.739592 98.375658 
L 230.201494 101.09622 
L 230.663396 99.356384 
L 231.125298 101.526813 
L 231.5872 97.647508 
L 232.049101 100.410049 
L 232.511003 100.588332 
L 232.972905 97.80064 
L 233.434807 98.439273 
L 233.896708 100.06029 
L 234.35861 101.051641 
L 234.820512 101.480877 
L 235.282414 97.866688 
L 235.744316 99.76581 
L 236.206217 98.904672 
L 236.668119 102.882433 
L 237.130021 99.152556 
L 237.591923 98.672563 
L 238.053824 98.577159 
L 238.515726 100.205474 
L 238.977628 99.759654 
L 239.43953 102.470285 
L 239.901432 98.256 
L 240.825235 101.005616 
L 241.287137 97.291508 
L 241.749039 101.602807 
L 242.21094 98.48123 
L 242.672842 99.923952 
L 243.134744 100.649162 
L 243.596646 98.356626 
L 244.058548 99.556988 
L 244.520449 99.680075 
L 244.982351 99.986562 
L 245.444253 99.14951 
L 245.906155 100.339658 
L 246.368056 97.538557 
L 246.829958 99.90521 
L 247.29186 101.571829 
L 247.753762 99.617489 
L 248.215664 99.637523 
L 248.677565 99.525093 
L 249.139467 99.792573 
L 249.601369 99.659299 
L 250.063271 98.657764 
L 250.525172 100.530026 
L 250.987074 99.128908 
L 251.448976 101.393654 
L 252.37278 98.780184 
L 252.834681 98.765869 
L 253.296583 101.296725 
L 253.758485 99.817378 
L 254.220387 97.475252 
L 254.682288 101.583671 
L 255.14419 99.339385 
L 255.606092 100.43973 
L 256.067994 99.50943 
L 256.529896 100.983452 
L 256.991797 98.144154 
L 257.453699 101.626327 
L 257.915601 97.762114 
L 258.377503 99.500875 
L 258.839404 101.905178 
L 259.301306 98.77084 
L 259.763208 100.846236 
L 260.22511 97.019835 
L 260.687011 101.029864 
L 261.148913 98.446686 
L 261.610815 99.653964 
L 262.072717 99.943771 
L 262.534619 100.923908 
L 262.99652 99.861141 
L 263.458422 96.46555 
L 263.920324 103.823921 
L 264.382226 98.132935 
L 264.844127 101.251886 
L 265.306029 100.253978 
L 265.767931 99.929227 
L 266.229833 98.715802 
L 266.691735 99.813684 
L 267.153636 99.484115 
L 267.153636 99.484115 
" clip-path="url(#p53f5eebe20)" style="fill: none; stroke: #800080; stroke-linecap: square"/>
   </g>
   <g id="patch_3">
    <path d="M 56.18 174.04 
L 56.18 25.44 
" style="fill: none; stroke: #000000; stroke-width: 0.8; stroke-linejoin: miter; stroke-linecap: square"/>
   </g>
   <g id="patch_4">
    <path d="M 277.2 174.04 
L 277.2 25.44 
" style="fill: none; stroke: #000000; stroke-width: 0.8; stroke-linejoin: miter; stroke-linecap: square"/>
   </g>
   <g id="patch_5">
    <path d="M 56.18 174.04 
L 277.2 174.04 
" style="fill: none; stroke: #000000; stroke-width: 0.8; stroke-linejoin: miter; stroke-linecap: square"/>
   </g>
   <g id="patch_6">
    <path d="M 56.18 25.44 
L 277.2 25.44 
" style="fill: none; stroke: #000000; stroke-width: 0.8; stroke-linejoin: miter; stroke-linecap: square"/>
   </g>
   <g id="text_15">
    <!-- Trial Data -->
    <g transform="translate(138.200313 19.44)scale(0.12 -0.12)">
     <defs>
      <path id="DejaVuSans-54" d="M -19 4666 
L 3928 4666 
L 3928 4134 
L 2272 4134 
L 2272 0 
L 1638 0 
L 1638 4134 
L -19 4134 
L -19 4666 
z
" transform="scale(0.015625)"/>
      <path id="DejaVuSans-72" d="M 2631 2963 
Q 2534 3019 2420 3045 
Q 2306 3072 2169 3072 
Q 1681 3072 1420 2755 
Q 1159 2438 1159 1844 
L 1159 0 
L 581 0 
L 581 3500 
L 1159 3500 
L 1159 2956 
Q 1341 3275 1631 3429 
Q 1922 3584 2338 3584 
Q 2397 3584 2469 3576 
Q 2541 3569 2628 3553 
L 2631 2963 
z
" transform="scale(0.015625)"/>
      <path id="DejaVuSans-6c" d="M 603 4863 
L 1178 4863 
L 1178 0 
L 603 0 
L 603 4863 
z
" transform="scale(0.015625)"/>
      <path id="DejaVuSans-44" d="M 1259 4147 
L 1259 519 
L 2022 519 
Q 2988 519 3436 956 
Q 3884 1394 3884 2338 
Q 3884 3275 3436 3711 
Q 2988 4147 2022 4147 
L 1259 4147 
z
M 628 4666 
L 1925 4666 
Q 3281 4666 3915 4102 
Q 4550 3538 4550 2338 
Q 4550 1131 3912 565 
Q 3275 0 1925 0 
L 628 0 
L 628 4666 
z
" transform="scale(0.015625)"/>
     </defs>
     <use xlink:href="#DejaVuSans-54"/>
     <use xlink:href="#DejaVuSans-72" x="46.333984"/>
     <use xlink:href="#DejaVuSans-69" x="87.447266"/>
     <use xlink:href="#DejaVuSans-61" x="115.230469"/>
     <use xlink:href="#DejaVuSans-6c" x="176.509766"/>
     <use xlink:href="#DejaVuSans-20" x="204.292969"/>
     <use xlink:href="#DejaVuSans-44" x="236.080078"/>
     <use xlink:href="#DejaVuSans-61" x="313.082031"/>
     <use xlink:href="#DejaVuSans-74" x="374.361328"/>
     <use xlink:href="#DejaVuSans-61" x="413.570312"/>
    </g>
   </g>
   <g id="legend_1">
    <g id="patch_7">
     <path d="M 63.18 169.04 
L 227.158125 169.04 
Q 229.158125 169.04 229.158125 167.04 
L 229.158125 138.68375 
Q 229.158125 136.68375 227.158125 136.68375 
L 63.18 136.68375 
Q 61.18 136.68375 61.18 138.68375 
L 61.18 167.04 
Q 61.18 169.04 63.18 169.04 
z
" style="fill: #ffffff; opacity: 0.8; stroke: #cccccc; stroke-linejoin: miter"/>
    </g>
    <g id="line2d_17">
     <path d="M 65.18 144.782188 
L 75.18 144.782188 
L 85.18 144.782188 
" style="fill: none; stroke: #1f77b4; stroke-linecap: square"/>
    </g>
    <g id="text_16">
     <!-- gaze x -->
     <g transform="translate(93.18 148.282188)scale(0.1 -0.1)">
      <defs>
       <path id="DejaVuSans-67" d="M 2906 1791 
Q 2906 2416 2648 2759 
Q 2391 3103 1925 3103 
Q 1463 3103 1205 2759 
Q 947 2416 947 1791 
Q 947 1169 1205 825 
Q 1463 481 1925 481 
Q 2391 481 2648 825 
Q 2906 1169 2906 1791 
z
M 3481 434 
Q 3481 -459 3084 -895 
Q 2688 -1331 1869 -1331 
Q 1566 -1331 1297 -1286 
Q 1028 -1241 775 -1147 
L 775 -588 
Q 1028 -725 1275 -790 
Q 1522 -856 1778 -856 
Q 2344 -856 2625 -561 
Q 2906 -266 2906 331 
L 2906 616 
Q 2728 306 2450 153 
Q 2172 0 1784 0 
Q 1141 0 747 490 
Q 353 981 353 1791 
Q 353 2603 747 3093 
Q 1141 3584 1784 3584 
Q 2172 3584 2450 3431 
Q 2728 3278 2906 2969 
L 2906 3500 
L 3481 3500 
L 3481 434 
z
" transform="scale(0.015625)"/>
       <path id="DejaVuSans-78" d="M 3513 3500 
L 2247 1797 
L 3578 0 
L 2900 0 
L 1881 1375 
L 863 0 
L 184 0 
L 1544 1831 
L 300 3500 
L 978 3500 
L 1906 2253 
L 2834 3500 
L 3513 3500 
z
" transform="scale(0.015625)"/>
      </defs>
      <use xlink:href="#DejaVuSans-67"/>
      <use xlink:href="#DejaVuSans-61" x="63.476562"/>
      <use xlink:href="#DejaVuSans-7a" x="124.755859"/>
      <use xlink:href="#DejaVuSans-65" x="177.246094"/>
      <use xlink:href="#DejaVuSans-20" x="238.769531"/>
      <use xlink:href="#DejaVuSans-78" x="270.556641"/>
     </g>
    </g>
    <g id="line2d_18">
     <path d="M 65.18 159.460313 
L 75.18 159.460313 
L 85.18 159.460313 
" style="fill: none; stroke: #ff7f0e; stroke-linecap: square"/>
    </g>
    <g id="text_17">
     <!-- gaze y -->
     <g transform="translate(93.18 162.960313)scale(0.1 -0.1)">
      <defs>
       <path id="DejaVuSans-79" d="M 2059 -325 
Q 1816 -950 1584 -1140 
Q 1353 -1331 966 -1331 
L 506 -1331 
L 506 -850 
L 844 -850 
Q 1081 -850 1212 -737 
Q 1344 -625 1503 -206 
L 1606 56 
L 191 3500 
L 800 3500 
L 1894 763 
L 2988 3500 
L 3597 3500 
L 2059 -325 
z
" transform="scale(0.015625)"/>
      </defs>
      <use xlink:href="#DejaVuSans-67"/>
      <use xlink:href="#DejaVuSans-61" x="63.476562"/>
      <use xlink:href="#DejaVuSans-7a" x="124.755859"/>
      <use xlink:href="#DejaVuSans-65" x="177.246094"/>
      <use xlink:href="#DejaVuSans-20" x="238.769531"/>
      <use xlink:href="#DejaVuSans-79" x="270.556641"/>
     </g>
    </g>
    <g id="line2d_19">
     <path d="M 146.155 144.782188 
L 156.155 144.782188 
L 166.155 144.782188 
" style="fill: none; stroke: #a52a2a; stroke-linecap: square"/>
    </g>
    <g id="text_18">
     <!-- gaze x vel -->
     <g transform="translate(174.155 148.282188)scale(0.1 -0.1)">
      <defs>
       <path id="DejaVuSans-76" d="M 191 3500 
L 800 3500 
L 1894 563 
L 2988 3500 
L 3597 3500 
L 2284 0 
L 1503 0 
L 191 3500 
z
" transform="scale(0.015625)"/>
      </defs>
      <use xlink:href="#DejaVuSans-67"/>
      <use xlink:href="#DejaVuSans-61" x="63.476562"/>
      <use xlink:href="#DejaVuSans-7a" x="124.755859"/>
      <use xlink:href="#DejaVuSans-65" x="177.246094"/>
      <use xlink:href="#DejaVuSans-20" x="238.769531"/>
      <use xlink:href="#DejaVuSans-78" x="270.556641"/>
      <use xlink:href="#DejaVuSans-20" x="329.736328"/>
      <use xlink:href="#DejaVuSans-76" x="361.523438"/>
      <use xlink:href="#DejaVuSans-65" x="420.703125"/>
      <use xlink:href="#DejaVuSans-6c" x="482.226562"/>
     </g>
    </g>
    <g id="line2d_20">
     <path d="M 146.155 159.460313 
L 156.155 159.460313 
L 166.155 159.460313 
" style="fill: none; stroke: #800080; stroke-linecap: square"/>
    </g>
    <g id="text_19">
     <!-- gaze y vel -->
     <g transform="translate(174.155 162.960313)scale(0.1 -0.1)">
      <use xlink:href="#DejaVuSans-67"/>
      <use xlink:href="#DejaVuSans-61" x="63.476562"/>
      <use xlink:href="#DejaVuSans-7a" x="124.755859"/>
      <use xlink:href="#DejaVuSans-65" x="177.246094"/>
      <use xlink:href="#DejaVuSans-20" x="238.769531"/>
      <use xlink:href="#DejaVuSans-79" x="270.556641"/>
      <use xlink:href="#DejaVuSans-20" x="329.736328"/>
      <use xlink:href="#DejaVuSans-76" x="361.523438"/>
      <use xlink:href="#DejaVuSans-65" x="420.703125"/>
      <use xlink:href="#DejaVuSans-6c" x="482.226562"/>
     </g>
    </g>
   </g>
  </g>
 </g>
 <defs>
  <clipPath id="p53f5eebe20">
   <rect x="56.18" y="25.44" width="221.02" height="148.6"/>
  </clipPath>
 </defs>
</svg>
