<?xml version="1.0" encoding="utf-8" standalone="no"?>
<!DOCTYPE svg PUBLIC "-//W3C//DTD SVG 1.1//EN"
  "http://www.w3.org/Graphics/SVG/1.1/DTD/svg11.dtd">
<svg xmlns:xlink="http://www.w3.org/1999/xlink" width="288pt" height="216pt" viewBox="0 0 288 216" xmlns="http://www.w3.org/2000/svg" version="1.1">
 <metadata>
  <rdf:RDF xmlns:dc="http://purl.org/dc/elements/1.1/" xmlns:cc="http://creativecommons.org/ns#" xmlns:rdf="http://www.w3.org/1999/02/22-rdf-syntax-ns#">
   <cc:Work>
    <dc:type rdf:resource="http://purl.org/dc/dcmitype/StillImage"/>
    <dc:date>2023-04-12T13:11:12.365679</dc:date>
    <dc:format>image/svg+xml</dc:format>
    <dc:creator>
     <cc:Agent>
      <dc:title>Matplotlib v3.5.3, https://matplotlib.org/</dc:title>
     </cc:Agent>
    </dc:creator>
   </cc:Work>
  </rdf:RDF>
 </metadata>
 <defs>
  <style type="text/css">*{stroke-linejoin: round; stroke-linecap: butt}</style>
 </defs>
 <g id="figure_1">
  <g id="patch_1">
   <path d="M 0 216 
L 288 216 
L 288 0 
L 0 0 
z
" style="fill: #ffffff"/>
  </g>
  <g id="axes_1">
   <g id="patch_2">
    <path d="M 56.18 174.04 
L 277.2 174.04 
L 277.2 25.44 
L 56.18 25.44 
z
" style="fill: #ffffff"/>
   </g>
   <g id="matplotlib.axis_1">
    <g id="xtick_1">
     <g id="line2d_1">
      <defs>
       <path id="mea8f34b410" d="M 0 0 
L 0 3.5 
" style="stroke: #000000; stroke-width: 0.8"/>
      </defs>
      <g>
       <use xlink:href="#mea8f34b410" x="66.226364" y="174.04" style="stroke: #000000; stroke-width: 0.8"/>
      </g>
     </g>
     <g id="text_1">
      <!-- 0 -->
      <g transform="translate(63.045114 188.638438)scale(0.1 -0.1)">
       <defs>
        <path id="DejaVuSans-30" d="M 2034 4250 
Q 1547 4250 1301 3770 
Q 1056 3291 1056 2328 
Q 1056 1369 1301 889 
Q 1547 409 2034 409 
Q 2525 409 2770 889 
Q 3016 1369 3016 2328 
Q 3016 3291 2770 3770 
Q 2525 4250 2034 4250 
z
M 2034 4750 
Q 2819 4750 3233 4129 
Q 3647 3509 3647 2328 
Q 3647 1150 3233 529 
Q 2819 -91 2034 -91 
Q 1250 -91 836 529 
Q 422 1150 422 2328 
Q 422 3509 836 4129 
Q 1250 4750 2034 4750 
z
" transform="scale(0.015625)"/>
       </defs>
       <use xlink:href="#DejaVuSans-30"/>
      </g>
     </g>
    </g>
    <g id="xtick_2">
     <g id="line2d_2">
      <g>
       <use xlink:href="#mea8f34b410" x="112.416541" y="174.04" style="stroke: #000000; stroke-width: 0.8"/>
      </g>
     </g>
     <g id="text_2">
      <!-- 100 -->
      <g transform="translate(102.872791 188.638438)scale(0.1 -0.1)">
       <defs>
        <path id="DejaVuSans-31" d="M 794 531 
L 1825 531 
L 1825 4091 
L 703 3866 
L 703 4441 
L 1819 4666 
L 2450 4666 
L 2450 531 
L 3481 531 
L 3481 0 
L 794 0 
L 794 531 
z
" transform="scale(0.015625)"/>
       </defs>
       <use xlink:href="#DejaVuSans-31"/>
       <use xlink:href="#DejaVuSans-30" x="63.623047"/>
       <use xlink:href="#DejaVuSans-30" x="127.246094"/>
      </g>
     </g>
    </g>
    <g id="xtick_3">
     <g id="line2d_3">
      <g>
       <use xlink:href="#mea8f34b410" x="158.606719" y="174.04" style="stroke: #000000; stroke-width: 0.8"/>
      </g>
     </g>
     <g id="text_3">
      <!-- 200 -->
      <g transform="translate(149.062969 188.638438)scale(0.1 -0.1)">
       <defs>
        <path id="DejaVuSans-32" d="M 1228 531 
L 3431 531 
L 3431 0 
L 469 0 
L 469 531 
Q 828 903 1448 1529 
Q 2069 2156 2228 2338 
Q 2531 2678 2651 2914 
Q 2772 3150 2772 3378 
Q 2772 3750 2511 3984 
Q 2250 4219 1831 4219 
Q 1534 4219 1204 4116 
Q 875 4013 500 3803 
L 500 4441 
Q 881 4594 1212 4672 
Q 1544 4750 1819 4750 
Q 2544 4750 2975 4387 
Q 3406 4025 3406 3419 
Q 3406 3131 3298 2873 
Q 3191 2616 2906 2266 
Q 2828 2175 2409 1742 
Q 1991 1309 1228 531 
z
" transform="scale(0.015625)"/>
       </defs>
       <use xlink:href="#DejaVuSans-32"/>
       <use xlink:href="#DejaVuSans-30" x="63.623047"/>
       <use xlink:href="#DejaVuSans-30" x="127.246094"/>
      </g>
     </g>
    </g>
    <g id="xtick_4">
     <g id="line2d_4">
      <g>
       <use xlink:href="#mea8f34b410" x="204.796897" y="174.04" style="stroke: #000000; stroke-width: 0.8"/>
      </g>
     </g>
     <g id="text_4">
      <!-- 300 -->
      <g transform="translate(195.253147 188.638438)scale(0.1 -0.1)">
       <defs>
        <path id="DejaVuSans-33" d="M 2597 2516 
Q 3050 2419 3304 2112 
Q 3559 1806 3559 1356 
Q 3559 666 3084 287 
Q 2609 -91 1734 -91 
Q 1441 -91 1130 -33 
Q 819 25 488 141 
L 488 750 
Q 750 597 1062 519 
Q 1375 441 1716 441 
Q 2309 441 2620 675 
Q 2931 909 2931 1356 
Q 2931 1769 2642 2001 
Q 2353 2234 1838 2234 
L 1294 2234 
L 1294 2753 
L 1863 2753 
Q 2328 2753 2575 2939 
Q 2822 3125 2822 3475 
Q 2822 3834 2567 4026 
Q 2313 4219 1838 4219 
Q 1578 4219 1281 4162 
Q 984 4106 628 3988 
L 628 4550 
Q 988 4650 1302 4700 
Q 1616 4750 1894 4750 
Q 2613 4750 3031 4423 
Q 3450 4097 3450 3541 
Q 3450 3153 3228 2886 
Q 3006 2619 2597 2516 
z
" transform="scale(0.015625)"/>
       </defs>
       <use xlink:href="#DejaVuSans-33"/>
       <use xlink:href="#DejaVuSans-30" x="63.623047"/>
       <use xlink:href="#DejaVuSans-30" x="127.246094"/>
      </g>
     </g>
    </g>
    <g id="xtick_5">
     <g id="line2d_5">
      <g>
       <use xlink:href="#mea8f34b410" x="250.987074" y="174.04" style="stroke: #000000; stroke-width: 0.8"/>
      </g>
     </g>
     <g id="text_5">
      <!-- 400 -->
      <g transform="translate(241.443324 188.638438)scale(0.1 -0.1)">
       <defs>
        <path id="DejaVuSans-34" d="M 2419 4116 
L 825 1625 
L 2419 1625 
L 2419 4116 
z
M 2253 4666 
L 3047 4666 
L 3047 1625 
L 3713 1625 
L 3713 1100 
L 3047 1100 
L 3047 0 
L 2419 0 
L 2419 1100 
L 313 1100 
L 313 1709 
L 2253 4666 
z
" transform="scale(0.015625)"/>
       </defs>
       <use xlink:href="#DejaVuSans-34"/>
       <use xlink:href="#DejaVuSans-30" x="63.623047"/>
       <use xlink:href="#DejaVuSans-30" x="127.246094"/>
      </g>
     </g>
    </g>
    <g id="text_6">
     <!-- Step -->
     <g transform="translate(155.304844 202.316563)scale(0.1 -0.1)">
      <defs>
       <path id="DejaVuSans-53" d="M 3425 4513 
L 3425 3897 
Q 3066 4069 2747 4153 
Q 2428 4238 2131 4238 
Q 1616 4238 1336 4038 
Q 1056 3838 1056 3469 
Q 1056 3159 1242 3001 
Q 1428 2844 1947 2747 
L 2328 2669 
Q 3034 2534 3370 2195 
Q 3706 1856 3706 1288 
Q 3706 609 3251 259 
Q 2797 -91 1919 -91 
Q 1588 -91 1214 -16 
Q 841 59 441 206 
L 441 856 
Q 825 641 1194 531 
Q 1563 422 1919 422 
Q 2459 422 2753 634 
Q 3047 847 3047 1241 
Q 3047 1584 2836 1778 
Q 2625 1972 2144 2069 
L 1759 2144 
Q 1053 2284 737 2584 
Q 422 2884 422 3419 
Q 422 4038 858 4394 
Q 1294 4750 2059 4750 
Q 2388 4750 2728 4690 
Q 3069 4631 3425 4513 
z
" transform="scale(0.015625)"/>
       <path id="DejaVuSans-74" d="M 1172 4494 
L 1172 3500 
L 2356 3500 
L 2356 3053 
L 1172 3053 
L 1172 1153 
Q 1172 725 1289 603 
Q 1406 481 1766 481 
L 2356 481 
L 2356 0 
L 1766 0 
Q 1100 0 847 248 
Q 594 497 594 1153 
L 594 3053 
L 172 3053 
L 172 3500 
L 594 3500 
L 594 4494 
L 1172 4494 
z
" transform="scale(0.015625)"/>
       <path id="DejaVuSans-65" d="M 3597 1894 
L 3597 1613 
L 953 1613 
Q 991 1019 1311 708 
Q 1631 397 2203 397 
Q 2534 397 2845 478 
Q 3156 559 3463 722 
L 3463 178 
Q 3153 47 2828 -22 
Q 2503 -91 2169 -91 
Q 1331 -91 842 396 
Q 353 884 353 1716 
Q 353 2575 817 3079 
Q 1281 3584 2069 3584 
Q 2775 3584 3186 3129 
Q 3597 2675 3597 1894 
z
M 3022 2063 
Q 3016 2534 2758 2815 
Q 2500 3097 2075 3097 
Q 1594 3097 1305 2825 
Q 1016 2553 972 2059 
L 3022 2063 
z
" transform="scale(0.015625)"/>
       <path id="DejaVuSans-70" d="M 1159 525 
L 1159 -1331 
L 581 -1331 
L 581 3500 
L 1159 3500 
L 1159 2969 
Q 1341 3281 1617 3432 
Q 1894 3584 2278 3584 
Q 2916 3584 3314 3078 
Q 3713 2572 3713 1747 
Q 3713 922 3314 415 
Q 2916 -91 2278 -91 
Q 1894 -91 1617 61 
Q 1341 213 1159 525 
z
M 3116 1747 
Q 3116 2381 2855 2742 
Q 2594 3103 2138 3103 
Q 1681 3103 1420 2742 
Q 1159 2381 1159 1747 
Q 1159 1113 1420 752 
Q 1681 391 2138 391 
Q 2594 391 2855 752 
Q 3116 1113 3116 1747 
z
" transform="scale(0.015625)"/>
      </defs>
      <use xlink:href="#DejaVuSans-53"/>
      <use xlink:href="#DejaVuSans-74" x="63.476562"/>
      <use xlink:href="#DejaVuSans-65" x="102.685547"/>
      <use xlink:href="#DejaVuSans-70" x="164.208984"/>
     </g>
    </g>
   </g>
   <g id="matplotlib.axis_2">
    <g id="ytick_1">
     <g id="line2d_6">
      <defs>
       <path id="mcc711d2204" d="M 0 0 
L -3.5 0 
" style="stroke: #000000; stroke-width: 0.8"/>
      </defs>
      <g>
       <use xlink:href="#mcc711d2204" x="56.18" y="174.04" style="stroke: #000000; stroke-width: 0.8"/>
      </g>
     </g>
     <g id="text_7">
      <!-- −0.3 -->
      <g transform="translate(24.897188 177.839219)scale(0.1 -0.1)">
       <defs>
        <path id="DejaVuSans-2212" d="M 678 2272 
L 4684 2272 
L 4684 1741 
L 678 1741 
L 678 2272 
z
" transform="scale(0.015625)"/>
        <path id="DejaVuSans-2e" d="M 684 794 
L 1344 794 
L 1344 0 
L 684 0 
L 684 794 
z
" transform="scale(0.015625)"/>
       </defs>
       <use xlink:href="#DejaVuSans-2212"/>
       <use xlink:href="#DejaVuSans-30" x="83.789062"/>
       <use xlink:href="#DejaVuSans-2e" x="147.412109"/>
       <use xlink:href="#DejaVuSans-33" x="179.199219"/>
      </g>
     </g>
    </g>
    <g id="ytick_2">
     <g id="line2d_7">
      <g>
       <use xlink:href="#mcc711d2204" x="56.18" y="149.273333" style="stroke: #000000; stroke-width: 0.8"/>
      </g>
     </g>
     <g id="text_8">
      <!-- −0.2 -->
      <g transform="translate(24.897188 153.072552)scale(0.1 -0.1)">
       <use xlink:href="#DejaVuSans-2212"/>
       <use xlink:href="#DejaVuSans-30" x="83.789062"/>
       <use xlink:href="#DejaVuSans-2e" x="147.412109"/>
       <use xlink:href="#DejaVuSans-32" x="179.199219"/>
      </g>
     </g>
    </g>
    <g id="ytick_3">
     <g id="line2d_8">
      <g>
       <use xlink:href="#mcc711d2204" x="56.18" y="124.506667" style="stroke: #000000; stroke-width: 0.8"/>
      </g>
     </g>
     <g id="text_9">
      <!-- −0.1 -->
      <g transform="translate(24.897188 128.305885)scale(0.1 -0.1)">
       <use xlink:href="#DejaVuSans-2212"/>
       <use xlink:href="#DejaVuSans-30" x="83.789062"/>
       <use xlink:href="#DejaVuSans-2e" x="147.412109"/>
       <use xlink:href="#DejaVuSans-31" x="179.199219"/>
      </g>
     </g>
    </g>
    <g id="ytick_4">
     <g id="line2d_9">
      <g>
       <use xlink:href="#mcc711d2204" x="56.18" y="99.74" style="stroke: #000000; stroke-width: 0.8"/>
      </g>
     </g>
     <g id="text_10">
      <!-- 0.0 -->
      <g transform="translate(33.276875 103.539219)scale(0.1 -0.1)">
       <use xlink:href="#DejaVuSans-30"/>
       <use xlink:href="#DejaVuSans-2e" x="63.623047"/>
       <use xlink:href="#DejaVuSans-30" x="95.410156"/>
      </g>
     </g>
    </g>
    <g id="ytick_5">
     <g id="line2d_10">
      <g>
       <use xlink:href="#mcc711d2204" x="56.18" y="74.973333" style="stroke: #000000; stroke-width: 0.8"/>
      </g>
     </g>
     <g id="text_11">
      <!-- 0.1 -->
      <g transform="translate(33.276875 78.772552)scale(0.1 -0.1)">
       <use xlink:href="#DejaVuSans-30"/>
       <use xlink:href="#DejaVuSans-2e" x="63.623047"/>
       <use xlink:href="#DejaVuSans-31" x="95.410156"/>
      </g>
     </g>
    </g>
    <g id="ytick_6">
     <g id="line2d_11">
      <g>
       <use xlink:href="#mcc711d2204" x="56.18" y="50.206667" style="stroke: #000000; stroke-width: 0.8"/>
      </g>
     </g>
     <g id="text_12">
      <!-- 0.2 -->
      <g transform="translate(33.276875 54.005885)scale(0.1 -0.1)">
       <use xlink:href="#DejaVuSans-30"/>
       <use xlink:href="#DejaVuSans-2e" x="63.623047"/>
       <use xlink:href="#DejaVuSans-32" x="95.410156"/>
      </g>
     </g>
    </g>
    <g id="ytick_7">
     <g id="line2d_12">
      <g>
       <use xlink:href="#mcc711d2204" x="56.18" y="25.44" style="stroke: #000000; stroke-width: 0.8"/>
      </g>
     </g>
     <g id="text_13">
      <!-- 0.3 -->
      <g transform="translate(33.276875 29.239219)scale(0.1 -0.1)">
       <use xlink:href="#DejaVuSans-30"/>
       <use xlink:href="#DejaVuSans-2e" x="63.623047"/>
       <use xlink:href="#DejaVuSans-33" x="95.410156"/>
      </g>
     </g>
    </g>
    <g id="text_14">
     <!-- Gaze Position (a.u.) -->
     <g transform="translate(18.8175 148.33375)rotate(-90)scale(0.1 -0.1)">
      <defs>
       <path id="DejaVuSans-47" d="M 3809 666 
L 3809 1919 
L 2778 1919 
L 2778 2438 
L 4434 2438 
L 4434 434 
Q 4069 175 3628 42 
Q 3188 -91 2688 -91 
Q 1594 -91 976 548 
Q 359 1188 359 2328 
Q 359 3472 976 4111 
Q 1594 4750 2688 4750 
Q 3144 4750 3555 4637 
Q 3966 4525 4313 4306 
L 4313 3634 
Q 3963 3931 3569 4081 
Q 3175 4231 2741 4231 
Q 1884 4231 1454 3753 
Q 1025 3275 1025 2328 
Q 1025 1384 1454 906 
Q 1884 428 2741 428 
Q 3075 428 3337 486 
Q 3600 544 3809 666 
z
" transform="scale(0.015625)"/>
       <path id="DejaVuSans-61" d="M 2194 1759 
Q 1497 1759 1228 1600 
Q 959 1441 959 1056 
Q 959 750 1161 570 
Q 1363 391 1709 391 
Q 2188 391 2477 730 
Q 2766 1069 2766 1631 
L 2766 1759 
L 2194 1759 
z
M 3341 1997 
L 3341 0 
L 2766 0 
L 2766 531 
Q 2569 213 2275 61 
Q 1981 -91 1556 -91 
Q 1019 -91 701 211 
Q 384 513 384 1019 
Q 384 1609 779 1909 
Q 1175 2209 1959 2209 
L 2766 2209 
L 2766 2266 
Q 2766 2663 2505 2880 
Q 2244 3097 1772 3097 
Q 1472 3097 1187 3025 
Q 903 2953 641 2809 
L 641 3341 
Q 956 3463 1253 3523 
Q 1550 3584 1831 3584 
Q 2591 3584 2966 3190 
Q 3341 2797 3341 1997 
z
" transform="scale(0.015625)"/>
       <path id="DejaVuSans-7a" d="M 353 3500 
L 3084 3500 
L 3084 2975 
L 922 459 
L 3084 459 
L 3084 0 
L 275 0 
L 275 525 
L 2438 3041 
L 353 3041 
L 353 3500 
z
" transform="scale(0.015625)"/>
       <path id="DejaVuSans-20" transform="scale(0.015625)"/>
       <path id="DejaVuSans-50" d="M 1259 4147 
L 1259 2394 
L 2053 2394 
Q 2494 2394 2734 2622 
Q 2975 2850 2975 3272 
Q 2975 3691 2734 3919 
Q 2494 4147 2053 4147 
L 1259 4147 
z
M 628 4666 
L 2053 4666 
Q 2838 4666 3239 4311 
Q 3641 3956 3641 3272 
Q 3641 2581 3239 2228 
Q 2838 1875 2053 1875 
L 1259 1875 
L 1259 0 
L 628 0 
L 628 4666 
z
" transform="scale(0.015625)"/>
       <path id="DejaVuSans-6f" d="M 1959 3097 
Q 1497 3097 1228 2736 
Q 959 2375 959 1747 
Q 959 1119 1226 758 
Q 1494 397 1959 397 
Q 2419 397 2687 759 
Q 2956 1122 2956 1747 
Q 2956 2369 2687 2733 
Q 2419 3097 1959 3097 
z
M 1959 3584 
Q 2709 3584 3137 3096 
Q 3566 2609 3566 1747 
Q 3566 888 3137 398 
Q 2709 -91 1959 -91 
Q 1206 -91 779 398 
Q 353 888 353 1747 
Q 353 2609 779 3096 
Q 1206 3584 1959 3584 
z
" transform="scale(0.015625)"/>
       <path id="DejaVuSans-73" d="M 2834 3397 
L 2834 2853 
Q 2591 2978 2328 3040 
Q 2066 3103 1784 3103 
Q 1356 3103 1142 2972 
Q 928 2841 928 2578 
Q 928 2378 1081 2264 
Q 1234 2150 1697 2047 
L 1894 2003 
Q 2506 1872 2764 1633 
Q 3022 1394 3022 966 
Q 3022 478 2636 193 
Q 2250 -91 1575 -91 
Q 1294 -91 989 -36 
Q 684 19 347 128 
L 347 722 
Q 666 556 975 473 
Q 1284 391 1588 391 
Q 1994 391 2212 530 
Q 2431 669 2431 922 
Q 2431 1156 2273 1281 
Q 2116 1406 1581 1522 
L 1381 1569 
Q 847 1681 609 1914 
Q 372 2147 372 2553 
Q 372 3047 722 3315 
Q 1072 3584 1716 3584 
Q 2034 3584 2315 3537 
Q 2597 3491 2834 3397 
z
" transform="scale(0.015625)"/>
       <path id="DejaVuSans-69" d="M 603 3500 
L 1178 3500 
L 1178 0 
L 603 0 
L 603 3500 
z
M 603 4863 
L 1178 4863 
L 1178 4134 
L 603 4134 
L 603 4863 
z
" transform="scale(0.015625)"/>
       <path id="DejaVuSans-6e" d="M 3513 2113 
L 3513 0 
L 2938 0 
L 2938 2094 
Q 2938 2591 2744 2837 
Q 2550 3084 2163 3084 
Q 1697 3084 1428 2787 
Q 1159 2491 1159 1978 
L 1159 0 
L 581 0 
L 581 3500 
L 1159 3500 
L 1159 2956 
Q 1366 3272 1645 3428 
Q 1925 3584 2291 3584 
Q 2894 3584 3203 3211 
Q 3513 2838 3513 2113 
z
" transform="scale(0.015625)"/>
       <path id="DejaVuSans-28" d="M 1984 4856 
Q 1566 4138 1362 3434 
Q 1159 2731 1159 2009 
Q 1159 1288 1364 580 
Q 1569 -128 1984 -844 
L 1484 -844 
Q 1016 -109 783 600 
Q 550 1309 550 2009 
Q 550 2706 781 3412 
Q 1013 4119 1484 4856 
L 1984 4856 
z
" transform="scale(0.015625)"/>
       <path id="DejaVuSans-75" d="M 544 1381 
L 544 3500 
L 1119 3500 
L 1119 1403 
Q 1119 906 1312 657 
Q 1506 409 1894 409 
Q 2359 409 2629 706 
Q 2900 1003 2900 1516 
L 2900 3500 
L 3475 3500 
L 3475 0 
L 2900 0 
L 2900 538 
Q 2691 219 2414 64 
Q 2138 -91 1772 -91 
Q 1169 -91 856 284 
Q 544 659 544 1381 
z
M 1991 3584 
L 1991 3584 
z
" transform="scale(0.015625)"/>
       <path id="DejaVuSans-29" d="M 513 4856 
L 1013 4856 
Q 1481 4119 1714 3412 
Q 1947 2706 1947 2009 
Q 1947 1309 1714 600 
Q 1481 -109 1013 -844 
L 513 -844 
Q 928 -128 1133 580 
Q 1338 1288 1338 2009 
Q 1338 2731 1133 3434 
Q 928 4138 513 4856 
z
" transform="scale(0.015625)"/>
      </defs>
      <use xlink:href="#DejaVuSans-47"/>
      <use xlink:href="#DejaVuSans-61" x="77.490234"/>
      <use xlink:href="#DejaVuSans-7a" x="138.769531"/>
      <use xlink:href="#DejaVuSans-65" x="191.259766"/>
      <use xlink:href="#DejaVuSans-20" x="252.783203"/>
      <use xlink:href="#DejaVuSans-50" x="284.570312"/>
      <use xlink:href="#DejaVuSans-6f" x="341.248047"/>
      <use xlink:href="#DejaVuSans-73" x="402.429688"/>
      <use xlink:href="#DejaVuSans-69" x="454.529297"/>
      <use xlink:href="#DejaVuSans-74" x="482.3125"/>
      <use xlink:href="#DejaVuSans-69" x="521.521484"/>
      <use xlink:href="#DejaVuSans-6f" x="549.304688"/>
      <use xlink:href="#DejaVuSans-6e" x="610.486328"/>
      <use xlink:href="#DejaVuSans-20" x="673.865234"/>
      <use xlink:href="#DejaVuSans-28" x="705.652344"/>
      <use xlink:href="#DejaVuSans-61" x="744.666016"/>
      <use xlink:href="#DejaVuSans-2e" x="805.945312"/>
      <use xlink:href="#DejaVuSans-75" x="837.732422"/>
      <use xlink:href="#DejaVuSans-2e" x="901.111328"/>
      <use xlink:href="#DejaVuSans-29" x="932.898438"/>
     </g>
    </g>
   </g>
   <g id="line2d_13">
    <path d="M 66.226364 52.287629 
L 66.688265 47.529267 
L 67.150167 60.674906 
L 67.612069 55.142775 
L 68.073971 53.715189 
L 68.997774 61.507731 
L 69.459676 67.099793 
L 69.921578 55.44019 
L 70.38348 63.29239 
L 70.845381 65.017597 
L 71.307283 65.49352 
L 71.769185 71.859303 
L 72.231087 70.074452 
L 72.692989 72.335271 
L 73.15489 68.765587 
L 73.616792 67.57573 
L 74.078694 68.051671 
L 74.540596 67.099793 
L 75.002497 72.335271 
L 75.464399 63.827796 
L 75.926301 60.258493 
L 76.388203 62.162101 
L 76.850104 60.377468 
L 77.312006 62.102614 
L 77.773908 58.94979 
L 78.23581 59.068765 
L 78.697712 50.027373 
L 79.159613 54.012601 
L 79.621515 46.875011 
L 80.083417 48.183526 
L 80.545319 44.733856 
L 81.00722 46.696582 
L 81.469122 49.194662 
L 81.931024 42.116955 
L 82.392926 41.22485 
L 82.854828 39.738027 
L 83.316729 43.187494 
L 83.778631 41.879061 
L 84.240533 37.180747 
L 84.702435 38.905416 
L 85.164336 44.317525 
L 85.626238 33.017899 
L 86.08814 41.403271 
L 86.550042 47.231877 
L 87.011944 41.641166 
L 87.473845 46.161287 
L 87.935747 39.7975 
L 88.397649 45.328617 
L 89.321452 58.235963 
L 89.783354 56.153996 
L 90.245256 49.313619 
L 90.707158 54.072084 
L 91.16906 54.072084 
L 91.630961 57.700593 
L 92.092863 55.91606 
L 92.554765 61.924147 
L 93.016667 58.414418 
L 93.478568 58.414418 
L 93.94047 55.856577 
L 94.402372 47.41031 
L 94.864274 51.573856 
L 95.326176 59.485167 
L 96.249979 51.752297 
L 96.711881 57.105744 
L 97.173783 58.295446 
L 97.635684 61.805172 
L 98.097586 57.462654 
L 98.559488 55.559158 
L 99.02139 53.060885 
L 99.483292 61.507731 
L 99.945193 58.235963 
L 100.407095 50.38425 
L 100.868997 55.737609 
L 101.330899 40.630118 
L 101.7928 49.194662 
L 102.254702 47.76718 
L 102.716604 46.934491 
L 103.178506 57.879049 
L 103.640408 49.016226 
L 104.102309 59.306708 
L 104.564211 75.488627 
L 105.026113 112.9227 
L 105.488015 115.06579 
L 105.949916 125.365481 
L 106.411818 126.913549 
L 106.87372 123.936528 
L 107.335622 128.938001 
L 107.797524 128.104395 
L 108.259425 122.626679 
L 108.721327 127.032633 
L 109.183229 127.330344 
L 109.645131 127.925767 
L 110.107032 131.438881 
L 110.568934 124.115145 
L 111.030836 123.698371 
L 111.492738 124.531921 
L 111.954639 129.712073 
L 112.416541 119.173569 
L 112.878443 123.102985 
L 113.340345 125.544102 
L 113.802247 115.244384 
L 114.264148 116.018295 
L 114.72605 120.840566 
L 115.187952 120.126133 
L 115.649854 124.353302 
L 116.111755 119.590314 
L 116.573657 127.032633 
L 117.497461 120.304741 
L 117.959363 120.364277 
L 118.421264 120.007062 
L 118.883166 117.149414 
L 119.345068 119.649849 
L 119.80697 116.732684 
L 120.268871 121.257322 
L 120.730773 114.530012 
L 121.192675 123.341138 
L 121.654577 125.544102 
L 122.116479 124.77008 
L 122.57838 129.831162 
L 123.040282 123.996067 
L 123.502184 132.153439 
L 123.964086 126.97309 
L 124.425987 131.200698 
L 124.887889 132.927548 
L 125.349791 131.736613 
L 125.811693 128.283024 
L 126.273595 120.066598 
L 126.735496 124.829619 
L 127.197398 132.987095 
L 127.6593 124.47238 
L 128.121202 119.76892 
L 128.583103 117.566148 
L 129.045005 114.113297 
L 129.506907 107.743842 
L 129.968809 112.446467 
L 130.430711 109.053401 
L 130.892612 109.172454 
L 131.354514 114.530012 
L 131.816416 117.149414 
L 132.278318 109.351032 
L 132.740219 113.458466 
L 133.202121 101.494011 
L 133.664023 95.780364 
L 134.125925 101.970169 
L 134.587827 98.994234 
L 135.049728 98.577613 
L 135.51163 100.660742 
L 135.973532 100.601223 
L 136.435434 92.804686 
L 137.359237 101.136895 
L 137.821139 99.589411 
L 138.283041 95.780364 
L 139.668746 105.958119 
L 140.130648 104.529574 
L 140.59255 101.315452 
L 141.054451 100.720261 
L 141.516353 102.922495 
L 141.978255 103.874833 
L 142.440157 105.779549 
L 142.902059 111.732124 
L 143.36396 109.827244 
L 143.825862 114.649073 
L 144.287764 115.542041 
L 144.749666 114.768134 
L 145.211567 117.566148 
L 145.673469 124.47238 
L 146.135371 122.150378 
L 146.597273 108.696247 
L 147.059175 114.41095 
L 147.521076 118.51869 
L 147.982978 118.161484 
L 148.44488 121.495468 
L 148.906782 114.530012 
L 149.368683 110.601095 
L 149.830585 114.827666 
L 150.754389 106.553355 
L 151.21629 111.017787 
L 151.678192 103.101057 
L 152.140094 97.744378 
L 152.601996 110.541567 
L 153.063898 101.196414 
L 153.525799 101.553531 
L 153.987701 92.566637 
L 154.449603 95.542305 
L 154.911505 94.113969 
L 155.373406 93.102248 
L 155.835308 90.543252 
L 156.29721 90.721784 
L 156.759112 80.189155 
L 157.221014 83.878381 
L 157.682915 84.94948 
L 158.144817 90.364722 
L 158.606719 90.483742 
L 159.068621 91.376404 
L 159.992424 101.67257 
L 160.454326 108.696247 
L 160.916228 107.981942 
L 161.37813 100.125074 
L 161.840031 105.839073 
L 162.301933 114.470481 
L 162.763835 106.136689 
L 163.225737 107.684317 
L 163.687638 109.70819 
L 164.14954 107.029547 
L 164.611442 114.172827 
L 165.073344 106.31526 
L 165.997147 120.185669 
L 166.459049 117.744749 
L 166.920951 111.255899 
L 167.382853 118.994964 
L 167.844754 121.197785 
L 168.306656 124.531921 
L 168.768558 122.448067 
L 169.23046 127.270801 
L 169.692362 120.066598 
L 170.154263 119.649849 
L 171.078067 118.578223 
L 171.539969 117.089882 
L 172.00187 121.852692 
L 172.463772 115.601573 
L 172.925674 115.184853 
L 173.387576 109.291505 
L 173.849478 111.255899 
L 174.311379 111.255899 
L 174.773281 100.125074 
L 175.235183 105.898596 
L 175.697085 101.910649 
L 176.158986 105.243843 
L 176.620888 105.303365 
L 177.08279 105.065275 
L 177.544692 95.780364 
L 178.006594 103.101057 
L 178.468495 101.553531 
L 178.930397 107.267645 
L 179.854201 113.815646 
L 180.316102 114.470481 
L 180.778004 111.791652 
L 181.239906 107.267645 
L 182.16371 114.530012 
L 182.625611 120.185669 
L 183.087513 115.720636 
L 183.549415 119.233105 
L 184.011317 125.246401 
L 184.473218 121.793154 
L 184.93512 124.293763 
L 185.397022 124.293763 
L 185.858924 122.805294 
L 186.320825 117.506614 
L 186.782727 119.53078 
L 187.244629 125.544102 
L 187.706531 125.365481 
L 188.168433 120.959639 
L 188.630334 123.162524 
L 189.092236 120.602421 
L 189.554138 116.196893 
L 190.01604 114.946728 
L 190.477941 116.077829 
L 190.939843 122.745755 
L 191.401745 117.625682 
L 191.863647 109.589138 
L 192.78745 122.805294 
L 193.249352 115.422978 
L 194.173156 108.577195 
L 194.635057 115.422978 
L 195.096959 108.51767 
L 195.558861 109.767717 
L 196.482665 107.267645 
L 196.944566 113.279877 
L 197.406468 109.767717 
L 197.86837 103.75579 
L 198.330272 111.970237 
L 198.792173 105.065275 
L 199.254075 107.267645 
L 199.715977 110.720149 
L 200.177879 116.732684 
L 200.639781 113.398936 
L 201.101682 111.196371 
L 201.563584 114.053767 
L 202.025486 119.649849 
L 202.487388 115.06579 
L 202.949289 120.066598 
L 203.411191 117.982883 
L 203.873093 116.494555 
L 204.334995 123.579293 
L 204.796897 121.435932 
L 205.258798 122.150378 
L 205.7207 119.352174 
L 206.182602 117.804282 
L 206.644504 112.386938 
L 207.106405 113.756116 
L 207.568307 118.51869 
L 208.030209 111.85118 
L 208.492111 121.495468 
L 208.954013 114.172827 
L 209.415914 113.279877 
L 209.877816 108.279568 
L 210.339718 113.398936 
L 210.80162 105.898596 
L 211.263521 113.220347 
L 211.725423 108.160518 
L 212.187325 98.280028 
L 212.649227 104.886707 
L 213.111129 106.612879 
L 213.57303 107.029547 
L 214.034932 100.958337 
L 214.496834 100.898818 
L 214.958736 98.63713 
L 215.420637 103.696269 
L 215.882539 103.160578 
L 216.344441 103.577226 
L 216.806343 104.291485 
L 217.268245 106.672403 
L 217.730146 98.101478 
L 218.192048 109.70819 
L 218.65395 115.661105 
L 219.115852 109.053401 
L 219.577753 110.779677 
L 220.501557 118.816362 
L 220.963459 115.422978 
L 221.425361 110.720149 
L 221.887262 111.970237 
L 222.349164 114.172827 
L 222.811066 107.148596 
L 223.272968 115.006259 
L 223.734869 115.601573 
L 224.196771 111.077315 
L 224.658673 112.148823 
L 225.120575 118.042417 
L 225.582476 108.339094 
L 226.044378 118.399621 
L 226.968182 115.899232 
L 227.430084 117.268482 
L 228.353887 119.352174 
L 228.815789 116.792218 
L 229.277691 108.51767 
L 229.739592 114.172827 
L 230.201494 111.85118 
L 230.663396 115.006259 
L 231.125298 120.721493 
L 231.5872 114.530012 
L 232.511003 123.400677 
L 232.972905 110.303458 
L 233.434807 112.505995 
L 233.896708 115.958764 
L 234.35861 113.756116 
L 234.820512 112.86317 
L 235.282414 120.721493 
L 235.744316 110.303458 
L 236.206217 115.958764 
L 236.668119 119.709385 
L 237.130021 114.470481 
L 237.591923 115.8397 
L 238.053824 107.148596 
L 238.977628 106.970023 
L 239.43953 114.291888 
L 239.901432 118.637757 
L 240.363333 104.827185 
L 240.825235 109.70819 
L 241.287137 107.624792 
L 241.749039 107.505743 
L 242.21094 117.149414 
L 242.672842 106.850975 
L 243.134744 115.06579 
L 243.596646 108.93435 
L 244.058548 111.910709 
L 244.520449 111.077315 
L 244.982351 110.601095 
L 245.444253 102.267769 
L 245.906155 110.48204 
L 246.368056 104.648618 
L 246.829958 105.124797 
L 247.29186 105.124797 
L 247.753762 113.041758 
L 248.215664 117.744749 
L 248.677565 112.089294 
L 249.139467 123.102985 
L 249.601369 119.709385 
L 250.063271 118.459154 
L 250.525172 123.222061 
L 250.987074 121.852692 
L 251.448976 123.936528 
L 251.910878 119.828456 
L 252.37278 125.12732 
L 252.834681 113.339406 
L 253.296583 124.88916 
L 253.758485 113.994237 
L 254.220387 117.625682 
L 254.682288 123.162524 
L 255.14419 115.363448 
L 255.606092 124.293763 
L 256.067994 117.447081 
L 256.529896 118.51869 
L 256.991797 117.566148 
L 257.453699 123.996067 
L 257.915601 116.792218 
L 258.377503 120.304741 
L 258.839404 119.352174 
L 259.301306 118.042417 
L 259.763208 115.8397 
L 260.687011 117.447081 
L 261.148913 108.458144 
L 261.610815 114.827666 
L 262.072717 107.803367 
L 262.534619 109.053401 
L 262.99652 108.93435 
L 263.458422 101.136895 
L 263.920324 103.577226 
L 264.382226 103.041536 
L 264.844127 96.375514 
L 265.306029 95.601819 
L 265.767931 94.47105 
L 266.229833 88.936487 
L 266.691735 92.209565 
L 267.153636 84.116401 
L 267.153636 84.116401 
" clip-path="url(#pda7373165e)" style="fill: none; stroke: #1f77b4; stroke-linecap: square"/>
   </g>
   <g id="line2d_14">
    <path d="M 66.226364 101.205746 
L 66.688265 97.923421 
L 67.150167 105.720694 
L 67.612069 96.966279 
L 68.073971 99.906364 
L 68.535873 100.179904 
L 68.997774 101.137353 
L 69.459676 104.762808 
L 69.921578 95.257322 
L 70.38348 96.761188 
L 70.845381 100.658617 
L 71.307283 100.658617 
L 71.769185 97.103007 
L 72.231087 98.470401 
L 72.692989 96.829551 
L 73.15489 95.667445 
L 73.616792 103.052525 
L 74.078694 97.376471 
L 74.540596 103.668193 
L 75.002497 101.274139 
L 75.464399 96.761188 
L 75.926301 96.487741 
L 76.388203 93.958709 
L 76.850104 99.974748 
L 77.312006 100.658617 
L 77.773908 106.541813 
L 78.23581 97.444838 
L 78.697712 97.376471 
L 79.159613 99.359306 
L 79.621515 100.52184 
L 80.083417 103.32615 
L 80.545319 103.052525 
L 81.00722 100.316677 
L 81.469122 100.179904 
L 81.931024 103.599784 
L 82.392926 102.573697 
L 82.854828 100.453451 
L 83.316729 100.52184 
L 83.778631 98.538775 
L 84.240533 95.18897 
L 84.702435 97.034643 
L 85.164336 101.342532 
L 85.626238 97.444838 
L 86.08814 100.453451 
L 86.550042 96.487741 
L 87.011944 91.157009 
L 87.473845 100.658617 
L 87.935747 99.769597 
L 88.397649 103.941836 
L 88.859551 102.231692 
L 89.321452 102.778906 
L 89.783354 96.35102 
L 90.245256 97.103007 
L 90.707158 100.179904 
L 91.16906 99.974748 
L 91.630961 100.24829 
L 92.092863 103.394558 
L 92.554765 98.949032 
L 93.016667 98.880655 
L 93.478568 100.658617 
L 93.94047 93.070281 
L 94.402372 97.991792 
L 94.864274 101.274139 
L 95.326176 96.145943 
L 95.788077 96.556102 
L 96.249979 96.282661 
L 96.711881 93.685338 
L 97.173783 103.873424 
L 97.635684 101.547716 
L 98.097586 98.333653 
L 98.559488 93.070281 
L 99.483292 101.410926 
L 99.945193 100.24829 
L 100.407095 99.906364 
L 100.868997 100.453451 
L 101.330899 101.684508 
L 102.254702 93.616996 
L 102.716604 99.427687 
L 103.178506 100.52184 
L 103.640408 97.308105 
L 104.564211 94.163742 
L 105.026113 98.196907 
L 105.488015 100.385064 
L 105.949916 96.556102 
L 106.411818 100.52184 
L 106.87372 99.769597 
L 107.335622 94.983915 
L 107.797524 101.205746 
L 108.259425 98.538775 
L 108.721327 99.974748 
L 109.183229 100.52184 
L 109.645131 100.316677 
L 110.107032 99.564449 
L 110.568934 100.316677 
L 111.030836 102.094893 
L 111.492738 102.026494 
L 111.954639 100.24829 
L 112.416541 101.821301 
L 112.878443 92.250263 
L 113.340345 100.658617 
L 113.802247 100.590228 
L 114.264148 94.232087 
L 114.72605 100.179904 
L 115.187952 94.778866 
L 115.649854 92.250263 
L 116.111755 97.308105 
L 116.573657 99.01741 
L 117.035559 96.966279 
L 117.497461 99.496068 
L 117.959363 96.009227 
L 118.421264 96.966279 
L 118.883166 100.727006 
L 119.345068 100.043133 
L 119.80697 97.649942 
L 120.268871 93.548655 
L 120.730773 95.257322 
L 121.192675 94.983915 
L 121.654577 90.405467 
L 122.116479 92.523595 
L 122.57838 96.214302 
L 123.040282 91.29366 
L 123.502184 97.649942 
L 123.964086 92.86527 
L 124.425987 91.840279 
L 124.887889 95.530735 
L 125.349791 94.300433 
L 125.811693 93.958709 
L 126.273595 89.517352 
L 126.735496 92.591929 
L 127.197398 98.60715 
L 127.6593 93.275296 
L 128.121202 92.591929 
L 128.583103 93.275296 
L 129.045005 95.667445 
L 129.506907 90.20051 
L 130.430711 93.958709 
L 130.892612 92.386928 
L 131.354514 96.966279 
L 131.816416 93.616996 
L 132.278318 94.847215 
L 132.740219 91.157009 
L 133.202121 90.815392 
L 133.664023 86.170547 
L 134.587827 90.542106 
L 135.049728 90.883715 
L 135.51163 86.716888 
L 135.973532 89.517352 
L 136.435434 93.685338 
L 136.897335 94.642168 
L 137.359237 93.343635 
L 138.283041 83.57583 
L 138.744943 89.312414 
L 139.206844 89.858925 
L 139.668746 88.902549 
L 140.130648 82.961388 
L 140.59255 82.62005 
L 141.054451 88.629316 
L 141.516353 84.804823 
L 141.978255 89.858925 
L 142.440157 85.76081 
L 142.902059 83.166199 
L 143.36396 86.102256 
L 143.825862 87.877962 
L 144.287764 82.483517 
L 144.749666 88.902549 
L 145.673469 82.07393 
L 146.135371 81.050036 
L 146.597273 83.78065 
L 147.059175 89.517352 
L 147.521076 91.635293 
L 147.982978 90.952037 
L 148.44488 90.610427 
L 148.906782 90.678749 
L 149.368683 82.551783 
L 149.830585 86.375422 
L 150.292487 84.395142 
L 150.754389 85.76081 
L 151.21629 88.902549 
L 151.678192 88.902549 
L 152.140094 79.753251 
L 152.601996 89.244102 
L 153.063898 85.419376 
L 153.525799 90.542106 
L 153.987701 85.829098 
L 154.449603 87.468155 
L 154.911505 93.001943 
L 155.373406 83.302741 
L 155.835308 86.512007 
L 156.29721 85.829098 
L 156.759112 75.863898 
L 157.221014 86.716888 
L 157.682915 82.278721 
L 158.144817 83.302741 
L 158.606719 79.0708 
L 159.068621 85.829098 
L 159.530522 86.170547 
L 159.992424 86.170547 
L 160.454326 86.716888 
L 160.916228 85.76081 
L 161.37813 82.62005 
L 161.840031 82.961388 
L 162.301933 88.219479 
L 162.763835 84.736541 
L 163.225737 88.561009 
L 163.687638 81.186548 
L 164.14954 81.254806 
L 164.611442 81.52784 
L 165.073344 88.219479 
L 165.535246 77.978974 
L 165.997147 87.468155 
L 166.459049 81.118292 
L 166.920951 83.166199 
L 167.382853 83.439285 
L 167.844754 83.985478 
L 168.306656 91.635293 
L 168.768558 85.00967 
L 169.23046 86.033966 
L 169.692362 89.175791 
L 170.154263 88.219479 
L 170.616165 88.561009 
L 171.078067 89.517352 
L 171.539969 85.419376 
L 172.00187 88.83424 
L 172.463772 81.52784 
L 172.925674 91.703621 
L 173.849478 85.077952 
L 174.311379 85.419376 
L 174.773281 87.126663 
L 175.235183 86.716888 
L 175.697085 85.146236 
L 176.158986 86.716888 
L 176.620888 86.102256 
L 177.08279 88.014567 
L 177.544692 88.219479 
L 178.006594 89.858925 
L 178.468495 81.5961 
L 178.930397 84.736541 
L 179.392299 86.033966 
L 179.854201 85.077952 
L 180.316102 85.419376 
L 180.778004 84.736541 
L 181.239906 80.572254 
L 181.701808 81.186548 
L 182.16371 92.045268 
L 182.625611 87.468155 
L 183.087513 86.033966 
L 183.549415 81.118292 
L 184.011317 90.952037 
L 184.93512 85.00967 
L 185.397022 85.00967 
L 185.858924 81.800882 
L 186.320825 89.175791 
L 186.782727 88.561009 
L 187.244629 88.765932 
L 187.706531 88.424395 
L 188.168433 94.710517 
L 188.630334 92.591929 
L 189.092236 85.692522 
L 189.554138 91.703621 
L 190.01604 87.536456 
L 190.477941 90.678749 
L 190.939843 91.635293 
L 191.401745 89.175791 
L 191.863647 85.077952 
L 192.325549 86.716888 
L 192.78745 91.976938 
L 193.249352 93.958709 
L 193.711254 85.419376 
L 194.173156 84.395142 
L 194.635057 84.66826 
L 195.096959 84.395142 
L 195.558861 89.858925 
L 196.020763 84.395142 
L 196.482665 82.62005 
L 196.944566 88.561009 
L 197.406468 88.902549 
L 197.86837 81.254806 
L 198.330272 84.395142 
L 198.792173 85.487661 
L 199.254075 82.62005 
L 199.715977 83.507556 
L 200.177879 88.561009 
L 200.639781 88.902549 
L 201.101682 81.186548 
L 201.563584 79.002557 
L 202.025486 91.635293 
L 202.487388 87.536456 
L 202.949289 89.244102 
L 203.411191 84.053753 
L 203.873093 87.194961 
L 204.334995 87.126663 
L 204.796897 83.302741 
L 205.258798 90.883715 
L 205.7207 88.83424 
L 206.182602 84.326863 
L 206.644504 87.877962 
L 207.106405 89.65398 
L 207.568307 84.326863 
L 208.030209 84.395142 
L 208.492111 90.952037 
L 208.954013 81.186548 
L 209.415914 87.536456 
L 209.877816 84.736541 
L 210.339718 91.703621 
L 210.80162 84.736541 
L 211.263521 88.561009 
L 211.725423 84.736541 
L 212.187325 77.364874 
L 212.649227 87.194961 
L 213.111129 84.395142 
L 213.57303 77.637802 
L 214.034932 80.572254 
L 214.496834 81.937405 
L 215.420637 89.585665 
L 215.882539 85.76081 
L 216.344441 85.077952 
L 216.806343 79.685004 
L 217.268245 84.736541 
L 217.730146 87.604755 
L 218.192048 88.219479 
L 218.65395 89.927242 
L 219.115852 81.186548 
L 219.577753 84.395142 
L 220.039655 83.371012 
L 220.501557 83.302741 
L 220.963459 84.395142 
L 221.425361 82.210457 
L 221.887262 84.395142 
L 222.349164 80.504001 
L 222.811066 81.254806 
L 223.272968 84.395142 
L 223.734869 76.887267 
L 224.658673 88.561009 
L 225.120575 83.302741 
L 225.582476 72.248823 
L 226.044378 80.435749 
L 226.50628 76.546131 
L 226.968182 84.053753 
L 227.430084 88.561009 
L 227.891985 81.118292 
L 228.353887 84.326863 
L 228.815789 86.512007 
L 229.277691 85.419376 
L 229.739592 80.162744 
L 230.201494 84.395142 
L 230.663396 83.371012 
L 231.125298 90.610427 
L 231.5872 84.395142 
L 232.049101 86.443714 
L 232.511003 89.858925 
L 232.972905 84.053753 
L 233.434807 80.162744 
L 233.896708 81.45958 
L 234.35861 85.419376 
L 234.820512 90.678749 
L 235.282414 83.234468 
L 235.744316 83.371012 
L 236.206217 80.094494 
L 236.668119 89.585665 
L 237.130021 87.877962 
L 238.053824 80.162744 
L 238.515726 81.52784 
L 238.977628 81.52784 
L 239.43953 89.585665 
L 239.901432 84.941387 
L 240.363333 84.736541 
L 240.825235 88.219479 
L 241.287137 80.504001 
L 241.749039 87.536456 
L 242.21094 83.302741 
L 242.672842 83.371012 
L 243.134744 86.512007 
L 243.596646 81.869143 
L 244.058548 80.845269 
L 244.520449 80.162744 
L 244.982351 80.504001 
L 245.444253 78.388395 
L 245.906155 80.504001 
L 246.368056 73.681056 
L 246.829958 74.022094 
L 247.29186 81.254806 
L 248.215664 80.435749 
L 248.677565 79.821498 
L 249.139467 80.026245 
L 249.601369 79.753251 
L 250.063271 76.546131 
L 250.525172 78.934316 
L 250.987074 76.477907 
L 251.448976 81.391322 
L 251.910878 82.551783 
L 252.834681 75.522798 
L 253.296583 80.026245 
L 253.758485 80.162744 
L 254.220387 73.203623 
L 254.682288 78.593112 
L 255.14419 76.887267 
L 255.606092 78.934316 
L 256.067994 78.25192 
L 256.529896 83.302741 
L 256.991797 78.661352 
L 257.453699 84.5317 
L 257.915601 76.887267 
L 258.377503 76.477907 
L 258.839404 83.302741 
L 259.301306 79.753251 
L 259.763208 83.371012 
L 260.22511 75.454579 
L 260.687011 80.777015 
L 261.148913 76.955495 
L 261.610815 76.546131 
L 262.072717 76.955495 
L 262.534619 80.162744 
L 262.99652 80.162744 
L 263.458422 69.725857 
L 263.920324 81.254806 
L 264.382226 74.022094 
L 264.844127 77.706036 
L 265.306029 78.388395 
L 265.767931 78.320158 
L 266.229833 74.499566 
L 266.691735 74.090304 
L 267.153636 72.589812 
L 267.153636 72.589812 
" clip-path="url(#pda7373165e)" style="fill: none; stroke: #ff7f0e; stroke-linecap: square"/>
   </g>
   <g id="line2d_15">
    <path d="M 66.226364 102.039845 
L 66.688265 98.55041 
L 67.150167 104.12188 
L 67.612069 97.895956 
L 68.535873 101.068469 
L 68.997774 101.009046 
L 69.459676 101.138015 
L 69.921578 95.853467 
L 70.38348 102.357399 
L 70.845381 100.171302 
L 71.307283 99.898642 
L 71.769185 101.861928 
L 72.231087 99.293787 
L 72.692989 100.493606 
L 73.15489 98.550106 
L 73.616792 99.442535 
L 74.078694 99.898647 
L 74.540596 99.422707 
L 75.002497 101.04887 
L 75.464399 96.904174 
L 76.388203 100.215902 
L 76.850104 99.145123 
L 77.312006 100.171286 
L 77.773908 98.68906 
L 78.23581 99.779657 
L 78.697712 97.479652 
L 79.159613 101.068409 
L 79.621515 97.360804 
L 80.083417 100.067128 
L 80.545319 98.59011 
L 81.00722 100.394242 
L 81.469122 100.36452 
L 81.931024 97.380765 
L 82.392926 99.442631 
L 82.854828 99.368294 
L 83.316729 100.889823 
L 83.778631 99.303855 
L 84.240533 98.565423 
L 84.702435 100.314889 
L 85.164336 101.544036 
L 85.626238 96.915094 
L 86.08814 102.535123 
L 86.550042 101.682869 
L 87.011944 98.342322 
L 87.473845 101.246707 
L 87.935747 97.618737 
L 88.397649 101.122779 
L 88.859551 102.039844 
L 89.321452 101.241954 
L 89.783354 99.046011 
L 90.245256 97.459875 
L 90.707158 100.929616 
L 91.16906 99.74 
L 91.630961 100.949504 
L 92.092863 99.293866 
L 92.554765 101.742696 
L 93.016667 98.57009 
L 93.478568 99.74 
L 93.94047 98.887386 
L 94.402372 96.924578 
L 94.864274 100.780886 
L 95.326176 102.377104 
L 95.788077 98.550298 
L 96.249979 98.699059 
L 96.711881 101.524482 
L 97.173783 100.136567 
L 97.635684 100.617431 
L 98.097586 98.292494 
L 98.559488 99.105501 
L 99.02139 99.115432 
L 99.483292 102.555615 
L 99.945193 98.64941 
L 100.407095 97.777072 
L 100.868997 101.524453 
L 101.330899 95.963127 
L 101.7928 102.594848 
L 102.254702 99.264172 
L 102.716604 99.531828 
L 103.178506 103.388186 
L 103.640408 96.785725 
L 104.102309 102.312621 
L 104.564211 105.133973 
L 105.026113 112.218024 
L 105.488015 100.275773 
L 105.949916 103.17323 
L 106.411818 100.256023 
L 106.87372 98.995744 
L 107.335622 101.407158 
L 107.797524 99.462131 
L 108.259425 98.370571 
L 108.721327 101.208651 
L 109.183229 99.839237 
L 109.645131 99.888856 
L 110.107032 100.911038 
L 110.568934 97.298754 
L 111.030836 99.635807 
L 111.492738 100.01785 
L 111.954639 101.466718 
L 112.416541 97.105374 
L 112.878443 101.049805 
L 113.340345 100.350279 
L 113.802247 96.306761 
L 114.264148 99.997971 
L 114.72605 100.945567 
L 115.187952 99.501856 
L 115.649854 101.149056 
L 116.111755 98.549253 
L 116.573657 102.220773 
L 117.035559 98.648426 
L 117.497461 98.876708 
L 117.959363 99.759845 
L 118.421264 99.620929 
L 118.883166 99.025588 
L 119.345068 100.573478 
L 119.80697 98.767612 
L 120.268871 100.871159 
L 120.730773 97.497563 
L 121.192675 102.677042 
L 121.654577 100.290741 
L 122.116479 99.481992 
L 122.57838 101.427028 
L 123.040282 98.281226 
L 123.502184 102.459124 
L 123.964086 98.013218 
L 124.425987 100.796902 
L 124.887889 100.315616 
L 125.349791 99.343022 
L 125.811693 98.876603 
L 126.273595 97.001191 
L 126.735496 100.930755 
L 127.197398 102.459159 
L 127.6593 96.901762 
L 128.121202 98.564135 
L 128.583103 99.005742 
L 129.506907 98.147636 
L 129.968809 101.307542 
L 130.430711 98.608978 
L 130.892612 99.769763 
L 131.354514 101.525853 
L 131.816416 100.613135 
L 132.278318 97.790404 
L 132.740219 101.109145 
L 133.202121 95.751848 
L 133.664023 98.311588 
L 134.125925 101.803269 
L 134.587827 98.748022 
L 135.51163 100.434376 
L 135.973532 99.72016 
L 136.435434 97.790866 
L 136.897335 101.049307 
L 137.359237 101.208096 
L 137.821139 99.353129 
L 138.283041 98.470318 
L 138.744943 100.602985 
L 139.206844 101.168467 
L 139.668746 100.553471 
L 140.130648 99.382864 
L 140.59255 98.668626 
L 141.516353 100.290558 
L 141.978255 100.057446 
L 142.440157 100.374905 
L 142.902059 101.228144 
L 143.36396 99.10504 
L 143.825862 101.347276 
L 144.287764 99.963242 
L 144.749666 99.482031 
L 145.211567 100.672671 
L 145.673469 101.466558 
L 146.135371 98.965999 
L 146.597273 95.25529 
L 147.059175 101.168676 
L 147.521076 101.109246 
L 147.982978 99.620932 
L 148.44488 100.573496 
L 148.906782 97.418181 
L 149.368683 98.430361 
L 149.830585 100.796643 
L 150.292487 98.311301 
L 150.754389 98.742947 
L 151.21629 101.228144 
L 151.678192 97.10109 
L 152.140094 98.40083 
L 152.601996 104.00573 
L 153.063898 96.624949 
L 153.525799 99.829279 
L 153.987701 96.744369 
L 154.449603 100.731889 
L 154.911505 99.382916 
L 155.373406 99.40276 
L 155.835308 98.887001 
L 156.29721 99.784633 
L 156.759112 96.229123 
L 157.221014 100.969742 
L 157.682915 100.007775 
L 158.144817 101.54508 
L 158.606719 99.779674 
L 159.068621 99.963165 
L 159.530522 101.505562 
L 159.992424 101.406493 
L 160.454326 101.495919 
L 161.37813 97.121044 
L 161.840031 101.1685 
L 162.301933 102.617136 
L 162.763835 97.656552 
L 163.225737 100.255876 
L 163.687638 100.414624 
L 164.14954 99.070339 
L 164.611442 102.121093 
L 165.073344 97.120811 
L 165.535246 101.39186 
L 165.997147 102.16099 
L 166.459049 98.92636 
L 166.920951 98.117788 
L 167.382853 102.319689 
L 167.844754 100.474273 
L 168.306656 100.573534 
L 168.768558 99.045382 
L 169.23046 101.347578 
L 169.692362 97.938949 
L 170.154263 99.601084 
L 170.616165 99.54155 
L 171.078067 99.620931 
L 171.539969 99.243886 
L 172.00187 101.327603 
L 172.463772 98.177221 
L 172.925674 99.601093 
L 173.387576 97.775551 
L 173.849478 100.231098 
L 174.311379 99.74 
L 174.773281 96.957294 
L 175.235183 101.664507 
L 175.697085 98.410684 
L 176.158986 100.573298 
L 176.620888 99.759841 
L 177.08279 99.660636 
L 177.544692 97.418772 
L 178.006594 102.180231 
L 178.468495 99.224158 
L 178.930397 101.168529 
L 179.392299 100.870992 
L 179.854201 100.791675 
L 181.239906 98.231998 
L 181.701808 100.603126 
L 182.16371 101.009954 
L 182.625611 101.625219 
L 183.087513 98.623742 
L 183.549415 100.910822 
L 184.011317 101.744432 
L 184.473218 98.876688 
L 184.93512 100.573536 
L 185.397022 99.74 
L 185.858924 99.367883 
L 186.320825 97.973774 
L 186.782727 100.414722 
L 187.244629 101.243331 
L 187.706531 99.68046 
L 188.168433 98.638539 
L 188.630334 100.474295 
L 189.092236 98.886633 
L 189.554138 98.638618 
L 190.477941 100.117034 
L 190.939843 101.406982 
L 191.401745 98.033309 
L 191.863647 97.061152 
L 192.325549 101.54077 
L 192.78745 101.744359 
L 193.249352 97.279228 
L 193.711254 98.966108 
L 194.173156 98.489929 
L 194.635057 102.021928 
L 195.096959 98.013673 
L 195.558861 100.156683 
L 196.020763 99.323317 
L 196.482665 99.427494 
L 196.944566 101.744077 
L 197.406468 98.56928 
L 197.86837 98.237018 
L 198.330272 102.478149 
L 198.792173 97.438346 
L 199.254075 100.290593 
L 199.715977 100.890835 
L 200.177879 101.243134 
L 200.639781 98.62875 
L 201.101682 99.005811 
L 202.025486 101.605361 
L 202.487388 98.21198 
L 202.949289 100.990202 
L 203.411191 99.045428 
L 203.873093 99.243891 
L 204.334995 101.511185 
L 204.796897 99.025546 
L 205.258798 99.978149 
L 205.7207 99.040449 
L 206.182602 99.224036 
L 206.644504 97.934219 
L 207.106405 100.082294 
L 207.568307 101.327524 
L 208.030209 97.517497 
L 208.492111 102.151072 
L 208.954013 97.29912 
L 209.415914 99.44235 
L 209.877816 98.489923 
L 210.339718 101.446456 
L 210.80162 97.239886 
L 211.263521 101.570438 
L 211.725423 98.05339 
L 212.187325 97.269878 
L 212.649227 101.942226 
L 213.111129 100.315391 
L 213.57303 99.844167 
L 214.034932 97.716263 
L 214.496834 99.72016 
L 214.958736 99.174578 
L 215.420637 101.42638 
L 215.882539 99.561436 
L 216.344441 99.844162 
L 216.806343 99.978086 
L 217.268245 100.533639 
L 217.730146 97.597269 
L 218.192048 103.608904 
L 218.65395 101.724305 
L 219.115852 98.088074 
L 219.577753 100.315425 
L 220.039655 101.129017 
L 220.501557 100.707408 
L 220.963459 98.608872 
L 221.425361 98.17239 
L 221.887262 100.052522 
L 222.349164 100.474197 
L 222.811066 97.398589 
L 223.272968 101.704416 
L 224.196771 98.608935 
L 225.120575 101.704531 
L 225.582476 97.314169 
L 226.044378 103.093509 
L 226.50628 99.30342 
L 226.968182 99.442338 
L 227.430084 100.196416 
L 228.353887 100.007905 
L 228.815789 98.886681 
L 229.277691 96.981817 
L 229.739592 101.15379 
L 230.201494 98.966117 
L 230.663396 100.791693 
L 231.125298 101.168809 
L 231.5872 97.676173 
L 232.049101 101.208473 
L 232.511003 100.856312 
L 232.972905 95.37426 
L 233.434807 100.474179 
L 233.896708 100.603192 
L 234.35861 99.005784 
L 234.820512 99.442352 
L 235.282414 101.704581 
L 235.744316 96.267322 
L 236.206217 101.153826 
L 236.668119 100.990207 
L 237.130021 97.993699 
L 237.591923 100.082305 
L 238.053824 96.842965 
L 238.515726 99.700317 
L 238.977628 99.725119 
L 239.43953 102.180622 
L 239.901432 101.188623 
L 240.363333 96.287357 
L 240.825235 101.367002 
L 241.287137 99.045534 
L 241.749039 99.710238 
L 242.21094 102.954557 
L 242.672842 96.307187 
L 243.134744 101.793704 
L 243.596646 97.696187 
L 244.058548 100.73212 
L 244.520449 99.531652 
L 244.982351 99.58126 
L 245.444253 96.962225 
L 245.906155 101.793568 
L 246.368056 97.795526 
L 246.829958 99.898726 
L 247.29186 99.74 
L 247.753762 102.378987 
L 248.215664 100.915747 
L 248.677565 97.854849 
L 249.139467 103.41123 
L 249.601369 98.8916 
L 250.063271 99.323257 
L 250.525172 101.327636 
L 250.987074 99.397657 
L 251.448976 100.434612 
L 251.910878 98.370643 
L 252.37278 101.064716 
L 252.834681 95.810695 
L 253.296583 103.589918 
L 253.758485 97.016269 
L 254.220387 100.950482 
L 254.682288 101.585614 
L 255.14419 97.790231 
L 255.606092 102.716772 
L 256.067994 97.457773 
L 256.529896 100.007902 
L 256.991797 99.422486 
L 257.453699 101.883306 
L 257.915601 97.939038 
L 258.377503 100.910841 
L 258.839404 99.422478 
L 259.301306 99.412561 
L 259.763208 99.005761 
L 260.22511 100.017817 
L 260.687011 99.933482 
L 261.148913 96.743688 
L 261.610815 101.33238 
L 262.072717 97.398567 
L 262.534619 100.156678 
L 262.99652 99.710237 
L 263.458422 97.140848 
L 263.920324 100.553444 
L 264.382226 99.606078 
L 264.844127 97.517992 
L 265.306029 99.482102 
L 265.767931 99.457308 
L 266.229833 97.895146 
L 266.691735 100.831026 
L 267.153636 97.716709 
L 267.153636 97.716709 
" clip-path="url(#pda7373165e)" style="fill: none; stroke: #a52a2a; stroke-linecap: square"/>
   </g>
   <g id="line2d_16">
    <path d="M 66.226364 99.853986 
L 66.688265 98.919419 
L 67.150167 102.339091 
L 67.612069 96.821861 
L 68.073971 100.475021 
L 68.535873 99.83118 
L 68.997774 100.05915 
L 69.459676 100.646364 
L 69.921578 96.571504 
L 70.38348 100.241289 
L 70.845381 100.714357 
L 71.769185 98.554797 
L 72.231087 100.081848 
L 72.692989 99.19305 
L 73.15489 99.352631 
L 73.616792 101.58627 
L 74.078694 97.847982 
L 74.540596 101.837241 
L 75.002497 99.141486 
L 75.464399 98.235683 
L 75.926301 99.648851 
L 76.388203 99.107742 
L 76.850104 101.745346 
L 77.312006 99.910967 
L 77.773908 101.701065 
L 78.23581 96.707675 
L 78.697712 99.722908 
L 79.159613 100.400945 
L 79.621515 100.127511 
L 80.083417 100.441078 
L 81.00722 98.828051 
L 81.469122 99.705807 
L 81.931024 100.87996 
L 82.392926 99.397971 
L 82.854828 99.209938 
L 83.316729 99.762796 
L 83.778631 99.078979 
L 84.240533 98.902549 
L 84.702435 100.355224 
L 85.164336 101.175963 
L 85.626238 98.765577 
L 86.08814 100.742871 
L 86.550042 98.418097 
L 87.011944 98.407317 
L 87.473845 102.907203 
L 87.935747 99.44366 
L 88.397649 100.78306 
L 88.859551 99.169952 
L 89.321452 99.876804 
L 89.783354 97.597371 
L 90.245256 99.990662 
L 90.707158 100.509224 
L 91.16906 99.671615 
L 91.630961 99.831181 
L 92.092863 100.526567 
L 92.554765 98.258158 
L 93.016667 99.717208 
L 93.478568 100.18449 
L 93.94047 97.210555 
L 94.402372 101.380504 
L 94.864274 100.560587 
L 95.326176 98.030601 
L 95.788077 99.87672 
L 96.249979 99.67164 
L 96.711881 98.874226 
L 97.173783 103.136029 
L 97.635684 99.158573 
L 98.097586 98.668646 
L 98.559488 97.985542 
L 99.02139 100.714 
L 99.483292 101.221549 
L 99.945193 99.352455 
L 100.868997 99.922363 
L 101.330899 100.047764 
L 101.7928 98.372355 
L 102.254702 98.418474 
L 102.716604 101.192673 
L 103.178506 100.104718 
L 103.640408 98.668755 
L 104.102309 99.364013 
L 104.564211 99.193195 
L 105.026113 101.084388 
L 105.488015 100.287039 
L 105.949916 98.463679 
L 106.411818 101.061912 
L 107.335622 98.144773 
L 107.797524 101.813943 
L 108.259425 99.073257 
L 108.721327 100.218658 
L 109.645131 99.688709 
L 110.107032 99.489258 
L 110.568934 99.990742 
L 111.030836 100.184554 
L 111.954639 99.147265 
L 112.416541 100.133253 
L 112.878443 96.549654 
L 113.340345 101.842089 
L 114.264148 97.62062 
L 114.72605 101.226954 
L 115.187952 97.939654 
L 115.649854 98.897132 
L 116.111755 101.00446 
L 116.573657 100.309769 
L 117.035559 99.056289 
L 117.497461 100.372447 
L 117.959363 98.57772 
L 118.421264 100.059017 
L 118.883166 100.680182 
L 119.345068 99.512042 
L 119.80697 98.94227 
L 120.268871 98.714678 
L 120.730773 100.309555 
L 121.192675 99.648865 
L 121.654577 98.595388 
L 122.116479 100.446043 
L 122.57838 100.970236 
L 123.040282 98.509839 
L 123.502184 101.858761 
L 123.964086 98.145109 
L 124.887889 100.970152 
L 125.349791 99.329899 
L 125.811693 99.654569 
L 126.273595 98.259548 
L 126.735496 100.508644 
L 127.197398 101.745074 
L 127.6593 97.962715 
L 128.121202 99.569158 
L 128.583103 99.967789 
L 129.045005 100.537383 
L 129.506907 98.373266 
L 129.968809 100.354919 
L 130.430711 100.377813 
L 130.892612 99.347055 
L 131.354514 101.26645 
L 131.816416 98.623573 
L 132.278318 100.047555 
L 132.740219 98.509931 
L 133.202121 99.626128 
L 133.664023 98.578789 
L 134.125925 100.468514 
L 134.587827 100.468672 
L 135.049728 99.825402 
L 135.51163 98.351058 
L 135.973532 100.673488 
L 136.435434 100.781996 
L 138.283041 98.032735 
L 138.744943 101.174146 
L 139.206844 99.922171 
L 139.668746 99.421208 
L 140.130648 98.25471 
L 140.59255 99.62622 
L 141.054451 101.743089 
L 141.516353 98.783877 
L 141.978255 101.424701 
L 142.440157 98.373962 
L 142.902059 99.091347 
L 143.36396 100.718686 
L 143.825862 100.331902 
L 144.287764 98.391389 
L 144.749666 101.879678 
L 145.211567 98.669991 
L 145.673469 98.835352 
L 146.135371 99.398702 
L 146.597273 100.650205 
L 147.059175 101.174175 
L 147.982978 99.512248 
L 148.906782 99.762774 
L 149.368683 97.031011 
L 149.830585 100.69591 
L 150.292487 99.079907 
L 150.754389 100.081417 
L 151.21629 100.787246 
L 151.678192 99.74 
L 152.140094 97.452675 
L 152.601996 102.903617 
L 153.063898 98.465091 
L 153.525799 101.020683 
L 153.987701 98.168997 
L 154.449603 100.286352 
L 154.911505 101.123447 
L 155.373406 96.506932 
L 155.835308 100.809755 
L 156.29721 99.569273 
L 156.759112 96.418266 
L 157.221014 103.357664 
L 157.682915 98.630458 
L 158.144817 100.08134 
L 158.606719 98.329353 
L 159.068621 101.429575 
L 159.530522 99.853816 
L 159.992424 99.74 
L 160.454326 99.876585 
L 160.916228 99.421307 
L 161.37813 98.69308 
L 161.840031 99.825335 
L 162.301933 101.492697 
L 162.763835 98.869266 
L 163.225737 101.014822 
L 163.687638 97.281847 
L 164.14954 99.757064 
L 164.611442 99.831011 
L 165.073344 101.970546 
L 165.535246 97.179874 
L 165.997147 102.90306 
L 166.459049 97.623379 
L 166.920951 100.251977 
L 167.382853 99.831029 
L 167.844754 99.922064 
L 168.306656 101.652454 
L 168.768558 97.531459 
L 169.23046 100.081432 
L 169.692362 100.525456 
L 170.154263 99.42123 
L 170.616165 99.853843 
L 171.078067 99.979086 
L 171.539969 98.374008 
L 172.00187 100.878288 
L 172.463772 97.9134 
L 172.925674 103.131927 
L 173.387576 98.692462 
L 173.849478 98.869236 
L 174.311379 99.853808 
L 174.773281 100.166822 
L 175.235183 99.603408 
L 175.697085 99.216449 
L 176.158986 100.132663 
L 176.620888 99.535123 
L 177.08279 100.377437 
L 177.544692 99.791228 
L 178.006594 100.286482 
L 178.468495 96.985725 
L 178.930397 100.525111 
L 179.392299 100.172475 
L 179.854201 99.421329 
L 180.316102 99.825356 
L 180.778004 99.512389 
L 181.239906 98.351904 
L 181.701808 99.893574 
L 182.16371 103.359573 
L 182.625611 98.214296 
L 183.087513 99.381453 
L 183.549415 98.101442 
L 184.011317 103.017915 
L 184.473218 99.05686 
L 184.93512 98.670063 
L 185.397022 99.74 
L 185.858924 98.937803 
L 186.320825 102.198303 
L 186.782727 99.535073 
L 187.244629 99.791231 
L 187.706531 99.626155 
L 188.168433 101.31153 
L 188.630334 99.033804 
L 189.092236 97.440198 
L 189.554138 101.242775 
L 190.01604 98.350945 
L 190.477941 100.787431 
L 190.939843 99.979136 
L 191.401745 98.920166 
L 191.863647 98.374054 
L 192.78745 101.49335 
L 193.249352 100.40059 
L 193.711254 97.605167 
L 194.173156 99.398589 
L 194.635057 99.83104 
L 195.096959 99.67172 
L 195.558861 101.561261 
L 196.020763 97.918739 
L 196.482665 99.296227 
L 196.944566 101.72032 
L 197.86837 97.828064 
L 198.330272 100.786779 
L 198.792173 100.104173 
L 199.254075 99.023097 
L 200.177879 101.003363 
L 200.639781 99.853847 
L 201.101682 97.168 
L 201.563584 99.194002 
L 202.025486 103.950912 
L 202.487388 98.373721 
L 202.949289 100.166912 
L 203.411191 98.009884 
L 203.873093 100.787069 
L 204.796897 98.465359 
L 205.258798 102.266991 
L 205.7207 99.227631 
L 206.182602 98.237541 
L 206.644504 100.9237 
L 207.106405 100.184005 
L 207.568307 97.964294 
L 208.492111 101.379224 
L 208.954013 96.484837 
L 209.415914 101.856636 
L 209.877816 99.040021 
L 210.339718 102.06236 
L 210.80162 97.41764 
L 211.263521 100.696117 
L 211.725423 98.465178 
L 212.187325 97.897083 
L 212.649227 103.016696 
L 213.111129 98.806727 
L 213.57303 98.050665 
L 214.034932 100.71815 
L 214.496834 100.19505 
L 214.958736 100.712923 
L 215.420637 100.992189 
L 215.882539 98.465048 
L 216.344441 99.569286 
L 216.806343 97.94235 
L 217.268245 101.423846 
L 217.730146 100.457054 
L 218.192048 99.944908 
L 218.65395 100.309254 
L 219.115852 97.554827 
L 219.577753 100.809531 
L 220.039655 99.398623 
L 220.963459 100.104134 
L 221.425361 99.011772 
L 221.887262 100.286171 
L 222.349164 98.442953 
L 222.811066 99.990268 
L 223.272968 100.525084 
L 223.734869 97.237375 
L 224.196771 101.360936 
L 224.658673 101.469999 
L 225.120575 97.987244 
L 225.582476 96.976521 
L 226.044378 102.468975 
L 226.50628 98.443461 
L 226.968182 101.616905 
L 227.430084 101.242418 
L 227.891985 97.259094 
L 228.353887 100.542143 
L 228.815789 100.468381 
L 229.739592 98.425842 
L 230.201494 101.150799 
L 230.663396 99.398623 
L 231.125298 101.549854 
L 231.5872 97.668238 
L 232.049101 100.422857 
L 232.511003 100.593803 
L 232.972905 97.804943 
L 233.434807 98.442997 
L 233.896708 100.064209 
L 234.35861 101.059932 
L 234.820512 101.493124 
L 235.282414 97.87893 
L 235.744316 99.785514 
L 236.206217 98.920871 
L 236.668119 102.903724 
L 237.130021 99.170765 
L 237.591923 98.681535 
L 238.053824 98.579547 
L 238.515726 100.195032 
L 238.977628 99.74 
L 239.43953 102.425942 
L 239.901432 98.191907 
L 240.825235 100.900979 
L 241.287137 97.168174 
L 241.749039 101.498114 
L 242.21094 98.328762 
L 242.672842 99.762757 
L 243.134744 100.525249 
L 243.596646 98.192379 
L 244.058548 99.398709 
L 244.982351 99.853752 
L 245.444253 99.034798 
L 245.906155 100.268901 
L 246.368056 97.465685 
L 246.829958 99.853679 
L 247.29186 101.548178 
L 247.753762 99.603488 
L 248.215664 99.63762 
L 248.677565 99.53525 
L 249.139467 99.808249 
L 249.601369 99.671752 
L 250.063271 98.67096 
L 250.525172 100.536061 
L 250.987074 99.125898 
L 251.448976 101.377805 
L 252.37278 98.750332 
L 252.834681 98.716562 
L 253.296583 101.241149 
L 253.758485 99.774125 
L 254.220387 97.420293 
L 254.682288 101.536496 
L 255.14419 99.313539 
L 255.606092 100.42235 
L 256.067994 99.512535 
L 256.529896 101.002705 
L 256.991797 98.192871 
L 257.453699 101.696783 
L 257.915601 97.828892 
L 258.377503 99.603547 
L 258.839404 102.014945 
L 259.301306 98.852628 
L 259.763208 100.94592 
L 260.22511 97.101189 
L 260.687011 101.070609 
L 261.148913 98.46616 
L 261.610815 99.637659 
L 262.072717 99.876454 
L 262.534619 100.809083 
L 262.99652 99.74 
L 263.458422 96.261037 
L 263.920324 103.582983 
L 264.382226 97.931822 
L 264.844127 100.967981 
L 265.306029 99.967453 
L 265.767931 99.722941 
L 266.229833 98.46647 
L 266.691735 99.603579 
L 267.153636 99.364877 
L 267.153636 99.364877 
" clip-path="url(#pda7373165e)" style="fill: none; stroke: #800080; stroke-linecap: square"/>
   </g>
   <g id="patch_3">
    <path d="M 56.18 174.04 
L 56.18 25.44 
" style="fill: none; stroke: #000000; stroke-width: 0.8; stroke-linejoin: miter; stroke-linecap: square"/>
   </g>
   <g id="patch_4">
    <path d="M 277.2 174.04 
L 277.2 25.44 
" style="fill: none; stroke: #000000; stroke-width: 0.8; stroke-linejoin: miter; stroke-linecap: square"/>
   </g>
   <g id="patch_5">
    <path d="M 56.18 174.04 
L 277.2 174.04 
" style="fill: none; stroke: #000000; stroke-width: 0.8; stroke-linejoin: miter; stroke-linecap: square"/>
   </g>
   <g id="patch_6">
    <path d="M 56.18 25.44 
L 277.2 25.44 
" style="fill: none; stroke: #000000; stroke-width: 0.8; stroke-linejoin: miter; stroke-linecap: square"/>
   </g>
   <g id="text_15">
    <!-- Trial Data -->
    <g transform="translate(138.200313 19.44)scale(0.12 -0.12)">
     <defs>
      <path id="DejaVuSans-54" d="M -19 4666 
L 3928 4666 
L 3928 4134 
L 2272 4134 
L 2272 0 
L 1638 0 
L 1638 4134 
L -19 4134 
L -19 4666 
z
" transform="scale(0.015625)"/>
      <path id="DejaVuSans-72" d="M 2631 2963 
Q 2534 3019 2420 3045 
Q 2306 3072 2169 3072 
Q 1681 3072 1420 2755 
Q 1159 2438 1159 1844 
L 1159 0 
L 581 0 
L 581 3500 
L 1159 3500 
L 1159 2956 
Q 1341 3275 1631 3429 
Q 1922 3584 2338 3584 
Q 2397 3584 2469 3576 
Q 2541 3569 2628 3553 
L 2631 2963 
z
" transform="scale(0.015625)"/>
      <path id="DejaVuSans-6c" d="M 603 4863 
L 1178 4863 
L 1178 0 
L 603 0 
L 603 4863 
z
" transform="scale(0.015625)"/>
      <path id="DejaVuSans-44" d="M 1259 4147 
L 1259 519 
L 2022 519 
Q 2988 519 3436 956 
Q 3884 1394 3884 2338 
Q 3884 3275 3436 3711 
Q 2988 4147 2022 4147 
L 1259 4147 
z
M 628 4666 
L 1925 4666 
Q 3281 4666 3915 4102 
Q 4550 3538 4550 2338 
Q 4550 1131 3912 565 
Q 3275 0 1925 0 
L 628 0 
L 628 4666 
z
" transform="scale(0.015625)"/>
     </defs>
     <use xlink:href="#DejaVuSans-54"/>
     <use xlink:href="#DejaVuSans-72" x="46.333984"/>
     <use xlink:href="#DejaVuSans-69" x="87.447266"/>
     <use xlink:href="#DejaVuSans-61" x="115.230469"/>
     <use xlink:href="#DejaVuSans-6c" x="176.509766"/>
     <use xlink:href="#DejaVuSans-20" x="204.292969"/>
     <use xlink:href="#DejaVuSans-44" x="236.080078"/>
     <use xlink:href="#DejaVuSans-61" x="313.082031"/>
     <use xlink:href="#DejaVuSans-74" x="374.361328"/>
     <use xlink:href="#DejaVuSans-61" x="413.570312"/>
    </g>
   </g>
   <g id="legend_1">
    <g id="patch_7">
     <path d="M 63.18 169.04 
L 227.158125 169.04 
Q 229.158125 169.04 229.158125 167.04 
L 229.158125 138.68375 
Q 229.158125 136.68375 227.158125 136.68375 
L 63.18 136.68375 
Q 61.18 136.68375 61.18 138.68375 
L 61.18 167.04 
Q 61.18 169.04 63.18 169.04 
z
" style="fill: #ffffff; opacity: 0.8; stroke: #cccccc; stroke-linejoin: miter"/>
    </g>
    <g id="line2d_17">
     <path d="M 65.18 144.782188 
L 75.18 144.782188 
L 85.18 144.782188 
" style="fill: none; stroke: #1f77b4; stroke-linecap: square"/>
    </g>
    <g id="text_16">
     <!-- gaze x -->
     <g transform="translate(93.18 148.282188)scale(0.1 -0.1)">
      <defs>
       <path id="DejaVuSans-67" d="M 2906 1791 
Q 2906 2416 2648 2759 
Q 2391 3103 1925 3103 
Q 1463 3103 1205 2759 
Q 947 2416 947 1791 
Q 947 1169 1205 825 
Q 1463 481 1925 481 
Q 2391 481 2648 825 
Q 2906 1169 2906 1791 
z
M 3481 434 
Q 3481 -459 3084 -895 
Q 2688 -1331 1869 -1331 
Q 1566 -1331 1297 -1286 
Q 1028 -1241 775 -1147 
L 775 -588 
Q 1028 -725 1275 -790 
Q 1522 -856 1778 -856 
Q 2344 -856 2625 -561 
Q 2906 -266 2906 331 
L 2906 616 
Q 2728 306 2450 153 
Q 2172 0 1784 0 
Q 1141 0 747 490 
Q 353 981 353 1791 
Q 353 2603 747 3093 
Q 1141 3584 1784 3584 
Q 2172 3584 2450 3431 
Q 2728 3278 2906 2969 
L 2906 3500 
L 3481 3500 
L 3481 434 
z
" transform="scale(0.015625)"/>
       <path id="DejaVuSans-78" d="M 3513 3500 
L 2247 1797 
L 3578 0 
L 2900 0 
L 1881 1375 
L 863 0 
L 184 0 
L 1544 1831 
L 300 3500 
L 978 3500 
L 1906 2253 
L 2834 3500 
L 3513 3500 
z
" transform="scale(0.015625)"/>
      </defs>
      <use xlink:href="#DejaVuSans-67"/>
      <use xlink:href="#DejaVuSans-61" x="63.476562"/>
      <use xlink:href="#DejaVuSans-7a" x="124.755859"/>
      <use xlink:href="#DejaVuSans-65" x="177.246094"/>
      <use xlink:href="#DejaVuSans-20" x="238.769531"/>
      <use xlink:href="#DejaVuSans-78" x="270.556641"/>
     </g>
    </g>
    <g id="line2d_18">
     <path d="M 65.18 159.460313 
L 75.18 159.460313 
L 85.18 159.460313 
" style="fill: none; stroke: #ff7f0e; stroke-linecap: square"/>
    </g>
    <g id="text_17">
     <!-- gaze y -->
     <g transform="translate(93.18 162.960313)scale(0.1 -0.1)">
      <defs>
       <path id="DejaVuSans-79" d="M 2059 -325 
Q 1816 -950 1584 -1140 
Q 1353 -1331 966 -1331 
L 506 -1331 
L 506 -850 
L 844 -850 
Q 1081 -850 1212 -737 
Q 1344 -625 1503 -206 
L 1606 56 
L 191 3500 
L 800 3500 
L 1894 763 
L 2988 3500 
L 3597 3500 
L 2059 -325 
z
" transform="scale(0.015625)"/>
      </defs>
      <use xlink:href="#DejaVuSans-67"/>
      <use xlink:href="#DejaVuSans-61" x="63.476562"/>
      <use xlink:href="#DejaVuSans-7a" x="124.755859"/>
      <use xlink:href="#DejaVuSans-65" x="177.246094"/>
      <use xlink:href="#DejaVuSans-20" x="238.769531"/>
      <use xlink:href="#DejaVuSans-79" x="270.556641"/>
     </g>
    </g>
    <g id="line2d_19">
     <path d="M 146.155 144.782188 
L 156.155 144.782188 
L 166.155 144.782188 
" style="fill: none; stroke: #a52a2a; stroke-linecap: square"/>
    </g>
    <g id="text_18">
     <!-- gaze x vel -->
     <g transform="translate(174.155 148.282188)scale(0.1 -0.1)">
      <defs>
       <path id="DejaVuSans-76" d="M 191 3500 
L 800 3500 
L 1894 563 
L 2988 3500 
L 3597 3500 
L 2284 0 
L 1503 0 
L 191 3500 
z
" transform="scale(0.015625)"/>
      </defs>
      <use xlink:href="#DejaVuSans-67"/>
      <use xlink:href="#DejaVuSans-61" x="63.476562"/>
      <use xlink:href="#DejaVuSans-7a" x="124.755859"/>
      <use xlink:href="#DejaVuSans-65" x="177.246094"/>
      <use xlink:href="#DejaVuSans-20" x="238.769531"/>
      <use xlink:href="#DejaVuSans-78" x="270.556641"/>
      <use xlink:href="#DejaVuSans-20" x="329.736328"/>
      <use xlink:href="#DejaVuSans-76" x="361.523438"/>
      <use xlink:href="#DejaVuSans-65" x="420.703125"/>
      <use xlink:href="#DejaVuSans-6c" x="482.226562"/>
     </g>
    </g>
    <g id="line2d_20">
     <path d="M 146.155 159.460313 
L 156.155 159.460313 
L 166.155 159.460313 
" style="fill: none; stroke: #800080; stroke-linecap: square"/>
    </g>
    <g id="text_19">
     <!-- gaze y vel -->
     <g transform="translate(174.155 162.960313)scale(0.1 -0.1)">
      <use xlink:href="#DejaVuSans-67"/>
      <use xlink:href="#DejaVuSans-61" x="63.476562"/>
      <use xlink:href="#DejaVuSans-7a" x="124.755859"/>
      <use xlink:href="#DejaVuSans-65" x="177.246094"/>
      <use xlink:href="#DejaVuSans-20" x="238.769531"/>
      <use xlink:href="#DejaVuSans-79" x="270.556641"/>
      <use xlink:href="#DejaVuSans-20" x="329.736328"/>
      <use xlink:href="#DejaVuSans-76" x="361.523438"/>
      <use xlink:href="#DejaVuSans-65" x="420.703125"/>
      <use xlink:href="#DejaVuSans-6c" x="482.226562"/>
     </g>
    </g>
   </g>
  </g>
 </g>
 <defs>
  <clipPath id="pda7373165e">
   <rect x="56.18" y="25.44" width="221.02" height="148.6"/>
  </clipPath>
 </defs>
</svg>
