<?xml version="1.0" encoding="utf-8" standalone="no"?>
<!DOCTYPE svg PUBLIC "-//W3C//DTD SVG 1.1//EN"
  "http://www.w3.org/Graphics/SVG/1.1/DTD/svg11.dtd">
<svg xmlns:xlink="http://www.w3.org/1999/xlink" width="288pt" height="216pt" viewBox="0 0 288 216" xmlns="http://www.w3.org/2000/svg" version="1.1">
 <metadata>
  <rdf:RDF xmlns:dc="http://purl.org/dc/elements/1.1/" xmlns:cc="http://creativecommons.org/ns#" xmlns:rdf="http://www.w3.org/1999/02/22-rdf-syntax-ns#">
   <cc:Work>
    <dc:type rdf:resource="http://purl.org/dc/dcmitype/StillImage"/>
    <dc:date>2023-08-25T14:12:21.331607</dc:date>
    <dc:format>image/svg+xml</dc:format>
    <dc:creator>
     <cc:Agent>
      <dc:title>Matplotlib v3.5.3, https://matplotlib.org/</dc:title>
     </cc:Agent>
    </dc:creator>
   </cc:Work>
  </rdf:RDF>
 </metadata>
 <defs>
  <style type="text/css">*{stroke-linejoin: round; stroke-linecap: butt}</style>
 </defs>
 <g id="figure_1">
  <g id="patch_1">
   <path d="M 0 216 
L 288 216 
L 288 0 
L 0 0 
z
" style="fill: #ffffff"/>
  </g>
  <g id="axes_1">
   <g id="patch_2">
    <path d="M 56.18 174.04 
L 277.2 174.04 
L 277.2 25.44 
L 56.18 25.44 
z
" style="fill: #ffffff"/>
   </g>
   <g id="matplotlib.axis_1">
    <g id="xtick_1">
     <g id="line2d_1">
      <defs>
       <path id="me9a3bc5faa" d="M 0 0 
L 0 3.5 
" style="stroke: #000000; stroke-width: 0.8"/>
      </defs>
      <g>
       <use xlink:href="#me9a3bc5faa" x="66.226364" y="174.04" style="stroke: #000000; stroke-width: 0.8"/>
      </g>
     </g>
     <g id="text_1">
      <!-- 0 -->
      <g transform="translate(63.045114 188.638438)scale(0.1 -0.1)">
       <defs>
        <path id="DejaVuSans-30" d="M 2034 4250 
Q 1547 4250 1301 3770 
Q 1056 3291 1056 2328 
Q 1056 1369 1301 889 
Q 1547 409 2034 409 
Q 2525 409 2770 889 
Q 3016 1369 3016 2328 
Q 3016 3291 2770 3770 
Q 2525 4250 2034 4250 
z
M 2034 4750 
Q 2819 4750 3233 4129 
Q 3647 3509 3647 2328 
Q 3647 1150 3233 529 
Q 2819 -91 2034 -91 
Q 1250 -91 836 529 
Q 422 1150 422 2328 
Q 422 3509 836 4129 
Q 1250 4750 2034 4750 
z
" transform="scale(0.015625)"/>
       </defs>
       <use xlink:href="#DejaVuSans-30"/>
      </g>
     </g>
    </g>
    <g id="xtick_2">
     <g id="line2d_2">
      <g>
       <use xlink:href="#me9a3bc5faa" x="112.416541" y="174.04" style="stroke: #000000; stroke-width: 0.8"/>
      </g>
     </g>
     <g id="text_2">
      <!-- 100 -->
      <g transform="translate(102.872791 188.638438)scale(0.1 -0.1)">
       <defs>
        <path id="DejaVuSans-31" d="M 794 531 
L 1825 531 
L 1825 4091 
L 703 3866 
L 703 4441 
L 1819 4666 
L 2450 4666 
L 2450 531 
L 3481 531 
L 3481 0 
L 794 0 
L 794 531 
z
" transform="scale(0.015625)"/>
       </defs>
       <use xlink:href="#DejaVuSans-31"/>
       <use xlink:href="#DejaVuSans-30" x="63.623047"/>
       <use xlink:href="#DejaVuSans-30" x="127.246094"/>
      </g>
     </g>
    </g>
    <g id="xtick_3">
     <g id="line2d_3">
      <g>
       <use xlink:href="#me9a3bc5faa" x="158.606719" y="174.04" style="stroke: #000000; stroke-width: 0.8"/>
      </g>
     </g>
     <g id="text_3">
      <!-- 200 -->
      <g transform="translate(149.062969 188.638438)scale(0.1 -0.1)">
       <defs>
        <path id="DejaVuSans-32" d="M 1228 531 
L 3431 531 
L 3431 0 
L 469 0 
L 469 531 
Q 828 903 1448 1529 
Q 2069 2156 2228 2338 
Q 2531 2678 2651 2914 
Q 2772 3150 2772 3378 
Q 2772 3750 2511 3984 
Q 2250 4219 1831 4219 
Q 1534 4219 1204 4116 
Q 875 4013 500 3803 
L 500 4441 
Q 881 4594 1212 4672 
Q 1544 4750 1819 4750 
Q 2544 4750 2975 4387 
Q 3406 4025 3406 3419 
Q 3406 3131 3298 2873 
Q 3191 2616 2906 2266 
Q 2828 2175 2409 1742 
Q 1991 1309 1228 531 
z
" transform="scale(0.015625)"/>
       </defs>
       <use xlink:href="#DejaVuSans-32"/>
       <use xlink:href="#DejaVuSans-30" x="63.623047"/>
       <use xlink:href="#DejaVuSans-30" x="127.246094"/>
      </g>
     </g>
    </g>
    <g id="xtick_4">
     <g id="line2d_4">
      <g>
       <use xlink:href="#me9a3bc5faa" x="204.796897" y="174.04" style="stroke: #000000; stroke-width: 0.8"/>
      </g>
     </g>
     <g id="text_4">
      <!-- 300 -->
      <g transform="translate(195.253147 188.638438)scale(0.1 -0.1)">
       <defs>
        <path id="DejaVuSans-33" d="M 2597 2516 
Q 3050 2419 3304 2112 
Q 3559 1806 3559 1356 
Q 3559 666 3084 287 
Q 2609 -91 1734 -91 
Q 1441 -91 1130 -33 
Q 819 25 488 141 
L 488 750 
Q 750 597 1062 519 
Q 1375 441 1716 441 
Q 2309 441 2620 675 
Q 2931 909 2931 1356 
Q 2931 1769 2642 2001 
Q 2353 2234 1838 2234 
L 1294 2234 
L 1294 2753 
L 1863 2753 
Q 2328 2753 2575 2939 
Q 2822 3125 2822 3475 
Q 2822 3834 2567 4026 
Q 2313 4219 1838 4219 
Q 1578 4219 1281 4162 
Q 984 4106 628 3988 
L 628 4550 
Q 988 4650 1302 4700 
Q 1616 4750 1894 4750 
Q 2613 4750 3031 4423 
Q 3450 4097 3450 3541 
Q 3450 3153 3228 2886 
Q 3006 2619 2597 2516 
z
" transform="scale(0.015625)"/>
       </defs>
       <use xlink:href="#DejaVuSans-33"/>
       <use xlink:href="#DejaVuSans-30" x="63.623047"/>
       <use xlink:href="#DejaVuSans-30" x="127.246094"/>
      </g>
     </g>
    </g>
    <g id="xtick_5">
     <g id="line2d_5">
      <g>
       <use xlink:href="#me9a3bc5faa" x="250.987074" y="174.04" style="stroke: #000000; stroke-width: 0.8"/>
      </g>
     </g>
     <g id="text_5">
      <!-- 400 -->
      <g transform="translate(241.443324 188.638438)scale(0.1 -0.1)">
       <defs>
        <path id="DejaVuSans-34" d="M 2419 4116 
L 825 1625 
L 2419 1625 
L 2419 4116 
z
M 2253 4666 
L 3047 4666 
L 3047 1625 
L 3713 1625 
L 3713 1100 
L 3047 1100 
L 3047 0 
L 2419 0 
L 2419 1100 
L 313 1100 
L 313 1709 
L 2253 4666 
z
" transform="scale(0.015625)"/>
       </defs>
       <use xlink:href="#DejaVuSans-34"/>
       <use xlink:href="#DejaVuSans-30" x="63.623047"/>
       <use xlink:href="#DejaVuSans-30" x="127.246094"/>
      </g>
     </g>
    </g>
    <g id="text_6">
     <!-- Step -->
     <g transform="translate(155.304844 202.316563)scale(0.1 -0.1)">
      <defs>
       <path id="DejaVuSans-53" d="M 3425 4513 
L 3425 3897 
Q 3066 4069 2747 4153 
Q 2428 4238 2131 4238 
Q 1616 4238 1336 4038 
Q 1056 3838 1056 3469 
Q 1056 3159 1242 3001 
Q 1428 2844 1947 2747 
L 2328 2669 
Q 3034 2534 3370 2195 
Q 3706 1856 3706 1288 
Q 3706 609 3251 259 
Q 2797 -91 1919 -91 
Q 1588 -91 1214 -16 
Q 841 59 441 206 
L 441 856 
Q 825 641 1194 531 
Q 1563 422 1919 422 
Q 2459 422 2753 634 
Q 3047 847 3047 1241 
Q 3047 1584 2836 1778 
Q 2625 1972 2144 2069 
L 1759 2144 
Q 1053 2284 737 2584 
Q 422 2884 422 3419 
Q 422 4038 858 4394 
Q 1294 4750 2059 4750 
Q 2388 4750 2728 4690 
Q 3069 4631 3425 4513 
z
" transform="scale(0.015625)"/>
       <path id="DejaVuSans-74" d="M 1172 4494 
L 1172 3500 
L 2356 3500 
L 2356 3053 
L 1172 3053 
L 1172 1153 
Q 1172 725 1289 603 
Q 1406 481 1766 481 
L 2356 481 
L 2356 0 
L 1766 0 
Q 1100 0 847 248 
Q 594 497 594 1153 
L 594 3053 
L 172 3053 
L 172 3500 
L 594 3500 
L 594 4494 
L 1172 4494 
z
" transform="scale(0.015625)"/>
       <path id="DejaVuSans-65" d="M 3597 1894 
L 3597 1613 
L 953 1613 
Q 991 1019 1311 708 
Q 1631 397 2203 397 
Q 2534 397 2845 478 
Q 3156 559 3463 722 
L 3463 178 
Q 3153 47 2828 -22 
Q 2503 -91 2169 -91 
Q 1331 -91 842 396 
Q 353 884 353 1716 
Q 353 2575 817 3079 
Q 1281 3584 2069 3584 
Q 2775 3584 3186 3129 
Q 3597 2675 3597 1894 
z
M 3022 2063 
Q 3016 2534 2758 2815 
Q 2500 3097 2075 3097 
Q 1594 3097 1305 2825 
Q 1016 2553 972 2059 
L 3022 2063 
z
" transform="scale(0.015625)"/>
       <path id="DejaVuSans-70" d="M 1159 525 
L 1159 -1331 
L 581 -1331 
L 581 3500 
L 1159 3500 
L 1159 2969 
Q 1341 3281 1617 3432 
Q 1894 3584 2278 3584 
Q 2916 3584 3314 3078 
Q 3713 2572 3713 1747 
Q 3713 922 3314 415 
Q 2916 -91 2278 -91 
Q 1894 -91 1617 61 
Q 1341 213 1159 525 
z
M 3116 1747 
Q 3116 2381 2855 2742 
Q 2594 3103 2138 3103 
Q 1681 3103 1420 2742 
Q 1159 2381 1159 1747 
Q 1159 1113 1420 752 
Q 1681 391 2138 391 
Q 2594 391 2855 752 
Q 3116 1113 3116 1747 
z
" transform="scale(0.015625)"/>
      </defs>
      <use xlink:href="#DejaVuSans-53"/>
      <use xlink:href="#DejaVuSans-74" x="63.476562"/>
      <use xlink:href="#DejaVuSans-65" x="102.685547"/>
      <use xlink:href="#DejaVuSans-70" x="164.208984"/>
     </g>
    </g>
   </g>
   <g id="matplotlib.axis_2">
    <g id="ytick_1">
     <g id="line2d_6">
      <defs>
       <path id="mf49311156a" d="M 0 0 
L -3.5 0 
" style="stroke: #000000; stroke-width: 0.8"/>
      </defs>
      <g>
       <use xlink:href="#mf49311156a" x="56.18" y="174.04" style="stroke: #000000; stroke-width: 0.8"/>
      </g>
     </g>
     <g id="text_7">
      <!-- −0.3 -->
      <g transform="translate(24.897188 177.839219)scale(0.1 -0.1)">
       <defs>
        <path id="DejaVuSans-2212" d="M 678 2272 
L 4684 2272 
L 4684 1741 
L 678 1741 
L 678 2272 
z
" transform="scale(0.015625)"/>
        <path id="DejaVuSans-2e" d="M 684 794 
L 1344 794 
L 1344 0 
L 684 0 
L 684 794 
z
" transform="scale(0.015625)"/>
       </defs>
       <use xlink:href="#DejaVuSans-2212"/>
       <use xlink:href="#DejaVuSans-30" x="83.789062"/>
       <use xlink:href="#DejaVuSans-2e" x="147.412109"/>
       <use xlink:href="#DejaVuSans-33" x="179.199219"/>
      </g>
     </g>
    </g>
    <g id="ytick_2">
     <g id="line2d_7">
      <g>
       <use xlink:href="#mf49311156a" x="56.18" y="149.273333" style="stroke: #000000; stroke-width: 0.8"/>
      </g>
     </g>
     <g id="text_8">
      <!-- −0.2 -->
      <g transform="translate(24.897188 153.072552)scale(0.1 -0.1)">
       <use xlink:href="#DejaVuSans-2212"/>
       <use xlink:href="#DejaVuSans-30" x="83.789062"/>
       <use xlink:href="#DejaVuSans-2e" x="147.412109"/>
       <use xlink:href="#DejaVuSans-32" x="179.199219"/>
      </g>
     </g>
    </g>
    <g id="ytick_3">
     <g id="line2d_8">
      <g>
       <use xlink:href="#mf49311156a" x="56.18" y="124.506667" style="stroke: #000000; stroke-width: 0.8"/>
      </g>
     </g>
     <g id="text_9">
      <!-- −0.1 -->
      <g transform="translate(24.897188 128.305885)scale(0.1 -0.1)">
       <use xlink:href="#DejaVuSans-2212"/>
       <use xlink:href="#DejaVuSans-30" x="83.789062"/>
       <use xlink:href="#DejaVuSans-2e" x="147.412109"/>
       <use xlink:href="#DejaVuSans-31" x="179.199219"/>
      </g>
     </g>
    </g>
    <g id="ytick_4">
     <g id="line2d_9">
      <g>
       <use xlink:href="#mf49311156a" x="56.18" y="99.74" style="stroke: #000000; stroke-width: 0.8"/>
      </g>
     </g>
     <g id="text_10">
      <!-- 0.0 -->
      <g transform="translate(33.276875 103.539219)scale(0.1 -0.1)">
       <use xlink:href="#DejaVuSans-30"/>
       <use xlink:href="#DejaVuSans-2e" x="63.623047"/>
       <use xlink:href="#DejaVuSans-30" x="95.410156"/>
      </g>
     </g>
    </g>
    <g id="ytick_5">
     <g id="line2d_10">
      <g>
       <use xlink:href="#mf49311156a" x="56.18" y="74.973333" style="stroke: #000000; stroke-width: 0.8"/>
      </g>
     </g>
     <g id="text_11">
      <!-- 0.1 -->
      <g transform="translate(33.276875 78.772552)scale(0.1 -0.1)">
       <use xlink:href="#DejaVuSans-30"/>
       <use xlink:href="#DejaVuSans-2e" x="63.623047"/>
       <use xlink:href="#DejaVuSans-31" x="95.410156"/>
      </g>
     </g>
    </g>
    <g id="ytick_6">
     <g id="line2d_11">
      <g>
       <use xlink:href="#mf49311156a" x="56.18" y="50.206667" style="stroke: #000000; stroke-width: 0.8"/>
      </g>
     </g>
     <g id="text_12">
      <!-- 0.2 -->
      <g transform="translate(33.276875 54.005885)scale(0.1 -0.1)">
       <use xlink:href="#DejaVuSans-30"/>
       <use xlink:href="#DejaVuSans-2e" x="63.623047"/>
       <use xlink:href="#DejaVuSans-32" x="95.410156"/>
      </g>
     </g>
    </g>
    <g id="ytick_7">
     <g id="line2d_12">
      <g>
       <use xlink:href="#mf49311156a" x="56.18" y="25.44" style="stroke: #000000; stroke-width: 0.8"/>
      </g>
     </g>
     <g id="text_13">
      <!-- 0.3 -->
      <g transform="translate(33.276875 29.239219)scale(0.1 -0.1)">
       <use xlink:href="#DejaVuSans-30"/>
       <use xlink:href="#DejaVuSans-2e" x="63.623047"/>
       <use xlink:href="#DejaVuSans-33" x="95.410156"/>
      </g>
     </g>
    </g>
    <g id="text_14">
     <!-- Gaze Position (a.u.) -->
     <g transform="translate(18.8175 148.33375)rotate(-90)scale(0.1 -0.1)">
      <defs>
       <path id="DejaVuSans-47" d="M 3809 666 
L 3809 1919 
L 2778 1919 
L 2778 2438 
L 4434 2438 
L 4434 434 
Q 4069 175 3628 42 
Q 3188 -91 2688 -91 
Q 1594 -91 976 548 
Q 359 1188 359 2328 
Q 359 3472 976 4111 
Q 1594 4750 2688 4750 
Q 3144 4750 3555 4637 
Q 3966 4525 4313 4306 
L 4313 3634 
Q 3963 3931 3569 4081 
Q 3175 4231 2741 4231 
Q 1884 4231 1454 3753 
Q 1025 3275 1025 2328 
Q 1025 1384 1454 906 
Q 1884 428 2741 428 
Q 3075 428 3337 486 
Q 3600 544 3809 666 
z
" transform="scale(0.015625)"/>
       <path id="DejaVuSans-61" d="M 2194 1759 
Q 1497 1759 1228 1600 
Q 959 1441 959 1056 
Q 959 750 1161 570 
Q 1363 391 1709 391 
Q 2188 391 2477 730 
Q 2766 1069 2766 1631 
L 2766 1759 
L 2194 1759 
z
M 3341 1997 
L 3341 0 
L 2766 0 
L 2766 531 
Q 2569 213 2275 61 
Q 1981 -91 1556 -91 
Q 1019 -91 701 211 
Q 384 513 384 1019 
Q 384 1609 779 1909 
Q 1175 2209 1959 2209 
L 2766 2209 
L 2766 2266 
Q 2766 2663 2505 2880 
Q 2244 3097 1772 3097 
Q 1472 3097 1187 3025 
Q 903 2953 641 2809 
L 641 3341 
Q 956 3463 1253 3523 
Q 1550 3584 1831 3584 
Q 2591 3584 2966 3190 
Q 3341 2797 3341 1997 
z
" transform="scale(0.015625)"/>
       <path id="DejaVuSans-7a" d="M 353 3500 
L 3084 3500 
L 3084 2975 
L 922 459 
L 3084 459 
L 3084 0 
L 275 0 
L 275 525 
L 2438 3041 
L 353 3041 
L 353 3500 
z
" transform="scale(0.015625)"/>
       <path id="DejaVuSans-20" transform="scale(0.015625)"/>
       <path id="DejaVuSans-50" d="M 1259 4147 
L 1259 2394 
L 2053 2394 
Q 2494 2394 2734 2622 
Q 2975 2850 2975 3272 
Q 2975 3691 2734 3919 
Q 2494 4147 2053 4147 
L 1259 4147 
z
M 628 4666 
L 2053 4666 
Q 2838 4666 3239 4311 
Q 3641 3956 3641 3272 
Q 3641 2581 3239 2228 
Q 2838 1875 2053 1875 
L 1259 1875 
L 1259 0 
L 628 0 
L 628 4666 
z
" transform="scale(0.015625)"/>
       <path id="DejaVuSans-6f" d="M 1959 3097 
Q 1497 3097 1228 2736 
Q 959 2375 959 1747 
Q 959 1119 1226 758 
Q 1494 397 1959 397 
Q 2419 397 2687 759 
Q 2956 1122 2956 1747 
Q 2956 2369 2687 2733 
Q 2419 3097 1959 3097 
z
M 1959 3584 
Q 2709 3584 3137 3096 
Q 3566 2609 3566 1747 
Q 3566 888 3137 398 
Q 2709 -91 1959 -91 
Q 1206 -91 779 398 
Q 353 888 353 1747 
Q 353 2609 779 3096 
Q 1206 3584 1959 3584 
z
" transform="scale(0.015625)"/>
       <path id="DejaVuSans-73" d="M 2834 3397 
L 2834 2853 
Q 2591 2978 2328 3040 
Q 2066 3103 1784 3103 
Q 1356 3103 1142 2972 
Q 928 2841 928 2578 
Q 928 2378 1081 2264 
Q 1234 2150 1697 2047 
L 1894 2003 
Q 2506 1872 2764 1633 
Q 3022 1394 3022 966 
Q 3022 478 2636 193 
Q 2250 -91 1575 -91 
Q 1294 -91 989 -36 
Q 684 19 347 128 
L 347 722 
Q 666 556 975 473 
Q 1284 391 1588 391 
Q 1994 391 2212 530 
Q 2431 669 2431 922 
Q 2431 1156 2273 1281 
Q 2116 1406 1581 1522 
L 1381 1569 
Q 847 1681 609 1914 
Q 372 2147 372 2553 
Q 372 3047 722 3315 
Q 1072 3584 1716 3584 
Q 2034 3584 2315 3537 
Q 2597 3491 2834 3397 
z
" transform="scale(0.015625)"/>
       <path id="DejaVuSans-69" d="M 603 3500 
L 1178 3500 
L 1178 0 
L 603 0 
L 603 3500 
z
M 603 4863 
L 1178 4863 
L 1178 4134 
L 603 4134 
L 603 4863 
z
" transform="scale(0.015625)"/>
       <path id="DejaVuSans-6e" d="M 3513 2113 
L 3513 0 
L 2938 0 
L 2938 2094 
Q 2938 2591 2744 2837 
Q 2550 3084 2163 3084 
Q 1697 3084 1428 2787 
Q 1159 2491 1159 1978 
L 1159 0 
L 581 0 
L 581 3500 
L 1159 3500 
L 1159 2956 
Q 1366 3272 1645 3428 
Q 1925 3584 2291 3584 
Q 2894 3584 3203 3211 
Q 3513 2838 3513 2113 
z
" transform="scale(0.015625)"/>
       <path id="DejaVuSans-28" d="M 1984 4856 
Q 1566 4138 1362 3434 
Q 1159 2731 1159 2009 
Q 1159 1288 1364 580 
Q 1569 -128 1984 -844 
L 1484 -844 
Q 1016 -109 783 600 
Q 550 1309 550 2009 
Q 550 2706 781 3412 
Q 1013 4119 1484 4856 
L 1984 4856 
z
" transform="scale(0.015625)"/>
       <path id="DejaVuSans-75" d="M 544 1381 
L 544 3500 
L 1119 3500 
L 1119 1403 
Q 1119 906 1312 657 
Q 1506 409 1894 409 
Q 2359 409 2629 706 
Q 2900 1003 2900 1516 
L 2900 3500 
L 3475 3500 
L 3475 0 
L 2900 0 
L 2900 538 
Q 2691 219 2414 64 
Q 2138 -91 1772 -91 
Q 1169 -91 856 284 
Q 544 659 544 1381 
z
M 1991 3584 
L 1991 3584 
z
" transform="scale(0.015625)"/>
       <path id="DejaVuSans-29" d="M 513 4856 
L 1013 4856 
Q 1481 4119 1714 3412 
Q 1947 2706 1947 2009 
Q 1947 1309 1714 600 
Q 1481 -109 1013 -844 
L 513 -844 
Q 928 -128 1133 580 
Q 1338 1288 1338 2009 
Q 1338 2731 1133 3434 
Q 928 4138 513 4856 
z
" transform="scale(0.015625)"/>
      </defs>
      <use xlink:href="#DejaVuSans-47"/>
      <use xlink:href="#DejaVuSans-61" x="77.490234"/>
      <use xlink:href="#DejaVuSans-7a" x="138.769531"/>
      <use xlink:href="#DejaVuSans-65" x="191.259766"/>
      <use xlink:href="#DejaVuSans-20" x="252.783203"/>
      <use xlink:href="#DejaVuSans-50" x="284.570312"/>
      <use xlink:href="#DejaVuSans-6f" x="341.248047"/>
      <use xlink:href="#DejaVuSans-73" x="402.429688"/>
      <use xlink:href="#DejaVuSans-69" x="454.529297"/>
      <use xlink:href="#DejaVuSans-74" x="482.3125"/>
      <use xlink:href="#DejaVuSans-69" x="521.521484"/>
      <use xlink:href="#DejaVuSans-6f" x="549.304688"/>
      <use xlink:href="#DejaVuSans-6e" x="610.486328"/>
      <use xlink:href="#DejaVuSans-20" x="673.865234"/>
      <use xlink:href="#DejaVuSans-28" x="705.652344"/>
      <use xlink:href="#DejaVuSans-61" x="744.666016"/>
      <use xlink:href="#DejaVuSans-2e" x="805.945312"/>
      <use xlink:href="#DejaVuSans-75" x="837.732422"/>
      <use xlink:href="#DejaVuSans-2e" x="901.111328"/>
      <use xlink:href="#DejaVuSans-29" x="932.898438"/>
     </g>
    </g>
   </g>
   <g id="line2d_13">
    <path d="M 66.226364 97.568386 
L 66.688265 92.80571 
L 67.150167 105.658953 
L 67.612069 99.566736 
L 68.073971 97.339725 
L 68.997774 102.962498 
L 69.459676 107.270889 
L 69.921578 94.258866 
L 70.38348 100.739989 
L 70.845381 101.125602 
L 71.307283 100.342112 
L 71.769185 105.574552 
L 72.231087 102.824262 
L 72.692989 104.324217 
L 73.15489 100.228834 
L 73.616792 98.772226 
L 74.078694 99.256836 
L 74.540596 98.597908 
L 75.002497 104.411789 
L 75.464399 96.76177 
L 75.926301 94.315332 
L 76.388203 97.586789 
L 76.850104 97.388462 
L 77.312006 100.886476 
L 77.773908 99.656725 
L 78.23581 101.809081 
L 78.697712 94.868985 
L 79.159613 100.979542 
L 79.621515 95.947009 
L 80.083417 99.296593 
L 80.545319 97.781906 
L 81.469122 105.639616 
L 81.931024 99.955811 
L 82.392926 100.216993 
L 82.854828 99.621453 
L 83.316729 103.684848 
L 83.778631 102.704048 
L 84.240533 98.044803 
L 84.702435 99.524439 
L 85.164336 104.418607 
L 85.626238 92.345839 
L 86.08814 99.726739 
L 86.550042 104.34911 
L 87.011944 97.384987 
L 87.473845 100.403368 
L 87.935747 92.451677 
L 88.397649 96.353191 
L 89.321452 106.05862 
L 89.783354 102.494081 
L 90.245256 94.306348 
L 90.707158 97.890297 
L 91.16906 96.921076 
L 91.630961 99.811758 
L 92.092863 97.539492 
L 92.554765 103.320359 
L 93.016667 99.845342 
L 93.478568 100.133939 
L 93.94047 98.100836 
L 94.402372 90.388077 
L 94.864274 95.457244 
L 95.326176 104.401022 
L 96.249979 98.895607 
L 96.711881 105.320657 
L 97.173783 107.465389 
L 97.635684 111.745422 
L 98.097586 107.92148 
L 98.559488 106.221168 
L 99.02139 103.552637 
L 99.483292 111.405492 
L 99.945193 107.07549 
L 100.407095 97.672331 
L 100.868997 100.965036 
L 101.330899 83.285715 
L 101.7928 88.779887 
L 102.716604 79.006868 
L 103.178506 85.605333 
L 103.640408 72.088182 
L 104.102309 77.492551 
L 104.564211 88.64052 
L 105.026113 120.981636 
L 105.488015 118.063634 
L 105.949916 123.424091 
L 106.411818 120.241037 
L 106.87372 112.820784 
L 107.335622 113.737766 
L 107.797524 109.23822 
L 108.259425 100.560224 
L 108.721327 102.264784 
L 109.183229 100.378664 
L 109.645131 99.31183 
L 110.107032 101.673975 
L 110.568934 93.686856 
L 111.030836 93.058468 
L 111.492738 94.085883 
L 111.954639 99.810572 
L 112.416541 90.10608 
L 112.878443 95.093655 
L 113.340345 98.749895 
L 113.802247 89.755439 
L 114.264148 91.860376 
L 114.72605 97.979404 
L 115.187952 98.473429 
L 115.649854 103.774071 
L 116.111755 99.911298 
L 116.573657 108.051424 
L 117.497461 102.043014 
L 117.959363 102.113523 
L 118.421264 101.542737 
L 118.883166 98.263277 
L 119.345068 100.157114 
L 119.80697 96.478058 
L 120.268871 100.119799 
L 120.730773 92.426351 
L 121.192675 100.227985 
L 121.654577 101.418766 
L 122.116479 99.670026 
L 122.57838 103.832289 
L 123.040282 97.209889 
L 123.502184 104.723334 
L 123.964086 99.069759 
L 124.425987 103.017012 
L 124.887889 104.673001 
L 125.349791 103.631534 
L 125.811693 100.552746 
L 126.273595 92.935747 
L 126.735496 98.516691 
L 127.197398 107.699431 
L 127.6593 100.401666 
L 128.121202 97.087274 
L 128.583103 96.422869 
L 129.045005 94.632291 
L 129.506907 90.021723 
L 129.968809 96.551331 
L 130.430711 95.024231 
L 130.892612 97.019097 
L 131.354514 104.233691 
L 131.816416 108.663699 
L 132.278318 102.603197 
L 132.740219 108.351207 
L 133.202121 97.907424 
L 133.664023 93.574169 
L 134.125925 100.98612 
L 134.587827 99.05868 
L 135.049728 99.504191 
L 135.51163 102.253172 
L 135.973532 102.656188 
L 136.435434 95.114783 
L 137.359237 103.333801 
L 137.821139 101.425032 
L 138.283041 97.061407 
L 138.744943 99.776693 
L 139.206844 103.157598 
L 139.668746 104.542842 
L 140.130648 101.928409 
L 140.59255 97.420251 
L 141.054451 95.447796 
L 141.516353 96.216508 
L 141.978255 95.707707 
L 142.440157 96.153531 
L 142.902059 100.680052 
L 143.36396 97.41271 
L 143.825862 100.965976 
L 144.287764 100.713514 
L 144.749666 98.944801 
L 145.211567 100.923741 
L 145.673469 107.208715 
L 146.135371 104.481729 
L 146.597273 90.853199 
L 147.521076 101.052396 
L 147.982978 101.250545 
L 148.44488 105.378484 
L 148.906782 99.434334 
L 149.368683 96.737596 
L 149.830585 102.385766 
L 150.754389 97.414798 
L 151.21629 103.697444 
L 151.678192 97.662663 
L 152.140094 94.213678 
L 152.601996 108.905335 
L 153.063898 101.40238 
L 153.525799 103.511227 
L 153.987701 96.14914 
L 154.449603 100.588836 
L 154.911505 100.433283 
L 155.373406 100.476715 
L 155.835308 98.733526 
L 156.29721 99.471927 
L 156.759112 89.232079 
L 157.221014 92.941458 
L 157.682915 93.760174 
L 158.144817 98.656096 
L 158.606719 97.999717 
L 159.068621 97.876634 
L 160.454326 110.927199 
L 160.916228 108.472548 
L 161.37813 98.767882 
L 161.840031 102.55963 
L 162.301933 109.227961 
L 162.763835 98.923909 
L 163.225737 98.527178 
L 163.687638 98.664598 
L 164.14954 94.187836 
L 164.611442 99.649739 
L 165.073344 90.253508 
L 165.997147 101.564225 
L 166.459049 98.138821 
L 166.920951 90.880699 
L 167.382853 98.0745 
L 167.844754 99.960667 
L 168.306656 103.207026 
L 168.768558 101.260111 
L 169.23046 106.435901 
L 169.692362 99.787901 
L 170.616165 100.425 
L 171.078067 100.995888 
L 171.539969 100.667029 
L 172.00187 106.671261 
L 172.463772 101.711225 
L 172.925674 102.601796 
L 173.387576 97.998111 
L 173.849478 101.201138 
L 174.311379 102.356617 
L 174.773281 92.268082 
L 175.235183 98.943544 
L 175.697085 95.693616 
L 176.158986 99.581542 
L 176.620888 99.997856 
L 177.08279 99.909053 
L 177.544692 90.56168 
L 178.006594 97.609313 
L 178.468495 95.584594 
L 178.930397 100.628945 
L 179.854201 105.329055 
L 180.316102 104.850392 
L 180.778004 100.933452 
L 181.239906 95.095934 
L 182.16371 99.627962 
L 182.625611 103.928826 
L 183.087513 98.156097 
L 183.549415 100.436127 
L 184.011317 105.318042 
L 184.473218 100.857347 
L 184.93512 102.493945 
L 185.397022 101.789147 
L 185.858924 99.766892 
L 186.320825 94.113128 
L 186.782727 95.964444 
L 187.244629 101.986598 
L 187.706531 101.993986 
L 188.168433 97.943108 
L 188.630334 100.658256 
L 189.092236 98.752975 
L 189.554138 95.127388 
L 190.01604 94.762575 
L 190.477941 96.862904 
L 190.939843 104.561049 
L 191.401745 100.508412 
L 191.863647 93.552355 
L 192.78745 108.872832 
L 193.249352 102.468298 
L 193.711254 100.272371 
L 194.173156 97.324513 
L 194.635057 104.858519 
L 195.096959 98.513132 
L 195.558861 100.183631 
L 196.482665 98.078028 
L 196.944566 104.059177 
L 197.406468 100.366493 
L 197.86837 94.031338 
L 198.330272 101.790217 
L 198.792173 94.311153 
L 199.254075 95.837848 
L 199.715977 98.532847 
L 200.177879 103.728117 
L 200.639781 99.541203 
L 201.101682 96.474626 
L 201.563584 98.482766 
L 202.025486 103.26982 
L 202.487388 97.941613 
L 202.949289 102.286314 
L 203.411191 99.655544 
L 203.873093 97.747479 
L 204.334995 104.554794 
L 204.796897 102.287598 
L 205.258798 103.039018 
L 205.7207 100.441534 
L 206.182602 99.256654 
L 206.644504 94.358793 
L 207.106405 96.39388 
L 207.568307 101.954786 
L 208.030209 96.200465 
L 208.492111 106.852142 
L 208.954013 100.60793 
L 209.415914 100.839437 
L 209.877816 96.983452 
L 210.339718 103.24044 
L 210.80162 96.84478 
L 211.263521 105.21311 
L 211.725423 101.118367 
L 212.187325 92.100493 
L 212.649227 99.449312 
L 213.111129 101.78258 
L 213.57303 102.660525 
L 214.034932 96.898014 
L 214.496834 96.991978 
L 214.958736 94.729997 
L 215.420637 99.640427 
L 215.882539 98.816597 
L 216.344441 98.81789 
L 216.806343 99.004523 
L 217.268245 100.762648 
L 217.730146 91.492406 
L 218.192048 102.342806 
L 218.65395 107.502167 
L 219.115852 100.083023 
L 219.577753 100.998336 
L 220.501557 107.480001 
L 220.963459 103.370091 
L 221.425361 98.005697 
L 221.887262 98.656636 
L 222.349164 100.327282 
L 222.811066 92.840517 
L 223.272968 100.304852 
L 223.734869 100.573684 
L 224.196771 95.785586 
L 224.658673 96.650209 
L 225.120575 102.387099 
L 225.582476 92.569787 
L 226.044378 102.55128 
L 226.968182 99.967422 
L 227.430084 101.31848 
L 228.353887 103.385421 
L 228.815789 100.819494 
L 229.277691 92.537876 
L 229.739592 98.184552 
L 230.201494 95.854006 
L 230.663396 99.001967 
L 231.125298 104.715092 
L 231.5872 98.530566 
L 232.511003 107.461254 
L 232.972905 94.427111 
L 233.434807 96.721258 
L 233.896708 100.298508 
L 234.35861 98.256817 
L 234.820512 97.563959 
L 235.282414 105.66302 
L 235.744316 95.526611 
L 236.206217 101.503282 
L 236.668119 105.612425 
L 237.130021 100.765175 
L 237.591923 102.553765 
L 238.053824 94.303028 
L 238.977628 95.03568 
L 239.43953 102.809907 
L 239.901432 107.592598 
L 240.363333 94.192881 
L 240.825235 99.448359 
L 241.287137 97.692924 
L 241.749039 97.845776 
L 242.21094 107.696576 
L 242.672842 97.532876 
L 243.134744 105.80375 
L 243.596646 99.644911 
L 244.058548 102.507309 
L 244.982351 100.706644 
L 245.444253 91.999121 
L 245.906155 99.758383 
L 246.368056 93.395025 
L 246.829958 93.273786 
L 247.29186 92.617694 
L 247.753762 99.829842 
L 248.215664 103.790139 
L 248.677565 97.365581 
L 249.139467 107.595588 
L 249.601369 103.415671 
L 250.063271 101.388327 
L 250.525172 105.394856 
L 250.987074 103.300931 
L 251.448976 104.702566 
L 251.910878 99.964564 
L 252.37278 104.69505 
L 252.834681 92.408977 
L 253.296583 103.538867 
L 253.758485 92.309929 
L 254.220387 95.700264 
L 254.682288 101.09551 
L 255.14419 93.260511 
L 255.606092 102.266258 
L 256.067994 95.611498 
L 256.529896 96.995988 
L 256.991797 96.480939 
L 257.453699 103.475585 
L 257.915601 96.965072 
L 258.377503 101.299403 
L 258.839404 101.295224 
L 259.301306 101.05653 
L 259.763208 100.04142 
L 260.687011 104.336958 
L 261.148913 96.823857 
L 261.610815 104.736308 
L 262.072717 99.303404 
L 262.534619 102.172442 
L 262.99652 103.677219 
L 263.458422 97.484081 
L 263.920324 101.483781 
L 264.382226 102.436496 
L 264.844127 97.161882 
L 265.306029 97.657144 
L 265.767931 97.64862 
L 266.229833 93.067126 
L 266.691735 97.104023 
L 267.153636 89.568295 
L 267.153636 89.568295 
" clip-path="url(#paf3c0a1a25)" style="fill: none; stroke: #1f77b4; stroke-linecap: square"/>
   </g>
   <g id="line2d_14">
    <path d="M 66.226364 100.389237 
L 66.688265 97.226074 
L 67.150167 105.160437 
L 67.612069 96.557206 
L 68.073971 99.658243 
L 68.535873 100.09781 
L 68.997774 101.221471 
L 69.459676 105.00839 
L 69.921578 95.654812 
L 70.38348 97.296513 
L 70.845381 101.313627 
L 71.307283 101.411678 
L 71.769185 97.929705 
L 72.231087 99.344352 
L 72.692989 97.723285 
L 73.15489 96.55332 
L 73.616792 103.90366 
L 74.078694 98.167648 
L 74.540596 104.376698 
L 75.002497 101.880514 
L 75.464399 97.249866 
L 75.926301 96.847532 
L 76.388203 94.183129 
L 76.850104 100.062168 
L 77.312006 100.612232 
L 77.773908 106.369431 
L 78.23581 97.158494 
L 78.697712 96.991889 
L 79.159613 98.895223 
L 79.621515 99.999234 
L 80.083417 102.76739 
L 80.545319 102.480491 
L 81.00722 99.753889 
L 81.469122 99.647693 
L 81.931024 103.117544 
L 82.392926 102.158254 
L 82.854828 100.118567 
L 83.316729 100.277878 
L 83.778631 98.392538 
L 84.240533 95.143703 
L 84.702435 97.090206 
L 85.164336 101.495718 
L 85.626238 97.689812 
L 86.08814 100.782292 
L 86.550042 96.891042 
L 87.011944 91.624509 
L 87.473845 101.179821 
L 87.935747 100.334362 
L 88.397649 104.54089 
L 88.859551 102.857062 
L 89.321452 103.424244 
L 89.783354 97.011813 
L 90.245256 97.776675 
L 90.707158 100.865788 
L 91.16906 100.673999 
L 91.630961 100.963669 
L 92.092863 104.130177 
L 92.554765 99.710046 
L 93.016667 99.672925 
L 93.478568 101.488372 
L 93.94047 93.943781 
L 94.402372 98.915022 
L 94.864274 102.252525 
L 95.326176 97.184118 
L 95.788077 97.6577 
L 96.249979 97.450163 
L 96.711881 94.919946 
L 97.173783 105.174978 
L 97.635684 102.914629 
L 98.097586 99.762884 
L 98.559488 94.557322 
L 99.483292 102.994279 
L 99.945193 101.867361 
L 100.407095 101.551134 
L 100.868997 102.112747 
L 101.330899 103.346161 
L 102.254702 95.243939 
L 102.716604 101.01676 
L 103.178506 102.059362 
L 103.640408 98.780844 
L 104.564211 95.471017 
L 105.026113 99.406424 
L 105.488015 101.489419 
L 105.949916 97.550307 
L 106.411818 101.403624 
L 106.87372 100.539644 
L 107.335622 95.646015 
L 107.797524 101.766858 
L 108.259425 99.009 
L 108.721327 100.367195 
L 109.183229 100.852407 
L 109.645131 100.603751 
L 110.107032 99.828526 
L 110.568934 100.579937 
L 111.030836 102.380735 
L 111.492738 102.359052 
L 111.954639 100.651953 
L 112.416541 102.320251 
L 112.878443 92.868051 
L 113.340345 101.417777 
L 113.802247 101.511951 
L 114.264148 95.335947 
L 114.72605 101.483645 
L 115.187952 96.29824 
L 115.649854 93.998911 
L 116.111755 99.297484 
L 116.573657 101.256744 
L 117.035559 99.462533 
L 117.497461 102.253944 
L 117.959363 99.031165 
L 118.421264 100.252472 
L 118.883166 104.275429 
L 119.345068 103.84958 
L 119.80697 101.708097 
L 120.268871 97.850174 
L 120.730773 99.791964 
L 121.192675 99.739704 
L 121.654577 95.3689 
L 122.116479 97.679897 
L 122.57838 101.547724 
L 123.040282 96.787821 
L 123.502184 103.288205 
L 123.964086 98.63114 
L 124.425987 97.717829 
L 124.887889 101.505024 
L 125.349791 100.35792 
L 125.811693 100.087646 
L 126.273595 95.708142 
L 126.735496 98.837441 
L 127.197398 104.902975 
L 127.6593 99.619941 
L 128.121202 98.98695 
L 128.583103 99.725346 
L 129.045005 102.180258 
L 129.506907 96.786812 
L 130.430711 100.735245 
L 130.892612 99.285124 
L 131.354514 104.006571 
L 131.816416 100.821398 
L 132.278318 102.238884 
L 132.740219 98.759783 
L 133.202121 98.653289 
L 133.664023 94.267251 
L 134.587827 99.223476 
L 135.049728 99.887593 
L 135.51163 96.060271 
L 135.973532 99.214255 
L 136.435434 103.746317 
L 136.897335 105.073891 
L 137.359237 104.148511 
L 138.283041 95.115855 
L 138.744943 101.204854 
L 139.206844 102.087258 
L 139.668746 101.445606 
L 140.130648 95.793648 
L 140.59255 95.712065 
L 141.054451 101.948271 
L 141.516353 98.315202 
L 141.978255 103.523289 
L 142.440157 99.540647 
L 142.902059 97.022838 
L 143.36396 99.997802 
L 143.825862 101.776225 
L 144.287764 96.350917 
L 144.749666 102.708944 
L 145.673469 95.685221 
L 146.135371 94.537299 
L 146.597273 97.133586 
L 147.059175 102.731399 
L 147.521076 104.711615 
L 147.982978 103.897328 
L 148.44488 103.436567 
L 148.906782 103.402311 
L 149.368683 95.193425 
L 149.830585 98.959176 
L 150.292487 96.947636 
L 150.754389 98.310445 
L 151.21629 101.478666 
L 151.678192 101.534603 
L 152.140094 92.470027 
L 152.601996 102.072989 
L 153.063898 98.385716 
L 153.525799 103.668637 
L 153.987701 99.135495 
L 154.449603 100.970687 
L 154.911505 106.713229 
L 155.373406 97.231622 
L 155.835308 100.663512 
L 156.29721 100.204497 
L 156.759112 90.460832 
L 157.221014 101.529562 
L 157.682915 97.298133 
L 158.144817 98.51694 
L 158.606719 94.465156 
L 159.068621 101.386562 
L 159.530522 101.871908 
L 159.992424 101.994671 
L 160.454326 102.640935 
L 160.916228 101.760443 
L 161.37813 98.669636 
L 161.840031 99.034213 
L 162.301933 104.287965 
L 162.763835 100.772512 
L 163.225737 104.535991 
L 163.687638 97.072126 
L 164.14954 97.023027 
L 164.611442 97.151689 
L 165.073344 103.673395 
L 165.535246 93.23941 
L 165.997147 102.514164 
L 166.459049 95.932114 
L 166.920951 97.733836 
L 167.382853 97.751021 
L 167.844754 98.036333 
L 168.306656 105.425378 
L 168.768558 98.544425 
L 169.23046 99.324259 
L 169.692362 102.237866 
L 170.154263 101.07475 
L 170.616165 101.235682 
L 171.078067 102.041906 
L 171.539969 97.827886 
L 172.00187 101.163577 
L 172.463772 93.816754 
L 172.925674 103.991744 
L 173.849478 97.481587 
L 174.311379 97.935687 
L 174.773281 99.788066 
L 175.235183 99.551385 
L 175.697085 98.176522 
L 176.158986 99.959564 
L 176.620888 99.567199 
L 177.08279 101.704468 
L 177.544692 102.129572 
L 178.006594 103.976917 
L 178.468495 95.902321 
L 178.930397 99.204313 
L 179.392299 100.630176 
L 179.854201 99.763847 
L 180.316102 100.151539 
L 180.778004 99.46804 
L 181.239906 95.253924 
L 181.701808 95.768389 
L 182.16371 106.477897 
L 182.625611 101.70429 
L 183.087513 100.029888 
L 183.549415 94.835239 
L 184.011317 104.357488 
L 184.93512 97.724966 
L 185.397022 97.363614 
L 185.858924 93.795076 
L 186.320825 100.821456 
L 186.782727 99.878854 
L 187.244629 99.78574 
L 187.706531 99.184315 
L 188.168433 105.256083 
L 188.630334 102.974846 
L 189.092236 95.969238 
L 189.554138 101.933736 
L 190.01604 97.781022 
L 190.477941 100.998514 
L 190.939843 102.088941 
L 191.401745 99.818244 
L 191.863647 95.958788 
L 192.325549 97.87892 
L 192.78745 103.455023 
L 193.249352 105.778795 
L 193.711254 97.597849 
L 194.173156 96.93847 
L 194.635057 97.572964 
L 195.096959 97.648076 
L 195.558861 103.437875 
L 196.020763 98.269696 
L 196.482665 96.75273 
L 196.944566 102.908617 
L 197.406468 103.417674 
L 197.86837 95.887449 
L 198.330272 99.094401 
L 198.792173 100.203412 
L 199.254075 97.304572 
L 199.715977 98.117052 
L 200.177879 103.056952 
L 200.639781 103.252833 
L 201.101682 95.366385 
L 201.563584 92.99511 
L 202.025486 105.432016 
L 202.487388 101.137133 
L 202.949289 102.6566 
L 203.411191 97.293483 
L 203.873093 100.284092 
L 204.334995 100.093112 
L 204.796897 96.178975 
L 205.258798 103.705432 
L 205.7207 101.638952 
L 206.182602 97.152469 
L 206.644504 100.76134 
L 207.106405 102.629671 
L 207.568307 97.425883 
L 208.030209 97.643974 
L 208.492111 104.371848 
L 208.954013 94.792639 
L 209.415914 101.337988 
L 209.877816 98.73653 
L 210.339718 105.899197 
L 210.80162 99.119465 
L 211.263521 103.118417 
L 211.725423 99.451878 
L 212.187325 92.218972 
L 212.649227 102.167213 
L 213.111129 99.464713 
L 213.57303 92.784815 
L 214.034932 95.778891 
L 214.496834 97.18889 
L 215.420637 104.898355 
L 215.882539 101.098935 
L 216.344441 100.444377 
L 216.806343 95.087106 
L 217.268245 100.185739 
L 217.730146 103.115794 
L 218.192048 103.809527 
L 218.65395 105.61484 
L 219.115852 96.990468 
L 219.577753 100.333206 
L 220.039655 99.458946 
L 220.501557 99.553103 
L 220.963459 100.816399 
L 221.425361 98.806232 
L 221.887262 101.163692 
L 222.349164 97.437931 
L 222.811066 98.341044 
L 223.272968 101.615167 
L 223.734869 94.217579 
L 224.658673 106.025117 
L 225.120575 100.784536 
L 225.582476 89.713399 
L 226.044378 97.848043 
L 226.50628 93.87206 
L 226.968182 101.261274 
L 227.430084 105.621091 
L 227.891985 98.005732 
L 228.353887 101.020928 
L 228.815789 102.996886 
L 229.277691 101.684437 
L 229.739592 96.202586 
L 230.201494 100.209472 
L 230.663396 98.964355 
L 231.125298 105.991704 
L 231.5872 99.57715 
L 232.049101 101.442545 
L 232.511003 104.693359 
L 232.972905 98.744655 
L 233.434807 94.73251 
L 233.896708 95.931645 
L 234.35861 99.817804 
L 234.820512 105.027922 
L 235.282414 97.558869 
L 235.744316 97.695093 
L 236.206217 94.442635 
L 236.668119 103.982183 
L 237.130021 102.34716 
L 238.053824 94.850468 
L 238.515726 96.361623 
L 238.977628 96.532319 
L 239.43953 104.785431 
L 239.901432 100.360776 
L 240.363333 100.399356 
L 240.825235 104.14861 
L 241.287137 96.720989 
L 241.749039 104.060997 
L 242.21094 100.152159 
L 242.672842 100.55973 
L 243.134744 104.051037 
L 243.596646 99.765634 
L 244.058548 99.102129 
L 244.520449 98.778366 
L 244.982351 99.472105 
L 245.444253 97.698007 
L 245.906155 100.13956 
L 246.368056 93.622669 
L 246.829958 94.24591 
L 247.29186 101.733513 
L 248.215664 101.331521 
L 248.677565 100.875801 
L 249.139467 101.204569 
L 249.601369 101.021186 
L 250.063271 97.87013 
L 250.525172 100.282434 
L 250.987074 97.820495 
L 251.448976 102.701647 
L 251.910878 103.806573 
L 252.834681 96.612692 
L 253.296583 101.015543 
L 253.758485 101.045482 
L 254.220387 93.978484 
L 254.682288 99.263332 
L 255.14419 97.460426 
L 255.606092 99.422026 
L 256.067994 98.669422 
L 256.529896 103.668414 
L 256.991797 98.996161 
L 257.453699 104.858588 
L 257.915601 97.230522 
L 258.377503 96.862522 
L 258.839404 103.753777 
L 259.301306 100.295249 
L 259.763208 104.027442 
L 260.22511 96.247372 
L 260.687011 101.726173 
L 261.148913 98.078798 
L 261.610815 97.858935 
L 262.072717 98.470631 
L 262.534619 101.890513 
L 262.99652 102.110984 
L 263.458422 91.900083 
L 263.920324 103.658404 
L 264.382226 96.656531 
L 264.844127 100.571095 
L 265.306029 101.482394 
L 265.767931 101.640139 
L 266.229833 98.041448 
L 266.691735 97.84897 
L 267.153636 96.559148 
L 267.153636 96.559148 
" clip-path="url(#paf3c0a1a25)" style="fill: none; stroke: #ff7f0e; stroke-linecap: square"/>
   </g>
   <g id="line2d_15">
    <path d="M 66.226364 102.138318 
L 66.688265 98.549331 
L 67.150167 104.024414 
L 67.612069 97.709261 
L 68.535873 100.73399 
L 68.997774 100.620268 
L 69.459676 100.817098 
L 69.921578 95.402659 
L 70.38348 101.900374 
L 70.845381 99.836403 
L 71.307283 99.478837 
L 71.769185 101.484146 
L 72.231087 99.052428 
L 72.692989 100.239985 
L 73.15489 98.374873 
L 73.616792 99.375848 
L 74.078694 99.901537 
L 74.540596 99.520357 
L 75.002497 101.19347 
L 75.464399 97.189994 
L 76.388203 100.557864 
L 76.850104 99.673891 
L 77.312006 100.614504 
L 77.773908 99.330083 
L 78.23581 100.457452 
L 78.697712 98.004976 
L 79.159613 101.776852 
L 79.621515 98.062489 
L 80.083417 100.577396 
L 80.545319 99.235104 
L 81.00722 100.990688 
L 81.469122 100.766411 
L 81.931024 97.845398 
L 82.392926 99.827061 
L 82.854828 99.591115 
L 83.316729 101.094465 
L 83.778631 99.413067 
L 84.240533 98.575189 
L 84.702435 100.233212 
L 85.164336 101.371389 
L 85.626238 96.721808 
L 86.08814 102.2003 
L 86.550042 101.28079 
L 87.011944 97.998969 
L 87.473845 100.746127 
L 87.935747 97.089437 
L 88.397649 100.715379 
L 88.859551 101.497948 
L 89.321452 100.847896 
L 89.783354 98.55182 
L 90.245256 97.010756 
L 90.707158 100.635987 
L 91.16906 99.416926 
L 91.630961 100.703561 
L 92.092863 99.171933 
L 92.554765 101.666956 
L 93.016667 98.581661 
L 93.478568 99.812149 
L 93.94047 99.062299 
L 94.402372 97.16908 
L 94.864274 101.007292 
L 95.326176 102.72126 
L 95.788077 98.919098 
L 96.249979 98.979323 
L 96.711881 101.881684 
L 97.173783 100.45491 
L 97.635684 100.810008 
L 98.097586 98.465353 
L 98.559488 99.17323 
L 99.02139 99.072867 
L 99.483292 102.357618 
L 99.945193 98.296666 
L 100.407095 97.38921 
L 100.868997 100.837568 
L 101.330899 95.32017 
L 101.7928 101.571391 
L 102.254702 98.083641 
L 102.716604 98.539014 
L 103.178506 101.939489 
L 103.640408 95.234283 
L 104.102309 101.091092 
L 104.564211 103.45599 
L 105.026113 110.520372 
L 105.488015 99.010499 
L 105.949916 101.526819 
L 106.411818 98.678982 
L 106.87372 97.884936 
L 107.335622 100.045661 
L 107.797524 98.240151 
L 108.259425 97.570501 
L 108.721327 100.308186 
L 109.183229 99.111294 
L 109.645131 99.473291 
L 110.107032 100.527382 
L 110.568934 97.077627 
L 111.030836 99.582903 
L 111.492738 100.082472 
L 111.954639 101.64823 
L 112.416541 97.313877 
L 112.878443 101.402525 
L 113.340345 100.65406 
L 113.802247 96.741848 
L 114.264148 100.441646 
L 114.72605 101.269757 
L 115.187952 99.904675 
L 115.649854 101.506881 
L 116.111755 98.774307 
L 116.573657 102.453375 
L 117.035559 98.807017 
L 117.497461 98.937635 
L 117.959363 99.763503 
L 118.421264 99.549738 
L 118.883166 98.920135 
L 119.345068 100.371279 
L 119.80697 98.513648 
L 120.268871 100.650435 
L 120.730773 97.175517 
L 121.192675 102.340544 
L 121.654577 100.037695 
L 122.116479 99.157087 
L 122.57838 101.127421 
L 123.040282 98.0844 
L 123.502184 102.244482 
L 123.964086 97.855475 
L 124.425987 100.726813 
L 124.887889 100.291996 
L 125.349791 99.392844 
L 125.811693 98.970303 
L 126.273595 97.201 
L 126.735496 101.135236 
L 127.197398 102.800913 
L 127.6593 97.307412 
L 128.121202 98.911402 
L 128.583103 99.518532 
L 129.045005 99.143141 
L 129.506907 98.587358 
L 129.968809 101.916536 
L 130.430711 99.230967 
L 130.892612 100.238716 
L 131.354514 102.144865 
L 131.816416 101.216669 
L 132.278318 98.224875 
L 132.740219 101.656003 
L 133.202121 96.258739 
L 133.664023 98.656686 
L 134.125925 102.21065 
L 134.587827 99.09752 
L 135.51163 100.656327 
L 135.973532 99.874339 
L 136.435434 97.854649 
L 136.897335 101.064858 
L 137.359237 101.154814 
L 137.821139 99.262808 
L 138.283041 98.285458 
L 138.744943 100.418821 
L 139.206844 100.866968 
L 139.668746 100.201748 
L 140.59255 98.237281 
L 141.516353 99.932178 
L 141.978255 99.5704 
L 142.440157 99.888608 
L 142.902059 100.87163 
L 143.36396 98.650886 
L 143.825862 100.924422 
L 144.287764 99.676884 
L 144.749666 99.150429 
L 145.211567 100.399647 
L 145.673469 101.311243 
L 146.135371 98.831005 
L 146.597273 95.197157 
L 147.059175 101.185146 
L 147.521076 101.212871 
L 147.982978 99.80605 
L 148.44488 100.771985 
L 148.906782 97.758617 
L 149.368683 98.841087 
L 149.830585 101.152043 
L 150.292487 98.839634 
L 150.754389 99.172532 
L 151.21629 101.834215 
L 151.678192 97.728406 
L 152.140094 98.877754 
L 152.601996 104.637219 
L 153.063898 97.239015 
L 153.525799 100.267212 
L 153.987701 97.285971 
L 154.449603 101.219899 
L 154.911505 99.701112 
L 155.373406 99.754477 
L 155.835308 99.158937 
L 156.29721 99.9246 
L 156.759112 96.326717 
L 157.221014 100.97646 
L 157.682915 99.944679 
L 158.144817 101.371974 
L 158.606719 99.521207 
L 159.068621 99.709229 
L 159.530522 101.093579 
L 159.992424 100.929104 
L 160.454326 101.095629 
L 161.37813 96.505111 
L 161.840031 100.687937 
L 162.301933 101.962777 
L 162.763835 97.163987 
L 163.225737 99.607756 
L 163.687638 99.785807 
L 164.14954 98.62081 
L 164.611442 101.560634 
L 165.073344 96.607923 
L 165.535246 101.048663 
L 165.997147 101.765355 
L 166.459049 98.598199 
L 166.920951 97.925469 
L 167.382853 102.137934 
L 167.844754 100.368722 
L 168.306656 100.55159 
L 168.768558 99.091028 
L 169.23046 101.465264 
L 169.692362 98.078 
L 170.154263 99.848475 
L 171.078067 99.882722 
L 171.539969 99.63038 
L 172.00187 101.74141 
L 172.463772 98.499991 
L 172.925674 100.036857 
L 173.387576 98.205439 
L 173.849478 100.540757 
L 174.311379 100.12516 
L 174.773281 97.217866 
L 175.235183 101.965154 
L 175.697085 98.656691 
L 176.158986 100.711981 
L 176.620888 99.878771 
L 177.08279 99.710399 
L 177.544692 97.403157 
L 178.006594 102.089211 
L 178.468495 99.065094 
L 178.930397 101.001088 
L 179.392299 100.588975 
L 179.854201 100.457729 
L 180.316102 99.620334 
L 180.778004 98.434353 
L 181.239906 97.794161 
L 181.701808 100.263544 
L 182.16371 100.552618 
L 182.625611 101.173621 
L 183.087513 98.296818 
L 183.549415 100.50001 
L 184.011317 101.367305 
L 184.473218 98.624826 
L 184.93512 100.285533 
L 185.397022 99.505067 
L 185.858924 99.234436 
L 186.320825 97.855412 
L 186.782727 100.357105 
L 187.244629 101.245539 
L 187.706531 99.742463 
L 188.168433 98.72728 
L 188.630334 100.645049 
L 189.092236 99.104906 
L 189.554138 98.833603 
L 190.477941 100.44011 
L 190.939843 101.664536 
L 191.401745 98.389121 
L 191.863647 97.421314 
L 192.325549 101.808132 
L 192.78745 102.089316 
L 193.249352 97.605155 
L 193.711254 99.191018 
L 194.173156 98.757381 
L 194.635057 102.251336 
L 195.096959 98.153653 
L 195.558861 100.296833 
L 196.020763 99.414351 
L 196.482665 99.457836 
L 196.944566 101.733716 
L 197.406468 98.509105 
L 197.86837 98.156211 
L 198.330272 102.326293 
L 198.792173 97.246979 
L 199.254075 100.121674 
L 200.177879 101.038817 
L 200.639781 98.344362 
L 201.101682 98.717808 
L 201.563584 100.242035 
L 202.025486 101.335685 
L 202.487388 97.963931 
L 202.949289 100.826175 
L 203.411191 98.863077 
L 203.873093 99.103979 
L 204.334995 101.441829 
L 204.796897 98.984268 
L 205.258798 99.990473 
L 205.7207 99.090629 
L 206.182602 99.34504 
L 206.644504 98.10738 
L 207.106405 100.248772 
L 207.568307 101.593636 
L 208.030209 97.821893 
L 208.492111 102.402919 
L 208.954013 97.658596 
L 209.415914 99.817169 
L 209.877816 98.776004 
L 210.339718 101.825663 
L 210.80162 97.608113 
L 211.263521 101.832083 
L 211.725423 98.375086 
L 212.187325 97.485532 
L 212.649227 102.189606 
L 213.111129 100.517756 
L 213.57303 99.959486 
L 214.034932 97.819163 
L 214.496834 99.771321 
L 214.958736 99.174505 
L 215.420637 101.37681 
L 215.882539 99.46539 
L 216.344441 99.740323 
L 216.806343 99.802211 
L 217.268245 100.326042 
L 217.730146 97.42244 
L 218.192048 103.3568 
L 218.65395 101.459787 
L 219.115852 97.885214 
L 219.577753 100.045104 
L 220.039655 100.864474 
L 220.501557 100.517061 
L 220.963459 98.37003 
L 221.425361 97.951869 
L 221.887262 99.902735 
L 222.349164 100.296882 
L 222.811066 97.244411 
L 223.272968 101.606084 
L 223.734869 99.829611 
L 224.196771 98.542975 
L 225.120575 101.652297 
L 225.582476 97.285672 
L 226.044378 103.067164 
L 226.50628 99.286169 
L 226.968182 99.434409 
L 227.430084 100.190353 
L 228.353887 100.006266 
L 228.815789 98.884691 
L 229.277691 96.979461 
L 229.739592 101.151669 
L 230.201494 98.963152 
L 230.663396 100.78932 
L 231.125298 101.168281 
L 231.5872 97.678491 
L 232.049101 101.215362 
L 232.511003 100.86615 
L 232.972905 95.395285 
L 233.434807 100.504716 
L 233.896708 100.634312 
L 234.35861 99.059436 
L 234.820512 99.509048 
L 235.282414 101.764765 
L 235.744316 96.361197 
L 236.206217 101.234168 
L 236.668119 101.109714 
L 237.130021 98.12425 
L 237.591923 100.187148 
L 238.053824 96.989754 
L 238.515726 99.851479 
L 238.977628 99.839554 
L 239.43953 102.331409 
L 239.901432 101.334231 
L 240.363333 96.390071 
L 240.825235 101.491826 
L 241.287137 99.154855 
L 241.749039 99.778213 
L 242.21094 103.0236 
L 242.672842 96.3521 
L 243.134744 101.807719 
L 243.596646 97.687054 
L 244.058548 100.694133 
L 244.520449 99.48119 
L 244.982351 99.484858 
L 245.444253 96.837492 
L 245.906155 101.679816 
L 246.368056 97.618881 
L 246.829958 99.699587 
L 247.29186 99.575977 
L 247.753762 102.14405 
L 248.215664 100.730074 
L 248.677565 97.598481 
L 249.139467 103.150002 
L 249.601369 98.695021 
L 250.063271 99.064218 
L 250.525172 101.07551 
L 250.987074 99.216519 
L 251.448976 100.207212 
L 251.910878 98.160666 
L 252.37278 100.922622 
L 252.834681 95.644642 
L 253.296583 103.449964 
L 253.758485 96.932765 
L 254.220387 100.870112 
L 254.682288 101.538416 
L 255.14419 97.78125 
L 255.606092 102.741916 
L 256.067994 97.521746 
L 256.529896 100.086123 
L 256.991797 99.568317 
L 257.453699 102.071549 
L 257.915601 98.112372 
L 258.377503 101.184777 
L 258.839404 99.738607 
L 259.301306 99.680326 
L 259.763208 99.40163 
L 260.22511 100.449687 
L 260.687011 100.281619 
L 261.148913 97.235633 
L 261.610815 101.718113 
L 262.072717 97.929032 
L 262.534619 100.696346 
L 262.99652 100.116194 
L 263.458422 97.67562 
L 263.920324 101.073234 
L 264.382226 99.978179 
L 264.844127 97.981795 
L 265.306029 99.905088 
L 265.767931 99.737869 
L 266.229833 98.212835 
L 266.691735 101.085632 
L 267.153636 97.856068 
L 267.153636 97.856068 
" clip-path="url(#paf3c0a1a25)" style="fill: none; stroke: #a52a2a; stroke-linecap: square"/>
   </g>
   <g id="line2d_16">
    <path d="M 66.226364 99.886661 
L 66.688265 98.949209 
L 67.150167 102.384788 
L 67.612069 96.872256 
L 68.073971 100.515259 
L 68.535873 99.886523 
L 68.997774 100.114554 
L 69.459676 100.68673 
L 69.921578 96.62214 
L 70.38348 100.287234 
L 70.845381 100.744279 
L 71.769185 98.579342 
L 72.231087 100.093662 
L 72.692989 99.199644 
L 73.15489 99.350012 
L 73.616792 101.577585 
L 74.078694 97.827996 
L 74.540596 101.809683 
L 75.002497 99.115954 
L 75.464399 98.196451 
L 75.926301 99.605889 
L 76.388203 99.073899 
L 76.850104 101.69968 
L 77.312006 99.877516 
L 77.773908 101.659066 
L 78.23581 96.669688 
L 78.697712 99.698349 
L 79.159613 100.374445 
L 79.621515 100.108003 
L 80.083417 100.432039 
L 81.00722 98.831133 
L 81.469122 99.713451 
L 81.931024 100.896617 
L 82.392926 99.420237 
L 82.854828 99.230078 
L 83.316729 99.793104 
L 83.778631 99.111554 
L 84.240533 98.927791 
L 84.702435 100.388835 
L 85.164336 101.208504 
L 85.626238 98.788523 
L 86.08814 100.770827 
L 86.550042 98.442917 
L 87.011944 98.423367 
L 87.473845 102.925104 
L 87.935747 99.45818 
L 88.397649 100.791632 
L 88.859551 99.178724 
L 89.321452 99.881795 
L 89.783354 97.602523 
L 90.245256 99.994954 
L 90.707158 100.512278 
L 91.16906 99.67607 
L 91.630961 99.836557 
L 92.092863 100.531627 
L 92.554765 98.266623 
L 93.016667 99.727626 
L 93.478568 100.193862 
L 93.94047 97.225136 
L 94.402372 101.39708 
L 94.864274 100.574376 
L 95.326176 98.050531 
L 95.788077 99.897861 
L 96.249979 99.688116 
L 96.711881 98.896595 
L 97.173783 103.158344 
L 97.635684 99.174913 
L 98.097586 98.689418 
L 98.559488 98.004813 
L 99.02139 100.726961 
L 99.483292 101.236371 
L 99.945193 99.364361 
L 100.868997 99.927204 
L 101.330899 100.048354 
L 101.7928 98.368821 
L 102.254702 98.410438 
L 102.716604 101.183205 
L 103.178506 100.087534 
L 103.640408 98.647161 
L 104.102309 99.344721 
L 104.564211 99.163763 
L 105.026113 101.051802 
L 105.488015 100.260749 
L 105.949916 98.426963 
L 106.411818 101.024439 
L 107.335622 98.10879 
L 107.797524 101.780281 
L 108.259425 99.050536 
L 108.721327 100.192732 
L 109.645131 99.677836 
L 110.107032 99.481592 
L 110.568934 99.99047 
L 111.030836 100.190199 
L 111.954639 99.170967 
L 112.416541 100.157075 
L 112.878443 96.589267 
L 113.340345 101.877432 
L 114.264148 97.681332 
L 114.72605 101.276925 
L 115.187952 98.011531 
L 115.649854 98.973557 
L 116.111755 101.064643 
L 116.573657 100.393087 
L 117.035559 99.14193 
L 117.497461 100.437853 
L 117.959363 98.66574 
L 118.421264 100.147102 
L 118.883166 100.745739 
L 119.345068 99.598051 
L 119.80697 99.026172 
L 120.268871 98.775519 
L 120.730773 100.387263 
L 121.192675 99.72258 
L 121.654577 98.647299 
L 122.116479 100.510332 
L 122.57838 101.029276 
L 123.040282 98.550024 
L 123.502184 101.906795 
L 123.964086 98.187645 
L 124.887889 101.002398 
L 125.349791 99.357632 
L 125.811693 99.672431 
L 126.273595 98.280166 
L 126.735496 100.522325 
L 127.197398 101.761845 
L 127.6593 97.978989 
L 128.121202 99.581752 
L 128.583103 99.986132 
L 129.045005 100.558304 
L 129.506907 98.391638 
L 129.968809 100.383933 
L 130.430711 100.412211 
L 130.892612 99.37747 
L 131.354514 101.313815 
L 131.816416 98.678276 
L 132.278318 100.094372 
L 132.740219 98.580299 
L 133.202121 99.704502 
L 133.664023 98.643491 
L 134.125925 100.56239 
L 134.587827 100.569685 
L 135.049728 99.906029 
L 135.51163 98.464226 
L 135.973532 100.791328 
L 136.435434 100.873015 
L 138.283041 98.154113 
L 138.744943 101.26225 
L 139.206844 100.034135 
L 139.668746 99.526116 
L 140.130648 98.327011 
L 140.59255 99.712806 
L 141.054451 101.818735 
L 141.516353 98.831733 
L 141.978255 101.476029 
L 142.440157 98.412453 
L 142.902059 99.110548 
L 143.36396 100.731655 
L 143.825862 100.332808 
L 144.287764 98.383673 
L 144.749666 101.859343 
L 145.211567 98.641002 
L 145.673469 98.808318 
L 146.135371 99.357359 
L 146.597273 100.605429 
L 147.059175 101.139453 
L 147.982978 99.468571 
L 148.906782 99.728581 
L 149.368683 97.003705 
L 149.830585 100.681438 
L 150.292487 99.069487 
L 150.754389 100.080702 
L 151.21629 100.796073 
L 151.678192 99.758646 
L 152.140094 97.473856 
L 152.601996 102.940987 
L 153.063898 98.510909 
L 153.525799 101.06073 
L 153.987701 98.228953 
L 154.449603 100.351731 
L 154.911505 101.175636 
L 155.373406 96.579464 
L 155.835308 100.883963 
L 156.29721 99.625246 
L 156.759112 96.492112 
L 157.221014 103.429577 
L 157.682915 98.682143 
L 158.144817 100.146269 
L 158.606719 98.389405 
L 159.068621 101.470351 
L 159.530522 99.901782 
L 159.992424 99.780921 
L 160.454326 99.901566 
L 160.916228 99.446503 
L 161.37813 98.709731 
L 161.840031 99.831144 
L 162.301933 101.49125 
L 162.763835 98.861137 
L 163.225737 100.994493 
L 163.687638 97.252045 
L 164.14954 99.727725 
L 164.611442 99.782887 
L 165.073344 101.913902 
L 165.535246 97.131504 
L 165.997147 102.831585 
L 166.459049 97.545983 
L 166.920951 100.19043 
L 167.382853 99.745728 
L 167.844754 99.835104 
L 168.306656 101.587261 
L 168.768558 97.446349 
L 169.23046 99.999945 
L 169.692362 100.468402 
L 170.154263 99.352295 
L 170.616165 99.793644 
L 171.078067 99.941556 
L 171.539969 98.335327 
L 172.00187 100.851897 
L 172.463772 97.903294 
L 172.925674 103.131664 
L 173.387576 98.70535 
L 173.849478 98.888448 
L 174.311379 99.891367 
L 174.773281 100.203095 
L 175.697085 99.281712 
L 176.158986 100.18576 
L 176.620888 99.609212 
L 177.08279 100.452423 
L 177.544692 99.846276 
L 178.006594 100.355782 
L 178.468495 97.048468 
L 178.930397 100.565498 
L 179.392299 100.215288 
L 179.854201 99.451224 
L 180.316102 99.836923 
L 180.778004 99.512167 
L 181.239906 98.335295 
L 181.701808 99.868616 
L 182.16371 103.309836 
L 182.625611 98.148798 
L 183.087513 99.321399 
L 183.549415 98.00845 
L 184.011317 102.914083 
L 184.473218 98.972698 
L 184.93512 98.552229 
L 185.397022 99.619549 
L 185.858924 98.847866 
L 186.320825 102.082126 
L 186.782727 99.425799 
L 187.244629 99.716722 
L 187.706531 99.539525 
L 188.168433 101.257942 
L 188.630334 98.979588 
L 189.092236 97.404797 
L 189.554138 101.231125 
L 190.01604 98.355762 
L 190.477941 100.812497 
L 190.939843 100.012607 
L 191.401745 98.983101 
L 191.863647 98.453515 
L 192.78745 101.598701 
L 193.249352 100.514591 
L 193.711254 97.694763 
L 194.173156 99.520207 
L 194.635057 99.951498 
L 195.096959 99.758778 
L 195.558861 101.669933 
L 196.020763 98.017273 
L 196.482665 99.360759 
L 196.944566 101.791962 
L 197.86837 97.857444 
L 198.330272 100.808984 
L 198.792173 100.10967 
L 199.254075 99.01529 
L 200.177879 100.974975 
L 200.639781 99.805294 
L 201.101682 97.111184 
L 201.563584 99.147181 
L 202.025486 103.885635 
L 202.487388 98.308372 
L 202.949289 100.119867 
L 203.411191 97.952294 
L 203.873093 100.73687 
L 204.796897 98.435288 
L 205.258798 102.248819 
L 205.7207 99.22338 
L 206.182602 98.244505 
L 206.644504 100.942957 
L 207.106405 100.207083 
L 207.568307 98.005404 
L 208.492111 101.421968 
L 208.954013 96.54693 
L 209.415914 101.921783 
L 209.877816 99.089636 
L 210.339718 102.127556 
L 210.80162 97.480089 
L 211.263521 100.739738 
L 211.725423 98.517821 
L 212.187325 97.931773 
L 212.649227 103.05608 
L 213.111129 98.839166 
L 213.57303 98.070025 
L 214.034932 100.738026 
L 214.496834 100.209999 
L 214.958736 100.721396 
L 215.420637 101.001294 
L 215.882539 98.473527 
L 216.344441 99.57636 
L 216.806343 97.954243 
L 217.268245 101.439544 
L 217.730146 100.472514 
L 218.192048 99.971244 
L 218.65395 100.341771 
L 219.115852 97.583907 
L 219.577753 100.854246 
L 220.039655 99.44858 
L 220.963459 100.161099 
L 221.425361 99.069944 
L 221.887262 100.329365 
L 222.349164 98.49808 
L 222.811066 100.041038 
L 223.272968 100.558531 
L 223.734869 97.274137 
L 224.196771 101.381561 
L 224.658673 101.487097 
L 225.120575 97.99314 
L 225.582476 96.972216 
L 226.044378 102.451548 
L 226.50628 98.414672 
L 226.968182 101.587304 
L 227.430084 101.193272 
L 227.891985 97.201547 
L 228.353887 100.493799 
L 228.815789 100.398653 
L 229.739592 98.369537 
L 230.201494 101.075629 
L 230.663396 99.324961 
L 231.125298 101.496837 
L 231.5872 97.601815 
L 232.049101 100.361799 
L 232.511003 100.552703 
L 232.972905 97.757099 
L 233.434807 98.402618 
L 233.896708 100.039784 
L 234.35861 101.035386 
L 234.820512 101.476706 
L 235.282414 97.872737 
L 235.744316 99.785408 
L 236.206217 98.926885 
L 236.668119 102.919849 
L 237.130021 99.194992 
L 237.591923 98.705794 
L 238.053824 98.620044 
L 238.515726 100.243718 
L 238.977628 99.782674 
L 239.43953 102.491037 
L 239.901432 98.265115 
L 240.825235 100.989751 
L 241.287137 97.264126 
L 241.749039 101.575002 
L 242.21094 98.437054 
L 242.672842 99.875857 
L 243.134744 100.612827 
L 243.596646 98.311532 
L 244.058548 99.518832 
L 244.520449 99.659059 
L 244.982351 99.971246 
L 245.444253 99.148634 
L 245.906155 100.350388 
L 246.368056 97.567703 
L 246.829958 99.947747 
L 247.29186 101.611901 
L 247.753762 99.678393 
L 248.677565 99.588093 
L 249.139467 99.849589 
L 249.601369 99.694154 
L 250.063271 98.689648 
L 250.525172 100.544101 
L 250.987074 99.124515 
L 251.448976 101.367051 
L 252.37278 98.731608 
L 252.834681 98.686562 
L 253.296583 101.207617 
L 253.758485 99.747485 
L 254.220387 97.384334 
L 254.682288 101.501616 
L 255.14419 99.289273 
L 255.606092 100.393867 
L 256.067994 99.489132 
L 256.529896 100.989748 
L 256.991797 98.182582 
L 257.453699 101.694143 
L 257.915601 97.832984 
L 258.377503 99.617333 
L 258.839404 102.037085 
L 259.301306 98.875368 
L 259.763208 100.984064 
L 260.22511 97.146643 
L 260.687011 101.1097 
L 261.148913 98.524208 
L 261.610815 99.685034 
L 262.072717 99.943899 
L 262.534619 100.879961 
L 262.99652 99.795118 
L 263.458422 96.336367 
L 263.920324 103.65944 
L 264.382226 97.989532 
L 264.844127 101.044855 
L 265.306029 100.043766 
L 265.767931 99.779436 
L 266.229833 98.540437 
L 266.691735 99.675841 
L 267.153636 99.417544 
L 267.153636 99.417544 
" clip-path="url(#paf3c0a1a25)" style="fill: none; stroke: #800080; stroke-linecap: square"/>
   </g>
   <g id="patch_3">
    <path d="M 56.18 174.04 
L 56.18 25.44 
" style="fill: none; stroke: #000000; stroke-width: 0.8; stroke-linejoin: miter; stroke-linecap: square"/>
   </g>
   <g id="patch_4">
    <path d="M 277.2 174.04 
L 277.2 25.44 
" style="fill: none; stroke: #000000; stroke-width: 0.8; stroke-linejoin: miter; stroke-linecap: square"/>
   </g>
   <g id="patch_5">
    <path d="M 56.18 174.04 
L 277.2 174.04 
" style="fill: none; stroke: #000000; stroke-width: 0.8; stroke-linejoin: miter; stroke-linecap: square"/>
   </g>
   <g id="patch_6">
    <path d="M 56.18 25.44 
L 277.2 25.44 
" style="fill: none; stroke: #000000; stroke-width: 0.8; stroke-linejoin: miter; stroke-linecap: square"/>
   </g>
   <g id="text_15">
    <!-- Trial Data -->
    <g transform="translate(138.200313 19.44)scale(0.12 -0.12)">
     <defs>
      <path id="DejaVuSans-54" d="M -19 4666 
L 3928 4666 
L 3928 4134 
L 2272 4134 
L 2272 0 
L 1638 0 
L 1638 4134 
L -19 4134 
L -19 4666 
z
" transform="scale(0.015625)"/>
      <path id="DejaVuSans-72" d="M 2631 2963 
Q 2534 3019 2420 3045 
Q 2306 3072 2169 3072 
Q 1681 3072 1420 2755 
Q 1159 2438 1159 1844 
L 1159 0 
L 581 0 
L 581 3500 
L 1159 3500 
L 1159 2956 
Q 1341 3275 1631 3429 
Q 1922 3584 2338 3584 
Q 2397 3584 2469 3576 
Q 2541 3569 2628 3553 
L 2631 2963 
z
" transform="scale(0.015625)"/>
      <path id="DejaVuSans-6c" d="M 603 4863 
L 1178 4863 
L 1178 0 
L 603 0 
L 603 4863 
z
" transform="scale(0.015625)"/>
      <path id="DejaVuSans-44" d="M 1259 4147 
L 1259 519 
L 2022 519 
Q 2988 519 3436 956 
Q 3884 1394 3884 2338 
Q 3884 3275 3436 3711 
Q 2988 4147 2022 4147 
L 1259 4147 
z
M 628 4666 
L 1925 4666 
Q 3281 4666 3915 4102 
Q 4550 3538 4550 2338 
Q 4550 1131 3912 565 
Q 3275 0 1925 0 
L 628 0 
L 628 4666 
z
" transform="scale(0.015625)"/>
     </defs>
     <use xlink:href="#DejaVuSans-54"/>
     <use xlink:href="#DejaVuSans-72" x="46.333984"/>
     <use xlink:href="#DejaVuSans-69" x="87.447266"/>
     <use xlink:href="#DejaVuSans-61" x="115.230469"/>
     <use xlink:href="#DejaVuSans-6c" x="176.509766"/>
     <use xlink:href="#DejaVuSans-20" x="204.292969"/>
     <use xlink:href="#DejaVuSans-44" x="236.080078"/>
     <use xlink:href="#DejaVuSans-61" x="313.082031"/>
     <use xlink:href="#DejaVuSans-74" x="374.361328"/>
     <use xlink:href="#DejaVuSans-61" x="413.570312"/>
    </g>
   </g>
   <g id="legend_1">
    <g id="patch_7">
     <path d="M 63.18 169.04 
L 227.158125 169.04 
Q 229.158125 169.04 229.158125 167.04 
L 229.158125 138.68375 
Q 229.158125 136.68375 227.158125 136.68375 
L 63.18 136.68375 
Q 61.18 136.68375 61.18 138.68375 
L 61.18 167.04 
Q 61.18 169.04 63.18 169.04 
z
" style="fill: #ffffff; opacity: 0.8; stroke: #cccccc; stroke-linejoin: miter"/>
    </g>
    <g id="line2d_17">
     <path d="M 65.18 144.782188 
L 75.18 144.782188 
L 85.18 144.782188 
" style="fill: none; stroke: #1f77b4; stroke-linecap: square"/>
    </g>
    <g id="text_16">
     <!-- gaze x -->
     <g transform="translate(93.18 148.282188)scale(0.1 -0.1)">
      <defs>
       <path id="DejaVuSans-67" d="M 2906 1791 
Q 2906 2416 2648 2759 
Q 2391 3103 1925 3103 
Q 1463 3103 1205 2759 
Q 947 2416 947 1791 
Q 947 1169 1205 825 
Q 1463 481 1925 481 
Q 2391 481 2648 825 
Q 2906 1169 2906 1791 
z
M 3481 434 
Q 3481 -459 3084 -895 
Q 2688 -1331 1869 -1331 
Q 1566 -1331 1297 -1286 
Q 1028 -1241 775 -1147 
L 775 -588 
Q 1028 -725 1275 -790 
Q 1522 -856 1778 -856 
Q 2344 -856 2625 -561 
Q 2906 -266 2906 331 
L 2906 616 
Q 2728 306 2450 153 
Q 2172 0 1784 0 
Q 1141 0 747 490 
Q 353 981 353 1791 
Q 353 2603 747 3093 
Q 1141 3584 1784 3584 
Q 2172 3584 2450 3431 
Q 2728 3278 2906 2969 
L 2906 3500 
L 3481 3500 
L 3481 434 
z
" transform="scale(0.015625)"/>
       <path id="DejaVuSans-78" d="M 3513 3500 
L 2247 1797 
L 3578 0 
L 2900 0 
L 1881 1375 
L 863 0 
L 184 0 
L 1544 1831 
L 300 3500 
L 978 3500 
L 1906 2253 
L 2834 3500 
L 3513 3500 
z
" transform="scale(0.015625)"/>
      </defs>
      <use xlink:href="#DejaVuSans-67"/>
      <use xlink:href="#DejaVuSans-61" x="63.476562"/>
      <use xlink:href="#DejaVuSans-7a" x="124.755859"/>
      <use xlink:href="#DejaVuSans-65" x="177.246094"/>
      <use xlink:href="#DejaVuSans-20" x="238.769531"/>
      <use xlink:href="#DejaVuSans-78" x="270.556641"/>
     </g>
    </g>
    <g id="line2d_18">
     <path d="M 65.18 159.460313 
L 75.18 159.460313 
L 85.18 159.460313 
" style="fill: none; stroke: #ff7f0e; stroke-linecap: square"/>
    </g>
    <g id="text_17">
     <!-- gaze y -->
     <g transform="translate(93.18 162.960313)scale(0.1 -0.1)">
      <defs>
       <path id="DejaVuSans-79" d="M 2059 -325 
Q 1816 -950 1584 -1140 
Q 1353 -1331 966 -1331 
L 506 -1331 
L 506 -850 
L 844 -850 
Q 1081 -850 1212 -737 
Q 1344 -625 1503 -206 
L 1606 56 
L 191 3500 
L 800 3500 
L 1894 763 
L 2988 3500 
L 3597 3500 
L 2059 -325 
z
" transform="scale(0.015625)"/>
      </defs>
      <use xlink:href="#DejaVuSans-67"/>
      <use xlink:href="#DejaVuSans-61" x="63.476562"/>
      <use xlink:href="#DejaVuSans-7a" x="124.755859"/>
      <use xlink:href="#DejaVuSans-65" x="177.246094"/>
      <use xlink:href="#DejaVuSans-20" x="238.769531"/>
      <use xlink:href="#DejaVuSans-79" x="270.556641"/>
     </g>
    </g>
    <g id="line2d_19">
     <path d="M 146.155 144.782188 
L 156.155 144.782188 
L 166.155 144.782188 
" style="fill: none; stroke: #a52a2a; stroke-linecap: square"/>
    </g>
    <g id="text_18">
     <!-- gaze x vel -->
     <g transform="translate(174.155 148.282188)scale(0.1 -0.1)">
      <defs>
       <path id="DejaVuSans-76" d="M 191 3500 
L 800 3500 
L 1894 563 
L 2988 3500 
L 3597 3500 
L 2284 0 
L 1503 0 
L 191 3500 
z
" transform="scale(0.015625)"/>
      </defs>
      <use xlink:href="#DejaVuSans-67"/>
      <use xlink:href="#DejaVuSans-61" x="63.476562"/>
      <use xlink:href="#DejaVuSans-7a" x="124.755859"/>
      <use xlink:href="#DejaVuSans-65" x="177.246094"/>
      <use xlink:href="#DejaVuSans-20" x="238.769531"/>
      <use xlink:href="#DejaVuSans-78" x="270.556641"/>
      <use xlink:href="#DejaVuSans-20" x="329.736328"/>
      <use xlink:href="#DejaVuSans-76" x="361.523438"/>
      <use xlink:href="#DejaVuSans-65" x="420.703125"/>
      <use xlink:href="#DejaVuSans-6c" x="482.226562"/>
     </g>
    </g>
    <g id="line2d_20">
     <path d="M 146.155 159.460313 
L 156.155 159.460313 
L 166.155 159.460313 
" style="fill: none; stroke: #800080; stroke-linecap: square"/>
    </g>
    <g id="text_19">
     <!-- gaze y vel -->
     <g transform="translate(174.155 162.960313)scale(0.1 -0.1)">
      <use xlink:href="#DejaVuSans-67"/>
      <use xlink:href="#DejaVuSans-61" x="63.476562"/>
      <use xlink:href="#DejaVuSans-7a" x="124.755859"/>
      <use xlink:href="#DejaVuSans-65" x="177.246094"/>
      <use xlink:href="#DejaVuSans-20" x="238.769531"/>
      <use xlink:href="#DejaVuSans-79" x="270.556641"/>
      <use xlink:href="#DejaVuSans-20" x="329.736328"/>
      <use xlink:href="#DejaVuSans-76" x="361.523438"/>
      <use xlink:href="#DejaVuSans-65" x="420.703125"/>
      <use xlink:href="#DejaVuSans-6c" x="482.226562"/>
     </g>
    </g>
   </g>
  </g>
 </g>
 <defs>
  <clipPath id="paf3c0a1a25">
   <rect x="56.18" y="25.44" width="221.02" height="148.6"/>
  </clipPath>
 </defs>
</svg>
